<?xml version="1.0"?>
<svg width="1000" height="1000" xmlns="http://www.w3.org/2000/svg" xmlns:svg="http://www.w3.org/2000/svg" stroke-linejoin="round" stroke-width=".5" version="1.2">
 <g class="layer">
  <title>Layer 1</title>
  <g id="features">
   <path d="m171.9,241.8l1.6,-4l1.1,-2.1l0.4,-1.1l0.4,-1.7l-0.1,-1.4l-0.4,-3.7l0.2,-1.2l0.9,-1l2.1,-0.5l0.9,-0.5l0.9,-1.4l0.4,-1.3l0.5,-1.1l1.4,-0.9l2.7,-0.1l2.4,1.1l2.3,0.6l2.5,-1.8l1,-1.4l0.4,-0.6l0.3,-0.8l-0.1,-1.7l0.6,-1.2l1.1,-0.7l1.3,-0.4l0.7,-1.4l1,-0.8l0.9,-0.5l0.7,-0.8l0.6,-1.3l0.1,-1.1l0.1,-1.1l0.1,-1.6l1.1,-4.7l0.4,-2.5l-0.1,-2.6l-0.7,-2.4l-1.1,-1.9l-2.7,-3.3l-2.9,-2.8l-0.5,-1l-0.2,-1.1l-0.4,-1.1l-1,-0.8l1.8,-2.1l0.6,-2.9l-0.1,-6.4l15,-0.6l7.3,-2.2l2.7,0.1l3.8,0.8l1.5,0.3l3.6,0l3.5,-0.7l1.6,-0.9l3.7,-3.7l2.4,-1.1l2.5,-0.1l7.9,1.1l0.4,0.1l4.5,4l2.9,0.6l0.9,-0.6l2.4,-2.4l1,-0.8l0.6,-0.1l1.5,0.1l0.5,-0.2l0.4,-0.8l0.2,-1.7l0.2,-0.6l2.9,-1.3l5.3,1.2l2.1,-0.4l0.7,4.7l3.5,1.7l1.6,1.7l-0.3,1.8l-1.8,1.6l-2,0.8l-3.9,0.9l-3.7,-0.2l-0.7,1.7l1.6,1.8l1.6,6.2l1.1,2l3.6,1.3l0,1.9l-2.4,5.9l1.7,0.6l1.9,0l4.3,1.4l1.8,-0.1l1.7,1l2.3,0l-2.5,5.9l0.1,3.8l2.8,3.7l-1.4,3.5l0.1,1.9l1.6,1.4l2.3,4.4l1.5,1.7l3.8,1.8l3.4,2.3l0,1.9l1.7,1l5.8,-0.9l0.8,2l-0.3,1.8l0.4,1.9l3.4,3.9l0.5,3.8l1.1,2l4.8,2.3l-1.6,3l-0.3,4l-1.4,1.6l-4.1,2l-0.7,2l0.3,2.7l-2.4,2.9l-0.9,3.5l-3.1,5l-5,5.1l-0.9,3.5l-2.1,3.7l-4.1,2.3l-4.9,4.7l-2.1,1.5l3.4,2.1l0.7,1.9l-0.3,1.8l0.9,3.8l-0.3,1.8l-1.3,1.2l-5.4,-0.8l-7.7,1.7l-3.7,-0.2l-10.3,-2.8l-15.1,-2l-4,1.6l-2.1,1.5l-2.4,3.3l-2,1.2l-4.3,1.5l-1.9,0.1l-1.3,-1.3l0,-1.8l-6.8,-4l-3.6,-0.2l-5.8,1.3l-3.9,1.6l-1.8,-0.6l-1.9,-4l-1.4,-7.5l-3.2,-3l2.7,-5.5l0.2,-4l-1.6,-1.3l-4,1.9l-2.8,-3.7l-1.3,-5.7l-1.6,-1.3l2.6,-4.8l0.3,-2.1l-1.3,-5.7l-2.8,-6l-4.4,-5.4l-2,-6.2l-1.5,-2.1l-3.9,0.9l-1.3,1.7l-2.1,1.1l-1.9,0.1l-1.2,-0.9l-0.3,-0.5z" id="GRC"/>
   <path d="m171.9,241.8l0.3,0.5l1.2,0.9l1.9,-0.1l2.1,-1.1l1.3,-1.7l3.9,-0.9l1.5,2.1l2,6.2l4.4,5.4l2.8,6l1.3,5.7l-0.3,2.1l-2.6,4.8l1.6,1.3l1.3,5.7l2.8,3.7l4,-1.9l1.6,1.3l-0.2,4l-2.7,5.5l3.2,3l1.4,7.5l1.9,4l1.8,0.6l3.9,-1.6l5.8,-1.3l3.6,0.2l6.8,4l0,1.8l-2.8,-0.8l-1.9,0.8l-1.1,1.7l-2,1.1l-1,2l-0.7,1.8l1.7,7.9l0.1,3.7l-1.8,0.1l-1.6,-1.4l-4.1,-0.2l-2,1.1l-1.3,1.6l1.1,4.2l0.2,3.7l1.5,2.1l1.7,0.6l1.2,2l-0.6,3.5l0.9,3.8l-1.4,1.6l-0.3,1.8l1.6,2l0.7,2.3l-0.4,2.2l0.8,2.3l4.8,4l1.5,4.6l3.6,2.7l5.4,0.8l1.9,-0.4l2.4,2.9l1.6,3.9l-5.4,10.4l0.4,2.2l2.7,4l-2.4,0.8l-5.4,4.6l-4,1.9l-1.9,0.4l-12.8,0.2l-2,0.8l-1.7,1.6l-1,3.5l0.1,1.4l-0.5,0.3l-1.8,2l2.1,1.7l-5.7,-0.8l0,-0.9l-1.2,-0.3l-1.2,-0.8l-1,-0.9l-0.4,-0.3l-1.2,0.7l-1,-0.6l-0.7,-1.2l-0.3,-1.2l0.2,0l0.3,-0.6l0.9,-0.2l0,-0.9l-0.7,0l-1,0.6l-1.2,0.1l-1.1,-0.6l-0.8,-1.1l-0.8,0l-0.6,1.3l-1.8,1.1l-0.4,0.8l0.5,1.3l1.1,0.3l0.5,0.6l-4.3,-0.1l1.5,-0.7l-0.2,-0.9l0,-1.3l-0.3,-0.9l-0.9,0.4l0,-0.5l-0.1,-0.3l0,-0.3l0.2,-0.1l-0.1,-0.7l-0.9,-0.1l-0.5,0.1l-0.3,0.5l-0.4,0.5l1.3,-2.9l-0.4,-2.2l-1.2,-0.8l-1.2,1.3l-0.6,-0.9l-0.4,0.9l-0.6,0.8l-0.8,0.5l-1.1,0.5l0,1l1.5,0.3l-0.4,1.1l0,1.5l-0.4,1.6l-0.7,1l-0.8,0.5l-0.8,0.7l-0.4,1.4l-1.5,-1l0.1,1.4l0.2,0.6l0.4,0.1l0.8,-0.2l4.8,4l2,0.9l0.6,1l0.2,0.9l-0.3,0.4l-0.9,-0.2l-1.8,-1.1l-3,-1l-0.7,0.1l-0.9,0.4l0,0.6l-1.1,1.6l-1.2,1l-0.6,-1l-0.3,-1.2l-0.7,-0.9l-0.8,-0.7l-0.3,-0.7l-0.1,-0.8l-0.2,-0.4l-0.3,-0.3l-0.1,-0.4l0.2,-0.8l0.5,-0.6l0.5,-0.4l0.2,-0.4l-1,-4.4l-2,-3.2l-2.7,-2.3l-3.3,-1.9l-3.3,-2.6l-8,-10.2l-3.1,-2.1l-0.9,-1.1l0.3,-1.2l-0.5,-1.2l-0.2,-1.6l0.1,-1.5l0.6,-1.1l0,-1l-1.2,0.5l-1,0.2l-0.8,-0.4l-0.5,-1.2l-1.5,0.8l-1.5,0l-1.3,-0.7l-1.3,-1.1l-2.9,1.2l-4.1,-2.1l-3.3,-4l-0.3,-4.1l-1.3,-1.4l-0.8,-1.6l-1.1,-1.4l-2.4,-0.2l0,-0.9l0.7,0l0,-0.9l-0.8,-1l-1.2,-2.1l-0.8,-0.6l1.8,-0.6l2.1,0.1l1.4,-0.4l-0.3,-1.8l-1,-1.1l-4,-2.6l0,-0.9l1.8,0.1l1.3,0.4l1,-0.1l0.9,-1.3l0,-0.9l-1.1,-0.7l-1.8,-0.9l-1.4,-0.1l0,1.7l-0.9,-0.8l-1.2,-0.7l-1.1,-0.2l1.1,-1.1l-1.9,-0.5l-1.8,-0.2l-1.7,0.2l-1.6,0.5l0.8,-1.1l0.4,-1.2l0.2,-1.4l-0.1,-1.7l0.8,0.9l0.7,-0.1l0.7,-0.7l0.7,-1l0,-0.4l0,-1.7l0,-0.7l0.2,-0.1l1,-0.7l0.2,0l-0.6,-2.7l-1.8,-1.2l-1.7,-0.6l-0.8,-0.6l-0.3,-0.6l-1.7,-1.3l-0.5,-0.3l-1.2,-0.3l-0.8,-0.7l-0.8,-0.9l-4.5,-1l-2.4,-1l-1.2,-0.7l-0.6,0.1l-0.4,-0.1l1.6,-1.1l3.5,1.2l4.1,1.3l4.7,2.5l2.9,2.6l2.1,1l1.6,-0.4l0.4,-0.7l-0.1,-1l0.1,-1l0.9,-0.9l0.8,-0.3l0.9,0l0.8,0.3l0.9,0.6l0.4,-3l1.5,-1.5l1.9,-1.1l1.4,-1.7l0.3,-1.5l-0.3,-0.7l-0.5,-0.6l-0.4,-1.1l-0.2,-0.4l-0.7,-1l-0.3,-0.4l0.1,-0.4l0.7,-1.6l0.1,-0.7l-0.3,-1.1l-0.6,-0.5l-0.3,-0.6l0.7,-1l0.9,-0.3l1,0.1l0.2,0.1l3.8,1.4l1.8,1.1l1.8,0.2l1.7,-1.8l0.9,-2.7l-0.4,-2.3l-4.8,-7.9l-2.4,-2.4l-0.6,-0.8l-1.5,-8.2l-0.5,-1l1.2,-0.4l5.2,-0.2l1.7,-0.3l0.4,-2.4l0.8,-2.4l1.2,-2.1l1.4,-1.6l1.9,-0.9l3.4,0.4l1.7,-0.9l1.8,-0.5l5.5,0.8l2.5,-0.3l3.9,-1.8l2.6,-1.2l0.7,-0.6l0.4,-0.9l1.6,-4.4l0.1,-0.6l-0.5,-2.5l0,-0.7l-0.3,-1.5l0,-0.8l0.5,-0.7l1.5,-0.5l0.6,-0.4l1.1,-3.2l0.1,-2.8l-0.3,-2.7l0.5,-3.1l0.8,-1.3l1.1,-0.8l1.2,-0.5l0.8,-0.8l0.3,-0.7z" id="GRD"/>
   <path d="m311.1,260.9l-0.3,-2.7l0.7,-2l4.1,-2l1.4,-1.6l0.3,-4l1.6,-3l-4.8,-2.3l-1.1,-2l-0.5,-3.8l-3.4,-3.9l-0.4,-1.9l0.3,-1.8l-0.8,-2l-5.8,0.9l-1.7,-1l0,-1.9l-3.4,-2.3l-3.8,-1.8l-1.5,-1.7l-2.3,-4.4l-1.6,-1.4l-0.1,-1.9l1.4,-3.5l-2.8,-3.7l-0.1,-3.8l2.5,-5.9l-2.3,0l-1.7,-1l-1.8,0.1l-4.3,-1.4l-1.9,0l-1.7,-0.6l2.4,-5.9l0,-1.9l-3.6,-1.3l-1.1,-2l-1.6,-6.2l-1.6,-1.8l0.7,-1.7l3.7,0.2l3.9,-0.9l2,-0.8l1.8,-1.6l0.3,-1.8l-1.6,-1.7l-3.5,-1.7l-0.7,-4.7l0.9,-0.2l1.3,-1.4l0.3,-1.5l0.1,-1.5l0.1,-1.1l1.1,-1.3l3.8,-2.7l0.1,0l1.3,-2.6l3.7,-3.5l1.4,-2.1l0.2,-1l0,-0.5l0.1,-2.3l0.4,-1.2l0.8,-1l1.7,-1.2l1,-0.7l3.1,-1.7l6.6,-2l0.4,-0.3l1.1,-1.2l0.4,-0.3l0.8,0.3l0.3,0.6l0.2,0.7l0.2,0.4l3.4,1.9l0.8,0.3l2.1,-0.8l3.7,-3.4l2.4,-1.1l2.3,-0.2l0.8,0.1l1.2,0.2l3.9,1.2l3.1,0.4l1,0.3l0.2,0.5l0.2,1.8l0.2,0.5l0.6,0.1l0.9,-0.6l1.9,-0.1l2.6,-0.4l1.3,0.1l1,0.4l2.1,1.5l1.2,0.4l3.1,0.1l1.6,-0.2l1.4,-0.3l2,-0.6l1.7,0l3.3,0.5l2.3,-0.2l1.5,-0.6l0.4,-0.1l1.8,-1.5l1.7,-2.3l0.3,-1.1l-0.1,-1.2l0.3,-1l1.6,-0.5l1.2,0.3l0.1,0.2l0.5,0.6l0.4,1.1l0.8,1.1l1.9,1.6l1.3,0.7l1.1,-0.8l1.2,-2.8l1,-5.3l0.4,-10.8l0.1,-0.4l1,-3.9l1.1,-1l1.9,-1.7l1.6,-0.3l3,-0.5l9.4,0.7l20.4,3.1l4.3,-0.5l2.3,-0.6l1.1,-0.7l0.9,-0.9l0.6,-1.4l0.1,-2.5l0.4,-1l1.5,-1.4l2.3,-1.5l2.4,-1l1.8,-0.2l1.9,1.4l1,1.6l1,1l2.2,-0.3l1.8,-1l3.2,-2.3l1.9,-0.6l10.1,0.3l6.8,3.5l3.5,0.2l1.2,-0.9l0.1,0.3l-0.7,2.8l1.6,5.9l8.7,4.3l0,1.8l-1.1,1.7l-0.7,3.7l0.8,2l4.8,4.3l6.2,7.5l5.3,4l5.4,1.3l3.2,3.3l1.8,-1.9l2,-0.4l1.8,0.3l2,1.5l2.2,4.2l4.9,4.3l2.4,1.2l-0.7,1.7l1.1,4l-0.4,1.8l-1.1,1.7l0,1.8l-1.4,1.6l-5.8,4.6l-2.2,3.3l-5.4,4.6l-2.1,1.1l-8.8,2l-0.3,0.8l0,0.2l-1.3,-0.3l-3.3,0.4l-5.7,2.3l-2.3,1.5l-2.2,2l-1.4,2.2l-0.5,3.5l0.9,2.9l1.8,2.1l2.4,0.7l1.5,1l1.7,2.5l1.4,2.9l0.7,2.4l0.6,0.2l3.6,3.1l1.3,0.5l1.6,0.1l1.6,-0.1l1.2,-0.5l0.6,1.5l2,1.9l0.1,1.2l-0.9,0.6l-7,0.9l-1.6,1.6l-0.4,2.6l0.8,3.6l4.2,6.4l1,1l3.3,1.6l0.6,0.7l3.9,0.9l1.1,0.4l1.1,-0.5l2.8,-0.4l0.2,-0.2l0.2,0.4l-0.1,3.4l0.1,2.3l-0.1,1.8l-0.4,1.3l-0.8,-0.6l-3.7,-3.9l-2.1,-1.7l-1.5,-0.5l-3.8,0.5l-3.8,-1l-1.5,0.1l-5.3,2.6l-2.3,0.5l-3,-1.3l-0.3,0.7l-0.7,1.2l-0.4,-0.1l-1.8,2.6l-0.6,2.3l0.2,2.2l1.6,4.3l0.5,0.7l0.8,0.9l3.5,2.3l0.7,2.2l1.4,1.7l1.5,0.9l0.7,-0.2l7,3.3l1.3,-0.4l1.7,0.6l1.7,1.4l1.3,1.5l1.5,1.1l4,1.5l1.2,1.6l-0.2,1.2l-1.3,1.3l0.1,1.3l0.6,0.8l1.8,1.3l0.4,1l-0.4,1.2l-0.7,0.2l-0.7,-0.1l-0.3,0.6l0.2,1.5l0.7,0.6l0.9,-0.1l1,-0.7l0,1.4l0,0.9l0.3,0.7l0.4,0.7l-2.7,2.3l-0.5,1.2l1.1,1.1l0,0.9l-2,0.1l-0.9,0.8l0.3,0.9l1.9,0.1l0,1l-5.3,0.1l-2.1,-0.5l0.3,-1.6l0,-0.9l-0.7,0l-0.8,0.7l-0.7,-0.2l-0.3,-0.9l0.5,-1.4l-3.7,-2.1l-0.6,-0.2l-0.5,-1.5l-1.2,-1l-1.4,-0.3l-0.7,0.6l-0.1,0.6l0.4,1.2l-3.8,-6.4l-0.5,-1.5l0.7,-2.2l0.1,-1.3l-0.4,-0.6l-1.1,-0.5l-0.6,-1.1l-0.4,-1.2l-0.4,-1l-9.2,-12.3l-3.4,-2.4l-2,-0.6l-8.5,-0.6l-5.7,-3.4l-4.7,-1.3l-4.2,0.2l-3.4,2.2l-2.5,4.5l-0.3,2.6l0.8,2.3l1,2.2l0.6,2.5l0.3,0.8l0.8,0.5l2.1,0.1l0.9,0.3l0.6,0.7l0.9,1.7l5.5,7.9l3.1,3.4l10.7,5.9l6.9,1.6l0.3,0.8l0,1.2l0.3,1.4l0.9,1.6l1.3,1.1l1.6,0.7l2.1,0.2l1.5,0.5l-0.8,0.9l-1.9,1l-1.9,0.5l-8.9,-1.5l-15,-6.4l-2.5,-0.5l-7.6,1.3l-1.2,0.6l0.5,-1.5l1.3,-2.6l0.3,-1.5l-0.3,-1.1l-1.5,-2.1l-0.3,-0.9l-0.8,-3.2l-1.8,-2.3l-1.9,-2l-1.1,-2.1l1.4,-4.3l0.5,-5.1l-0.6,-4.8l-2,-3.4l-4.2,-2.4l-2.3,-0.8l-3.8,-0.9l-1.7,-1.1l-1.7,-0.8l-1.8,0.5l-5.3,-4l-1.1,-0.1l-1.1,-1l-2.4,-0.6l-2.4,-1l-1.9,-3.4l-4.8,-3.8l-1.9,-0.9l-1.8,-0.3l-4.1,0.3l1,-2.1l-0.8,-2.2l-3,-4l0.3,-0.1l0.3,0l0.1,-0.1l0,-0.6l-3.8,-4.3l-0.9,-2.3l2.2,-0.9l6.6,-0.4l3.5,-0.7l1.5,-1.2l0.7,-1.2l1.3,-1l0.8,-1.4l-0.7,-2.4l-2.5,-1.6l-0.6,-0.3l-0.5,-0.4l0.2,-0.9l0.6,-1.5l-1.6,-3.5l-2.4,-1.8l-2.8,-0.4l-3,1.1l0.7,2.5l-0.2,2.1l-0.8,1.6l-1.1,1.2l-1.6,0.9l-1,0.7l0.1,0.3l-2.1,0l-0.9,-0.3l-0.9,-0.7l-2,1.4l-1.3,1.7l-0.3,2l0.8,2.4l-0.7,0l-0.7,-1l0,2l-0.7,0l0,-1l-0.7,0l-0.5,1.6l-0.8,-0.1l-1.1,-0.9l-1.1,-0.6l-0.1,-0.7l-1.5,0.1l-1.6,1.4l-0.2,1.6l2,1.2l-1,0.1l-0.6,0.3l-0.4,0.7l-0.1,1.3l-0.5,0.7l-0.9,-0.2l-1.5,-1l-2.5,0.1l-1.3,0.5l-1.1,1.2l1.4,1.4l1.1,1.9l0.5,2.1l-0.2,2l1.2,1.1l1,1.6l1.2,1.3l1.9,0.6l0.3,1.4l-1.4,3.1l-2.8,4.8l-3.1,9.3l0.1,1.5l-4,8.6l-0.3,3l0.8,2.3l1.1,2.2l0.5,3.1l-0.4,3l0.3,1.5l1.2,0.6l0.5,0.6l1.2,3.9l5.4,4.6l1,0.5l0.5,0.5l2.5,0.8l0.5,0.5l0.3,0.5l0.9,-0.1l0.2,0.6l-0.1,2.4l0.1,0.6l-1.1,0.2l-5.3,0.9l-1.6,-1.4l-1.8,-0.3l-8.2,2.3l-3.9,-1.4l-3.1,-3.1l-2.3,-4.1l-6.9,-4.8l-3.1,-3.5l-1.2,-3.9l0.2,-5.8l-0.7,-2l-3.4,-2l-4.3,1.5l-1.8,1.5l-2.1,3.4l-2.1,1.8l-1.8,-0.6l-0.8,-2l0.4,-2.1l-0.4,-2l1,-1.6l0.3,-1.8l-5.3,-1.3l-2.1,1.2l-1,1.6l-0.8,-1.9z" id="GRB"/>
   <path d="m491.9,178l0,-0.2l0.3,-0.8l8.8,-2l2.1,-1.1l5.4,-4.6l2.2,-3.3l5.8,-4.6l1.4,-1.6l0,-1.8l1.1,-1.7l0.4,-1.8l-1.1,-4l0.7,-1.7l-2.4,-1.2l-4.9,-4.3l-2.2,-4.2l-2,-1.5l-1.8,-0.3l-2,0.4l-1.8,1.9l-3.2,-3.3l-5.4,-1.3l-5.3,-4l-6.2,-7.5l-4.8,-4.3l-0.8,-2l0.7,-3.7l1.1,-1.7l0,-1.8l-8.7,-4.3l-1.6,-5.9l0.7,-2.8l-0.1,-0.3l0.3,-0.2l2.6,-2.6l2,-0.7l3.4,0l3.4,0.7l1.6,-0.4l2.4,-3.9l1.5,-0.7l1.8,0.1l2.2,-0.3l2.1,-0.5l1.7,-0.8l2.8,-2.6l0.8,0.1l4.8,3.5l1.5,-0.1l1.8,-1.7l0.5,-0.4l0.6,-0.1l0.5,-0.3l0.3,-1l2.3,1.5l1.2,0.3l1.2,-0.6l0.6,-1l0.1,-1.2l-0.3,-3l-0.3,-4.4l3,-1.5l4.1,0.4l3.1,0.9l0.8,0.6l0.5,0.8l0.4,0.6l0.8,0.1l0.3,-0.5l0.4,-2.2l0.4,-0.8l1.5,-1.4l0.2,-0.1l1.7,-1.1l1.9,-0.8l1.8,-0.2l1.7,1.9l2,1.2l0.1,1.2l-0.2,1.2l0.1,0.8l1,0.3l0.7,-0.2l0.7,-0.4l0.9,-0.2l2.7,0.4l0.9,-0.1l3.5,-1.1l1.6,-0.1l2.1,0.3l1.6,-0.3l2.1,-3l2.2,-0.5l3,-1.2l2.1,2l1.3,3.6l0.3,3.8l0.3,1.1l0.5,0.6l0.5,0.6l0.5,0.8l0.4,0.4l1,0.6l0.4,0.4l0.1,0.7l-0.3,1.5l0.1,0.5l1.6,1.5l1.4,0.4l3.6,-0.1l-0.7,1.4l2.4,0l2,0.3l1.9,0.9l2,1.8l3.5,4.5l2.2,2l2.1,0.1l0.9,-2l-0.3,-2.4l0.3,-1.8l4,-0.3l2.1,-0.8l1.1,-0.2l1.3,0.2l3.2,2l16.8,7.1l1.7,-0.3l0.5,0l0.3,0.3l0.8,1.4l0.4,0.4l3.8,1.9l0.4,0.1l2,1.7l4.4,6.1l2,1.2l2.4,0.3l2.4,-0.1l17.2,-5.6l2.7,-0.5l1,0.1l0.8,0.3l0.8,0l1,-0.4l0.9,-1.1l0.7,-1.5l0.8,-1.3l1.4,-0.5l9.1,0.7l1,0.3l2.1,1.3l1,0.3l1.1,-0.2l0.7,-0.5l0.8,-0.7l1.2,-1l1.2,-0.4l3.6,-0.2l3.8,-2.6l1.1,-0.4l2.2,0.8l3.1,3.4l2,0.8l1.4,-0.3l2.6,-1.3l1.4,0l1.4,0.3l1.1,-0.2l2.4,-1.1l2.7,-1.9l1.3,-0.6l8.8,-2.1l0.8,0.2l0.6,-0.3l1.2,-1.9l1.6,-3.5l1.1,-3.4l0.6,-0.8l0.6,-0.3l0.5,-0.3l0.2,-1.1l-0.3,-0.8l-1.4,-1.4l-0.5,-0.6l-1,-2.4l0.1,-0.9l1.2,-1.3l0.4,-1.7l0.2,-1.5l-0.2,-1.6l-0.5,-1.8l-0.6,-0.7l-1.6,-0.3l-0.5,-0.4l-0.2,-1l0.1,-2.1l0,-1.1l-1,-3.5l-0.6,-1.1l-0.9,-1.1l-1.1,-0.5l-1.5,-0.3l-1.5,-0.7l-0.7,-1.2l-0.5,-0.6l-0.5,-1.7l-0.2,-1.9l0,-2l0.6,-1.7l0.7,-0.8l0.7,-0.2l0.7,-0.1l0.7,-0.3l2.8,-2.2l2.8,-0.8l5.6,-0.2l2.2,-2.1l1.5,0.1l0.9,0.5l2.7,3.1l1.3,1.2l2.2,0.6l3.9,-0.4l2.7,-0.2l1.9,0.5l2.7,2.6l4,1l1.8,0.8l1.6,0.4l-0.3,2.1l-0.9,1.7l5.8,4.4l4.7,2.4l1,1.1l2,-3l-0.1,1.1l0.1,1l0.3,0.9l0.4,0.8l-0.5,1.6l0.4,3.6l-0.6,1.4l1.1,1.9l0.5,2.4l0.5,5.1l1.6,6.7l0.5,2.7l0,2.9l-0.5,2.9l-0.9,2.4l-1.4,1.3l-1.9,0.2l-2.2,-0.6l-2,-1.1l-1,-1.4l-5.2,5.6l-1.1,0.2l-0.5,0.4l-0.2,0.6l-0.6,0.7l-2.9,1.8l-2.7,2.5l-1.7,0.9l-6.5,0.7l-1.2,1l1.6,2.4l-1.1,3l-0.4,2.6l0.3,2.5l1.2,2.3l-1.9,3l0,1.2l1.5,0.4l0.8,0.6l-1.8,3.6l0.3,1.9l1.4,3.1l0.9,1.4l2.7,1.4l0.1,1.6l-0.7,1.6l-0.9,0.7l-1.5,0.2l-0.9,0.5l-0.3,0.9l0.3,1.2l1.1,1.4l1,0.5l0.3,0.4l-1.1,1.4l-1.4,1.1l-2.9,1.4l-1.3,1.3l0.3,0.6l0.6,0.9l0.1,0.9l-1.4,0.4l-0.8,-0.2l-0.8,-0.4l-0.5,-0.6l-0.3,-0.8l-0.7,0l-0.8,2.7l-0.6,1.3l-0.7,0.8l-0.7,0l-0.2,-0.6l-0.5,-1.3l0,1.4l-0.1,0.8l-0.4,0.3l-1,0.2l0,0.7l0.1,0.2l0.3,0l0.3,0.1l-1,0.5l-0.3,0.5l-0.1,0.9l0.8,1.5l-5.6,4.8l-1.5,2.4l-0.9,3.7l-2.3,2.7l-3.1,1.5l-3.9,-0.3l0.3,-0.6l-1.1,-2.1l-0.3,-2.7l-0.6,-2.5l-2.2,-1l0,-1l1.4,0.1l1.9,-0.3l1.6,-0.5l0.7,-0.6l-0.7,-1.4l-1.5,-0.2l-1.7,0.4l-1.1,0.7l-0.4,-0.9l-0.2,-1.1l-0.8,0l0,1.1l0.5,0.7l0.3,1.2l-0.8,0l-1.6,-1.9l-3.2,-2l-3.4,-1l-2.2,1.1l-1.8,-0.5l-5.5,-0.1l-1.2,-0.8l-1.1,-0.2l-7.3,0.7l-4.3,-0.9l-4.5,-1.6l-4.4,-0.8l-3.8,1.4l-0.9,-0.2l-2.1,-0.5l-2.2,-1.1l-1.5,-1.5l-1.6,-1l-5.1,-1.1l-1.8,-0.1l-3.7,-1.8l-4.4,-3.1l-4.2,-1.3l-3.4,3.4l-0.7,0l-0.1,-0.7l-8,-1.5l-2.2,-1.2l-1.3,-1l-0.9,-0.2l-0.4,-0.3l0.2,-1.7l0.4,-1.1l0.9,-0.9l1,-0.6l1.2,-0.2l-1.9,-1.3l-1.4,-0.7l-8.3,0.1l-1.9,0.5l0.1,2.2l-2.1,2l-1.3,0.7l-1.5,0.2l0.7,2.5l-0.9,1.1l-1.8,0.2l-1.9,-0.1l-1.4,0.5l-3.3,1.9l-1.7,0.4l-2.9,2.1l-3,4.2l-3.3,2.8l-3.7,-1.6l-3.9,1.7l-2,0.2l-1.9,-1l0.5,-0.3l0,-0.1l0.2,-0.5l-3.5,-1.9l-2.2,2l-0.6,0.8l-0.7,0l-1,-2.1l-1,-1.9l-1.4,-1.7l0.5,-1.8l-1.5,-0.7l-1.1,-1l-0.7,-1.5l-0.2,-1.9l-5,-0.9l-1.3,-0.5l-1,0.8l-1.2,0.2l-1.1,0.4l-0.9,1.4l-2.2,-0.9l-2.8,0.3l-2.5,1.3l-2,3l-4.6,3.8l-1.5,0.9l1.2,1l0.8,1.3l-0.1,1l-2.2,0.6l-0.4,0.5l0,0.7l0.4,0.9l0.6,0.4l1.7,-0.1l0.9,0.3l-13.3,7.8l-10.4,6.2l-3.8,0.9l-4.4,-0.3l-4.5,-1.2l-11.6,-6.2l-2,-0.4zm188.7,45.1l0.5,2l-1.3,1.3l-9.6,3.4l-2.3,-0.2l-3.6,-2.1l-6.8,-5.5l-1.4,-1.7l-0.9,-1.8l1.9,0l6,-3.5l2.7,-1l3,0l8.3,2.6l1.6,1.1l1.7,1.7l0.9,1.9l-0.7,1.8zm-92.9,-38.9l-2.2,0.1l-0.6,1.5l0.7,1.6l2.1,0.5l0,2.7l-1.8,0.6l-0.3,1.9l0.7,4.1l0.7,1.5l0.3,1.1l-0.3,1.1l-0.7,0.1l-1.8,-1.2l-0.3,0.6l-0.8,1l-1.8,0.7l-3.4,0.6l-1.3,0.5l-2.5,2.4l-1.5,0.9l-0.5,-1.3l-0.7,-0.9l-1.6,-1.6l-0.4,-0.1l-0.8,0.2l-0.3,-0.1l0,-0.4l0.1,-1.1l-0.1,-0.3l-1.4,-1.4l-0.7,-0.4l-2.8,-0.7l-2.3,-0.1l-1.4,-1.1l-0.5,-3.7l0.6,-3.5l1.6,-3.5l3.4,-5.1l7.8,-6.5l3.3,1.6l4.2,0.5l1.7,0.6l0.4,0.9l0.2,1.3l0.6,1.1l1.2,0.5l1.1,0.3l0.9,0.7l0.8,0.9l0.4,0.9z" id="GRA"/>
   <path d="m507,240.4l0.4,-1.3l0.1,-1.8l-0.1,-2.3l0.1,-3.4l-0.2,-0.4l0.8,-0.6l0,-1.3l-0.7,-1.7l-1.4,-2.7l0.7,-0.9l-0.7,-0.9l2,-0.2l1.8,2.3l2.5,5.4l1.3,1.5l2.1,2l2.4,1.2l2,-1.1l1,0.6l3.2,1.1l1.1,0.2l0.7,0.6l1.1,3.1l0.6,0.9l3.1,0l3.3,3.8l5.6,8.2l6.5,6.6l1,3.6l-3.3,2.7l-4.4,1l-1.9,-0.4l-0.8,-2l-0.6,-2.4l-1.5,-1.4l-1.8,-1l-1.6,-1.2l-2.8,-4.1l-1.9,-4.2l-2.5,-3.6l-4.1,-1.9l-8.3,-1.5l-3,-1.3l-1.8,-1.2z" id="GR69"/>
   <path d="m228.5,309.5l1.3,1.3l1.9,-0.1l4.3,-1.5l2,-1.2l2.4,-3.3l2.1,-1.5l4,-1.6l15.1,2l10.3,2.8l3.7,0.2l7.7,-1.7l5.4,0.8l1.3,-1.2l0.3,-1.8l-0.9,-3.8l0.3,-1.8l-0.7,-1.9l-3.4,-2.1l2.1,-1.5l4.9,-4.7l4.1,-2.3l2.1,-3.7l0.9,-3.5l5,-5.1l3.1,-5l0.9,-3.5l2.4,-2.9l0.8,1.9l1,-1.6l2.1,-1.2l5.3,1.3l-0.3,1.8l-1,1.6l0.4,2l-0.4,2.1l0.8,2l1.8,0.6l2.1,-1.8l2.1,-3.4l1.8,-1.5l4.3,-1.5l3.4,2l0.7,2l-0.2,5.8l1.2,3.9l3.1,3.5l6.9,4.8l2.3,4.1l3.1,3.1l3.9,1.4l8.2,-2.3l1.8,0.3l1.6,1.4l5.3,-0.9l1.1,-0.2l0,0.1l1.4,4.8l0.7,1.7l1.1,1.4l3.9,3.4l2.3,1.2l1.4,1.5l2.6,3.5l1,1.7l0.9,2.3l0.6,2.7l0.3,2.9l0.4,2.1l3.1,7.6l2.4,7.9l1.5,2.5l1.4,1.4l5.3,3.6l5.3,2.1l3.9,3.1l0.3,0.3l0.5,0.6l1.2,4.1l1.2,1.6l8.8,10l1.3,2.8l4.9,4.7l2.2,7.2l5.1,10.1l0.1,1.7l-1,0.7l-3.3,3.1l-2,0.7l-3.9,0.6l-2,0.6l-1.5,0.7l0.5,0.3l0.4,0.3l0.5,0.2l0.7,0.1l0,0.9l-0.9,0.3l-0.8,0.4l-0.6,0.5l-0.5,0.6l-1.2,-0.5l-2.3,0.2l-2.4,0.7l-1.5,0.9l-1.6,0.8l-2.4,-0.1l-4.1,-1.1l0.9,-1.9l1.2,-1.7l-0.5,-1.8l1.4,-1.2l3.3,-1.5l0,1.6l-1.3,5.6l7.3,-4l1.1,-1.5l-0.7,-1.3l0.6,-0.4l0.9,0.1l0.6,0.3l0.3,0.6l0.7,-0.8l0.8,-1.4l0.3,-1.6l-0.5,-1.4l-2.6,-4.5l-1.1,-1.3l0.4,-2.2l-1.1,-2.4l-1.8,-2.1l-1.7,-1.6l-2,-1.4l-1.8,-0.7l-8,-0.7l0,-0.4l0.1,-0.6l-0.3,-0.7l-0.5,-0.8l-1,-2.1l-0.6,-0.6l-0.7,-0.2l-2.8,0.2l-2.3,-0.6l-0.6,0.1l0.8,1.3l0,0.9l-1.1,1.1l-0.4,1.5l0.3,1.6l1.2,1.2l-2.5,0.6l-4,0.5l-3.9,0.9l-1.6,2.2l-0.2,5.1l0.2,1.6l2.8,8.3l0.7,0l0.8,-1.5l1.3,-1.3l-0.4,-1.4l0.5,-0.1l0.8,0.9l0.5,1.5l0.7,-0.9l1,2.2l0.3,2.6l0.7,2.5l1.6,1.8l-0.1,-0.7l0.2,-0.1l0.2,0l0.4,-0.1l-0.5,-0.9l-0.2,-0.9l2.5,1.7l1.3,2.2l0.9,2.3l1.6,2l-0.6,1.6l0.1,0.4l0.5,0.7l-3.2,1.9l-0.8,1.3l0.5,2.1l5.3,-3.2l2.8,-0.9l3.1,-0.3l0,0.8l-0.8,1l-3.4,1.8l-0.9,0.9l-0.4,0.9l-0.8,2.7l-0.4,1l-0.8,0.9l-0.3,0.5l-0.3,-0.2l-0.7,-0.3l-2.2,-1l-4,1.9l-5.9,0.4l-3.1,-3.1l-1.7,-0.6l-3.7,0.4l-5.6,-1.7l-1.8,0.1l-6.5,-4.4l-2.1,-0.7l-7.8,0.8l-4,-0.3l-1.7,-1l-0.7,-1.9l-0.4,-5.9l0.5,-3.2l-6.7,0.7l-1.6,-1.3l-0.8,-6l-1.6,-1.3l-3.6,-2.4l-7.2,-2.7l-5,-3l-9.1,10.5l-3.1,7.4l-2.2,1.9l-3.8,0.8l-2,1.1l-2.7,3.2l-4.4,2.2l-3.8,0.8l-1.8,-0.3l-0.4,-1.8l0.7,-1.7l-0.5,-3.7l-1.5,-2.1l-3.4,-1.3l-3.6,-2.7l-1.8,0.1l-5.9,4.1l-1.9,0.8l-1.8,-0.3l-1.6,-1.3l-0.8,-2l1,-3.5l-0.8,-1.9l-3.3,-2l-0.6,-5.5l-0.8,-1.9l-1.6,-1.4l-8.8,2.3l-2,1.5l-0.7,1.7l-1.7,1.5l-3.2,-2.7l-1.9,0.5l-3.7,2.7l-4.9,5l-1.3,-0.6l-2.7,-4l-0.4,-2.2l5.4,-10.4l-1.6,-3.9l-2.4,-2.9l-1.9,0.4l-5.4,-0.8l-3.6,-2.7l-1.5,-4.6l-4.8,-4l-0.8,-2.3l0.4,-2.2l-0.7,-2.3l-1.6,-2l0.3,-1.8l1.4,-1.6l-0.9,-3.8l0.6,-3.5l-1.2,-2l-1.7,-0.6l-1.5,-2.1l-0.2,-3.7l-1.1,-4.2l1.3,-1.6l2,-1.1l4.1,0.2l1.6,1.4l1.8,-0.1l-0.1,-3.7l-1.7,-7.9l0.7,-1.8l1,-2l2,-1.1l1.1,-1.7l1.9,-0.8l2.8,0.8zm220.5,87.7l-1.2,-0.4l-1.1,-0.1l-1,0.1l-1,0.4l0.4,-2.3l1.2,-0.9l1.3,-0.3l0.6,-0.5l0.5,-1.4l1.1,-1.6l1.4,-1.3l1.3,-0.7l1.6,1l1.8,1.6l0.9,2.1l-0.8,2.6l-1.6,-1.3l-1.5,1.4l-1.5,3.5l-0.7,-0.2l-0.9,-1.2l-0.8,-0.5zm23.9,3.7l-1,-0.7l-3.3,-3.2l-0.6,-1.1l-0.4,-1.8l-3.1,-5.1l1.4,-0.8l0.1,0.7l0.3,0.1l0.4,0l0.6,0l2.4,2.7l2.8,2.4l3.2,1.9l3.5,1.2l-0.4,1.9l2,0.4l2.7,-0.1l2.1,0.6l0,0.9l-3.4,3.6l-1.9,1.4l-2.5,0.4l-1,-0.3l-1.5,-1.3l-2.7,-0.5l-0.9,-0.6l0.1,-0.9l1.1,-0.9l0,-0.9zm27.5,-13.7l-1.6,4.1l-2.6,3.8l-3.2,2.4l-3.2,-0.3l1.4,-1.9l1.4,-1.2l1.2,-1.4l1.7,-5l5.2,-8.3l1.8,-1.2l-0.2,0.5l0,0.4l-0.2,0.5l-0.3,0.5l2.2,0.4l-0.5,2.7l-1.8,3l-1.3,1zm14.8,-17.4l1,0.5l0.4,0.4l-0.1,2.1l-1.2,3.3l-1.9,1.1l-1,-1.1l0.1,-1l0.5,-0.3l-0.4,-0.5l-1,-0.6l-0.5,-1l0.4,-1.4l0.6,-1.4l0.8,-1.3l0.9,-0.2l0.2,1.3l0,1l0.5,-0.4l0.7,-0.5z" id="GRE"/>
   <path d="m235.9,396.1l1.3,0.6l4.9,-5l3.7,-2.7l1.9,-0.5l3.2,2.7l1.7,-1.5l0.7,-1.7l2,-1.5l8.8,-2.3l1.6,1.4l0.8,1.9l0.6,5.5l3.3,2l0.8,1.9l-1,3.5l0.8,2l1.6,1.3l1.8,0.3l1.9,-0.8l5.9,-4.1l1.8,-0.1l3.6,2.7l3.4,1.3l1.5,2.1l0.5,3.7l-0.7,1.7l0.4,1.8l1.8,0.3l3.8,-0.8l4.4,-2.2l2.7,-3.2l2,-1.1l3.8,-0.8l2.2,-1.9l3.1,-7.4l9.1,-10.5l5,3l7.2,2.7l3.6,2.4l1.6,1.3l0.8,6l1.6,1.3l6.7,-0.7l-0.5,3.2l0.4,5.9l0.7,1.9l1.7,1l4,0.3l7.8,-0.8l2.1,0.7l6.5,4.4l1.8,-0.1l5.6,1.7l3.7,-0.4l1.7,0.6l3.1,3.1l5.9,-0.4l4,-1.9l2.2,1l0.7,0.3l0.3,0.2l-0.5,0.5l-0.8,0.6l-0.6,0.2l-1.5,-0.3l-0.8,0.1l-0.6,0.7l-0.6,0.3l-0.8,0l0.4,1.4l0.3,0.5l-1.5,0.2l-2.1,1.2l-1,0.3l-1.3,-0.2l-1.3,-0.6l-1.4,-0.3l-1.3,0.2l-0.5,1l-0.6,3l-0.7,0.6l-2.5,0.1l-0.9,0.5l-0.5,1.2l-1.4,0l-2.4,0.6l-2.2,0.2l-1,-1.3l-0.5,-1l-1.1,0.3l-1.9,1.2l-0.9,-0.3l-1.7,-1.2l-0.6,-0.3l-0.2,-0.3l-3.6,-2.7l-0.8,0.2l-1.9,1.4l-0.6,0.6l-0.8,0.6l-1.2,0.2l-1,0.1l-0.8,0.2l-0.7,0.6l-0.7,0.9l-0.4,-0.3l-1,-0.7l0,3.7l4.9,-0.9l0,0.9l-1.9,1.3l1,1.5l2,0.6l1,-1.6l0.7,0l-0.7,1.8l1.6,0l1.3,-0.5l1.2,-0.1l0.8,0.6l5.1,-2.6l1.3,-0.1l2.5,4.1l2.1,2.7l1.2,0.7l1,1.2l0.9,0.4l0.9,-0.1l2,-0.7l1,-0.2l1.4,0.5l1.7,1l1.4,1.5l0.8,1.5l2.1,-2.1l1.1,-0.5l1.7,-0.1l1.1,0.5l2,1.8l1.5,0.4l5.8,0.1l2.6,1l1.8,2.5l3.2,10.4l1.5,1.4l1.9,0.2l1,-0.4l1.2,-1.2l1.2,-0.6l1.3,0.2l1.4,-0.2l1.4,-1.7l-2,-1.3l-0.9,-0.4l1.9,-0.9l1.9,0.5l3.3,2.1l1.7,0.6l3.4,0.5l2,0.7l1.5,1.3l1.1,1.7l0.4,1.8l-0.2,1.6l-1.3,1.3l-1.5,0.7l-1.3,1.3l-0.9,3l1.1,-1.6l1.2,0l1.3,0.8l1,1.3l1.1,0.9l2.8,0.7l1.4,0.6l0,0.9l-0.9,0.4l-2.3,0l-1,0.5l-0.9,0.9l-0.2,0.9l0.5,0.6l1.6,0.2l7,-0.3l10.4,1.8l1.3,-1l1.1,-1.7l2.5,1.3l3.5,3.6l-2.1,1.4l-0.8,0.3l0,1l1.3,0.3l1.1,0.6l0.4,0.8l-0.6,1l0,0.9l3.1,1.6l5,7.5l3.8,2.6l1.5,0.1l4.3,-0.7l-0.4,0.7l-2.8,1.3l-5.8,1.8l-3.5,3.3l-2.1,3.5l-0.9,12.4l-2.8,3.1l-3.7,2.5l-1.8,-0.3l-1.5,-1.3l-3.5,-0.7l-1.6,-1l-4,-5.7l-1.6,-1l-1.9,0.4l-1.8,-0.3l-1.5,-1.4l0.3,-1.7l1,-1.6l-1,-2.4l-1.6,-1l-3.8,1.1l-2,1.1l-1.4,1.6l-0.8,5.9l-1.3,1.6l-3.5,-0.7l-5.8,0l4.5,1.4l0.2,0.9l-0.5,0.2l-7.1,-0.9l-1.6,-0.7l2.1,-1.8l-2.7,-2.9l-1.3,-0.2l-3.3,3.2l-1.1,0.3l-3.6,-0.4l0,-0.9l2.1,0l-1.4,-2l-1.4,-1.1l-1.5,-0.4l-6,-0.7l-1.9,0.4l-1.2,2l1.4,-0.5l1.5,0.1l1.3,0.8l0.7,1.4l-1.8,0l-3,-0.6l-1.5,0.6l-1.4,-6.3l-0.7,0l-0.7,1.9l-0.2,-0.6l-0.3,-0.7l-0.2,-0.6l-1.8,0.6l-3.8,0.5l-1.4,0.8l-4.2,-2.8l0.8,-1.3l1.9,-1.6l0.8,-1.5l-2,-0.9l-3.9,-1.1l-2.3,-1.7l-1.7,-0.5l-0.7,-0.4l-0.5,-0.7l-1.6,-2.8l0.9,-2.3l-1.5,-2.7l-2.4,-1.1l-2,2.4l1.8,0.3l0.2,1l-1,0.7l-1.3,-0.6l-1.2,-0.4l-1.2,1.1l-0.9,1.5l-0.5,1l0,0.8l0.5,0.3l0.3,0.3l0.4,0.2l0.8,0.2l0,0.8l-0.8,0.5l-0.1,0.3l0.2,0.3l0,0.8l-1.1,1.2l-1.3,0.4l-1.4,-0.4l-1.8,-1.2l0,-0.4l-1.2,-2.3l-0.2,0l-0.3,-0.8l-0.3,-0.3l0.3,-0.3l1,-0.4l-1.4,-2.9l-4.9,-6.1l-0.9,-2.1l-0.5,-0.6l-0.5,-0.3l-1.1,-0.3l-4.8,-3l0.2,1.4l0.4,2.3l0.1,1.3l-2.8,2.2l-0.7,0.9l0.7,1l0.5,0.5l0.4,0l0.5,-0.6l0.4,1.2l-0.2,1l-0.7,0.8l-0.9,0.5l0.7,0.9l-0.5,1.1l-1.6,0.1l-1.9,-0.7l-2.7,-0.5l-3.9,0.5l-0.5,-0.7l-1.4,-0.8l-1.4,-0.3l-0.9,0.4l-0.7,0l-1.2,-0.3l-1.6,1l-1.4,1.7l-0.7,2.2l-0.8,-0.9l-0.6,-1.8l-0.7,-1l-0.9,-0.4l-0.9,0.2l-0.6,-0.2l0.2,-1.3l-1.5,-1.1l-3.3,-1l-5.3,-2.4l-2,-0.1l-1.9,1l-2.4,-2.5l-3.1,-0.1l-2.9,1.1l-4.2,3.1l-0.9,0.2l-1.6,0l-0.8,-0.4l-0.5,-0.9l0.7,-2.2l-0.3,-2.6l2.1,-3.9l4.2,-3.6l3.8,-0.9l2,-1.1l1,-1.6l-0.4,-4l1.7,-3.7l-3.1,-3.4l0,-1.8l1.3,-1.5l-0.4,-4.1l1.3,-3.4l-0.4,-3.6l1.6,-3.4l0,-1.8l-4,-2.4l-0.1,-1.1l-4.4,1.8l-1.7,1.5l-3.9,1.9l-5.4,-0.5l-0.6,1.7l0.1,3.6l-3.8,3l-2.2,0.4l0.3,-1.8l-1.2,-1.9l-5.5,0.9l-3.6,-0.2l-3.4,-1.6l-5.6,-3.8l-1.5,-1.7l-1.6,-3.8l0,-1.8l0.7,-2.1l1.7,-1.5l5.9,-3l0,-1.9l-3.4,-1.6l-5.6,-1.2l-1.6,-1.3l-1.8,-0.3l-1.6,-1.3l-0.4,-1.9l0.6,-3.5l-0.8,-2.3l-10.2,-6.3l-0.5,-1.9l2.7,-5l-0.1,-1.8l0.6,-1.7l-0.7,-1.9l-2.7,-3.7l0,-4.4zm340.5,45.5l0.2,0.4l0.2,0.3l0.2,0.6l0.1,1l-0.1,1.1l-0.3,0.1l-0.4,-0.1l-0.6,0.3l-0.6,0.9l-0.7,0.8l-0.7,0.1l-0.8,-1l-0.7,0l-1.1,0.9l-1.2,-0.5l-0.9,-1.3l-0.4,-1.3l-0.6,0.1l-1.3,0.6l-1.3,1.2l-0.3,2.1l-3.5,-4.5l4.2,-1.8l-1,-3.8l-0.7,-0.9l-1.1,1.1l-0.6,0l-0.4,-1.4l-0.8,-0.5l-1.2,0.3l-1.2,0.7l0,-1.4l-2.3,-1.1l-0.5,-2l-0.4,0.3l-0.3,0.6l-0.8,-1.2l-0.9,-0.6l-1,0.1l-0.9,0.8l-0.1,-1.3l0.4,-1.2l0.7,-0.8l0.8,-0.4l0.9,-0.6l0,-1.5l-0.5,-2.4l0,-1.9l0.4,-1.7l1,-1.2l2.1,-0.6l7.1,4.9l1.3,1.5l0.3,1.3l-0.4,3.2l0.1,1.7l0.5,1.4l0.6,0.6l1.7,0.8l4.3,3l2.1,2l1.4,2.2zm-9.1,85.4l-0.9,6.5l0.1,3.3l1.5,2.9l-0.9,1.8l-1.1,5.7l-0.9,2.2l-1.5,1.3l-2.1,1.1l-2.3,0.9l-2.2,0.3l-1.1,-0.3l-0.4,-0.8l-0.2,-1.5l-2.4,-4l-0.4,-0.1l-1.5,-1.3l-2.7,1.3l-1.7,2l1.6,1.1l0,1l-1.6,1.3l-1.5,-0.2l-1.5,-1.1l-1.9,-2.2l-0.5,-0.8l-0.7,-1.6l-0.7,-1l-0.7,-0.8l0,-0.8l1.4,-0.9l-1.3,-3l-0.9,-0.9l-1.4,0.3l-0.6,-2.1l-1.8,-1.2l-2.1,-0.2l-1.7,0.8l-1.5,-0.8l-0.5,0.1l-0.9,0.7l0,-0.6l0.1,-0.2l0.2,-0.1l0.4,-0.1l0,-3.4l-0.8,-0.8l-1.7,0.4l-0.3,-1l0.4,-0.9l1.9,-2l0.5,-1.2l-0.2,-1.6l-1.5,-1.8l-0.9,-3.4l-1.3,-1.1l-1.6,-0.4l-1.5,0.4l0.7,1.8l-2.4,-0.6l0.5,-2.4l1.8,-2.7l1.5,-1.5l-1,-1.7l-0.8,0l-0.8,0.9l-0.9,0.8l-0.2,0.4l0,0.6l-0.1,0.6l-0.8,0.2l-0.9,-0.3l0,-0.5l0.3,-0.7l0.3,-0.3l0,-1l-1.5,0l2.2,-4.4l-2.1,-1.2l-2.3,-0.9l-2.5,-0.5l-3,-0.2l2.5,-0.8l1,-0.6l0.7,-1.3l-0.8,-1.2l-0.2,-1.1l0.1,-0.9l0.2,-0.3l-1.1,-2.2l-0.7,-0.9l-0.3,0.8l-6,-0.4l-7,0.9l-2.1,-0.3l-3.5,-1.3l-1.5,-0.2l-2,0.2l-3.1,0.7l-1.5,0l-7.1,-1.8l-1.6,0.1l-3.2,1l-1.5,-0.2l-1.1,-1.3l-2.4,-6l-0.4,0.5l-0.4,0.5l-0.5,0.1l-0.8,-0.1l1,-2l1.9,-2.1l1.3,-2.1l-0.7,-1.9l0,-0.9l0.7,0l0,-0.9l-2.2,-3.8l-1.4,-1.8l-1.7,-0.7l-4.5,-0.7l-2.2,-0.9l-1.4,-1.1l-0.3,-1l-0.1,-2.3l-0.3,-1.1l-2.4,-2l-0.4,-0.4l-0.4,-0.4l-0.7,-0.2l-0.7,-0.6l-0.3,-1.5l-0.5,-0.9l-0.9,-0.9l-3.1,-2l-2.6,-1.2l-2.9,-3.1l-1,-0.5l-0.6,-0.5l-1,-2.6l-0.5,-0.5l-2.3,-1.3l-10.1,-7.6l-3.5,-1.9l-2.5,-0.9l-1.3,-0.1l-1.8,0.1l-3.1,0.7l-1.5,-0.1l-1.3,-1.1l-2,-2.6l-0.8,-0.4l-1.4,-0.1l-1.7,-0.3l-1.6,-0.7l-1.4,-0.4l-1.4,0.4l0,1l1.5,0.1l1.4,0.5l0.8,1.2l-0.1,1.8l-1,0.8l-1.6,0.5l-11.3,1.1l-2.3,1.3l-0.1,-1.5l0.1,-1.5l0.4,-1.2l0.6,-0.4l0.9,-0.5l2.4,-1.8l1,-0.4l2.3,-0.5l4.7,-2.6l3.1,-0.8l2.9,-1.6l2.5,-0.9l0.4,-0.4l0.4,-1.8l0.2,-0.5l1.2,-0.4l2.1,0l0.9,-0.6l0.8,-1l0.3,-1.3l0,-1.2l-0.3,-0.9l1.5,-0.5l1.9,-1.9l1.1,-0.4l6.3,0l2.2,-0.7l5.4,-3.2l2.7,-0.5l1,0.6l1.5,1.7l0.6,0.4l1.4,0.2l1.5,0.5l1.4,0.8l1,1.2l-0.7,2.5l1,2l2.1,1.3l2.2,0.4l0,1.4l1.7,6l0.8,1.7l0,1.5l1.2,2.5l1.9,2.3l4.5,2l4.5,3.8l2.7,0.6l0,1l-0.3,1l0.3,0.5l0.6,0l0.8,-0.7l1.2,1.4l3,0.5l1.4,0.8l1,-0.7l1.1,0.7l2,-1.3l2.1,0.4l1.6,1.7l0.7,2.4l0.9,1.6l2,1.4l4.1,1.9l4.5,1.5l5,0.4l2.2,0.5l2.1,0.8l1.9,-0.1l1.9,-2.1l2.2,1.1l2.3,0l2.4,-0.3l2.2,0.1l6.5,2.3l2,1.2l-1.1,0.4l-1.1,0.8l-0.9,1.1l-0.4,1.4l-0.1,2.2l0.6,1.2l9.2,7.8l1.6,2.3l-2.6,2l-1.9,4.3l-0.4,4.5l2,2.8l0,0.8l-1.9,0.6l0.3,1.2l2.3,2.7l0.2,1.6l0.1,2.1l0.1,1.7l2.5,3.1l0.2,1.3l0.5,0.7l0.5,0.4l0.2,0.3l-0.1,2.3l0.1,1.2l0.6,0.9l-1.1,1.7l-0.2,0.6l0.7,1.7l1.3,1.6l2.8,2.1l3.6,1.8l0.3,0.8l0.3,1.2l0.5,1.1l0.7,0.4l3.5,-0.7l1.4,0.1l2.9,2.2l4.1,0.4l1.8,0.7l1.9,-1l9.4,-1.7z" id="GRH"/>
   <path d="m426,526.9l0.5,-0.2l-0.2,-0.9l-4.5,-1.4l5.8,0l3.5,0.7l1.3,-1.6l0.8,-5.9l1.4,-1.6l2,-1.1l3.8,-1.1l1.6,1l1,2.4l-1,1.6l-0.3,1.7l1.5,1.4l1.8,0.3l1.9,-0.4l1.6,1l4,5.7l1.6,1l3.5,0.7l1.5,1.3l1.8,0.3l3.7,-2.5l2.8,-3.1l0.9,-12.4l2.1,-3.5l3.5,-3.3l5.8,-1.8l2.8,-1.3l0.4,-0.7l1.6,-0.3l2.3,1.5l1.2,0.2l9.9,4.2l2.1,0.4l1.8,0.6l1.7,1.5l2.5,3.3l4.8,4l0.8,0.9l0.5,0.8l1.9,0.8l0.4,1.1l-0.2,1l-0.3,1l0.1,1l1.2,0.9l-1.1,0.5l-0.6,1l-0.4,1.4l-0.1,1.7l-0.7,-1.8l-1.5,0.1l-5.1,2.8l0.1,2.7l1.6,5.6l0.4,2.4l1,1.8l1,1.4l0.4,1.1l-0.2,1.2l-1.4,2.8l-0.5,1.3l0,1.1l0.3,1.3l0.1,1.5l-0.4,1.6l1.1,-0.1l1.2,0.4l0.9,0.8l0.3,1.4l-0.4,0.6l-3.1,1.2l0.7,0.9l0.9,0.6l1.2,0.3l1.4,0l-0.7,1l0.6,0.1l1.5,0.7l-0.6,1.1l-0.1,0.9l0.2,0.8l0.5,0.7l-0.5,0.3l-0.4,0.4l-0.3,0.4l-0.2,0.8l2.5,1.5l0.8,1.2l0.3,2.2l-0.2,2.8l-0.4,1.4l-2.3,2.5l1.4,0.8l0,1l-1.4,0l0,0.8l0.6,0.1l0.1,0.4l-0.1,0.6l0.1,0.7l-0.1,-0.3l0,-0.4l-0.2,0l-0.4,0.7l1.3,1.3l-0.9,1.4l-1.8,1.7l-1.4,1.8l-1.1,-0.8l-4,-1.6l-1.6,-0.3l-1.8,-0.6l-0.7,-1.6l0.1,-4.9l-0.7,0l-1.5,0.8l-0.9,-2.4l-1.1,-5.5l-0.4,0.3l-1,0.7l-0.8,-2.2l-1.6,-2.1l-1.9,-1.4l-1.4,0.3l-0.5,-0.5l-0.4,-0.2l-0.3,-0.4l-0.3,-0.7l-0.6,0l-0.6,2.7l-1.1,0l-1.1,-0.4l-0.7,1.3l-0.2,-0.9l-0.1,-0.7l-0.3,-0.3l-0.9,0.1l0.6,-1.6l-0.4,-1.4l-2.2,-2.4l-0.3,-2.5l-4.3,-6.3l-0.4,-1.9l-1.7,-0.8l-1.7,0.3l-1.8,0.9l-1.8,0.5l-0.1,-0.7l0.1,-0.2l0.9,-0.5l0.4,-0.3l0.1,-0.9l-1.6,0.7l-0.9,-0.8l-0.8,-1.2l-1.3,-0.6l-1.4,0l-1.3,-0.2l-1.1,-0.5l-0.8,-1l3.7,-3.4l1,-1.9l-0.8,-2.4l-0.9,-0.9l-0.7,-0.1l-0.7,0.3l-0.9,0.3l-3.9,0l-1,0.2l-0.7,0.7l-0.5,0.6l-0.6,0.2l-2.4,0.2l-1.1,0.3l-1,0.5l-4,3.5l-1.7,0.9l3.5,1l-2.1,0.8l-8.1,-0.8l-10.6,0.8l-3.8,2l-3.1,2.4l0,-0.4l-0.4,-0.7l-1.4,-3.8l-3.2,-5.9l-3.5,-4.7l0,-0.1l2.5,-0.3l7.4,-2.3l1.7,-1.9l1.8,-0.5l1,-0.7l-0.7,-1.5l-1.6,-1.6l-1.9,-0.5l-0.1,-0.7l0.1,-1.1l1.3,-0.2l2.3,-0.5l1.3,-0.2l0,-1l-1.1,-0.1zm-2.7,71.8l0.4,0.2l4.1,3.2l0.7,-1l3.8,3.8l0.5,0.1l0.5,0.1l0.9,0.4l2,1.8l1.1,0.6l1.4,0.3l2.4,-1.6l-0.1,-3.4l-1.9,-3.4l-2.9,-1.3l0,-0.9l1.7,-1.4l2,-0.8l5.2,-0.5l1,1.6l-0.4,3.4l-1.4,3.6l-1.7,2l1,1.1l1.1,0.8l1.3,0.5l1.5,0.3l0,1l-2,0.7l-0.8,0.1l0,0.8l0.7,0l0.9,0.4l2.7,0.5l2.3,1.6l2.1,0.7l4.7,4l-0.5,0.6l-0.2,0.3l0.2,0.2l0.5,0.7l0,0.9l-2,1.1l-6.1,2l-0.5,0.1l0,-2.2l0,-1.1l-1.1,-1.6l-4,0l-2,1l-5.1,-1.3l-1.8,0.4l-3,-3l-1.8,-0.3l-3.1,-2.3l-5.1,-1.6l-1.5,-1.7l-0.7,-1.9l0.7,-3.5l2.2,-5.5l0.1,-0.5l0,-0.1zm9.4,219.5l1.8,1.4l2.1,0.8l1.5,1.9l0.3,4.5l-0.7,0l-0.6,-1.2l-2.6,-2.6l-0.9,-1.4l-0.6,-1.5l-1,-2.8l0.5,0l0.1,0.1l0,0.4l0.1,0.4zm-27.4,-52.3l6.7,4.8l1.8,2.1l1,2.2l-0.6,0.5l-1.6,0.1l-1.7,0.8l-0.8,1.2l-0.4,1.7l-0.2,7.4l-0.6,0.2l-1.5,-0.1l-1.8,-0.5l-1.2,0.2l-1.2,1.2l-0.4,-1.8l-1,-0.8l-2.9,-0.9l-0.1,-0.4l0.1,-0.6l0.1,-0.5l-0.4,-0.2l-1.4,0.1l-0.4,-0.1l-0.5,-0.8l-1,-2l-0.6,-0.7l0.9,-7.2l-0.1,-2.9l-0.8,-3l-0.5,-1.4l-0.4,-1.1l0.2,-1.3l3.2,-5.5l1.2,-1l1.2,0.7l4.1,7.6l1.6,2zm12,-125.7l0.6,0.4l1.7,1l0.8,0.7l0.4,1l0.2,1.3l-0.2,1.3l-1.1,0.5l-2.1,-0.5l-1.3,-1.2l-1,-1.4l-1.5,-1.4l0.7,-0.8l0.9,-0.6l0.9,-0.3l1,0zm47.2,-10.7l-1.7,1.6l-2.4,1.1l-2.5,0.4l-1.9,-0.4l0.4,2.6l-1.2,1.3l-2.2,0.4l-2.3,0l-5.8,1.7l-2.3,0.1l0,-0.9l9.2,-6.2l2.4,-0.8l4.6,0l2.1,-0.9l3.6,0zm-11.3,-24l0.4,0l0.2,0.2l0,0.3l0.1,0.4l0.8,1.3l0.9,0.9l1.1,0.4l1.4,0.2l0,0.8l-1.9,1.1l-2.6,0.4l-2.6,-0.3l-2,-1.2l0,-0.8l2.9,-0.8l1.1,-0.9l0.2,-2zm7,-28.3l1.8,0.8l-0.7,1.4l-1.2,1.6l0.1,1.5l-1.4,1.1l-0.3,1.4l0.1,1.5l-0.5,1.3l-0.8,0.6l-2.4,0.6l-1,0.6l-0.8,-0.8l-0.5,-0.4l-1.5,-0.6l0,-0.9l1.2,-0.7l-0.1,-1.2l-0.9,-1.2l-1.3,-0.5l-1.2,-0.8l-0.8,-1.9l-0.3,-1.8l0.2,-0.8l12.3,-0.8zm-14.1,-16.2l-0.7,-0.9l0,-0.8l0.7,-1.3l1.5,-1.5l1.7,-0.8l3,1l1.3,-1.3l1.1,-1.9l0.6,-1.4l-1.3,0.1l-0.9,0.7l-0.8,0.7l-0.9,0.4l-0.9,-0.2l-1.9,-0.8l-1.1,0l3.6,-1.8l-1.3,-0.7l-1.6,-1.1l1.2,-0.1l1.1,0l1.1,0.4l0.9,0.7l0.2,-1l0.2,-0.2l0,-0.1l-0.4,-0.5l0.8,-0.6l0.8,-0.3l0.9,-0.1l2.4,0.3l1.2,0.6l0.7,0.9l-0.5,1l0.1,0.7l0.2,0.9l0.6,0.7l0.6,0.5l-0.1,0.1l0,0.7l2.8,0l-3.5,1.7l0.5,1.4l-2.3,1.9l-0.3,2l-0.7,0l-1.1,-1l-0.9,0.8l-1.1,1.4l-1.5,0.7l-1.5,-0.2l-3.2,-0.9l-1.3,-0.8zm48.9,136.4l0.3,0.7l0.2,0.5l-0.5,0.3l-0.8,-0.6l0,-0.9l0.8,0zm-43.6,-10l0.4,0.6l0.3,1.4l-0.3,0.3l-0.6,-0.3l-0.3,-0.9l-0.1,-0.3l-0.2,-0.1l0.1,-0.7l-0.4,-1l0.7,0.2l0.4,0.8z" id="GRA1"/>
   <path d="m412,540l0,0.1l3.5,4.7l3.2,5.9l1.4,3.8l0.4,0.7l0,0.4l-1.8,1.3l-4.9,2.5l-4.3,-1.8l-1,0.4l-0.8,-0.1l-0.9,-0.2l-1.1,-0.1l-0.4,0.6l0,1.5l-0.1,1.5l-0.9,0.7l-0.7,1.3l0.5,2.5l1.3,2l2,-0.5l1.8,1l2.5,0.3l2.4,-0.3l1.7,-1l3.3,3.3l1.9,1.4l1.9,0.8l-0.5,1.2l-0.1,1.3l0.1,1l0.5,1l-1.4,0.2l-1.9,1.2l-2.3,0.4l-0.3,0.4l-0.1,0.8l-0.4,1.3l2.6,2l1.4,0.6l1.7,0.2l-1,2.9l-0.2,2l0.3,2l0.9,2.8l-1.4,0l0.2,2.8l0.4,1.2l1.9,0.7l0,0.1l-0.1,0.5l-2.2,5.5l-0.7,3.5l0.7,1.9l1.5,1.7l5.1,1.6l3.1,2.3l1.8,0.3l3,3l1.8,-0.4l5.1,1.3l2,-1l4,0l1.1,1.6l0,1.1l0,2.2l-12.2,0.6l-1.7,-0.3l0.1,0.4l0.1,0.4l0.1,0.5l0.3,0.5l-3.7,-0.6l-1.4,0.2l0.2,1.3l-3.5,0.8l0,1.3l0.7,0.6l1,0.1l1.1,-0.2l-0.7,0.9l0,0.8l0.8,0.2l2,0.8l-1.6,0.8l-1.9,0.2l-3.8,-0.2l-2.2,0.4l0,1.1l0.9,1.7l0.9,2.1l-2.1,0.4l-1.5,0l-1.2,-0.5l-1.5,-0.8l0,-0.9l2.1,0l0,-0.8l-1.2,-0.4l-1.5,0.3l-1.3,-0.1l-1,-1.5l2.2,0.9l-0.5,-1.3l-0.8,-0.8l-2.2,-1.6l-0.8,0.9l-1.1,0l-1,-0.6l0,-0.3l-0.3,-4l0.3,-1.6l1.1,0.8l1.2,0.7l1,-1l0.8,-1.8l0.1,-1.9l2.3,1.3l0.6,0.5l0,-0.8l-0.5,-1.2l-0.2,-0.8l0,-1.2l-0.3,-0.8l-0.7,-0.3l-0.8,-0.2l-0.6,-0.5l-1.5,-0.7l-3.6,0.9l-1.7,-0.6l1.4,-0.9l-1.4,-2.6l-2.5,1.5l-1,0.8l-0.7,1.2l-1.4,-4.7l-1.1,-1.7l-1.7,-1.6l-0.5,-0.2l-1.2,0.2l-0.4,0l-0.4,-0.4l-0.2,-0.6l-0.1,-0.6l0,-0.2l-1.5,-0.6l-0.9,-0.2l-1.2,0l1.3,0.4l0.4,0.4l0.4,1l-2,-0.9l-1.8,0.2l-1.6,1l-1.6,1.3l-0.7,-0.7l-2.8,-1.9l0.2,-0.5l0.5,-1.3l-1.3,-0.5l-1.2,-1l-0.6,-1.1l0.3,-0.9l-1.1,-1.6l-1.1,-1.1l-2.2,1l-1.9,1.1l-1.2,1.9l-0.3,3.2l0.2,0.6l1,1.6l0.2,0.8l-0.2,0.8l-0.4,1.6l-0.1,0.7l0.5,1.4l0.5,0.8l0.6,0.6l0.5,0.8l0.1,0.7l-0.1,2.4l0.2,0.4l1.3,1l-0.1,1.3l-0.7,1.8l0.1,1.3l5.3,6.4l1,0.6l-0.7,1.9l1.4,0l0,0.8l-0.7,0l0,0.8l1,1.1l2.5,4.4l0.7,2.4l3.5,6.3l0.4,0.4l0.8,1.2l0.5,1.4l-0.6,0.6l-0.5,0.8l-0.3,1.6l-0.3,3.4l0.9,1.6l1.9,0.4l2.1,-0.2l1.4,-0.5l0.1,0.6l0.2,0.3l0.2,0.3l0.3,0.5l-0.7,0.5l0.1,0.1l0.6,0.3l-0.8,1l1.8,0.6l0.8,1.1l-0.2,0.6l-1.6,-0.7l0.9,2.3l2.8,4.1l-0.2,1.6l0.9,2.1l0.5,2.3l-0.5,0l-1.1,0.1l-0.5,-0.1l0.2,0.7l0.8,1.3l0.4,0.6l0.2,-0.4l0.1,-0.1l0.1,-0.1l0.3,-0.2l0.4,1.2l0.1,1.1l-0.1,1l-0.4,1.1l1.1,1.7l2,5.2l0.8,1.1l-0.4,1l1.4,2.2l2.8,2.9l0.7,1.4l0.2,1.4l-0.3,1.1l-1.2,0.5l0,0.8l1.1,0l0.8,0.2l1.5,0.7l-0.4,1l-1.2,0.9l-0.4,0.8l-0.1,0.7l0,0.4l0.1,0.4l0,0.6l-0.6,1.4l-1.3,-0.1l-1.4,-0.8l-1,-0.9l-0.9,1.4l-1.3,1.4l-0.5,1.2l1.3,1.3l-0.2,0.4l-0.3,0.9l-0.2,0.4l2.8,0l-2.5,2.3l0.1,3.3l1.5,3.4l2,3.2l1.1,2.3l0.4,0.4l2.1,0.9l1.1,0.9l2,0.9l0.4,0.6l0.2,0.6l0.5,0.5l1,0.1l-1,0.7l-0.4,0.2l0,0.8l0.6,0.7l0,0.7l-0.4,0.6l-0.9,0.6l1.7,2.6l3.1,1.9l2.2,2.1l-0.7,3l-3.5,-1.8l-1.1,1.4l-1.3,0.2l-4.5,-1.2l-1,-1.3l-0.7,-1.5l-1.3,-1.1l0,-0.8l0.6,-1.7l-0.7,-2l-1.4,-1.7l-1.6,-0.7l-4.4,0.9l-2.1,0.1l-0.9,-1.4l-0.5,-2.1l-2.3,-5l-0.8,-1.3l-1.1,-1.1l-4.5,-3.3l1.5,-1.5l-0.5,-1.5l-4.3,-3.9l-0.5,-0.2l-0.4,1l-1.4,1.7l-0.5,-0.7l-0.1,-1.1l0.6,-3l-0.3,-2l-0.9,-2.7l-0.7,-4.7l-1.5,-2.2l-2.2,-1.4l-2.9,-0.6l-5.3,-0.1l-6.5,0.8l-4.6,2.6l0.2,5.5l-3.4,2.4l-1.3,1.8l-0.9,2.9l1.6,-0.1l1,0.9l0.4,1.6l-0.2,1.9l-0.7,0l-0.2,-0.9l-0.3,-0.9l-0.7,-0.7l-0.9,-0.1l-0.8,0.7l-0.6,1.2l-0.1,1.1l0.4,0.5l1.7,1.5l-0.5,2.6l-1.3,1.2l-0.9,-2.7l-1.5,0.9l-0.6,1.3l0,7.5l0.3,2.9l0.6,2.4l1.9,5.1l-0.4,0.7l0.4,1.1l-1.3,0.9l-0.5,1.4l0.3,1.5l0.8,1.5l0,0.8l-0.9,-0.1l-0.3,0.4l0,0.7l-0.2,0.8l-1.1,-1.4l-0.4,-2.2l-0.1,-2.4l-0.5,-1.9l-1.5,-1.2l-3.6,-1.5l-1.3,-1.7l-0.7,0l-1,1.1l-1,-0.3l-1,-0.9l-0.8,-1.2l-1,-1.9l0.1,-1.4l0.6,-1.4l0.6,-1.8l1.7,0.5l0.5,-1.5l-0.5,-2.1l-1,-1.3l0.5,-0.7l0.9,-1.9l-2.1,0l0.2,-1.6l-0.1,-2l0.3,-1.5l1.7,-0.2l0,-0.9l-2,-0.7l0.3,-2.2l1.7,-4.1l-3,0.5l-2,-3.1l-1.6,-4.1l-1.8,-2.2l0.1,-2.5l-1.6,-3.3l-7.2,-9.9l-2.2,-1.1l-2.5,1.9l-2.8,-2l-1.1,-1.3l-0.4,-1.9l0.2,0l0.5,-0.7l0.5,-1.1l0.2,-1.3l0.2,-1.5l0.5,-2.5l0.1,-3.5l-0.2,-0.9l-6.9,-1.6l-3.9,-0.2l-1.8,0.5l-3.9,2.5l-3.9,1.1l-1.2,1.3l-0.6,1.7l-1,12.3l-0.5,1.5l-0.1,1.2l0.5,1.5l0.6,1.1l0.3,1.1l-0.7,1.6l1.8,1.7l1.1,0.7l1.4,0.2l0,0.9l-1.4,0.1l-1.2,0.5l-0.6,0.9l0.3,1l-0.6,1.2l-4.3,4l-0.6,0.6l-0.6,0.4l-0.9,0l-1.7,-3.6l-0.4,-0.3l-3.1,-6.6l-1.9,0.1l-1.5,0.4l-2.7,1.3l-1.2,-1.3l-2.4,-1l-0.6,-1.2l-0.7,0l-0.9,0.5l-0.6,-1l-0.5,-1.6l-0.8,-1.4l0.4,-1.3l-0.1,-1l-0.3,-1.3l0,-1.8l0.3,-1.2l1.3,-2.1l0.5,-1.1l0.1,-2.2l-0.8,-1.9l-1.5,-0.9l-2,0.6l0.9,-0.4l0.3,-0.5l0.2,-0.8l-1,-0.1l-0.5,0.4l-0.6,1.4l-0.7,-4.5l-2.6,-3.4l-3.1,-3.2l-2.1,-3.9l-0.9,-5.1l-0.3,-5.2l0.7,-4.7l1.9,-3.5l6.4,-5.3l2.8,-3l1.4,-4.2l-0.4,-5.2l-1,-2.9l1.6,-0.7l6.9,1.4l3.7,-0.8l3.4,0.9l1.9,-1.1l3.7,-4.7l-0.8,-1.9l0.7,-1.6l2.6,-3.1l1.7,-1.5l2.2,1.7l1.9,-0.7l1,-1.6l-2.9,-3.7l-9.5,-7.5l-3.3,-1.3l-1.9,0.4l-1.7,-0.2l-0.2,-14.2l-2.1,-6.4l0.5,-5.2l5.9,-9.7l3.8,-0.8l0.8,3.6l3.7,1.3l3.2,2.3l7,3.3l1.8,-0.1l2.6,-3.1l2,-0.7l3.5,0.2l0.4,1.8l1.7,0.7l1.9,-0.8l2.7,-3.1l5.8,-2.2l0.7,-2.1l-0.8,-1.9l-1.5,-1.6l0.3,-3.5l1,-1.7l0.3,-2l-0.3,-2.2l0.6,-1.7l7.8,-3.3l2,-1.5l1,-1.6l0.7,-1.7l0,-1.8l2.9,-6.6l-2.5,-4.4l0.6,-3.6l0.4,-1.5l0,-0.1l0.6,0.6l3.2,1.3l1,0.9l1.1,0.5l1.1,-0.5l0.7,-0.2l8.1,1.8l11.2,6l6.2,2.2l0.9,1l0.9,0.3l8.2,7.3l1.9,3.1l0.6,0.4l2,0.6l3.2,2.9l1.5,1l1.6,0.2l1.6,-0.2l2.4,-0.9l0.8,0l0.9,0.1l0.8,-0.1l0.7,-0.4l2.1,-3.2l0.2,-0.7l-1,-1.5l-1.5,-1.5l-1.2,-0.7l-1.6,-0.5l-2.5,-2.1l-1.9,-0.2l0.3,-0.4l0.4,-0.2l-3.5,-0.2l2.2,-1.8l1,-0.7l1.4,-0.2l1.3,-0.5l2.3,-2.4l1,-0.7l2.7,0.2l5.1,2.2l2,-0.6l3.1,1.4l0.8,-0.1zm-134.9,168.9l1.7,0.9l0.1,1.4l-0.3,2l-0.1,2.7l-0.6,-0.8l-0.4,-0.3l-0.2,-0.4l-0.2,-1.1l-1.4,1l0.6,-3.7l0.4,-1.4l0.4,-0.3zm-7,1.8l0.1,-4.6l0.4,-1.9l0.9,-1.4l0.5,0.3l0.4,0.4l0.5,0.2l0.7,0l0,0.8l-0.5,0.2l-0.5,0.4l-0.4,0.3l0,1.4l-0.6,1.1l-0.8,1.3l-0.7,1.5z" id="GRJ"/>
   <path d="m338.1,526.5l0,0.1l-0.4,1.5l-0.6,3.6l2.5,4.4l-2.9,6.6l0,1.8l-0.7,1.7l-1,1.6l-2,1.5l-7.8,3.3l-0.6,1.7l0.3,2.2l-0.3,2l-1,1.7l-0.3,3.5l1.5,1.6l0.8,1.9l-0.7,2.1l-5.8,2.2l-2.7,3.1l-1.9,0.8l-1.7,-0.7l-0.4,-1.8l-3.5,-0.2l-2,0.7l-2.6,3.1l-1.8,0.1l-7,-3.3l-3.2,-2.3l-3.7,-1.3l-0.8,-3.6l-3.8,0.8l-5.9,9.7l-0.5,5.2l2.1,6.4l0.2,14.2l1.7,0.2l1.9,-0.4l3.3,1.3l9.5,7.5l2.9,3.7l-1,1.6l-1.9,0.7l-2.2,-1.7l-1.7,1.5l-2.6,3.1l-0.7,1.6l0.8,1.9l-3.7,4.7l-1.9,1.1l-3.4,-0.9l-3.7,0.8l-6.9,-1.4l-1.6,0.7l-0.7,-2.2l-7,-13.3l-3.9,-6l-2,-2.1l-8.8,-6.3l-2.2,-1.1l-1.1,-1.2l-2,-2.6l-1.1,-1l-6,-1.8l-2,0.6l-0.5,3.5l-0.7,0l-0.2,-1.2l0,-1.3l-0.2,-1.2l-1,-0.8l1.3,-2.7l0.4,-2.1l-0.3,-2.2l-1.7,-5.9l-1.1,-1.7l-1.4,-1.1l-4.5,-2.4l-10.8,-3.3l-1,-0.8l-0.5,-1.6l0.4,-1.9l-0.6,-1l2.8,-8.9l0.7,0l2.5,2.2l4.5,-2.2l4.5,-3.9l2.6,-3.2l1.5,0.5l1.2,-0.8l1.1,-1.3l1.2,-1.1l0,-1l-0.4,-0.2l-0.1,-0.1l0,-0.2l-0.2,-0.3l-1,0.5l-1,0.7l-0.9,0.7l-0.7,0.7l4.7,-7.1l0.2,-0.9l3.6,-5.8l0.5,-1.4l0.2,-1.6l0.2,-7.9l-0.1,-2.1l1.1,1.2l1.3,2.4l1.1,0.9l-0.1,-1.5l-0.2,-1.3l-0.5,-0.9l0.5,0.8l1.5,0.8l1.9,0.2l2.2,0.1l1.4,0.5l5.2,3.9l8.1,1.9l2,-0.4l2,-0.9l3.4,-2.3l2.7,-3.4l4.1,-8.4l2.3,-3.4l7.9,-5l0.9,-1l6.8,1.4l2.2,0l1,-0.2l0.9,-0.6l1,0.9l1.3,0.8l1.5,0.7l1.6,0.2l1.3,0.5l0.6,1.1l0.4,1.5l0.8,1.5l1.1,0.9l3,1.5l1.2,0.2l0.8,-0.1l1.1,-0.6l0.5,-0.1l0.9,0.9l0.7,0.6l0.9,0.3l0.6,0.7l1.1,3.3l0.8,1.4l0.8,0.4l3.7,1.3l0.4,0.3l0.3,0.6l0.6,0.6l0.9,0.3l3.1,0l4.5,1.1l1.2,0.7l1.9,-0.8l1.6,1l1.1,1zm-133.3,-115.2l-0.1,-1.4l1,-3.5l1.7,-1.6l2,-0.8l12.8,-0.2l1.9,-0.4l4,-1.9l5.4,-4.6l2.4,-0.8l0,4.4l2.7,3.7l0.7,1.9l-0.6,1.7l0.1,1.8l-2.7,5l0.5,1.9l10.2,6.3l0.8,2.3l-0.6,3.5l0.4,1.9l1.6,1.3l1.8,0.3l1.6,1.3l5.6,1.2l3.4,1.6l0,1.9l-5.9,3l-1.7,1.5l-0.7,2.1l0,1.8l1.6,3.8l1.5,1.7l5.6,3.8l3.4,1.6l3.6,0.2l5.5,-0.9l1.2,1.9l-0.3,1.8l2.2,-0.4l3.8,-3l-0.1,-3.6l0.6,-1.7l5.4,0.5l3.9,-1.9l1.7,-1.5l4.4,-1.8l0.1,1.1l4,2.4l0,1.8l-1.6,3.4l0.4,3.6l-1.3,3.4l0.4,4.1l-1.3,1.5l0,1.8l3.1,3.4l-1.7,3.7l0.4,4l-1,1.6l-2,1.1l-3.8,0.9l-4.2,3.6l-2.1,3.9l0.3,2.6l-0.7,2.2l-0.5,-1l-0.6,-0.4l-1,0.2l-5,4.4l-0.8,1.4l-0.3,2.5l-0.9,0.7l-2,-1.2l-2.8,-2.7l-6,0l-1.7,0.5l-1.4,0.8l-1.4,0.4l-1.5,-0.8l-6.6,4.9l-1.1,2.4l-0.7,0l-0.9,-0.9l-1.5,-0.3l-1.3,-0.1l-0.6,-0.1l-0.7,-0.9l-4.2,-2.3l1.8,-0.4l1.6,0.9l1.5,1.4l1.4,0.9l0,-1l-0.4,-0.6l-0.3,-0.4l0.1,-0.6l0.6,-1l-0.9,-0.7l-0.5,-0.2l0,-1l0.4,-0.2l1,-0.7l-2,0l0.6,-1.8l-0.9,0.5l-0.9,0.2l-0.8,-0.1l-0.8,-0.6l-0.6,0.5l-0.4,0.2l-1.1,0.3l0.6,-2.6l-1.2,-1.3l-2.1,-0.5l-1.9,-0.1l-0.8,-1.3l-1,-7.8l-2.1,-2.6l-1.2,-0.9l-0.5,-0.2l-0.5,0.1l-1,0.1l0.4,1.1l4.2,7l-1.4,0l0.2,0.5l0.1,0.1l0.1,0l0.3,0.3l-0.4,1.3l-0.2,1.5l-0.4,1.2l-0.7,0.5l-1.1,0.2l-2.2,1.1l-0.7,0.5l0.3,0.6l0.1,0l0.4,0.2l-0.8,1l-1.3,-0.9l-0.9,0.4l-0.3,0.9l0.1,0.4l0.5,0.5l-0.8,1l-1.5,1.3l-1.1,0.7l-0.7,0.3l-2,-0.2l-0.9,-0.5l-0.7,-0.7l-0.8,-0.2l-0.8,1.4l0.5,0.5l0.6,0.4l0.8,0.1l-0.5,0.1l-1.3,0.4l-0.8,0.8l-0.1,1.4l-1.9,-0.2l-0.7,-1.3l-0.3,-1.7l-0.6,-1.3l-1.2,-0.4l-3.1,-0.1l-1.3,-0.4l1.2,-0.6l0.9,-0.6l0.4,-1l-0.4,-1.5l-1,0.6l-0.4,0.4l0.9,-2l0.5,-0.7l-0.3,0.9l1.1,0.5l1.2,-0.8l0.9,-1.1l0.6,-1.3l-1.8,-1.5l-0.8,0l-0.9,1.5l-1.1,-0.6l-0.9,-1l-0.5,-1.3l-0.3,-1.6l0.4,-0.3l0.1,0l0,-0.1l0.2,-0.6l1,1.3l1.2,0.7l1,-0.4l0.3,-1.6l-1.4,1l0.5,-1.7l-1,-2.5l0.5,-1.2l0,-1l-0.9,0l-0.7,-0.2l-1.2,-0.6l1,-0.6l0.4,-0.2l0.7,-0.1l-0.4,-0.2l-0.6,-0.6l-0.4,-0.2l1,-2.1l0.2,-1l-0.1,-0.8l-1,-0.6l-0.8,0.5l-0.8,0.9l-0.9,0.5l-0.4,0.5l-1.1,0.9l-1.2,0.6l-0.5,-0.6l-0.3,-1.2l-0.9,-1.9l-0.2,-1.4l0.7,-5.4l0.1,-2.9l-2.2,-2.3l-1.6,-5l-0.9,-1.1l-4,0l-1.4,-0.5l-1.3,-1.3l-0.7,-1.6l-2.5,-10.7l-1,-2.1l-1.4,-1l-1.5,0.5l-1.5,1.5l-1.2,1.9l-0.8,1.5l-0.7,-1.5l-0.6,0.3l-0.7,0.6l-0.8,-0.2l-1.1,1l-0.4,-0.6l-0.2,-1.2l-0.4,-1l-3.5,-2.8l0,-0.9l0.8,-1.7l0.5,-2.4l0.8,-2.1l1.8,-1l2.2,0.1l1.2,-0.1l0.5,-0.4l-0.3,-0.9l-0.8,-0.7l-0.9,-0.5l-2.2,-1.1l-0.8,-2l-0.2,-2.4l0.3,-2l1.3,-2.5l0.5,1l0.7,2.2l1.6,1.1l2,0.7l2,-1l1.4,-1.9l1,-2.3l0.7,0l0.4,1.1l0.1,0.7l-0.1,0.5l-0.4,0.4l0.2,0.3l0.3,0.2l0.1,0.5l-0.6,0.8l2.1,0.1l1.7,-0.3l1.3,-1l0.5,-2.5l0.7,0l1,1.4l1,0.1l1.3,-0.4l1.6,-0.1l1.4,0.6l0.9,0.6l1.2,0.5l1.8,0.2l0.3,0.9l-0.3,1.8l-0.2,1.9l0.9,0.8l1.4,0.4l1.4,0.9l2.5,2.3l0.1,-1.2l0.3,-0.6l0.4,-0.5l0.6,-0.5l0,-0.8l-0.8,-1.7l1.1,-0.8l1.9,0.1l1.7,1l2.4,2.9l0,0.3l0.7,0.4l0.6,0.2l0.5,-0.3l0.4,-1.3l-0.9,-0.7l-0.3,-0.6l-0.3,-2l-0.4,-0.1l-0.5,0.1l-0.4,-0.3l-1.3,-2.3l-0.2,-1.4l0.7,-1.8l-0.5,-1l0.3,-1.2l0.8,-0.7l0.8,0.3l0,-3.1l-2.5,-3.4l-5.2,-5.2l-0.8,0.8l-0.3,0.9l0,0.9l0.4,0.9l-1.4,-0.5l-0.5,0.1z" id="GRG"/>
   <path d="m520.1,949.5l-0.7,1.1l-0.1,1.3l0.5,1.2l1,0.6l0,0.8l-2.8,-0.1l-2.3,-1.3l-4.1,-2.8l0,-0.8l1.2,0l0.9,-0.4l0.8,-0.6l0.7,-0.7l1.2,-0.1l1.3,0.2l2.4,0.7l0,0.9zm225.3,-57.8l-0.9,2.4l-1.5,1.5l-1.8,1.3l-1.5,1.8l1.8,6.5l1.6,2.9l2.3,-1.6l-1,2l-1.7,2l-1,1.9l0.9,1.8l-0.7,2.3l-1,2.3l-1.1,2l-1.1,1.6l-0.5,1.1l-1.1,3l-0.5,0.6l-1.2,0.2l-1.1,0.5l-0.9,0.6l-5.9,2.7l-1.5,0.4l-2.8,0l-0.2,-0.4l-1.5,-1.7l-0.7,-0.5l-2.5,-0.4l-2,0.3l-1.8,-0.1l-1.9,-1.2l-0.9,-0.8l-0.9,-0.2l-0.8,0.2l-0.9,0.8l-0.8,0.2l-3.7,-0.6l-4.4,0.9l-7.5,2.6l-21.3,-0.9l-6.5,2l-1.6,1l-1.7,0.6l-9.3,-1.1l-7,0.2l-1.9,0.6l-2.5,0.3l-1,0.5l-1.5,1l-5.8,2.3l-1.6,0.4l-5.9,-0.6l-2.2,0.6l-0.7,0.4l-0.8,1l-0.7,0.3l-1.1,0l-0.6,-0.4l-0.6,-0.3l-0.8,-0.2l-1.8,0.1l-1.6,0.4l-2.6,1.1l-1.6,-0.6l-2,-0.2l-25.2,0.8l0,-0.7l1.3,-1.1l0.4,-1.5l-0.3,-4.7l0.1,-1.5l0.7,-2.5l-0.1,-1.7l-0.4,-1.3l-0.5,-1.7l-0.8,-1.5l-0.8,-0.7l-0.5,-0.3l-0.6,-0.5l-0.6,-0.6l-1.1,-0.3l-9.1,-0.2l-2.5,-0.5l-1.5,-0.9l-0.7,0l-0.9,0.3l-1.2,-1l-2.1,-2.8l-1.4,-1l-1.9,-1l-2,-0.4l-1.7,0.7l-6.2,-3.1l-0.2,-1.2l0,-0.8l-11.2,1.1l-7.8,-1.1l-0.4,-0.4l-0.5,-0.6l-0.4,-0.6l-0.1,-0.2l-0.7,0l-0.5,0.3l-0.5,0.4l-0.4,0.2l-7.4,0l-1.8,-0.8l-0.9,0l-0.4,1.2l-0.5,-0.1l-2.7,0.6l-1.9,-0.9l-2.9,-3.6l-1.6,-0.8l-8.8,0.2l-4.3,-0.6l-3.4,-2.1l-0.9,0.7l-0.6,0.3l-0.6,0l-0.7,-0.2l-1.8,1.5l-7.3,-0.3l-2.9,1.4l-1.4,-1.4l-6,0.3l-2.4,-0.6l-0.5,-0.7l0.2,-1.2l-0.4,-0.7l-0.8,-0.4l-1.4,-0.2l-0.7,-0.3l-0.8,-0.8l-0.6,-1l-0.8,-0.9l-1.3,-0.7l0.7,-0.9l-0.4,0l-0.2,-0.1l-0.1,-0.1l0,-0.6l1.5,-0.8l0.6,-0.1l0.7,-0.1l0.2,-0.3l-0.1,-0.3l0.1,-0.1l0.5,0l-0.6,-1l-0.5,-0.9l-0.1,-1.1l0.5,-1.4l-0.7,-2.3l1.1,-2.8l1.6,-2.8l0.8,-2l-0.2,-0.8l-0.5,-0.8l-0.4,-0.6l-0.3,0l0.2,-0.8l1,-3.2l0.7,-1.1l0.1,-1l-1.3,-0.8l0,-0.8l0.5,-0.6l0.2,-0.3l-0.2,-0.3l-0.5,-0.6l1.5,-3.2l0.4,-1.5l-0.4,-1.4l2,-3.5l0.5,-1.2l0.3,2.6l0,5.1l0.7,2.2l0.5,1.3l0.4,0.3l0.8,0.1l0.8,0.3l0.1,0.5l-0.1,0.5l0.3,0.5l0.9,0.4l0.9,0.3l2.4,0.2l2.1,-0.4l1.5,-1.3l1,-2.1l0.3,-3.1l-0.6,-2.4l-0.9,-2.4l-0.3,-1.9l1.1,-1.2l-1,-2.3l-0.3,-1.8l0.5,-1.6l1.1,-1.6l1.5,-1.6l0.9,0.1l1,0.9l2,1l0,0.9l-1.2,1.3l0,1.6l1.2,4l-0.2,3.3l0.2,1l2.1,3.9l1.8,1.3l8.6,0.9l2.9,0.8l1.5,-0.5l5.8,0.6l2.6,-0.1l1.1,-0.3l0.9,-0.5l0.6,-0.9l0.2,-1.3l0.5,-1l1.1,-0.3l2.6,0.1l-1.2,-4.5l3.4,-1.4l4.7,0.5l2.3,1.4l2.1,5.6l-0.3,0.9l-0.5,0.4l-0.8,1.7l-0.5,0.6l-1,0.4l-1,0.3l-2.2,0.1l-4,-0.9l-2.3,-0.1l-1.5,1l0.6,1.1l1.7,1.1l1.9,0.9l3.1,0.9l3.4,2.4l1.7,0.5l1.8,-0.3l1.8,-0.8l1.7,-1.2l1.4,-1.1l1.2,5.8l0.1,2.4l-0.2,4.5l0.2,1.1l0.8,0.6l2.1,0.1l1,0.6l3.8,1.4l9.1,-2.7l3.7,0.9l2.1,-1.2l8.4,-1.5l2.8,-0.9l6.4,-3.4l2.1,-0.7l2.2,-0.4l2.4,-0.1l10.1,1.8l2.2,1.2l0.9,-0.8l1.8,-0.8l2.9,-1l6.4,2.6l0.6,-0.8l0.3,-0.3l0.3,-0.4l0.2,-1.1l4.8,1.2l1.2,1.5l1.8,-0.3l0.6,0.2l0.1,0.8l-0.2,0.7l-0.4,0.7l-0.1,0.7l0.8,3.2l2.2,1.4l3.1,0.2l4.8,-0.3l2.9,-0.6l1.6,0.1l0.3,0.3l0.5,0.5l0.7,0.6l1,0.3l3.1,0l5.7,-1l2.5,0.8l1.5,0.1l1.6,-0.9l0.7,1l0.8,-1l1.8,1.8l1.5,2.1l1.7,1.6l2.9,0.7l2.9,-0.4l16.2,-6.1l2.1,-0.4l1.2,0.2l2.2,1.2l1.5,0.3l6.1,0l-0.8,1.7l-1.1,1.4l-2.4,2.1l0.8,0.8l-0.7,1.1l-0.1,1l0.5,0.8l1,0.6l-0.2,-2.2l0.6,-1l0.8,0.2l0.8,1.2l-0.5,0.9l0,0.4l0.5,0.5l-0.6,0.9l-0.5,-0.4l-0.4,-0.1l-0.4,0.3l-0.8,1l0.3,1.1l-0.9,1.4l-0.7,1.9l0.5,2.6l-1.2,1l0.1,1.1l0.7,1.2l0.4,1.4l0.4,2.5l1,0.3l1.5,-0.2l1.7,0.8l1.4,1.1l1.2,0.3l2.3,-0.1l1.3,-0.8l1.8,-3.5l1.2,-0.8l0.9,-0.1l0.6,-0.2l1,-0.7l1.2,-2.2l0.2,-0.3l1.2,-0.4l3.3,-0.2l3.9,-0.8l0.7,-0.3l3.2,-2.1l0.9,-0.9l0.8,-0.5l1,-0.2l0.7,0.1l0.5,-0.1l0.6,-0.7l0.7,0l1.4,1.2l4,1l-1.2,1.3l2.2,1.2l2.6,-0.3l2.5,-1.2l1.9,-1.4l-0.5,-0.3l0,-0.1l-0.2,-0.5l2.8,-2.7l2,-2.7l2.2,-2l3.6,-0.4l-0.8,-1.7l1.1,0.1l0.4,-0.1l-0.2,-0.4l-0.3,-0.9l-0.2,-0.5l2.8,0z" id="GRM"/>
   <path d="m812.7,877.1l2.7,-0.7l1,-0.1l0.1,0.8l-0.6,0.5l-0.8,0.4l0.8,2.6l0,0.8l-1.6,0l-2.5,0.5l-0.9,0.4l-1.3,0.8l-0.9,0.9l-1,0.6l-1.3,0.3l-1,0.4l-1.7,1.7l-1.2,0.5l-1.3,-0.6l-1.1,-1.2l-0.6,-1.1l0.4,-0.6l1,-0.5l1.8,-2.4l0.8,-0.5l0.3,-0.4l0.7,-1.8l0.4,-0.4l0.8,0.1l1.2,0.7l0.5,0l3.7,-1.5l1.6,-0.2zm24.2,-11.3l2.2,2.1l0.4,1.4l-0.5,2.7l-2.6,-0.7l-2.7,1.1l-2,2.4l-0.5,3.2l0.3,-0.4l0.1,-0.4l0.4,-0.2l0.7,0.1l-0.5,1l-0.8,1l-1.1,0.9l-1.2,0.6l0.7,-2.1l-0.8,-0.7l-1.4,-0.2l-1.3,-0.5l-0.9,-1.1l-0.7,-1.5l0.1,-1.2l1.5,-0.6l0,-0.7l-0.7,0l0,-0.9l1.7,-0.5l0.1,-1.3l-1.1,-3.5l0.1,-1.7l0.3,-1.1l0.1,-1l-0.5,-1.3l-0.8,-0.7l-2.7,-1.7l-0.7,-1.1l0.1,-1.7l0.8,-1.7l0.9,-1.3l0.7,-0.5l2.4,-1.5l0.8,-3.2l0.5,-3.3l2.7,-3.1l0.7,-3.7l0.1,-3.8l-0.6,-2.2l0,-0.8l1.5,-1l0.7,0l0,1l0.7,0l0.6,-0.8l1.5,-1.9l0.9,-0.7l0.7,-0.2l0.6,0.3l0.6,0.6l-0.4,1.7l-1.4,2.4l-0.3,1.6l0,3l0.1,1.1l0.6,1.3l0,1.1l-0.6,0.9l-1.2,1.2l-1.2,1.5l-0.5,2l-0.4,1.1l-1,1.2l-1,1.5l-0.5,2.2l0,2l0.2,0.8l2.7,2.1l2.5,4.5l0.7,0.7l0.5,0.4l-0.4,0.9l-0.8,0.9l-0.4,0.3l-0.1,0.9l0.1,0.1l0.7,0.7zm-151.7,-109.5l1.4,-0.5l1,-1.1l0.9,-0.7l3.6,1.5l3.4,3l2,0.4l-0.9,1.7l-0.9,-0.2l-1,-1l-1.1,-0.5l-1.6,0.3l-1.2,0.6l-1.4,0.3l-2.6,-0.5l-0.5,0l-0.3,-0.1l-0.7,-1l-0.4,-0.8l-0.2,-0.9l0.5,-0.5zm257.3,-6.2l-1.4,1.8l1.1,5.8l-2.1,1.2l-0.5,0.7l-0.7,4.5l-0.7,1.4l-2.3,2.7l-0.5,1.6l-0.2,3.6l-0.5,1.5l-0.9,0.7l-0.7,0.8l-1.3,3.9l-0.5,1.3l-0.3,-0.2l-1.8,0l-0.7,0.2l-0.3,0.5l-0.1,0.9l-0.4,0.8l-1,0.4l-2.5,6.1l1,0.7l0.8,0.5l0.8,0.3l1,0.2l-0.3,1l-0.4,0.9l-0.6,0.8l-0.8,0.8l0.4,0.6l1,2l-5.4,-1.6l-2.1,-0.1l-2.4,0.9l-4.6,2.9l-1.7,1.7l-4.1,6.8l-2.9,3.9l-3.8,3.5l-4.8,3l-4.2,-2.9l-0.7,-0.3l-0.2,-0.8l-1.9,-3.9l1.4,-1.9l2.9,-8.9l0.6,-3.1l-0.3,-2.9l-1,-1.5l-1.4,-1l-2.5,-2.9l-0.2,-0.6l0.6,-1l-0.1,-0.6l-1,-0.8l-0.6,0.1l-0.6,0l-0.7,-1.1l1.7,-0.6l4,-2.8l2.5,-0.9l0.8,-0.7l-0.4,-1l0.9,-0.8l0.2,-0.7l0,-0.8l0.2,-1.1l0.7,-1.6l0.7,-1.2l1,-2l0.4,-0.5l3.1,-0.9l0.4,-0.5l0.8,-1.1l3.4,-3.6l0.8,-1.4l1,-0.9l6.1,-2.2l11.5,-6.2l1.5,-1.2l3.3,-1.6l6.8,0.4l3.1,-4l0.8,0l0.9,0.8l0.9,1.4l0,0.8zm-293.6,-6.1l3.7,1.2l3.5,2.6l2.8,3.3l1.2,3.4l-0.2,2.5l-1,2.6l-1.5,2l-1.9,0.7l-2.1,-0.2l-4.7,-1.4l-1.9,-1l1.2,-0.6l2.4,0.1l1.3,-0.3l1,-0.9l1,-1.9l0.8,-0.7l-0.7,-3.4l-0.5,-1.2l-0.9,-0.7l0,-0.8l0.6,-1.6l-1.5,-0.9l-4,-1.1l0,-0.9l0.5,-0.2l0.4,-0.3l0.5,-0.3zm207,5.3l-1,2.3l1.3,1.3l2.1,0.2l1.9,-1.2l0.3,0.4l0.2,0.4l0.1,0.9l-0.6,1.3l-1.1,1.2l-1.2,0.6l-1.2,-0.4l-0.6,0.6l-0.9,-0.6l-1.2,0.2l-1.4,-1.4l-0.7,-2.2l0.5,-1.9l-1.4,-0.8l-1.1,0.4l-1,1l-0.7,1.2l-0.7,0l-0.6,-1.2l-1.3,-0.9l-0.2,-1l0.1,-2.6l0.1,-1.2l0.4,-1.1l1,2.1l1.5,-0.6l1.7,-1.5l1.5,-0.8l1.3,1l1.3,3.6l1.6,0.7zm-106.3,-25.5l3.2,0.2l3.8,2.3l3,2.8l0.7,1.8l-0.7,0.6l-0.5,0.1l-0.5,-0.5l-0.5,-1.1l-1.6,1.4l-1.4,0.5l-3,-0.2l-1.4,0.5l-1,1.1l-1.5,2.9l-0.1,1.7l0.2,1.6l-0.8,0.8l-2.5,0.2l-1.7,-0.7l-1.9,-3.5l-1.7,-1l0.2,-0.9l0.2,-0.3l0.4,-0.5l-1,-1.5l-0.3,-1.9l0.6,-1l1.4,0.8l1.5,-0.9l1.7,1.1l1.7,1.6l1.4,0.8l0.9,-0.5l1,-1.7l0.6,-0.4l1.1,0.2l0.9,0.2l0.8,0.1l1.1,-0.5l-1.4,-0.8l-0.6,-1.2l0.4,-1.1l0.1,-0.3l-1.1,-0.4l-0.9,-0.7l-0.8,-0.8l0,-0.9zm154.9,6.2l0.1,1.5l0.2,1.1l0.4,1l-0.9,0.6l-0.5,0.2l0.5,0.2l0.4,0.4l0.3,0.5l0.2,0.7l-2.3,1.3l-1.2,0.4l-1.5,0l0,-0.8l0.6,-0.3l0.9,-0.9l0.7,-0.6l-4.5,-1.5l-1.3,-0.9l1.5,-1.2l-4.9,0l0.7,-1.1l1.1,-1.4l1,-1.3l0.1,-1.4l0.5,0l0.2,-0.2l0.7,-0.7l0,0.9l1.7,-2.2l2.4,-1.4l2,-0.2l0.2,1.1l-2.9,0.9l-1.3,0.9l-0.7,1.8l0.9,-0.4l0.5,0l0.7,1.3l3.5,-2.7l0.2,0.4l0.1,0.1l0.1,0.1l0.3,0.3l-0.5,0.4l-0.4,0.5l-0.2,0.5l-0.3,0.4l0.7,-0.5l0.3,0.2l0,0.7l-0.3,1.3zm-308.4,-9.7l8.2,5.2l1.6,2.8l0,0.8l-2.6,-0.2l-1.6,-0.5l-2.8,-2.8l-1.7,-1.1l-1.6,-0.7l-1.4,-1.2l-0.9,-2.3l2.1,-0.1l0.7,0.1zm28.6,-7l4,0.1l-0.3,0.3l0,0.6l0.1,0.8l-5.6,5.8l-3.7,3.1l-2.7,-0.2l3.9,-7.9l1.2,-0.4l2,-1.8l1.1,-0.4zm-69.1,-3.5l4,-2.2l2.1,-0.5l1.3,1.8l-0.3,1.4l0.3,7l-0.9,0.9l-2,1l-3.4,1.1l-12.4,0.3l-3.8,1.5l-0.4,-1.8l0.8,-2.8l-0.4,-1.6l0.4,-0.3l0.5,-0.8l0.5,-0.5l-1,-0.8l-0.4,-0.2l1,-1l0.8,-2.3l1,-1.1l0.5,0.7l0.6,0.7l0.8,0.7l0.9,0.5l1.4,-0.3l1.2,3.7l2,1l3.5,0l1.1,-0.6l-0.3,-1.4l-0.9,-1.5l-0.9,-0.9l-1.4,0.8l-1,-0.8l-0.9,-1.4l-1,-1.2l0,-0.8l1.2,-1.4l1.3,0.8l1.8,1.5l2.4,0.8zm17.3,-5.3l1.4,0.7l1,1.1l0.2,1.3l-0.9,1.8l-1.5,0.4l-1.5,-1.3l-2.2,-3.1l1.4,-1.7l1.7,0l0.5,0.2l-0.1,0.6zm64.8,8.8l0.2,-0.3l0.1,0l0.1,-0.2l0.3,-0.4l-0.9,0.1l-2,-0.1l0.5,-1.2l0.6,-1.7l0.3,-1.6l-0.3,-0.7l4.6,-3.5l1.3,1.6l1.7,3.1l1.2,1.4l1.8,1l1.9,0.6l1.6,0.9l1,2l-1.3,0.2l-0.7,0.9l-0.1,1.2l0.6,1.2l0,0.8l-2.2,3.2l-3.7,-1.9l-6.6,-6.6zm-68.3,-14.9l0,0.9l-0.8,0.9l-2.9,5.1l-1.7,0.2l-1.7,-0.5l-0.7,-0.9l-0.3,-1.5l-0.6,-0.9l-0.3,-0.9l0.5,-1.5l0.9,-0.9l1.3,-0.8l1.5,-0.4l1.2,0.3l0.7,0.6l0.6,0.2l0.6,-0.1l0.9,-0.7l0.2,0.4l0,0.2l0,0.2l0.6,0.1zm83.7,0.5l0.7,-1.5l1.7,-1.7l2.5,-1.7l0.8,0l-0.8,0.9l0.6,0.1l0.2,0.3l-0.1,3.2l-2,1.3l-2.4,0.3l-1.2,-1.2zm190.9,-9.7l1.1,2l5.1,1.3l1.5,2.4l-3.3,1.9l-11.3,3.2l-2.4,1.4l-6.2,6.7l-2.2,0.3l-2.6,-0.4l-2.4,-0.8l-1.3,-1l-5.7,2.8l-1.7,1.6l1.1,2.7l-1.5,0.5l-0.6,1.3l0.1,1.8l0.6,1.7l-1.8,-0.4l-1.8,-1.4l-1.5,-1.7l-0.5,-1.3l0.2,-4.5l0.6,-1.9l1.2,0.7l0.5,-0.7l1.2,-1.3l0.5,-0.7l0.5,0.4l2.3,1.4l1.4,-1.4l0.8,-1.2l1.4,-2.7l3.5,-3.1l0.6,-0.8l10.6,-6.7l10.4,-1.6l1.6,-0.5zm-171.8,3.1l0.6,-1.3l1,-0.7l1.3,-0.5l1.3,-1.1l1,0.5l2.5,2.1l-1,1.5l-2,0.1l-2.4,-0.5l-2.3,-0.1zm40.8,-7.1l1.3,1.8l1.7,1.5l1.9,1.2l2.1,0.7l0.1,0.6l-0.2,0.2l-0.3,0l-0.3,0.1l-1.8,-0.7l-1.8,0.4l-1.7,0.5l-1,-0.2l-1.6,1.6l-4.3,3.2l-1.5,0.6l-1.3,1.1l-2.9,4.8l-1.4,1.1l-8.3,2.8l-4.4,0.4l-1.7,-3.2l1.4,0.8l0.8,-1.4l1.4,-1l1.5,-0.3l1.2,1l0.7,0l0.7,-0.7l0.9,-0.2l2.3,0l0.4,-0.4l1.4,-3.1l-1.2,0.6l-0.6,-0.7l-0.2,-1.1l0.2,-0.5l1.1,-0.2l11.9,-6.1l0,-0.8l-0.6,-0.3l-0.4,-0.2l-0.4,-0.3l-0.8,-0.1l0,-0.9l2.9,-0.8l1.2,-0.8l0.8,-1l0.8,0zm-95,-1.8l-1.5,-0.3l-2,-1.8l-1.7,-2.6l-0.5,-2.4l1,-1.8l1.8,-1.6l2,-1l1.6,0l-1.9,6.8l-1,2.1l0.6,0.6l0.6,0.6l1,1.4zm-38.8,-10.6l1.3,1.9l3.6,4.5l1.3,3.7l0.2,1l-0.4,0.5l-1.4,0.7l-0.3,0.5l-3.6,4l-1.5,-2.4l-1.8,-3.6l-1,-3.5l0.8,-1.9l0,-0.9l-1.1,-0.9l-1.2,-2.2l-1.2,-0.4l0,-0.7l0.1,-0.4l0.6,-0.8l-0.4,-0.1l-0.2,0l-0.1,-0.2l0,-0.6l1.4,0l2.4,2.1l1,0.5l0.8,-0.8l0.7,0zm226.8,11.5l0.9,-1.7l0.5,-0.5l0.7,-0.5l-0.7,-1.9l0.5,-1.6l0.9,-1.4l0.7,-1.2l0.2,-0.3l0.4,-0.6l0.3,-0.9l-0.2,-0.9l-0.9,-0.7l-0.8,0.1l-0.7,0.4l-0.4,0.2l-0.8,-0.8l-0.5,-0.7l-0.9,-2l-0.8,-0.8l-0.7,-0.3l-0.3,-0.6l0.4,-1.8l1.2,1.6l8.7,3.6l0,0.9l-1.4,0l1,1.7l1.3,0.8l1.1,0.8l0.2,2.1l0.8,-1.1l0.9,-0.5l0.9,0l0.9,0.6l0.3,1.5l-0.8,2.3l0.5,1.5l-0.5,0.9l-0.2,0.3l-0.1,0.6l0.8,0l0,-0.9l0.6,0l-0.7,1.9l-1.7,0l-3.2,-1l-0.5,0.8l-0.2,1.1l-0.3,1.1l-0.7,0.5l-1,-0.3l-0.8,-0.4l-0.7,-0.1l-0.7,0.8l-0.8,-1.2l-0.8,-1l-0.9,-0.6l-1,0.2zm-113.4,-20.3l-0.2,0.6l-0.1,0.1l-0.4,0.3l-2.1,-3.6l1.8,0.1l1.2,-0.5l2.6,-1.4l-0.3,1l-0.4,0.8l0.9,1.3l0.5,0.4l-0.5,1l-0.8,0.7l-1,0.1l-1.2,-0.9zm-54.2,7l-1.2,0.4l-0.6,0.8l-0.4,1.1l-0.7,1.3l-0.7,0.8l-1.3,1.3l-2.9,2l-1.6,0.5l-3.7,-0.2l-1,-0.4l-2.1,-1.9l-1.1,-0.4l-0.9,-0.6l0,-1.5l1,-4.9l1.3,-1.6l3.2,-1.9l-0.7,-0.5l-0.7,-0.2l-0.7,0.1l1.4,-2.1l3,-2.4l3.2,-1.9l3,-1l-1.6,2.2l0.9,0.9l2.8,0.5l1.4,-1.8l-0.3,-0.5l-0.4,-1.3l1.4,-0.1l1.4,0.1l-0.2,1l-0.4,0.9l-0.4,1l-0.4,0.7l-1.8,4.4l0,1.8l1.8,0.8l0,0.9l-1.4,0l0,0.9l1.4,0l0,0.8zm25.3,-19l0.8,-0.5l1.7,0.9l2.5,1.9l1.2,2.3l0.6,2.4l0.3,5.5l-0.3,2.4l-1,5.3l-0.2,2.8l-2.9,6.3l-0.5,0.5l-0.8,0.1l-1.4,0.6l-3.6,3.6l-1.2,0.4l-1.9,0.5l-1.2,0.8l-0.2,-0.8l-0.4,-0.2l-0.7,-0.7l-0.4,-1l-0.7,-2.5l-0.3,-1l-0.7,-0.8l-2.8,-1.8l0.4,-0.7l0.1,-0.7l-0.3,-0.8l-0.6,-0.9l-0.5,-1l-0.1,-1l0.2,-0.8l0.1,-0.3l-1.6,-3.1l-1.2,-1.6l-1.4,-0.6l0,-0.9l0.6,-0.5l0.5,-0.2l0.5,0.1l0.5,0.6l1,-0.7l3.9,-4.5l6.7,-4.9l0.6,-0.8l1.5,-2.7l0.7,-0.4l2.1,-0.2l0.4,-0.4zm-111.2,2.3l-0.8,-0.9l3.3,-2.1l1.8,-0.5l1.3,0.8l0.7,0l0.5,-0.7l0.5,-0.1l0.6,0.3l0.5,0.5l0.6,1.8l0.3,2.3l0,2.5l-0.2,2.4l-0.7,-1.9l-0.7,0l0,1.6l-0.4,1.2l-0.7,0.9l-1,0.7l-0.3,-0.3l0,-0.2l-0.1,-0.1l-0.3,-0.3l-0.1,-0.6l0.2,-0.1l0.3,0l0.3,-0.1l-0.9,-0.6l-0.9,-0.2l-0.9,0.2l-0.8,0.6l-0.2,-1.3l-0.3,-0.4l-0.4,0.1l-0.5,0.8l-0.9,-0.6l-0.8,0l-0.6,0.5l-0.6,0.9l-0.4,-1.5l0.3,-0.4l0.9,-0.8l-0.7,-0.7l-0.1,-0.6l0.5,-0.6l0.9,-0.7l-0.4,-1l0.2,-0.4l1,-0.4zm-7.8,-30.1l0.7,-3.4l2.1,-2.4l2.5,-1.9l1.7,-2l0.8,0l0,1.8l-0.3,1l-0.7,1.9l-0.4,0.6l4,2.4l1.4,1.9l-0.5,2.8l-1.5,-0.5l-1.1,1.5l-0.7,2.3l-0.2,2l-1.5,1.4l-1.8,2l-2.4,1.3l-2.1,0.5l0.9,-4.6l0.9,-2l1.7,-1.3l0,-0.8l-0.5,-0.3l-0.4,-0.4l-0.5,-0.3l0,-0.8l0.8,-1.4l-0.2,-1.3l-1,-0.6l-1.7,0.6zm105.5,-0.8l-1.3,-0.2l-7.7,1l0.2,-1l0,-0.4l-0.2,-0.2l0,-0.6l0.2,-1l0.5,-0.2l0.5,0l0.2,-0.1l0.6,-3.1l-0.4,-1.1l-1.6,-0.2l0.6,-2l1.2,-0.9l1.3,-0.6l1.1,-1.1l3,5.3l0.5,-0.3l0.3,-2.6l1,-0.5l3.3,0.9l0.4,0.3l0.6,0.6l0.7,0.6l2,0.7l0.3,0.8l-0.3,1.1l-0.6,1.2l-1.5,0.6l-2,0l-1.6,0.6l-0.5,2.4l-0.8,0zm-46.4,-2.3l0.3,0.4l0.6,0.4l0.7,0.6l0.5,0.9l0.2,1.3l-0.2,0.8l-0.7,0.6l-6.2,3.3l-1.5,1l-0.1,-1.2l0.1,-0.9l0.3,-0.8l0.4,-0.6l0,-0.9l-0.7,0l-2.1,0l0.3,-1.2l0.4,-1l0.6,-0.8l0.8,-0.6l-0.4,-0.2l-1,-0.6l1.9,-0.4l1.2,-1.8l0.4,-2.2l0,-1.8l-0.6,-2.9l-0.1,-1.1l1,0l2.5,0.3l0.9,1.1l1,1.9l0.7,1.9l0.3,1.4l-0.3,0.9l-1,1.2l-0.2,1zm15.2,-19l-1.1,-0.6l-3.4,-3.9l-4,-1.9l-1.1,-0.8l-0.7,-1l-0.7,-1.6l-0.3,-1.6l0.4,-1.1l1.3,-0.4l5.7,0.4l0.5,0.2l0.9,0.6l0,1l-0.7,0l0,0.9l1,0l0.8,0.4l0.6,0.6l0.5,0.7l1.6,-1.1l1.9,0.2l1.8,1.2l1,1.5l1.6,-1.9l2.8,0.6l3.1,1.5l2.4,0.7l-0.7,0.9l0.8,0.3l0.6,0.8l0.4,1.1l0.3,1.3l-2.6,3.5l-0.7,3.3l-1.2,0.6l-4.7,-0.7l-2.9,-1.8l-1.7,-0.5l-1,-0.5l-1.3,-2.4l-1.2,-0.5zm-73.6,-13.5l2.8,4l-0.7,4l-2.6,3.9l-3,3.3l-2.9,4l-2,1.7l-1.8,-0.8l-0.1,-1.8l0.5,-6.5l-0.1,-1.1l-0.1,-2.4l1.2,-3l1.7,-2l1.5,0.4l0.8,-0.9l0.6,-1l-1.1,0.1l-0.3,-0.1l0,-0.8l1,-0.7l1,-0.3l0.8,0.2l0.7,0.8l0.7,0l0,-0.8l0.3,-0.1l0.5,0l0.6,-0.1zm63.4,-10.6l0.2,1.8l-0.9,2.4l-1.4,2.2l-1.4,1.6l0.2,0.5l0.4,2.1l-0.6,0l-0.8,-1.2l-2.4,-1.9l-1.1,-1.2l-1.9,-5.5l-0.6,-0.8l-1.5,-0.2l-1.2,-0.5l-1.1,-1l-1.1,-1.5l-1.6,-3.2l-1.2,-0.9l-1.7,1.1l-0.6,-3.6l-1.9,-2.4l-2.3,-1.9l-1.5,-2l-0.7,0l-0.8,1.3l-0.8,0.4l-0.5,-0.7l0.7,-1.9l-0.9,-1l-1.5,-2.4l-1.2,-1l1.3,-0.4l0,-0.6l-0.4,-0.9l-0.2,-1.2l0.3,-1.2l0.9,-0.9l5.7,-3.1l2.2,-0.5l1.5,0.8l-0.1,1.4l0.2,0.8l0.6,0.4l1.1,0l1,0.5l1,0.9l0.4,1l-0.4,0.4l0,0.6l0.7,2.9l0.4,0.9l0.7,0.5l2.8,1.2l8.1,0l1,1.2l-0.5,2.6l-1.6,4.3l4.3,3.6l-0.7,0.6l-0.3,0.1l-0.4,0.2l0,1.6l-0.6,1.1l-0.8,0.9l0,0.9l0.7,0.7l1.6,-0.7l1.2,0.8zm264.4,196l5.3,0.3l0.2,0.6l0,1.2l-0.4,1.1l-0.5,0.4l-0.8,0l-2,0.5l-1.5,-0.3l-1.8,-0.1l-2,0.5l-1.3,-0.6l-0.1,-1.8l0.9,-1.2l0.8,-0.2l1.5,-0.3l1.7,-0.1zm-39,-47.3l0.9,1.1l1.2,2.5l-0.8,2.4l-2.4,1l-1.4,0l-2.2,-0.3l-1,-0.8l-0.4,-1.4l1.1,-2.6l3.1,-1.9l1.9,0zm-32.2,-66.6l0.6,0.6l0.9,1.6l0,1.4l-0.7,0.3l-0.5,0l0,0.4l-0.5,0.3l-0.9,0.1l-1.2,-0.1l-1.3,-0.9l0,-0.9l1.2,-0.7l0.3,-0.9l-0.9,-0.1l-1.4,0.8l-1.3,-0.1l-0.7,-1.2l0.4,-1.2l0.3,-1l-1.1,-0.7l-1.1,-0.5l-0.7,-0.8l-1.3,-1l-0.3,-1.7l1.1,-1.1l1.5,0.1l0.3,-0.3l-0.1,-0.8l0.8,-0.2l0.9,0.7l0.6,0.2l0.4,-0.1l0.4,0.2l0.4,0.2l0.7,0.3l0.9,0.2l0.3,0.7l-0.7,1.4l-0.2,1.2l1,0.4l1.1,0.7l0.5,1.6l0.3,0.9zm-28.1,-28.6l0.5,0.8l0.3,1.2l-0.6,0.3l-0.5,-0.5l-0.7,-0.4l-0.4,-0.1l-0.4,-0.2l-0.9,0l-0.9,0.7l-0.4,0.9l-0.1,0.6l-0.4,0.3l-0.6,0.1l0.5,0.9l1.1,1.5l0.3,4.3l-1.1,0.5l-1.1,-0.8l0.1,-0.8l-0.3,-0.6l-1.2,-0.5l-0.4,-1.1l0.5,-3.2l0.4,-0.8l0.1,-0.9l-0.3,-1.1l-0.2,-1.8l0.3,-1.5l0.9,-0.1l1.1,0.1l1.3,-0.3l1.2,0.6l1,0.7l0.7,0.7l0.2,0.5zm-191.1,-33.5l-0.1,0.8l0.3,1.6l-2.3,0.3l-4.7,-0.9l-1.3,-0.9l1.8,-0.3l1.7,-0.7l1,-1.3l1.2,-0.8l1.8,-0.1l0.8,0.8l-0.2,1.5z" id="GRL"/>
   <path d="m749.6,588.6l-1.8,3.5l-2.6,3.3l-9.1,8.1l-1.8,0.8l-8.8,1.3l-2,0.8l-1.1,0.8l-2,2l-1.1,0.8l-1,0.3l-0.7,0l-0.8,-0.2l-1.4,-0.1l-4,1.1l-1.5,-0.4l-0.4,-2.5l0.8,-1.7l3.3,-3.4l0.8,-1.5l0.7,-1.9l1.6,-2.1l1.9,-1.8l1.4,-0.9l2.5,-0.1l5.9,0.8l2.2,-0.7l2.1,0.7l3,-0.9l2.8,-1.6l2.7,-3.1l3.4,-1l5,-0.4zm70.4,-5.3l1.2,-0.8l0.6,0.6l0.2,1.4l-0.6,1.5l-2.5,-0.8l-3.7,0.8l-9.3,3.7l-1,0.6l-1.1,1.1l-0.6,0.9l-0.2,0.6l-0.3,0.6l-1,0.5l-0.9,0.2l-6.5,-0.2l-1,-0.3l-0.4,-0.8l-0.3,-1l-0.4,-1l-1.6,-2.7l-1.1,-0.9l-2.4,-0.7l-1.1,-1.2l-0.9,-0.3l-0.9,0.1l-1.6,0.6l-2.7,0.4l-1.7,0.7l-1.3,1.2l-0.5,1.5l-0.8,0l0,-1l-0.6,0l-1.1,1.2l-1,-1.3l-0.6,-2.2l-0.2,-1.6l-0.1,-3.2l0.4,-1.4l1.1,-1.2l1.8,-0.6l1.8,-0.2l1.4,-0.7l0.6,-1.6l0.9,-1l11.7,-2.8l3.5,0l3.7,0.7l1.4,0.8l2.7,2.3l3.6,0.9l3.9,2.8l1.1,1.1l0.4,-1.4l-0.6,-1.1l-1,-1.2l-0.9,-1.6l1.7,0.6l1.2,0l1,-0.6l1,-0.9l0.1,1.5l2.8,0.9l4.8,0.4l-2.9,1.3l-0.6,0.4l-0.2,1l0.4,1l0.7,1l0.5,1.4zm-90.8,-106.5l-1.3,1.6l-0.2,2.6l-0.5,2.3l-2.3,0.7l0.8,1.2l0.4,0.4l0.9,0.2l-0.6,0.8l1.8,0.1l0.1,0.8l-1.3,1.9l-0.3,2l0,1.6l1.1,9.9l1.4,5.4l-2.7,0.4l-2.5,2l-1.1,2.9l1,3.2l0,1.9l-2.5,1.3l-4.9,1.7l-0.8,1.3l-0.7,3l-0.6,1l-1,0.4l-2.1,-1l-1.5,-0.3l-1.1,-0.7l-2.2,-3l-0.5,-0.2l-0.4,0.1l-1,-1l-1,-1.6l-0.4,-1.5l-0.5,0.2l-1.2,0.4l-0.4,0.2l0,-0.9l-0.1,-1.8l0.1,-0.9l-1.7,1.1l-0.8,-0.8l0.2,-1.8l0.9,-2.1l1,-0.8l1.3,-0.5l1.9,-0.4l0.5,-0.5l1.2,-1.3l2.5,0.2l0.6,-0.2l0.7,-1.6l0,-1.6l0.5,-1.4l1.7,-0.8l-0.6,-1.5l0.2,-3.2l-0.3,-1.6l-0.2,0.5l0,0.1l-0.1,0l-0.5,0.3l-0.5,-1l-0.6,-0.8l-0.8,-0.5l-0.9,-0.4l0.6,-1.2l-0.1,-1.8l-0.5,-1.9l-0.7,-1.4l-1.2,-1.3l-1.2,-0.4l-1.3,-0.3l-1.8,-0.7l-1.5,-1.3l-3.3,-4.1l-0.9,-1.8l-0.2,-2l0.5,-1.5l0.8,-1.4l0.3,-1.9l15.1,-3.1l2.1,0.3l4.9,1.6l0.3,0.9l4.3,5.3l0.3,-0.6l0.1,-0.6l0.3,-0.5l0.7,-0.1l0.1,-0.6l-0.2,-0.2l-0.2,0l-0.3,-0.1l1.5,-0.5l1.3,0.3l1.2,1.1l0.9,1.8zm-59.1,-9.1l0.7,1l2.8,2.7l0,0.6l-0.1,0.2l-0.3,0l-0.4,0.1l-0.8,4.6l-0.2,0.8l-1.4,-0.2l-1.1,-0.4l-1,-0.1l-1.1,0.7l-0.3,-1.2l0.2,-0.8l0.3,-0.8l-0.2,-0.8l-0.4,-0.6l-1.2,-1.2l-0.5,-0.9l-1.2,-1.1l-0.5,-0.7l0.3,-0.9l0.7,-0.4l0.6,0.3l0.5,0.6l0.3,0.4l0.6,-0.9l0.8,-0.7l0.8,-0.1l0.7,0.8l0.6,0l0,-1l0.8,0zm105.2,-57.7l0,1.2l-0.2,2.3l-1.3,1.4l-3.1,-1.3l-1.7,0.9l-1.2,-0.5l-1,-1.3l-1.1,-1l0.8,-0.8l-0.9,-0.7l-0.2,-0.6l0.2,-0.7l0.1,-0.7l0.1,-0.5l0.6,-1.4l0.1,-0.8l-1.2,-1l-0.2,-0.5l-0.7,-1.9l-1.8,-0.6l-3.5,0.3l-1.8,1l1.6,2.3l4,3.1l3.8,5.5l1.9,1.6l0,1l-0.3,0.6l-0.1,0l0.1,0.1l0.3,1.1l-2.7,1.2l-3.3,0.8l-6.6,0.7l-1.8,-0.3l-3.3,-1.2l-3.7,-0.5l-1.4,-0.7l-2.5,-1.8l-2.5,-1.2l-6.1,-1.3l-5.3,-0.2l-1.1,-0.4l-0.9,-0.9l-3.2,-4.6l-1.1,-1.1l-1.7,-0.3l0,-0.8l0.6,-0.3l0.9,-0.7l0.7,-0.2l0.4,0l0.4,0.2l0.5,0l3.9,-0.9l0.5,-0.4l1.6,-2.7l1.1,-0.9l1.2,-0.2l1.1,0l1.3,-0.3l2.7,-2.7l3.1,-2.4l0.1,-0.4l1,-0.5l-0.3,-1.3l-1.1,-1.3l-1,-0.6l-3.3,-0.8l-1.2,-0.1l-2.2,0.3l-1.8,0.5l-1.4,0.9l-1.4,1.5l-1.5,3.7l-0.3,0l-4.6,6.6l-1.5,1.4l-2,0.6l-2.1,-0.3l-8.7,-3.3l-1.5,-0.9l-1.5,-1.1l-1,-0.5l-1.3,-0.2l-1.8,-0.8l-3.6,-3.7l-2,-1l0,-1l1.1,-0.4l0.5,-1.2l0.1,-1.5l0.4,-1.4l-0.4,-0.1l-0.3,-0.2l-0.3,-0.3l-0.4,-0.3l0.8,-0.5l0.4,-0.6l0.2,-0.8l0,-1.3l0.4,-0.9l0.8,-0.6l1,-0.3l0.7,-0.4l2.8,-2.8l0.7,-0.9l0.7,0l1.2,2.7l3.4,-0.3l3.8,-1l2.8,0.5l0.4,-0.8l0.4,-0.5l0.4,-0.6l0.2,-0.9l0.6,1.3l0.1,0.6l0.7,0l1.3,-1.9l2.1,-0.9l4.4,-0.8l2.7,-1l1,-1.5l-0.2,-2.4l-0.7,-3.4l18.4,-0.6l2,0.6l-0.8,3l1.9,1.2l2.8,0.8l1.8,1.4l-0.7,1.3l-3.2,5.1l0.2,0.7l4.4,4.3l3.5,1.4l0.8,0.7l0.4,0.5l3.5,5.3l1.4,1.2l2.2,1.3l-1.3,1l0.4,1.1l0.7,1l1,1l0,1.3l0.3,0.8l0.7,0.3l1.1,-0.1l-0.1,2.7l1.3,2.9l1.9,2.5l1.5,1zm-164.4,-68.3l3.6,2.4l-0.7,3.3l-5,7.2l-0.7,0l-1.2,-6.4l0.3,-3l2.2,-1.7l-0.3,-1.1l0.2,-0.5l0.7,-0.2l0.9,0zm44.9,-63.2l-0.8,1.4l-0.5,0.4l0,0.9l0.5,-0.1l0.1,0.2l0,0.4l0.3,1.2l0.2,1.4l0.2,0.6l-2.4,1.4l-2.5,1.9l-1.7,2.6l0.4,3.3l-1.4,0l-1.2,0.3l-0.9,0.7l-0.7,0.8l1.4,0.9l0.7,0.1l-1.6,0.8l-1.2,1.2l-0.1,1.3l1.5,1.2l-1.3,1.4l0.6,1.5l1.3,1.3l0.8,1.3l0.1,0.9l-0.1,0.2l-0.5,0l-0.9,0.8l-0.1,0.9l-0.1,1.3l-0.4,0.8l-1.1,-0.8l-0.6,-0.3l-3,-1l-0.8,-0.6l-0.2,-1.3l0,-1.2l-0.3,-0.6l-1.8,-0.6l-1.7,-2.7l-1.8,-0.3l2.3,-1.7l1.3,-1.3l0.6,-1.2l-0.5,-1.9l-1.2,-1.3l-1.3,-0.7l-1.2,-0.2l-4.3,3.6l0.9,0l0.8,0.2l0.6,0.3l0.6,0.5l-1.9,0.3l-1.3,1.3l-1,1.8l-0.8,2l0.9,-0.4l0.2,-0.1l0.3,-0.4l1.2,1.4l1.3,2.2l0.6,2l-0.6,0.9l-2.3,-0.2l-1.8,-0.3l-3.3,-1.4l2.4,-3.7l0.4,-0.4l-0.5,-1.5l-1.2,0.5l-1.2,1.3l-0.6,1.1l-0.7,0l-0.1,-1l-0.2,-0.6l-0.2,-0.5l-0.2,-0.6l-6,1.8l-1.1,0.9l-0.6,0l0.3,-0.8l0.4,-0.7l0.5,-0.6l0.8,-0.6l-0.5,-0.3l-0.8,-0.5l-0.7,-0.2l0.1,-1.2l-0.1,-0.6l0.6,-0.5l0.7,-0.4l0,-1l-0.7,0l0,-0.8l0.5,-0.2l0.2,-0.2l0.7,-0.6l-0.7,0l0.8,-1.9l-0.4,-1.2l-1,-1l-0.7,-1.4l-0.1,-1.9l0.1,-1.8l-0.2,-1.3l-1.2,-0.5l0,-0.9l3.6,-0.2l6.5,-1.6l1,0.2l0.7,0.7l0.4,0.6l0.4,0.3l1.6,-0.2l5.5,-1.6l2.2,0.8l1.4,1.6l1.2,1.9l1.5,2.1l-0.2,1l2.3,-0.9l2.8,-1.6l1.4,-1.3l0,-1.2l2.2,-3.2l1.3,-1.1l0.4,0.1l2.7,-0.1l0.9,-0.2l2.9,-1.6z" id="GRK"/>
   <path d="m188.5,574.8l1.7,3.6l7.1,4.6l0.9,3.9l-1.3,-1.7l-3,-1.5l-3.4,-1l-2.8,-0.2l-1.5,0.7l-0.9,1.2l-0.7,1.1l-0.7,0.5l-1.4,0.6l0.1,1.6l0.5,1.5l0.4,0.7l-0.2,1.7l-0.4,0.8l-1.1,0.2l-2.2,0l-0.7,-0.5l-3.2,-4l-5,-4.2l-2.5,-2.5l-0.2,-2.1l-2.2,-2l-3.9,-5.4l-2.4,-1.5l0.7,-1.5l-0.4,-2.2l0.6,-0.8l-0.9,-0.9l4.2,-6l2.6,-2.5l2.4,0.6l0.1,0.4l0,0.3l0.5,0.6l-0.1,0.2l2.1,4.1l0.8,2.5l1.1,1l2.5,1.5l3.3,-0.8l4.2,1.7l3.7,2.9l1.6,2.8zm-17.3,-35.1l-1.5,-0.5l-1.3,-1.3l-2.5,-2.9l-2.9,-1.7l-4,-1.1l-3.5,0.5l-1.6,3.3l-1.9,-1.5l-3.8,-1.1l-1.4,-1.8l-0.3,-1.2l-0.2,-2.4l-0.2,-1l-1.6,-3l-0.5,-1.4l1.3,0.4l1.7,1.7l1.2,0.6l0,-0.9l-1.6,-1.6l-1,-2l-2.8,-7.1l-1.2,-2l-1,-0.3l-0.8,2.2l0.1,2.1l0.8,4.4l-0.2,2.5l-0.9,2.3l-1.4,1l-1.4,0.6l-1.2,1.5l-0.7,0l-0.6,-2.3l-2.9,-1.7l-0.7,-2.3l0.4,-1.1l0.8,-1.3l0.6,-1.3l-0.1,-1.2l-0.4,-1.1l0.2,-1l0.6,-0.7l0.6,-0.4l1.5,-1.6l1.3,-3.4l0.6,-4.3l0.2,-4.1l0.5,1.9l0.2,0.8l0.7,0l1.4,-2.6l0.8,1l0.7,2.4l1.3,1.9l0.9,-1.1l0.4,0.7l0.3,1.4l0.9,0.8l1,-0.5l1.8,-1.9l2.4,-1.3l0.9,-2.2l0.1,-2.6l-0.9,-2.3l2.1,0.9l-1.2,-4.4l-0.2,-1l0.2,-1.7l0.4,-1.5l0,-1.2l-0.6,-1.1l0,-0.8l3.5,0l5.6,16l0.2,1.1l-0.2,2l-0.6,1.1l-1,0.9l-1.2,1.4l0.9,1.2l2.4,4.6l1.2,0.6l1.5,-1.2l1.4,-1.7l1.1,-0.8l-0.2,0.4l-0.3,0.9l-0.2,0.5l1.9,0.4l0.6,1.4l0.3,1.8l0.7,1.8l4.4,3.9l1.1,3.5l3.6,5.1l0.8,2l0.3,2.1l-0.3,2.2l-1.1,2.2l-0.5,0.1l-2.7,-0.6l-0.9,0.1l-1.1,0.7l-1.1,0.2zm-1.8,-43.1l1.3,0.3l1.1,0.7l1.9,1.6l-0.5,0l-1.5,0l0.6,3.6l0.6,1.3l1.4,0.5l0,1l-2.8,0.4l-1.7,0.6l-1.4,-0.4l-1.9,-2.4l0.8,-0.9l-1.5,-1.7l-1.4,-2l-2,-4.4l-0.2,-1l-0.3,-3l-0.3,-1.4l-0.7,-0.8l-1.2,-0.8l-0.7,-1.1l0.5,-1.9l1.7,1.1l0.9,-0.7l1,-3.1l1.8,0.6l0.2,1.7l-0.6,1.8l-0.7,1.3l1.8,-0.1l1.1,0.5l0.9,0.8l1.1,0.7l-0.6,2.7l-0.8,2.3l-2.1,4l0.8,0.5l1,0.4l1.2,0.1l1.2,-0.2l0,-0.8l-1.4,-0.9l2.1,0l-0.7,-0.9zm23.2,-27.9l-2.3,3.3l-1,2.1l-0.2,1.9l-1.4,0l0,-1l3.9,-6.1l1,-0.2zm-36.6,-1.8l-0.9,1.3l-1.1,1.9l-1.5,3.2l-0.7,0l0.1,-3.4l1.8,-12.7l1.9,-4.3l0.4,-2.7l1.8,-4.9l1,-0.5l0.8,-1.3l1.3,-2.8l1.3,-1.5l1.9,-1.7l2.3,-1.2l0.2,0.5l0.2,0.7l1.2,0.5l1.6,1.9l0.4,2l0.1,1.9l0.7,1.5l-0.6,1.6l0.1,1.2l0.3,1.1l0.2,1l0.1,1.2l-0.1,0.7l-0.4,0.7l-2.4,3.6l-0.5,1l0.2,1l0.7,0.3l0.5,-1l0.5,-1.5l0.7,-1.1l0.1,2l-0.3,7.1l-0.5,1.5l-0.6,0.2l-0.8,-1.7l-0.7,0l0.2,0.6l0.5,2.1l-0.4,-0.3l-1.1,-0.6l0,1l-0.2,0.5l-0.2,0.4l-0.2,0.8l-1.7,-0.9l-1.7,0.3l-0.8,1.1l0.7,1.4l0,0.8l-1.1,-0.1l-0.6,-0.5l-0.2,-0.9l0.4,-1.2l-2,-0.4l-1.1,-2.6l-1.8,1.2zm-45.7,-82.4l1.6,1.8l1.8,1.4l1.7,2l1.2,3l-2.1,0l-1.3,-0.4l-1,-0.8l-2.1,-2.7l-1.1,-1.8l-0.3,-1.7l1.6,-0.8zm-5,-25.5l0.5,1.4l0.9,4.1l1.3,1.9l0,0.9l-1.3,0.9l-0.9,-0.8l-2.5,-0.8l-2.4,-1.7l-1.7,-0.8l-1.8,-0.4l-1.6,-0.1l-0.9,-0.6l-2.6,-2.3l-1.1,-0.7l-1.7,-0.2l-1.5,0l-1.2,-0.4l-0.4,-0.6l0.7,0.2l0.7,-0.6l0.6,-1.2l-3.5,-1.2l-1.4,-0.6l0,0.3l-0.1,0.5l0,0.2l-1.3,-2l-1.1,-2.8l-0.8,-2.7l-0.7,-5.7l-1.2,-2.7l-2,-2.2l-2.6,-2l-2.4,-1.2l-1.3,-0.9l-2.7,-6.2l-0.3,-0.9l-1.8,0l-1.2,-0.1l-0.9,-0.8l-0.7,-1.8l0.3,-3.1l-0.6,-1l-1.9,1.2l0.1,-2.1l-0.4,-1.5l-0.9,-0.8l-1.5,0l1,-1.1l2.7,-3.8l0.5,-1.2l1,-0.2l9.5,-0.4l3,-0.6l2.7,-1.2l2.7,-1.7l1.5,0.4l0.9,0.8l0.8,0.8l1.1,0.8l2.6,0.9l1.1,0.6l0.5,1.2l0.7,0l0,-1l0.7,0l-0.1,4.2l-1.3,2.4l-2.2,1.4l-6.3,2.7l-1,0.8l-0.6,1.6l0.3,1.7l0.9,1.3l1.1,0.5l0,1l-1.4,0l0,0.8l6.1,3.2l2.4,0.5l-0.4,2.9l-0.6,0.6l-1.8,-0.7l1.2,2.8l2.1,13.9l0.4,0.8l1.2,0.8l1.4,0.5l2.9,0.6l1.3,0.6l2.2,1.7l0.9,0.3l1.9,-0.2l1.5,-0.5l0.9,-0.6l0.8,0.2l1,1.8zm87.7,103.3l0.7,0.5l0.1,1.3l-1.2,1.5l-1.3,1.1l-1.5,0.9l-0.8,0.4l-0.8,0.5l-1.2,1.2l-0.8,1.6l-0.9,0.3l-0.3,-1.3l0.3,-1.5l1.8,-3.4l1.6,-1.8l1.8,-0.7l2.5,-0.6zm-14.8,-1.6l0.4,-0.1l0,0.5l-0.3,0.7l-0.6,0.7l-0.8,0.9l-2.6,0.7l-0.4,1.5l1.4,1.2l0.9,0.9l0.1,0.3l0.8,0.6l1,1.2l-1.4,-0.5l-3.6,-3.5l-1.5,-3.4l1,-1.5l1.6,-0.3l2.1,-1.2l0.6,0.5l0.4,0.3l0.5,-0.2l0.3,0.2l-0.1,0.4l0.2,0.1z" id="GRF"/>
  </g>
  <g id="points">
   <circle class="35.16178214607579|20.05713951257528" cx="101.7" cy="911.1" id="0"/>
   <circle class="37.93596899106877|24.363780142147977" cx="544.3" cy="556.2" id="1"/>
   <circle class="41.40370254731|27.809092645806135" cx="898.3" cy="93.1" id="2"/>
  </g>
  <g id="label_points">
   <circle class="Dytiki Makedonia" cx="243.6" cy="237.5" id="svg_1"/>
   <circle class="Ipeiros" cx="169.6" cy="336.5" id="svg_2"/>
   <circle class="Kentriki Makedonia" cx="430.4" cy="164.7" id="svg_3"/>
   <circle class="Anatoliki Makedonia kai Thraki" cx="584" cy="132.9" id="svg_4"/>
   <circle class="Ayion Oros" cx="532" cy="250.4" id="svg_5"/>
   <circle class="Thessalia" cx="321.4" cy="337.3" id="svg_6"/>
   <circle class="Stere Ellda" cx="329.2" cy="451.4" id="svg_7"/>
   <circle class="Attiki" cx="486" cy="535.4" id="svg_8"/>
   <circle class="Peloponnisos" cx="340.1" cy="633.2" id="svg_9"/>
   <circle class="Dytiki Ellada" cx="254.9" cy="562" id="svg_10"/>
   <circle class="Kriti" cx="603.9" cy="909.7" id="svg_11"/>
   <circle class="Notio Aigaio" cx="912.4" cy="780.3" id="svg_12"/>
   <circle class="Voreio Aigaio" cx="740.1" cy="378" id="svg_13"/>
   <circle class="Ionioi Nisoi" cx="71.9" cy="319.9" id="svg_14"/>
  </g>
 </g>
</svg>