
<svg xmlns="http://www.w3.org/2000/svg" xmlns:svg="http://www.w3.org/2000/svg" stroke-linejoin="round" stroke-width=".5" version="1.2">
 <g class="layer">
  <title>Layer 1</title>
  <g id="features">
   <path d="m528.6,820l-0.5,-0.2l-0.5,0.2l-0.4,0.7l-7.8,8.7l-0.7,0.6l-1.3,0.5l-0.9,0.2l-2.8,0l-1.8,0.3l-1.5,0.8l-1.3,1.2l-1.2,2l-1.5,4.5l0.2,0.2l0.3,0.4l0.2,0.7l-0.3,0.9l-0.4,0.3l-1.1,0.1l-0.2,0l-0.7,2.7l-0.2,1.8l-0.7,1.1l-2.8,1.1l-2.2,0.5l-1,-0.1l-0.8,-0.5l-1.8,-1.3l-0.9,-0.3l-2,0.5l-3.5,2.1l-2.3,0.1l-1.7,-0.3l-0.5,-1.6l0.3,-4.6l-0.2,-2l-0.4,-1.9l-0.1,-2l0.8,-2.4l-2.7,-1.6l-9,-0.8l0.4,-2.1l0,-0.2l-0.2,-2.9l-1.3,-6l-0.4,-1.2l-1.1,-2.5l-0.4,-1.3l-0.6,-4.9l-0.4,-1.1l-1.4,-1l-1.4,0.3l-1.4,0.6l-1.3,0.1l-1.2,-0.7l-1.8,-2.1l-1.1,-1l-1.3,-0.4l-0.9,0l-1.3,-0.2l-0.6,0l-1.2,-0.9l-0.6,-1l-0.9,-4.1l-2.2,-4.4l-1.5,-4.3l-0.1,-3.7l0.5,-0.5l0,-0.1l1.2,-1.4l0.5,-0.5l0.1,-0.2l0,-0.4l-2.2,-1.1l-0.4,-1.8l0.3,-2.1l-0.6,-2.6l-1.4,-0.8l-0.9,0.6l-1.4,0.9l-1.2,0.8l-2.1,0l-6.8,-3.7l-3.5,-1.3l-2.1,0.3l0,0.2l0,0.3l-0.5,0l-0.1,0l-0.4,0l0,0.1l-0.2,0.3l-0.3,0.2l-0.3,0.3l-0.5,0.4l-1.2,1.1l-1.3,0.2l-1.8,-1.5l-0.5,-0.9l-0.7,-2.2l-0.3,-0.8l-1.1,-0.8l-2.1,-0.4l-1.1,-0.5l-2.9,-2.5l-1.4,-0.7l-5.7,-1.1l-1.2,-1.4l0.6,-2.6l-3.9,-2.5l-0.8,-0.5l-0.6,-0.5l-1.3,-0.3l0.1,-1.7l0,-0.4l0,-0.3l5.4,-10.6l11.4,-2.4l5.5,-4.1l8.8,-4.1l0.9,-4.1l0.1,-7.3l-1.5,-18.2l0.8,-3l2,-0.3l2,-1l0.1,-2.5l-1,-2.6l1.2,-3.2l2.7,-0.6l13.2,0.1l-1.1,-5.1l-2.9,-3.1l-2.9,-2.3l-2.4,-3.3l-1.8,-5.4l2.2,-5.9l1.6,-9l2.4,-5.1l7.1,-4.6l0.7,-5.1l-1.2,-2.6l-0.6,-3.3l0.7,-2.2l1.1,-1.4l3.1,-11l4.6,-2.3l12.8,-0.4l3,-1.4l2.8,-2l3.2,0.6l2.8,2.9l11.9,6.4l5.9,1.2l7.2,0l3.1,-2.7l6.1,1.1l5.5,5l8.5,13.6l3,0.9l9.1,-0.5l9.9,5l7.7,1.5l1.2,0.7l0.3,1.6l0,1.7l-0.4,1.2l-6.2,1l-3.4,6.5l2.5,2.9l6.8,2l3.1,2.4l2.6,5.6l4.3,5.3l-3.7,0.6l-6.2,5.2l-1.8,4l3.1,1.7l6.2,0.9l2.6,1l0.6,3.1l0.2,2.5l-11.5,7.2l-2.8,0.5l-5.1,-0.4l-5,0.8l-8,6.2l-2.3,0.5l-2.4,0.1l-5,-2.9l-2.4,3.6l-2.6,5.1l-3.9,5.6l-6.1,-0.9l-2.8,2.3l4.8,4.8l4.2,5.9l-21.5,24.2l-2,2.9l-2,4.2l-1,4.7l1.8,2.4l2.4,0.2l2,2.5l0.2,4.7l2.7,4.9l4.6,1.8l1.8,3.3l1.4,4.4l2.9,2.7l3.4,1.6l6.2,1.1l-0.3,3.6l-1.6,3.2l-0.7,2.9l1.1,2.5l2.1,1.5l0.5,1.6z" id="PL24"/>
   <path d="m528.6,820l-0.5,-1.6l-2.1,-1.5l-1.1,-2.5l0.7,-2.9l1.6,-3.2l0.3,-3.6l-6.2,-1.1l-3.4,-1.6l-2.9,-2.7l-1.4,-4.4l-1.8,-3.3l-4.6,-1.8l-2.7,-4.9l-0.2,-4.7l-2,-2.5l-2.4,-0.2l-1.8,-2.4l1,-4.7l2,-4.2l2,-2.9l21.5,-24.2l-4.2,-5.9l-4.8,-4.8l2.8,-2.3l6.1,0.9l3.9,-5.6l2.6,-5.1l2.4,-3.6l5,2.9l2.4,-0.1l2.3,-0.5l8,-6.2l5,-0.8l5.1,0.4l2.8,-0.5l11.5,-7.2l-0.2,-2.5l-0.6,-3.1l8.5,0l3.6,1.9l3,3.2l7.7,2.4l6.9,4.7l4.2,8.2l1.5,6.6l1.6,3.3l4.1,5.8l1.7,3.6l6.7,4l11.9,0.4l2.7,-2.9l0.4,-1.5l1.1,-1.8l2.9,-1.4l1.3,-1.3l0.3,-0.7l0.1,-1.5l0.3,-0.7l0.4,-0.3l0.8,0l0.3,-0.2l1.9,-1.9l0.6,-2.5l0.5,-0.8l3.5,3.3l1.5,-0.7l1.2,-1.3l1.2,-0.8l1.4,0.9l1.3,-0.8l2.5,-0.2l0.8,-0.5l0.9,-1.2l0.8,-0.7l0.9,-0.3l6.7,-0.2l1.4,-0.4l1,-0.9l0.9,-0.9l0.8,-0.8l3.8,-1.8l0.9,-0.2l1.3,0.6l0.8,1l0.9,0.8l1.6,-0.4l0,-0.2l1.6,-2.2l0.6,-0.5l0.5,0l0.3,-0.3l0.2,-1.2l0.4,-0.8l1.1,-0.5l1.1,-1l0.5,-2l0.8,0.7l0.6,0.1l1,-0.8l0.1,-0.4l-0.1,-0.7l0,-0.6l0.3,-0.3l1.3,0.1l-1,11.9l-2.7,6.8l-3.4,5.8l-0.6,8l2.5,21.3l-0.8,6.3l-0.1,5.4l0.9,1.7l0.7,1.9l1.9,2.3l2.6,0.2l3.4,1.8l1.2,4.1l-9,6.9l-1.6,3.5l2.7,2.5l9.8,4.2l5.4,5.9l3.2,9.8l0.3,4.9l-0.5,4.9l1.6,10.2l3.3,9.3l0.1,0.3l0,0.1l-1.6,0.7l-1.4,-0.4l-3.3,0.7l-1.5,0l-8.9,-2.5l-5.1,-2.7l-1.2,-0.3l-1.6,1.1l-2.9,4.2l-1.5,1.5l-2,0.3l-1.4,-0.9l-1.3,-1.5l-1.6,-1.1l-1.4,-0.1l-3.7,0.7l-1.4,0.7l-1.8,2l1.1,1.3l2.1,1.3l1.1,2.1l-0.8,1.3l-1.6,0.3l-2,0l-1.4,0.3l-1.8,1.8l-3,4.4l-2,1.7l-2.1,0.8l-1.7,-0.3l-1.4,-1.1l-1.5,-1.6l-1.7,-1.2l-1.4,-0.2l-1.6,0l-2,-0.3l-1.5,-1l-8,-9.7l-1.4,-0.2l-3.5,0.5l-1.9,-0.3l-0.9,0.1l-0.9,0.5l-1.4,1.8l-1.1,1l-2.1,0.8l-2,-0.5l-7.7,-4l-1.4,0.4l0,2.4l-4.7,0.1l-3.7,-1.4l-1.1,0.1l-0.9,0.7l-0.3,0.8l-0.2,1.3l-0.5,2l-0.6,1.9l-0.5,0.6l-7,0.7l-1.4,0.7l-1.9,2.4l-0.9,0.8l-2,-0.2l-0.3,-0.2l-0.5,0.7l-1.7,3.9l-0.5,1.6l-0.6,1.6l-1.2,1.3l-0.5,4.9l-0.9,3.5l-1.8,1.3l-3,-1.4l-4.7,-4.5l-2.5,-1.3l-2.9,0.4l-1.7,1.2l-1.7,1.8l-1.3,1.3l-2,0.8l-4.2,-0.3l-2.3,-0.9l-1.2,-1.6l0.4,-1.8l3.4,-5.6l0.4,-0.4l0.6,-0.1l0.5,-0.3l0.3,-0.8l-0.2,-0.6l0,-0.1l-0.7,-0.7l-0.1,0l-0.1,-0.4l-1.3,-0.9l-0.3,-0.5l0.1,-0.5l0.7,-1.1l0.1,-0.6l-0.5,-6.7l-0.5,-2.3l-0.8,-2.6l0,-0.1l-0.9,-0.6l-3,1.2l-1.8,0.2l-2,-0.2l-5.2,-1.8l0.2,-1.6l-0.1,-2.2l0.2,-0.8l0.4,-0.9l-3.6,0l-1.9,-0.5l-1.6,-1.2l-0.5,-1l-1.4,-4.5l-1.7,-7l-1.1,-2.8l-2.1,-1.4l-0.7,-0.8l-1.5,-2.7l-0.8,-0.3z" id="PL12"/>
   <path d="m716,845.6l0,-0.1l-0.1,-0.3l-3.3,-9.3l-1.6,-10.2l0.5,-4.9l-0.3,-4.9l-3.2,-9.8l-5.4,-5.9l-9.8,-4.2l-2.7,-2.5l1.6,-3.5l9,-6.9l-1.2,-4.1l-3.4,-1.8l-2.6,-0.2l-1.9,-2.3l-0.7,-1.9l-0.9,-1.7l0.1,-5.4l0.8,-6.3l-2.5,-21.3l0.6,-8l3.4,-5.8l2.7,-6.8l1,-11.9l0.4,-0.1l5.5,-4.9l1.7,0.8l2.3,-0.5l2.4,-1.4l1.7,-1.8l-0.9,-2.3l-0.4,-0.6l8.7,-3.9l5.8,-1.5l1.7,-1.4l2.8,-3.4l1.1,-2.2l0.5,-2.8l0.6,-2.2l4.3,-5.1l2.6,-4.4l1.6,-1.1l2.4,-0.4l1.6,-0.9l1.4,-2.1l1.1,-2.6l0.6,-2.2l0.8,-5.7l-0.2,-5.3l-0.2,-1.9l11.9,8.1l6.8,0.4l6,-4.2l3.6,-0.2l3.5,1.3l3.2,2l2.9,2.6l-1.3,3.6l-4.1,7.8l1.7,3l21.1,5.4l14.3,7.7l0.9,1.3l-0.1,1.9l0.2,2l2.1,4l1.1,3.5l-2.5,1.4l-2.8,-0.3l-2.9,0.9l-2.2,3l-1.5,3l0.6,3.5l2.4,3.6l3.2,1.5l12.6,-2.5l2.4,1.7l-1.4,0.8l-3.1,0.8l0.9,2.1l12.4,3.5l20.4,0.7l6.9,-1.5l5.9,-4.7l7.4,-8.5l2.4,-1.1l5.2,-0.5l6.7,0.8l5.7,3.6l2.9,4.4l9.1,5.4l0.1,0l-0.1,0.2l0,0.1l-0.2,0.1l-0.7,0.2l-0.6,0.3l-0.2,0l-0.1,0.5l-0.2,0.6l-0.2,0.6l-0.1,0.1l-0.1,0.4l0,0.1l-0.1,0l-0.6,0.3l-0.4,0.1l-0.3,0.2l-0.3,0.1l-0.1,0l-0.2,0.4l-0.2,0.3l-0.1,0.2l-0.1,0.2l-0.1,0.1l-0.1,0.2l-0.4,0.8l-0.2,0.2l-0.1,0.2l-0.6,1l-0.1,0.1l-1.4,1.6l-0.2,0.1l-1,0.6l0,0.1l-0.3,0.2l-0.2,0.2l-0.4,0.2l-0.2,0.2l-0.8,0.6l-0.6,0.4l0,0.1l-0.1,0l-0.1,0.1l-0.1,0.1l-0.3,0.2l-0.2,0.2l-0.1,0.1l-0.4,0.4l-0.1,0l-0.2,0.2l-0.3,0.3l-0.3,0.2l-0.1,0.1l-0.1,0l-0.4,0.2l-0.3,0.2l-0.5,0.3l-0.1,0l-0.2,0.2l-0.3,0.1l-0.7,0.4l-0.4,0.2l-0.1,0.1l-0.1,0l-0.5,0.6l-0.9,1.2l-0.3,0.3l-0.1,0.2l-0.3,0.4l-1,0.8l-2.8,3.1l-0.3,0.1l-0.5,0.4l-0.2,0.2l-0.5,0.4l-0.6,0.4l-0.2,0.2l-0.1,0.1l-0.2,0.2l0,0.1l-0.7,0.6l-0.2,0.2l-0.1,0.2l-0.2,0.2l-0.2,0.3l-0.2,0.2l-0.6,0.6l-0.3,0.2l-0.2,0.3l-0.1,0.1l-0.4,0.4l-0.3,0.4l-0.4,0.4l-0.4,0.5l-0.2,0.3l-0.4,0.4l-0.2,0.2l-0.3,0.4l-0.1,0.2l-0.2,0.2l-0.5,0.1l0,0.1l-0.4,0.2l-0.5,0.3l-0.1,0.2l-0.1,0.4l-0.1,0.1l-0.7,0.3l-0.1,0.1l-0.2,0l-0.1,0l-0.3,-0.2l-0.1,0.1l0.1,0.3l0,0.4l0,0.3l0,0.3l0,0.4l0,0.2l-0.2,0.1l-0.3,0.3l-0.4,0.3l-0.3,0.3l-0.2,0.1l-0.2,0.3l-0.3,0.4l-0.3,0.5l-0.2,0.4l-0.3,0.4l-0.3,0.5l-0.2,0.2l-0.8,0.9l-0.2,0.1l-0.6,0.3l-0.7,0.3l-0.3,0.1l-0.1,0.8l0,0.5l-0.6,0.6l-2.7,4.3l-3.4,2.6l-3.6,4l-9.8,14.4l-3.8,4l-0.5,1.1l-0.7,2.8l-0.3,0.7l-0.2,0.1l-0.3,0.4l-0.4,0.5l-0.1,0.2l-1.5,0.5l-0.8,0.6l-0.9,1l-5.6,10.2l-0.3,0.3l-0.1,0.1l-0.1,0l-0.6,0.1l-0.6,0.1l-0.2,0l-0.1,0.1l-0.8,1.1l-0.2,0.3l-1.5,0.3l-1,0.9l-0.6,1.2l-1.6,4.4l-6.9,9.3l-2.2,5.2l-0.1,0l0,0.1l0.1,0.1l0.1,0.2l0.1,0.2l0.1,0.4l0,0.1l0.1,0.3l0.2,0.6l0,0.2l0.1,0.3l0.2,0.6l0.1,0.1l0.7,2l0.6,2.1l0.6,5.9l0.3,1.6l0.2,0.8l1.2,1.8l2,2.1l0.5,1.1l0.4,2.2l1.2,12.7l-0.3,2.1l-1,2.6l-0.2,0.1l-0.2,0.3l-0.2,0.5l0,0.3l-0.1,0.4l-0.1,0.5l0.1,0.1l-1.1,4.3l-1.5,3l-0.5,1.7l0.6,0.7l0.4,-0.2l1.2,-1.6l1.4,1.1l-0.1,0l-0.3,0.1l2.9,2.1l2.7,3.5l1.7,1.2l4,2.3l1.1,1.4l0,1.2l-0.8,2.7l-0.1,1.9l0.4,1.3l1.5,2.5l0.1,0.3l0.1,0.5l-0.5,1l-0.5,1.2l-1.8,-0.8l-2.1,-1.8l-1.6,-0.9l-1,-0.3l-1.7,-2.4l-0.8,-0.7l-0.1,-0.1l-0.6,-0.1l-0.3,-0.1l-0.1,0l0,0.1l-2,0.6l-2.9,-0.3l-0.4,0l-1.1,0.1l-0.8,0.1l-2,-0.2l-2.2,-1.6l-3.4,-3.7l-1.4,-0.5l-0.4,-0.1l-1.9,1.8l-3.2,-1.5l-7.1,-0.3l-3.3,-1l-4.6,-4.7l-1.9,-0.7l-5.1,0.2l-4.2,-1.4l-0.7,-0.5l-0.2,-0.9l0.3,-0.9l-0.1,-1l-1,-1.1l-0.7,-0.1l-2.2,0.2l-0.9,0l-1,-0.5l-3,-1.9l-6.4,-1.2l-2.6,-1.9l-0.6,-4.4l-1.1,-4.9l-2.6,-4.3l-3.3,-3.1l-4.9,-2.4l-3.3,-3.1l-1.7,-0.9l-1.8,0.3l-1.6,1.4l-1.3,1.6l-0.9,0.6l-1.4,-1.1l-3.1,-4.7l-1.5,-1.6l-0.9,-0.3l-1.4,0.3l-0.7,0l-0.9,-0.7l-1.7,-1.6l-0.9,-0.7l-1.7,-0.4l-6.5,0.7l-1.4,0.6z" id="PL18"/>
   <path d="m120.5,563.7l1.7,-1l14.5,-7.5l2.6,-0.1l5.3,4.6l2.7,0.3l4.6,-8l3,-3.6l6.6,-2.3l12.8,7l6.4,-1.6l10.1,-13.3l8.9,-17.4l1.9,-1.5l3.2,-1l2.8,-2.8l1.3,-3.8l1.8,-2.5l13.7,2.6l2.5,2.6l0.3,5.1l5,6.4l7.2,-1.6l5.5,-4.8l4.5,-7.2l7.9,-1.6l3.7,1l10.2,5.6l1.6,3.7l0.3,4.7l3.9,7l8.8,4.9l5,5.5l10.4,3.7l18.8,-3.3l3.4,-7.8l3.8,-0.8l10.7,0.1l10,2.7l9,5.9l-0.9,4.2l-1.2,3.6l-2.2,1.4l-1.3,3.1l0.5,6.3l2.2,5.4l5.3,1.2l5.6,-1.1l3.4,1l3.3,2.6l-2.6,6.1l1.1,14.9l1.2,7.2l-3.1,1.8l-3.1,0.8l-3.1,-0.2l-3,1l-2.3,2.5l-5.3,12.2l-1,3.5l-0.6,3.8l-1.4,4.3l-2.9,2l-4.3,5.6l-3.3,7.5l-7.5,11.2l-6.5,12.5l-2.1,8l-3.3,5.6l-5.5,0.9l-4.7,3.7l-6.6,16.3l-0.4,1.7l-2.5,-1.5l-2.1,-0.3l-1.8,1.2l-0.7,0.3l0,1.6l0,0.4l0.6,0.8l0.2,0.3l0.2,0.3l2,2.9l1,2.6l0.7,3.1l0.8,2.7l1.7,1.8l2.3,1.3l1.6,1.8l1,2.5l0.1,3.5l1.2,1.5l0.1,1.4l0.1,0.5l-0.6,1.2l-1.1,-0.4l-0.4,-0.6l-0.4,-0.6l-0.2,-0.2l-0.1,-0.3l-0.3,-0.6l-0.6,-0.4l-1.3,0l-0.2,0.4l0,1.7l-0.2,0.5l-0.9,0.1l-1.6,-0.6l-0.8,0l-1.1,0.8l-1.5,2.1l-0.9,0.7l-1,0.3l-0.7,0.2l-0.4,0.1l-1.8,-0.2l-1.8,0.3l-1.8,1.5l-0.2,0.2l-0.1,0.1l-0.3,0.4l-1.3,2l-1,2l-0.5,0.7l-0.1,0.2l-0.4,0.5l-0.1,0.1l-2,1.5l-0.3,0.4l-0.3,0.4l-1.7,2.3l-0.1,0.1l-0.3,0.5l-0.1,0.1l-3.7,0.3l-3.8,-2l-3.1,-2.9l-1.6,-2.1l-0.6,-1.2l-0.3,-0.6l-1,-4.8l-1,-2.7l-2.7,-2.8l-1.2,-2.1l-1.3,-1.8l-2.3,-4.2l-1.3,-1.9l-2,-1.4l-4.1,-1.5l-1.6,-2.1l-0.2,-1.3l0.1,-1.3l-0.1,-1.3l-0.6,-1.3l-0.9,-0.3l-4.1,0l-0.3,0.1l-0.5,0.2l-0.3,0.1l-0.6,0.5l-0.7,0.2l-1.2,-1l-0.4,-0.8l-1.2,-3.6l-2.9,-0.6l-0.9,-2.5l0.6,-1.8l0,-0.4l-0.1,-0.3l0,-0.3l0.2,0l0.5,-0.1l-0.1,-0.4l0,-0.2l0.7,0l0.2,-0.1l-0.1,-0.3l0.6,0l0.5,-0.4l0.3,-0.2l0.5,-0.2l1.4,-1.1l1.6,-1l1.4,-1.2l0.2,-0.4l0.5,-1.4l1.4,-0.5l0.7,0.2l2.2,0.6l1.6,-0.3l0.6,-0.9l0.1,-0.1l0.1,-0.2l0.4,-0.4l0.1,0l1.4,-1.4l0.8,-1.1l-0.3,0l0,-0.2l0,-0.6l0.1,-1.1l0.2,-0.7l0.4,-0.8l0.2,-0.4l0,-0.5l-0.3,-1.1l0.9,-0.4l1.9,-0.8l0,-0.2l-0.8,-2.5l-7.7,-8.2l-2.8,-1.6l-3,-0.7l-3.3,-0.1l-0.4,0.1l-0.7,0.1l-0.7,1.5l-0.7,1.8l-0.3,0.4l-0.5,0.7l-0.3,0.3l-1.5,0.3l-1.4,-0.6l-2.8,-2.2l-3.9,-0.4l-1.8,1.8l-0.2,0.2l-0.4,0.4l-3.1,3l-0.1,0.1l-3.9,0.7l-0.1,-0.5l-0.1,-0.4l0.1,-0.5l0.1,-0.4l0.8,-0.6l0.1,-0.2l0.4,-0.3l0.1,-0.2l0.2,-1.5l-0.2,-0.6l-0.3,-1.4l-0.8,-1.9l-1.2,-2.3l-1.2,-1.1l-1.5,-0.3l-1.9,0.8l-0.7,0.2l-1.8,0.7l-0.3,0.1l-0.7,0.3l-0.3,0l-0.6,0l-1.6,0l-0.6,-0.2l-4.6,-7.8l-0.3,-0.9l-0.2,-0.9l-1.6,-0.2l-0.6,-0.1l-0.1,0.1l-2.6,0.6l-1.2,0.3l-3.7,0.9l-0.9,-0.3l-0.7,-0.7l-1.2,-1.8l-1,-0.7l-9.6,-3.4l-1.3,-0.4l-0.3,-0.1l-0.4,-0.2l-2.1,-0.7l-0.6,-0.2l-0.6,-0.2l-3.3,-1.2l-1.9,0.2l-1.8,0.1l-0.9,1.1l-0.9,1.5l-0.1,0.1l-0.9,1l-0.1,-0.1l-1.1,-0.3l-0.6,-1.2l0,-1.4l0.3,-1.4l0,-1.4l-1.1,-2.7l-1.4,-1.2l-1.6,-0.7l-1.8,-1.4l-1,-1.6l-1.1,-2.4l-0.8,-2.5l-0.3,-2.1l0.6,-2.6l0.8,-1.5l0.1,-1.4l-1.4,-2.4l-2.4,-1.2l-5.2,-0.1l-0.9,-2.1l-0.4,-2.2l-1.1,-0.5l-0.2,0.2l-0.6,0.4l-0.3,0.2l-0.8,1.9l-0.3,1.5l-1.1,0.2l-1.2,-0.6l-1.1,-1.1l-0.8,-1.4l-4.6,-1l-1.2,-1.2l-0.3,0l0,0.7l-0.4,0l0,0.1l-0.5,0.6l-1.3,1l-0.3,0.1l-0.2,0l-0.5,0.3l-0.5,0.3l-0.4,0.5l0.4,1.7l1.5,1.1l1.3,2l0.1,4.1l0,0.1l-0.2,0.8l-0.6,0.6l-0.3,0.4l-0.3,0.5l-0.1,0.8l0.1,0.5l0.1,0.4l0.1,4.4l0,0.6l-0.2,1.3l-10.3,-0.8l-3.3,0.9l-1.2,0l-0.8,-0.1l0.1,-2.6l1.2,-2.2l3.3,-3.6l4.5,-10.9l4.1,-10.3l0.3,-1.6l0,-2.8l0.1,-1.4l0.5,-1l0.7,-0.7l0.6,-1l0.2,-1.8l0.1,-3.7l0.8,-4l1.2,-3.9l1.5,-3.1l-0.3,-0.4l-0.4,-0.4l0.5,-4.2l-1.3,-2.9l-2.1,-2.4l-1.6,-2.9l-0.3,-1l-0.4,-2.7l0,-0.1l-0.5,-6.2z" id="PL02"/>
   <path d="m456.6,621.9l-3.1,11l-1.1,1.4l-0.7,2.2l0.6,3.3l1.2,2.6l-0.7,5.1l-7.1,4.6l-2.4,5.1l-1.6,9l-2.2,5.9l1.8,5.4l2.4,3.3l2.9,2.3l2.9,3.1l1.1,5.1l-13.2,-0.1l-2.7,0.6l-1.2,3.2l1,2.6l-0.1,2.5l-2,1l-2,0.3l-0.8,3l1.5,18.2l-0.1,7.3l-0.9,4.1l-8.8,4.1l-5.5,4.1l-11.4,2.4l-5.4,10.6l0,0.3l0,0.4l-0.1,1.7l-1.1,-0.3l-0.4,-0.1l0.4,3.2l0.5,0.2l0.7,-0.2l0.8,0l0.6,1l0.1,1.4l-0.4,0.6l-0.2,0.1l-2.8,0.8l-3.6,0.1l-0.6,0.2l-1.1,0.2l-2.3,2.2l-0.3,0.2l-3.3,1l-3.3,-0.7l-5.9,-5.8l-1,-1.4l-0.7,-1.7l-0.5,-1.8l-0.7,-1.5l-1,-1.2l-0.8,-0.9l-0.3,-0.8l0.3,-0.8l0.8,-0.7l0.1,-0.1l0,-0.1l0,-0.1l-0.1,-0.2l-1.2,-0.3l-2.5,-1.2l-1.2,-0.3l-1,0.2l-0.7,0.5l-1,0.1l-1.4,-0.6l-4.4,-5.6l-0.2,-1l0.7,-1.5l0.4,-0.2l0.6,-0.3l0.9,0l3.5,-0.1l2.4,-1l1.3,-0.8l1.6,-0.9l1,-0.6l1.3,-1.2l0.5,-0.4l0.8,-2.1l-1.4,-2.7l-0.9,-0.9l-0.2,-1.5l0.1,-1.3l1,-2.6l0.2,-0.5l0.1,-0.4l0,-0.4l-0.3,-0.3l-1.6,-2.2l-0.5,-0.5l-1.6,-0.6l-0.4,0.2l-0.2,0.2l-0.2,1l-0.5,1.1l-1.4,2l-0.1,0l-0.4,0.6l-0.2,0.3l-0.3,0.4l-0.3,0.4l-1.6,1.3l-2.1,0.6l-7,-1.3l-0.1,0l-1,-0.2l-4.1,0.4l-0.2,0l-1.6,2l-1.1,1.3l-0.4,0.3l-0.5,0.1l-0.5,-0.1l-0.5,-0.3l-0.3,-1.1l-0.5,-1.6l-2,-1.6l-2,0.2l-0.5,1.2l-0.2,0.7l-0.3,0.7l-1.2,-0.9l-0.6,-1.5l-0.2,-1.8l0.1,-1.8l-0.4,-0.4l-0.4,-0.4l-0.3,-0.5l-0.2,-0.5l1.2,-0.5l-0.3,0l0,-0.5l-1.1,-0.5l-4.3,0.1l-2.2,-0.6l-3.2,-2l-0.8,-1l-0.6,-1.2l-0.6,-1.9l0,-0.2l-0.3,-1.3l0.2,-0.4l-1,-0.3l-2.8,0.5l-1.2,0l-1.2,-0.6l-2.1,-1.8l-1,-0.6l-9.3,-2.6l-2.1,0.2l-1.4,-0.8l0.4,-1.7l6.6,-16.3l4.7,-3.7l5.5,-0.9l3.3,-5.6l2.1,-8l6.5,-12.5l7.5,-11.2l3.3,-7.5l4.3,-5.6l2.9,-2l1.4,-4.3l0.6,-3.8l1,-3.5l5.3,-12.2l2.3,-2.5l3,-1l3.1,0.2l3.1,-0.8l3.1,-1.8l3.1,-0.2l3,1.6l1.2,3.1l0.5,3.5l4.8,3.9l5.8,0.3l10.7,-4l10.4,-6.2l2,3.7l2.7,2.1l20.3,5.3l6.4,-0.2l1.2,-1l0.8,-1.5l1.1,-0.7l2.4,3l2.1,4.1l6.8,5.6z" id="PL16"/>
   <path d="m866.8,433.2l-0.7,0.6l-1.6,0l-2.9,-1.7l-1.7,-0.5l-1.2,0.6l-1.4,0.9l-1.4,0.5l-1.5,-0.9l0.2,-0.7l0.5,-1.6l0.4,-0.8l-2.5,-3.1l-1.7,-1l-1.9,1.1l-0.8,-3.4l-2.1,-2l-2.7,-0.9l-7.1,1l-14.1,-2.9l-4.8,0.2l-2.2,-0.5l-1.1,-1.8l-1.5,0.7l-1.9,-1.4l-1.5,-2.2l-0.6,-1.6l0.5,-4.9l-0.2,-0.7l-1.3,-0.2l-0.7,-0.7l-0.5,-1.3l-0.3,-1.9l0.1,-1.3l0.4,-1.2l0.3,-1.2l-0.2,-1.5l-0.7,-0.9l-2,-1.7l-1.9,-2.6l-5,-5.4l0.2,-3.3l-0.2,-5.5l-1.1,-5.3l-0.6,-7.8l-1.4,-7.1l-5.3,1.5l-5.1,2.6l-2.8,-2l-2.3,-3.2l1.4,-8.3l-4.4,-3.3l-4.5,4.9l-6.9,1l-6.4,-3.4l-2.4,-4.4l-1.3,-5.5l-1.3,-3.7l-2.2,-2.3l-3.5,-1.9l-2.3,-4.2l-0.4,-3.8l1.5,-2.7l-4.2,-3.3l-5,-0.7l-4.8,-2.6l-3.3,-6.5l-5.1,-12.7l-2.3,-17.5l-1.4,-5.9l-2.1,-5l-1.2,-5.3l6.6,-2.9l13,0.8l5.7,-2l2.6,-2.1l2.9,-1.3l6.8,-1l15.7,-10.7l8.8,-10l25.2,-15.8l5.3,-5.5l3.1,-8.9l3.7,-7.1l0.3,-7.2l-9.6,-13.5l-4.6,-4.5l-1,-4.3l-0.5,-4.6l-9.1,-12.3l8.5,-12.2l20.3,-2.8l6,-4.1l5.2,-5.5l2.2,-7.5l-0.2,-1.2l0.1,-0.2l2.3,-1.1l1.9,0.3l5.5,2.8l0.9,0.1l2.1,-0.4l0.9,0.2l1,1l0.5,1.2l0.4,1.2l0.6,1l1,0.7l3.1,0.4l0.6,0.8l-0.3,1.5l-0.6,1.8l0,1.6l1.7,2.3l2,0l2.2,-0.9l1.8,-0.4l1.7,0.8l5.6,4.7l3.5,2.1l7.3,2.8l1.8,1.6l1.7,1.4l0.9,1.4l1.6,3.1l0.8,1.2l1,0.7l1.9,0.5l0.9,0.5l1.5,2.2l1.2,3.1l1,3.5l0.7,3.3l1.3,7.2l0.1,3.5l-1.4,2.4l-1.1,0.9l-0.5,0.6l-0.4,0.7l-0.1,1.6l0.4,1.4l0.8,1.2l0.9,0.8l0.6,0.6l0.2,0.8l0,0.9l-0.4,0.9l0.1,4.5l0.9,3.7l1.2,3.6l1,3.9l0.8,8.1l1,3.2l2.2,3.2l0.2,9.5l2.1,10.6l7.7,23.8l4.3,8.9l1.8,4.8l3.7,14.4l1.6,4.3l1.6,2.2l0.9,2.1l0.7,2.2l1.1,2.4l1.6,1.8l1.6,1.2l0.9,1.8l-0.2,3.7l-0.8,2.1l-1.1,1.9l-0.9,2l-0.1,3l0.8,2.6l2.7,3.5l1.1,2.2l0.1,1.2l-0.2,1.8l0,1l0.8,4.2l0,1.2l-0.3,0.9l-1,2l-0.2,1.2l0.1,1.6l0.3,0.9l0.3,0.8l0.3,1.1l0.7,18.2l0.2,4.5l-1.2,6.4l-3.6,4.5l-12.1,8.3l-15.1,4.3l-8.1,4.7l-8,6.7l-11,17l-3.7,4.5l-1.6,2.6l-4.2,8.6l0.2,0.1l0.7,0.5z" id="PL20"/>
   <path d="m833.7,112.9l0.2,1.2l-2.2,7.5l-5.2,5.5l-6,4.1l-20.3,2.8l-8.5,12.2l9.1,12.3l0.5,4.6l1,4.3l4.6,4.5l9.6,13.5l-0.3,7.2l-3.7,7.1l-3.1,8.9l-5.3,5.5l-25.2,15.8l-8.8,10l-15.7,10.7l-6.8,1l-2.9,1.3l-2.6,2.1l-5.7,2l-13,-0.8l-6.6,2.9l-11,0.9l-2.2,1.2l-2.6,5.2l-3.7,2.6l-4.1,0.6l-8.1,-0.7l-6.9,8.2l-8.1,2.6l-8.7,0l-6.6,3.8l-5.8,1.2l-6.5,-0.1l-3.3,2.7l-3,3.6l-12.7,7.3l-3.3,1l-3.5,-0.3l-2.8,2.2l-1.5,5.1l-2.4,2.7l-2.7,1.4l-6.9,1.3l-28.6,-4.5l-0.8,-0.9l-0.6,-1.4l-1.4,-0.9l-1.6,-0.4l-3.6,1.2l-2.3,4.6l-2.6,2.2l-3.2,0.8l-1.3,-13.8l-4.7,-11.9l-5.1,-3.6l-10.3,-2.7l-9.7,-5.9l-7,-2.3l-1.7,0l-2.1,-0.9l-1.4,-2.1l-2.8,-5.2l-2.2,-6.6l-7.9,-15.3l13.4,-25l3.2,-3.5l3.8,-2.4l7.4,0.5l5.1,-2.3l0.2,-2.5l1,-1.7l1.5,-4.4l1.6,-1.6l1.1,-2.1l0,-2.6l0.4,-2.4l-4.6,-1.3l-8.9,0.8l-3.3,-1.6l1.8,-6.1l-2.4,-3.2l-4.6,-0.6l-4.4,-2.6l-3,-5.1l-1.7,-6.6l-0.2,-3l1.4,-2.2l4,-4l1.4,-2.5l1,-2.9l-0.9,-3.8l-1.9,-3.3l-2,-6l0.6,-5.3l2.2,-2.5l8.1,1l2.1,-0.2l0,1.1l-0.8,0.8l-0.7,1.4l-0.3,1.9l-0.1,2.3l1.2,-1.2l1.6,-4.3l0.7,-0.9l0.5,-0.6l2.3,-3.7l2.3,-2.2l1.2,-0.7l1.1,-0.3l7.1,-4.5l1.5,-0.6l3.6,-0.5l5.8,-4.3l1.3,-0.5l1.3,-0.2l0.8,-0.9l0.4,-1.7l0.7,-1.5l1.5,-0.3l-0.2,-0.7l-0.2,-1.7l-0.2,-0.7l1,0.1l0.4,-0.2l18.7,1l35.2,1.9l26.2,1.4l26.2,1.4l32.4,1.7l39.4,2.1l25.2,1.4l25.2,1.3l21.2,1.1l17.1,0.9l6.2,-2l1.7,-1.4l2.3,-4.3z" id="PL28"/>
   <path d="m120.5,563.7l-0.4,-3.8l0.8,-1.8l-0.9,-2l-1.7,-1.8l-1.4,-1.1l-2.1,-1l-4.2,-1.2l-2.1,-1.2l-1.9,-1.4l-6,-2l-2,-2.1l-0.3,-1.6l-0.2,-1l0.8,-2.8l1.7,-2.9l1.1,-2.9l-0.1,-3.8l-0.9,-3.7l-1.2,-2.6l-4.4,-3.6l-2.1,-2.4l-0.9,-3.8l-0.3,-3.8l-1.3,-1.7l-1.6,-1.2l-1.5,-2.3l-0.3,-3.1l1.2,-2.5l5.2,-5.3l1.7,-2.3l1.4,-2.6l0.7,-2.9l0.3,-9l0.5,-1.4l2,-3.6l0.4,-1.4l0.1,-1.3l0.3,-1.4l0.7,-1.2l1.7,-2.1l-5.9,-4.4l-0.9,-2.2l0.5,-3.8l1,-2.7l0.4,-2.1l-1.3,-2.1l0,-0.9l1.7,-2.3l0.1,-3.1l-1.5,-2.6l-2.5,-1.1l-2.6,-0.6l-3.1,-1.6l-2,-2.3l0.6,-2.7l-1.9,-4.3l-2.2,-6.5l-0.5,-5.9l4.7,-4.1l2.2,-3.5l1.5,-3.5l-0.4,-1.6l-1.7,-1.6l0.7,-3.4l2.5,-5.4l-2.8,-2.3l-0.5,-0.6l2.2,-8l2,-3l7.7,-1.2l4.6,-1.9l7.1,-10.1l5.8,-12.7l8.8,-4.9l15.1,5l4.8,-0.6l5.6,-6.5l3.4,-6.6l-2.5,-0.4l-1.7,-2.5l5.1,-0.2l15.4,-5.3l18.7,0l4.5,-3.3l8.2,-10.5l4.7,-3.8l5,-0.6l4.5,1l2.4,7.4l-1.6,7.1l-1.8,8.7l0.3,9.6l-8.9,11.4l2.8,2.6l2,7.4l-0.9,2.3l-1.7,1.2l-8.6,2.7l-1.4,-0.2l-0.6,1.4l-0.1,3.4l-0.4,3.2l0.3,8.3l3.2,8.8l1.1,5.2l0.7,5.5l0,4.4l-2.4,0l-1.9,1.4l3.8,6.8l1.8,4.4l0.2,9.2l-2.9,8.7l-0.5,2.1l-0.2,2.3l-1,4.4l-0.1,4.9l0.7,4.7l2.1,3.2l2.5,2.5l5,2.7l1.6,4.6l2.1,3.8l3.3,3.3l3.3,0l1.6,-0.6l1.5,0.9l0.1,3l-0.8,2.8l-0.4,5.1l1.3,3.9l3.9,2.7l4.2,1.3l6.6,-4.5l5.9,6.5l2.9,11l-4.5,7.2l-5.5,4.8l-7.2,1.6l-5,-6.4l-0.3,-5.1l-2.5,-2.6l-13.7,-2.6l-1.8,2.5l-1.3,3.8l-2.8,2.8l-3.2,1l-1.9,1.5l-8.9,17.4l-10.1,13.3l-6.4,1.6l-12.8,-7l-6.6,2.3l-3,3.6l-4.6,8l-2.7,-0.3l-5.3,-4.6l-2.6,0.1l-14.5,7.5l-1.7,1z" id="PL08"/>
   <path d="m219.2,325.3l1.6,-7.1l-2.4,-7.4l-4.5,-1l-5,0.6l-4.7,3.8l-8.2,10.5l-4.5,3.3l-18.7,0l-15.4,5.3l-5.1,0.2l1.7,2.5l2.5,0.4l-3.4,6.6l-5.6,6.5l-4.8,0.6l-15.1,-5l-8.8,4.9l-5.8,12.7l-7.1,10.1l-4.6,1.9l-7.7,1.2l-2,3l-2.2,8l-5.3,-5.9l-5.4,-2.2l-2.6,-3.6l-1.8,-0.8l-0.9,-0.9l-3.1,-6.1l-1.4,-1.7l-9.7,-7.1l-2.4,-1.4l-3,-3.5l-1.8,-0.8l-2,-0.1l-1.9,-0.6l-1.6,-1.3l-1,-2.1l2.4,-2.1l0.9,-1.8l0.4,-2.8l-0.2,-1.9l-1.1,-5.4l-0.6,-1.5l0,-0.9l4.4,-3.3l5.5,-2.9l5.4,-4.3l2.8,-2.9l1.2,-2.7l0.2,-1.3l2.8,-8.5l-0.2,-2.2l-0.6,-2.2l-0.3,-2.4l0.2,-2l0.7,-1.9l0.9,-1.3l1,-0.6l0.6,-1l2.4,-4.6l-1.2,-1.1l-0.4,-0.9l-1.3,-1.2l-0.6,-0.9l-0.3,-1.5l0,-2.8l-0.2,-1.3l-0.6,-2.8l-1.9,-8.9l-0.9,-7.9l-1.9,-3.2l-1,-3.2l-2.2,-3.4l-0.6,-3.1l-0.1,-3.4l0.2,-5.6l-0.1,-1.5l-1.9,-5.9l-1.4,-3l0.4,-2.4l-0.1,-4.3l0,-0.1l0.8,-0.1l1.7,-0.7l1.2,-1.1l0.1,-1.2l-1.6,-1.1l0.9,-0.6l0.3,-0.5l-0.3,-0.5l-0.9,-0.5l0.5,-1.2l0.9,0.8l1.3,0.7l1.1,0.8l1,3l1.3,1l2.5,1.1l1.8,2l1,0.8l4,0.7l4.9,1.8l1.7,1.3l1.4,2l3,5.7l1,1.4l0.5,-0.4l0.1,-2.5l0.4,-1.4l0.8,-1l1.2,-0.9l-0.1,-0.6l0,-0.6l0.1,-0.9l-1,-0.3l-2.3,-0.2l-1,-0.6l-2.8,-6.8l0.5,-3.4l2.3,-6.6l1,0.9l0.9,-0.3l1,-0.5l1.4,-0.1l-0.6,-3.9l0.3,-3.1l0.6,-2.7l0.3,-2.9l-0.6,0l-0.2,1.8l-0.7,1.2l-2.2,2.2l0.6,1.1l-0.8,-0.3l-0.7,-0.5l-0.5,-0.5l-0.5,-0.8l0.5,-0.5l0.8,-1.1l0.6,-0.5l-1.2,-2.6l-2.2,-1.3l-10.1,-1l-1.4,-1.6l1.2,-3l-0.3,-0.3l-0.1,0l0,-0.2l-0.2,-0.5l-0.9,1.5l-0.7,0.2l-0.8,-0.4l-1.1,-0.3l-0.7,0.3l-0.7,0.8l-0.6,1l-0.7,1l2.7,0.5l1.4,0.7l0.8,1l-0.2,1.9l-0.9,1.3l-1.2,0.5l-0.8,-0.6l-2.5,1.6l-1.2,0.4l-1.3,0.1l0,1.1l1.2,0.5l0,0.3l-1.2,0.2l-0.9,-0.1l-1.4,-0.7l-1.1,-0.2l-1.5,-1l-4.3,-6.4l-2.2,-0.9l-0.2,0l-0.7,-2.4l-1.6,-2l0.9,-0.2l0.7,-0.6l1.6,-4.1l1.5,0.7l1,0.8l2.7,1.1l9,0.7l3.6,-0.7l3.5,-1.9l6.6,-4.8l24,-10.7l20.7,-5.5l25.2,-10.7l16.4,-4.4l17.9,-4.8l17.6,-8l14.6,-1.8l10,-3.4l-1.1,1.1l-4.5,2.1l1.9,1.4l8,-1.4l0,-1l-0.6,0l0,-1.1l4.3,0l0,-0.8l-0.1,-0.1l-0.2,0l-0.3,-0.2l0.2,-2.5l-2.1,-0.1l-4.9,1.5l3.1,-1.5l3.8,-2.5l5.6,-6.6l-1.2,2.3l-2,2.2l-0.8,1.1l0.8,-0.3l1.7,-0.3l1.4,-0.6l1.3,-1.5l3.2,-1.5l1.1,-1.4l-1,-2.3l-1.8,0l-0.8,1l-1.4,1.3l3.9,-6.7l10.5,-13.5l0,0.9l-0.5,1.6l0.9,0.4l1.5,-0.6l1.1,-1.4l0.6,-2.1l-0.5,-0.6l-1.2,0.5l-1.3,1.3l1.8,-3.8l3.2,-3.1l6.2,-3.9l18.9,-2.8l0.6,-0.2l0.2,0.3l6.3,12.8l7.5,10.8l2.8,5.7l0.7,7.5l-1,4.2l-2.4,2.4l-0.7,2.8l1,2.3l1.7,2.4l0.4,3.8l-1.5,2.2l-12.6,3.2l5.8,17.6l0.7,8.5l0,8.5l3.9,2.8l2.2,2.6l3.4,7l2.5,2.3l2.1,3l1.7,3.6l-5,-0.6l-4.5,2.1l0.1,3l1.8,0.9l1.6,2.6l1,3.3l-2.7,4.8l-3.8,3.9l1.6,16.6l-3.4,-1.1l-3.5,0.1l-3.2,1.4l-2.4,4.2l-1.8,5l-2.3,9.7l-2.7,0.6l-16.7,-0.5l-2.1,2.9l0.1,6.1l1.4,5.4l5.7,5.6l6.9,1.7l3.3,1.8l2.9,3.6l0.5,4.4l-2.7,3.4l-2.2,3.8l-2.6,2.5l-6.7,2.1l-13.1,7.7l-7.4,11.6l-8.7,8.3l-5.6,2.2l-5.7,0.7l-5.5,-3.3l-5,-1.7z" id="PL32"/>
   <path d="m866.8,433.2l0.7,0.6l1,1.5l0.3,1.9l-0.8,2.7l2.1,1.3l6.5,1.7l1.4,-0.5l1.2,1.2l5.6,2.1l1.9,0.2l0,0.9l-0.6,1.4l0.2,0.3l1.3,-0.6l1.2,0.6l0.8,0.8l0.8,0.2l1.3,-1.6l0.4,0.7l0.9,0.8l0.6,0.7l1.5,-1.5l0.3,1.1l-0.2,1.8l-0.4,0.5l2.5,5l1.8,0.6l4.3,-0.1l1.7,1l0.6,1.2l0.5,1.2l0.5,0.9l0.9,0.4l1.1,0.7l0.3,1.8l0.1,1.7l0.8,1.8l1.3,5.6l1,2.5l-1.4,1l-1.2,1.9l-1.7,4.1l-0.6,2.7l-0.1,4.8l-0.6,1.6l0.4,0.2l0.1,0l0.1,0.2l0,0.6l-1,0.7l-0.4,3.1l-1,1.3l1.4,2.6l1.7,2.3l-1,3.4l-1.8,1.7l-1.9,1.2l-1.5,1.8l-0.4,1l-0.4,1.6l-0.5,3.4l0.3,0.7l0.7,1.1l0.2,0.9l-0.9,0.4l-0.3,0.4l0.3,0.9l0.5,1l0.5,0.7l-1.2,1.4l-0.6,0.4l-0.8,0.1l0,1.1l1.1,1.1l0.1,1.4l-0.5,4l0.3,2.1l0.8,2l2,3.4l-0.6,0.1l-0.6,-0.1l1.1,2.3l1.4,0.6l1.3,0.7l0.3,2l0.2,0.9l0.6,2l1.4,1l0.6,0.2l1.1,0.4l0.1,0.1l1.2,0.8l-1.5,2.9l0.1,0.1l0,0.6l0.1,0.2l0.1,0.2l0.8,1.2l2.8,4.1l0.7,1.7l-1,0.5l-0.2,0.3l-0.2,0.3l-0.1,0.2l-0.2,0.2l0,0.4l-0.1,1.1l0.2,0.6l0.1,0.3l0.2,0.7l0,0.1l0.1,0.3l-0.5,0.2l-0.1,0l-0.6,0.2l-0.5,0.2l0,0.1l-1.6,1.6l-1.2,2.2l-0.5,1.9l0.6,3.1l1.4,0.7l0.1,0l1.6,0.1l1.6,1l0.4,0.8l3.1,7l0.2,0.4l1,2.2l0.3,0.6l0.5,0.6l1.6,1.9l1.5,1l0.9,0.6l1.8,1.1l0.4,0.2l2.2,2.4l0.2,0.1l0.1,0.2l0.4,0.4l0.4,0.3l1,1.1l0.4,0.8l0.6,0.9l-0.5,0.3l-1,0.5l-0.1,0.2l-0.2,1.1l0.2,0.5l0.3,0.7l0.1,0.2l0.7,1.5l2.4,3.7l0.8,1.9l1,6.1l0,0.9l-0.4,1.1l0.7,0.6l1.2,0.4l1.1,0.8l1,1.5l0.2,1.2l0.1,1.3l0.5,1.9l1.4,2.3l6.1,5.7l0.5,0.2l1.1,0.6l2.8,1.6l1.4,0.8l0.2,0.1l0.8,0.4l0.1,0.1l0.7,0.3l0.1,0.2l1,1.5l0,0.1l-1.1,2.5l-2.7,0.6l-1.7,0l-0.4,0l-0.1,0l-0.8,0l-1.9,0.9l-2.4,-1.4l-2.5,0.3l-1,0.8l-1.1,0.8l-1.1,2.5l0.1,1.7l0,0.4l0.1,0.6l0.6,0.8l0.7,1.1l2.2,1l2,0.2l0.5,0.1l0,0.9l-0.1,0.1l-0.1,0.2l-0.4,1l-0.1,0l-0.2,0.7l-0.3,0.5l0.4,0.6l0.1,0.2l0.1,0.2l0.7,1.2l2.1,1.3l0.1,0.1l0.1,0l0.2,0.1l1.8,0.5l0.6,0.1l-0.5,3.3l0.5,2.2l0,0.3l0.1,0.2l0.1,0.3l0.2,0.6l0.2,0.5l0.1,0.3l1.5,3.5l0.3,0.7l-1.3,2.3l-0.8,1.4l0.5,3.6l0.4,3.2l0.7,1.8l0.4,0.4l-0.1,0.4l-1.1,1.6l-1.7,1.8l-0.2,0.1l-5.7,3l-0.2,1.7l0.1,2.8l-0.1,1.8l-0.5,1.6l-1.5,3.5l-0.4,1.1l-4.8,2l-16.5,0.2l-2.7,0.9l-0.4,0.1l-1.6,0.8l-1.2,1.2l-1,2.1l-1.1,3.8l-0.1,0l-9.1,-5.4l-2.9,-4.4l-5.7,-3.6l-6.7,-0.8l-5.2,0.5l-2.4,1.1l-7.4,8.5l-5.9,4.7l-6.9,1.5l-20.4,-0.7l-12.4,-3.5l-0.9,-2.1l3.1,-0.8l1.4,-0.8l-2.4,-1.7l-12.6,2.5l-3.2,-1.5l-2.4,-3.6l-0.6,-3.5l1.5,-3l2.2,-3l2.9,-0.9l2.8,0.3l2.5,-1.4l-1.1,-3.5l-2.1,-4l-0.2,-2l0.1,-1.9l-0.9,-1.3l-14.3,-7.7l-21.1,-5.4l-1.7,-3l4.1,-7.8l1.3,-3.6l-2.9,-2.6l-3.2,-2l-3.5,-1.3l-3.6,0.2l-6,4.2l-6.8,-0.4l-11.9,-8.1l-0.5,-3.1l-2.3,-8.8l-0.2,-1.4l-0.2,-0.5l-0.4,-0.2l-0.4,-0.4l-0.2,-0.8l0.1,-0.9l0.2,-0.5l0.3,-0.2l0.1,-0.5l0.6,-6.2l-0.3,-2.8l-1.6,-1.3l0,-1l0.6,-0.1l0.8,-0.4l0.7,-0.6l0.4,-0.8l-0.4,-2l-2.2,-5.5l-0.7,-4.7l-0.8,-2.6l-0.2,-1.1l0.1,-1.7l0.3,-1.2l0.8,-2.1l1.7,-9l1.1,-2.4l0.8,-0.7l1,-0.1l-0.2,-3.1l1.1,-4.4l0.6,-4.1l-3.6,-4.4l0.2,-3.5l2.1,-1.8l2.2,-3l0.1,-6l-2.8,-0.3l0,-1l1.4,-1.6l-0.4,-1.8l-1.6,-2.5l-0.2,-2.1l0.1,-1.7l-0.3,-1.2l-1.4,-1l-0.9,-0.1l-2.2,1l-1.6,0.2l-4.7,-1l-2.5,-1.2l-1.4,-1.6l-1.1,-1.9l-0.1,-1.5l0.9,-3.8l3.3,-0.9l3.2,1.4l6.6,1l6.5,-2.3l2.2,-2.1l0.6,-3.3l-4.5,-7.1l3.5,-4.9l5,-3.1l-3.2,-4.8l-2.2,-5.5l-0.4,-3.9l-1.8,-3.8l-1.4,-4.1l-0.6,-3.8l6.4,-4.8l6.9,-2l13.2,0.1l12.4,-2.5l4.6,0.9l3.2,-1l8.6,-6.5l3.5,-0.4l10,0.9l5,-4.1l0.5,-2.2l0.6,-1.9l1.5,-1.6l1.6,-1.1l3.7,0.9l10.7,5.5l3.5,-1.4l3,-3.8l2.6,-6.1l8.6,-12.7l2.9,-5.5l1.2,-0.6l1.7,0.5l2.9,1.7l1.6,0l0.7,-0.6z" id="PL06"/>
   <path d="m556.7,106.4l-0.4,0.2l-1,-0.1l0.2,0.7l0.2,1.7l0.2,0.7l-1.5,0.3l-0.7,1.5l-0.4,1.7l-0.8,0.9l-1.3,0.2l-1.3,0.5l-5.8,4.3l-3.6,0.5l-1.5,0.6l-7.1,4.5l-1.1,0.3l-1.2,0.7l-2.3,2.2l-2.3,3.7l-0.5,0.6l-0.7,0.9l-1.6,4.3l-1.2,1.2l0.1,-2.3l0.3,-1.9l0.7,-1.4l0.8,-0.8l0,-1.1l-2.1,0.2l-8.1,-1l-2.2,2.5l-0.6,5.3l2,6l1.9,3.3l0.9,3.8l-1,2.9l-1.4,2.5l-4,4l-1.4,2.2l0.2,3l1.7,6.6l3,5.1l4.4,2.6l4.6,0.6l2.4,3.2l-1.8,6.1l3.3,1.6l8.9,-0.8l4.6,1.3l-0.4,2.4l0,2.6l-1.1,2.1l-1.6,1.6l-1.5,4.4l-1,1.7l-0.2,2.5l-5.1,2.3l-7.4,-0.5l-3.8,2.4l-3.2,3.5l-13.4,25l-4.9,2.2l-10.3,0.6l-5,-2l-2.8,-1.8l-6,-6.2l-1.4,-0.9l-1.3,-1.5l-1.7,-1l-7.4,-1.1l-5.3,1.9l-3.4,2.2l-7.7,-4.6l-16.3,-2.7l-3,-2.8l-2.7,-3.5l-3.1,-0.2l-15.4,2.3l-11.5,-2.3l-2.5,1.9l-3.7,6.8l-6.2,2.3l-2.9,2.8l-0.5,2l-0.4,2.1l0,3.3l-5.7,2.3l-12.6,-3.3l-3.3,0.3l-2.6,3.5l-2.2,4.9l-2.7,9.6l-2.5,1.5l-4.1,-4.8l-4.8,-2.7l-18.5,-0.8l-5.3,-3.2l-3.8,-6.6l-4.3,-5.4l-1.6,-16.6l3.8,-3.9l2.7,-4.8l-1,-3.3l-1.6,-2.6l-1.8,-0.9l-0.1,-3l4.5,-2.1l5,0.6l-1.7,-3.6l-2.1,-3l-2.5,-2.3l-3.4,-7l-2.2,-2.6l-3.9,-2.8l0,-8.5l-0.7,-8.5l-5.8,-17.6l12.6,-3.2l1.5,-2.2l-0.4,-3.8l-1.7,-2.4l-1,-2.3l0.7,-2.8l2.4,-2.4l1,-4.2l-0.7,-7.5l-2.8,-5.7l-7.5,-10.8l-6.3,-12.8l-0.2,-0.3l6.8,-2.7l3.8,-0.7l3.5,-1.2l8.7,-9.6l27.3,-12.9l34.4,-6.5l15.4,-5.3l24.2,-2.2l14.9,0l2.1,0.7l3.2,2.9l1.3,0.7l1.9,0.4l31,18.6l5.6,7.3l0.9,1.8l1,2.4l0,2.1l-1.6,0.8l-0.4,-0.5l-0.4,-1.2l-0.6,-1.1l-1.6,-1.2l-1.1,-2.9l-1.5,-1.9l-4.3,-7.4l-0.9,-0.4l-3.2,-0.6l-0.8,-0.4l-0.8,-1.4l-2.6,-0.9l-5.4,-3.8l-5.3,-2.6l-0.9,-1.2l-2.9,-2.3l-0.8,-0.3l-1.1,0.5l-0.6,0.8l-1.3,4.5l-0.2,1l0,2.3l0.5,0.6l2.2,1l0.5,0.6l1.1,1.9l1.3,2.9l-0.1,1.2l-0.3,1l0,1l1.1,1.2l-0.6,3l1.1,1.3l1.7,-0.3l1.5,-2l-0.5,2.6l0.7,2.1l1.1,1.7l2.3,7.2l0.7,1.5l-0.3,3.6l0,6.1l0.6,5.9l1.3,2.6l1.4,0.5l2.8,2.1l1.4,0.5l1.2,0.1l1.6,0.5l1.2,0.8l0.6,1.4l1.5,2.2l15.3,4.9l3.4,0.3l2.8,-1.6l0.8,0.8l1.1,0.6l2.5,0.7l34,-5.1l7.5,-3.6l3.6,-0.8l2.9,-1.4l5.5,-5.8l1.6,-0.7l1.9,1.6l4.5,1.5l7.1,0.4z" id="PL22"/>
   <path d="m716.8,259.1l1.2,5.3l2.1,5l1.4,5.9l2.3,17.5l5.1,12.7l3.3,6.5l4.8,2.6l5,0.7l4.2,3.3l-1.5,2.7l0.4,3.8l2.3,4.2l3.5,1.9l2.2,2.3l1.3,3.7l1.3,5.5l2.4,4.4l6.4,3.4l6.9,-1l4.5,-4.9l4.4,3.3l-1.4,8.3l2.3,3.2l2.8,2l5.1,-2.6l5.3,-1.5l1.4,7.1l0.6,7.8l1.1,5.3l0.2,5.5l-0.2,3.3l5,5.4l1.9,2.6l2,1.7l0.7,0.9l0.2,1.5l-0.3,1.2l-0.4,1.2l-0.1,1.3l0.3,1.9l0.5,1.3l0.7,0.7l1.3,0.2l0.2,0.7l-0.5,4.9l0.6,1.6l1.5,2.2l1.9,1.4l1.5,-0.7l1.1,1.8l2.2,0.5l4.8,-0.2l14.1,2.9l7.1,-1l2.7,0.9l2.1,2l0.8,3.4l1.9,-1.1l1.7,1l2.5,3.1l-0.4,0.8l-0.5,1.6l-0.2,0.7l1.5,0.9l1.4,-0.5l1.4,-0.9l-2.9,5.5l-8.6,12.7l-2.6,6.1l-3,3.8l-3.5,1.4l-10.7,-5.5l-3.7,-0.9l-1.6,1.1l-1.5,1.6l-0.6,1.9l-0.5,2.2l-5,4.1l-10,-0.9l-3.5,0.4l-8.6,6.5l-3.2,1l-4.6,-0.9l-12.4,2.5l-13.2,-0.1l-6.9,2l-6.4,4.8l0.6,3.8l1.4,4.1l1.8,3.8l0.4,3.9l2.2,5.5l3.2,4.8l-5,3.1l-3.5,4.9l4.5,7.1l-0.6,3.3l-2.2,2.1l-6.5,2.3l-6.6,-1l-3.2,-1.4l-3.3,0.9l-0.9,3.8l0.1,1.5l1.1,1.9l1.4,1.6l2.5,1.2l4.7,1l1.6,-0.2l2.2,-1l0.9,0.1l1.4,1l0.3,1.2l-0.1,1.7l0.2,2.1l1.6,2.5l0.4,1.8l-1.4,1.6l0,1l2.8,0.3l-0.1,6l-2.2,3l-2.1,1.8l-0.2,3.5l3.6,4.4l-0.6,4.1l-1.1,4.4l0.2,3.1l-1,0.1l-0.8,0.7l-1.1,2.4l-1.7,9l-0.8,2.1l-0.3,1.2l-0.1,1.7l0.2,1.1l0.8,2.6l0.7,4.7l2.2,5.5l-29,6.1l-15,-4.7l-7,-0.6l-6.2,-4.1l-0.6,-2.2l-0.4,-2.4l-2.7,-3.1l-0.7,-4.8l-2.8,-1l-2.8,2.7l-2.7,3.8l-3,1.7l-12.6,2l-11,-2.3l-2.3,-1.8l-1.9,-3l-2.1,-2.4l-15,-9.2l-2.7,-6.9l-5,-1.8l-0.3,-4.2l1.2,-4l5.8,-5.4l1.5,-4l0,-4.7l-1.2,-1.3l-3.3,-1.7l-0.7,-2.3l-0.3,-4.7l-0.9,-4.5l-2.7,-6.4l2.3,-8.3l7.1,0l5.4,3l6.6,0.9l1.2,-2.4l0.2,-3.5l-1.4,-3.7l-4.8,-5.1l-0.9,-4.2l0.5,-1.9l0.9,-1.3l0.8,-1.7l-0.6,-2.4l-5.3,-7.2l-6.6,-5.1l-6,-2.8l-9.6,1.2l-3.3,-1.1l-0.8,-2.4l0.2,-2.8l-2.1,-3.2l-2.5,-2.8l-0.7,-3.1l3,-1.8l1,-7.4l-1.3,-1.6l-3.5,-2.4l-6.3,-2.5l-1.4,0.4l-1.3,-0.7l-1.8,-4.2l-0.3,-5.1l-1.2,-3.8l-2.5,-1.8l-3.2,-0.9l-2.9,-1.5l-2.1,-3.8l-2.5,-3.2l-3.4,0.3l-2.9,3l-18.8,3.9l-8.4,-6.8l-4.7,-2.2l-9.5,-2l-8.8,-6l0.6,-2.6l0.4,-2.5l6.7,-11.1l-0.4,-2.7l-1.8,-1.9l0.4,-5.8l2.5,-4.9l6.1,-17.8l3.9,-1l-0.1,-5l-2.6,-6.3l-1.6,-2.8l-1,-3.2l0.8,-3l1.8,-2l0.5,-5.6l-1.4,-6.1l4.4,0.5l3.8,-3.2l1.7,-2.5l1.9,-1.9l1.8,0.8l1.7,1.2l1.7,0.2l0.8,-2.6l0.5,-2.9l0.3,-3l-0.7,-4.5l-0.1,-2.9l-0.6,-2.9l4.7,-2.2l4.3,-3.5l3.2,-0.8l2.6,-2.2l2.3,-4.6l3.6,-1.2l1.6,0.4l1.4,0.9l0.6,1.4l0.8,0.9l28.6,4.5l6.9,-1.3l2.7,-1.4l2.4,-2.7l1.5,-5.1l2.8,-2.2l3.5,0.3l3.3,-1l12.7,-7.3l3,-3.6l3.3,-2.7l6.5,0.1l5.8,-1.2l6.6,-3.8l8.7,0l8.1,-2.6l6.9,-8.2l8.1,0.7l4.1,-0.6l3.7,-2.6l2.6,-5.2l2.2,-1.2l11,-0.9z" id="PL14"/>
   <path d="m556,649.3l-9.9,-5l-9.1,0.5l-3,-0.9l-8.5,-13.6l-5.5,-5l-6.1,-1.1l-3.1,2.7l-7.2,0l-5.9,-1.2l-11.9,-6.4l-2.8,-2.9l-3.2,-0.6l-2.8,2l-3,1.4l-12.8,0.4l-4.6,2.3l-6.8,-5.6l-2.1,-4.1l-2.4,-3l-1.1,0.7l-0.8,1.5l-1.2,1l-6.4,0.2l-20.3,-5.3l-2.7,-2.1l-2,-3.7l-0.6,-6.7l-0.9,-4l-5.2,-4.7l-1.7,-4l-0.3,-4.7l1.5,-3.2l6.6,-1.5l2.3,-3.6l1.5,-4.6l4.5,-1.3l5,2.4l4.3,-3.1l2.5,-6.9l-0.1,-7.8l-0.9,-8l0.4,-9.6l2.4,-9l4.2,-10.1l2.3,-3.2l5.2,-2.4l13.2,1.4l1,-1.1l4.4,-7.7l0.3,-4.7l-1.7,-4.7l-1,-5.2l0.6,-5l1.3,-4.5l2.9,-0.3l3.1,0.4l6.1,-1.4l4.6,-5.5l0.8,-9.2l0.9,-4.2l9.1,-3.8l5.6,-5.4l-0.2,-1.5l-1.4,-0.4l-1.7,-3.7l-0.2,-4.8l0.9,-1.1l0.7,-1.4l1.5,-0.9l11.2,-0.2l3.5,-1l0.8,-1.7l1.1,-1.7l1.8,-0.3l1.7,0.1l8.8,6l9.5,2l4.7,2.2l8.4,6.8l18.8,-3.9l2.9,-3l3.4,-0.3l2.5,3.2l2.1,3.8l2.9,1.5l3.2,0.9l2.5,1.8l1.2,3.8l0.3,5.1l1.8,4.2l1.3,0.7l1.4,-0.4l6.3,2.5l3.5,2.4l1.3,1.6l-1,7.4l-3,1.8l0.7,3.1l2.5,2.8l2.1,3.2l-0.2,2.8l0.8,2.4l3.3,1.1l9.6,-1.2l6,2.8l6.6,5.1l5.3,7.2l0.6,2.4l-0.8,1.7l-0.9,1.3l-0.5,1.9l0.9,4.2l4.8,5.1l1.4,3.7l-0.2,3.5l-1.2,2.4l-6.6,-0.9l-5.4,-3l-7.1,0l-2.3,8.3l2.7,6.4l0.9,4.5l0.3,4.7l0.7,2.3l3.3,1.7l1.2,1.3l0,4.7l-1.5,4l-5.8,5.4l-1.2,4l0.3,4.2l-2.6,2l-3.3,8.2l-3,1.4l-3,0.5l-2.9,1.4l-6.3,6l-2.9,0.8l-10.1,-1.4l-2.8,1.1l-2.2,2.9l-2.3,8.7l4.2,6.3l2.8,2.3l0.8,4.8l-0.7,4.7l-2,2.4l-12,-8.8l-3.2,0.6l-1.2,4.7l-0.1,4.6l0.4,4.5l-1.5,4.3l-3.2,2.1l-2.6,2.5l-2.1,3.5z" id="PL10"/>
   <path d="m499.5,242l7.9,15.3l2.2,6.6l2.8,5.2l1.4,2.1l2.1,0.9l1.7,0l7,2.3l9.7,5.9l10.3,2.7l5.1,3.6l4.7,11.9l1.3,13.8l-4.3,3.5l-4.7,2.2l0.6,2.9l0.1,2.9l0.7,4.5l-0.3,3l-0.5,2.9l-0.8,2.6l-1.7,-0.2l-1.7,-1.2l-1.8,-0.8l-1.9,1.9l-1.7,2.5l-3.8,3.2l-4.4,-0.5l1.4,6.1l-0.5,5.6l-1.8,2l-0.8,3l1,3.2l1.6,2.8l2.6,6.3l0.1,5l-3.9,1l-6.1,17.8l-2.5,4.9l-0.4,5.8l1.8,1.9l0.4,2.7l-6.7,11.1l-0.4,2.5l-0.6,2.6l-1.7,-0.1l-1.8,0.3l-1.1,1.7l-0.8,1.7l-3.5,1l-11.2,0.2l-1.5,0.9l-0.7,1.4l-0.9,1.1l-8.6,-6.6l-3.2,0.5l-9.5,4l-3.3,0.3l-2.5,-5.7l-15,-12.3l-2.7,-3.2l-3.2,-1.5l-1.7,0.2l-1.7,0.7l-0.8,1.7l-1.4,0.8l-2.2,-0.7l-1.7,-2.6l-1.1,-2.4l-0.7,-2.7l-1.3,-0.9l-1.8,-0.5l-5.3,6.2l-3.1,1.4l-9.2,-2.4l-2.9,-2.8l-2.6,-3.3l-3.1,-1.2l-3.3,-0.3l-3.3,-1.6l-9.3,-8.6l-6.8,-3.7l-6.3,-0.3l-5.8,-2l-1,-0.6l-0.7,-0.9l-0.4,-2.5l-0.8,-2l-2.8,-2.4l-1.6,1.5l-3.7,1.2l-3.7,-0.7l-1.8,-2.9l-1.4,-3.5l-3.3,-3.2l0.6,-3.8l1.6,-1.2l1.6,0.1l1.5,-0.5l1,-2.1l2,-10.6l-4.5,-9.8l-6.8,-5.2l-7.4,-2.7l4.1,-9.4l1.2,-9.4l-2.8,-5.4l-0.8,-6.4l8.3,-7l-4.3,-9.9l-7.8,-6l-1,-4.6l6.5,-8.6l2.6,-5.6l2.5,-1.5l2.7,-9.6l2.2,-4.9l2.6,-3.5l3.3,-0.3l12.6,3.3l5.7,-2.3l0,-3.3l0.4,-2.1l0.5,-2l2.9,-2.8l6.2,-2.3l3.7,-6.8l2.5,-1.9l11.5,2.3l15.4,-2.3l3.1,0.2l2.7,3.5l3,2.8l16.3,2.7l7.7,4.6l3.4,-2.2l5.3,-1.9l7.4,1.1l1.7,1l1.3,1.5l1.4,0.9l6,6.2l2.8,1.8l5,2l10.3,-0.6l4.9,-2.2z" id="PL04"/>
   <path d="m371.3,599.5l-1.2,-7.2l-1.1,-14.9l2.6,-6.1l-3.3,-2.6l-3.4,-1l-5.6,1.1l-5.3,-1.2l-2.2,-5.4l-0.5,-6.3l1.3,-3.1l2.2,-1.4l1.2,-3.6l0.9,-4.2l-9,-5.9l-10,-2.7l-10.7,-0.1l-3.8,0.8l-3.4,7.8l-18.8,3.3l-10.4,-3.7l-5,-5.5l-8.8,-4.9l-3.9,-7l-0.3,-4.7l-1.6,-3.7l-10.2,-5.6l-3.7,-1l-7.9,1.6l-2.9,-11l-5.9,-6.5l-6.6,4.5l-4.2,-1.3l-3.9,-2.7l-1.3,-3.9l0.4,-5.1l0.8,-2.8l-0.1,-3l-1.5,-0.9l-1.6,0.6l-3.3,0l-3.3,-3.3l-2.1,-3.8l-1.6,-4.6l-5,-2.7l-2.5,-2.5l-2.1,-3.2l-0.7,-4.7l0.1,-4.9l1,-4.4l0.2,-2.3l0.5,-2.1l2.9,-8.7l-0.2,-9.2l-1.8,-4.4l-3.8,-6.8l1.9,-1.4l2.4,0l0,-4.4l-0.7,-5.5l-1.1,-5.2l-3.2,-8.8l-0.3,-8.3l0.4,-3.2l0.1,-3.4l0.6,-1.4l1.4,0.2l8.6,-2.7l1.7,-1.2l0.9,-2.3l-2,-7.4l-2.8,-2.6l8.9,-11.4l-0.3,-9.6l1.8,-8.7l5,1.7l5.5,3.3l5.7,-0.7l5.6,-2.2l8.7,-8.3l7.4,-11.6l13.1,-7.7l6.7,-2.1l2.6,-2.5l2.2,-3.8l2.7,-3.4l-0.5,-4.4l-2.9,-3.6l-3.3,-1.8l-6.9,-1.7l-5.7,-5.6l-1.4,-5.4l-0.1,-6.1l2.1,-2.9l16.7,0.5l2.7,-0.6l2.3,-9.7l1.8,-5l2.4,-4.2l3.2,-1.4l3.5,-0.1l3.4,1.1l4.3,5.4l3.8,6.6l5.3,3.2l18.5,0.8l4.8,2.7l4.1,4.8l-2.6,5.6l-6.5,8.6l1,4.6l7.8,6l4.3,9.9l-8.3,7l0.8,6.4l2.8,5.4l-1.2,9.4l-4.1,9.4l7.4,2.7l6.8,5.2l4.5,9.8l-2,10.6l-1,2.1l-1.5,0.5l-1.6,-0.1l-1.6,1.2l-0.6,3.8l3.3,3.2l1.4,3.5l1.8,2.9l3.7,0.7l3.7,-1.2l1.6,-1.5l2.8,2.4l0.8,2l0.4,2.5l0.7,0.9l1,0.6l5.8,2l6.3,0.3l6.8,3.7l9.3,8.6l3.3,1.6l3.3,0.3l3.1,1.2l2.6,3.3l2.9,2.8l9.2,2.4l3.1,-1.4l5.3,-6.2l1.8,0.5l1.3,0.9l0.7,2.7l1.1,2.4l1.7,2.6l2.2,0.7l1.4,-0.8l0.8,-1.7l1.7,-0.7l1.7,-0.2l3.2,1.5l2.7,3.2l15,12.3l2.5,5.7l3.3,-0.3l9.5,-4l3.2,-0.5l8.6,6.6l0.2,4.8l1.7,3.7l1.4,0.4l0.2,1.5l-5.6,5.4l-9.1,3.8l-0.9,4.2l-0.8,9.2l-4.6,5.5l-6.1,1.4l-3.1,-0.4l-2.9,0.3l-1.3,4.5l-0.6,5l1,5.2l1.7,4.7l-0.3,4.7l-4.4,7.7l-1,1.1l-13.2,-1.4l-5.2,2.4l-2.3,3.2l-4.2,10.1l-2.4,9l-0.4,9.6l0.9,8l0.1,7.8l-2.5,6.9l-4.3,3.1l-5,-2.4l-4.5,1.3l-1.5,4.6l-2.3,3.6l-6.6,1.5l-1.5,3.2l0.3,4.7l1.7,4l5.2,4.7l0.9,4l0.6,6.7l-10.4,6.2l-10.7,4l-5.8,-0.3l-4.8,-3.9l-0.5,-3.5l-1.2,-3.1l-3,-1.6l-3.1,0.2z" id="PL30"/>
   <path d="m574.7,695.1l-2.6,-1l-6.2,-0.9l-3.1,-1.7l1.8,-4l6.2,-5.2l3.7,-0.6l-4.3,-5.3l-2.6,-5.6l-3.1,-2.4l-6.8,-2l-2.5,-2.9l3.4,-6.5l6.2,-1l0.4,-1.2l0,-1.7l-0.3,-1.6l-1.2,-0.7l-7.7,-1.5l2.1,-3.5l2.6,-2.5l3.2,-2.1l1.5,-4.3l-0.4,-4.5l0.1,-4.6l1.2,-4.7l3.2,-0.6l12,8.8l2,-2.4l0.7,-4.7l-0.8,-4.8l-2.8,-2.3l-4.2,-6.3l2.3,-8.7l2.2,-2.9l2.8,-1.1l10.1,1.4l2.9,-0.8l6.3,-6l2.9,-1.4l3,-0.5l3,-1.4l3.3,-8.2l2.6,-2l5,1.8l2.7,6.9l15,9.2l2.1,2.4l1.9,3l2.3,1.8l11,2.3l12.6,-2l3,-1.7l2.7,-3.8l2.8,-2.7l2.8,1l0.7,4.8l2.7,3.1l0.4,2.4l0.6,2.2l6.2,4.1l7,0.6l15,4.7l29,-6.1l0.4,2l-0.4,0.8l-0.7,0.6l-0.8,0.4l-0.6,0.1l0,1l1.6,1.3l0.3,2.8l-0.6,6.2l-0.1,0.5l-0.3,0.2l-0.2,0.5l-0.1,0.9l0.2,0.8l0.4,0.4l0.4,0.2l0.2,0.5l0.2,1.4l2.3,8.8l0.5,3.1l0.2,1.9l0.2,5.3l-0.8,5.7l-0.6,2.2l-1.1,2.6l-1.4,2.1l-1.6,0.9l-2.4,0.4l-1.6,1.1l-2.6,4.4l-4.3,5.1l-0.6,2.2l-0.5,2.8l-1.1,2.2l-2.8,3.4l-1.7,1.4l-5.8,1.5l-8.7,3.9l0.4,0.6l0.9,2.3l-1.7,1.8l-2.4,1.4l-2.3,0.5l-1.7,-0.8l-5.5,4.9l-0.4,0.1l-1.3,-0.1l-0.3,0.3l0,0.6l0.1,0.7l-0.1,0.4l-1,0.8l-0.6,-0.1l-0.8,-0.7l-0.5,2l-1.1,1l-1.1,0.5l-0.4,0.8l-0.2,1.2l-0.3,0.3l-0.5,0l-0.6,0.5l-1.6,2.2l0,0.2l-1.6,0.4l-0.9,-0.8l-0.8,-1l-1.3,-0.6l-0.9,0.2l-3.8,1.8l-0.8,0.8l-0.9,0.9l-1,0.9l-1.4,0.4l-6.7,0.2l-0.9,0.3l-0.8,0.7l-0.9,1.2l-0.8,0.5l-2.5,0.2l-1.3,0.8l-1.4,-0.9l-1.2,0.8l-1.2,1.3l-1.5,0.7l-3.5,-3.3l-0.5,0.8l-0.6,2.5l-1.9,1.9l-0.3,0.2l-0.8,0l-0.4,0.3l-0.3,0.7l-0.1,1.5l-0.3,0.7l-1.3,1.3l-2.9,1.4l-1.1,1.8l-0.4,1.5l-2.7,2.9l-11.9,-0.4l-6.7,-4l-1.7,-3.6l-4.1,-5.8l-1.6,-3.3l-1.5,-6.6l-4.2,-8.2l-6.9,-4.7l-7.7,-2.4l-3,-3.2l-3.6,-1.9l-8.5,0z" id="PL26"/>
  </g>
  <g id="points">
   <circle class="49.28622871749185|14.62488464379541" cx="90.9" cy="863.8" id="0"/>
   <circle class="51.62395317585258|19.634501340465032" cx="545.5" cy="530.6" id="1"/>
   <circle class="54.54610874880348|23.64219469780073" cx="909.1" cy="88.9" id="2"/>
  </g>
  <g id="label_points">
   <circle class="Silesian" cx="488.9" cy="685.8" id="svg_1"/>
   <circle class="Lesser Poland" cx="582.7" cy="787.8" id="svg_2"/>
   <circle class="Subcarpathian" cx="760.4" cy="762.3" id="svg_3"/>
   <circle class="Lower Silesian" cx="258.6" cy="600.8" id="svg_4"/>
   <circle class="Opole" cx="385.8" cy="668.1" id="svg_5"/>
   <circle class="Podlachian" cx="847.7" cy="295.6" id="svg_6"/>
   <circle class="Warmian-Masurian" cx="645.2" cy="198.5" id="svg_7"/>
   <circle class="Lubusz" cx="154.7" cy="445.1" id="svg_8"/>
   <circle class="West Pomeranian" cx="178.7" cy="237.1" id="svg_9"/>
   <circle class="Lublin" cx="839.5" cy="580.9" id="svg_10"/>
   <circle class="Pomeranian" cx="400.5" cy="133.9" id="svg_11"/>
   <circle class="Masovian" cx="679.2" cy="412.7" id="svg_12"/>
   <circle class="Łódź" cx="525" cy="531.8" id="svg_13"/>
   <circle class="Kuyavian-Pomeranian" cx="442.6" cy="320.5" id="svg_14"/>
   <circle class="Greater Poland" cx="289.9" cy="414.9" id="svg_15"/>
   <circle class="Świętokrzyskie" cx="650.2" cy="663.8" id="svg_16"/>
  </g>
 </g>
</svg>