<?xml version="1.0"?>
<svg width="1000" height="601" xmlns="http://www.w3.org/2000/svg" xmlns:svg="http://www.w3.org/2000/svg" stroke-linejoin="round" stroke-width=".5" version="1.2">
 <g class="layer">
  <title>Layer 1</title>
  <g id="features">
   <path d="m514.6,291.7l-1.6,1.4l-0.1,0.2l-0.3,0.6l-0.1,0.3l-0.3,1.6l-0.1,1l0.1,0.5l0,0.4l0.2,0.3l0.2,0.1l0.2,0.2l0.2,0.3l-0.2,0.7l-1.6,2.2l-0.6,2.3l-0.4,0.6l0.5,0.6l-0.1,0.5l-0.3,0.5l-0.6,0.6l0.5,0.2l1.1,0.8l3.8,4.9l0.2,0.3l0.2,0.6l0.1,0.3l0.3,0.3l0.6,0.4l0.2,0.2l1.5,3.8l0.3,0.3l-0.1,0.1l-0.3,0.2l-0.3,0.1l-0.6,-0.1l-0.4,-0.3l-0.3,-0.3l-0.3,-0.7l-0.1,-0.3l-0.4,-0.9l-0.1,-0.4l-0.1,-0.3l-0.2,-0.2l-0.9,-0.4l-0.8,-0.8l-0.1,-0.3l-0.1,-0.3l-0.1,-0.4l-0.1,-0.3l-0.2,-0.3l-0.2,-0.2l0,-0.1l-0.1,-0.3l0,-0.1l-0.1,-0.2l-0.3,0l-0.3,0l-0.9,0.4l-0.2,0l-0.3,0.1l-1.2,0.6l-1.2,0.4l0,0.3l0,0.3l-0.2,0.4l-0.3,0.4l-0.3,0.3l-0.2,0.2l-0.5,0.3l-0.1,0.2l-1,0.5l-0.6,0.7l-0.5,0.7l-0.1,0.3l-0.4,0.1l-1.6,0l-0.8,-0.3l-0.7,-0.1l-2.4,-0.1l-0.5,-0.1l-2.3,-1.3l-1,-0.4l-1.8,-0.2l-3.1,-1.4l-0.8,-1l-1.1,-0.4l-0.3,-0.1l-0.4,0l-0.8,0.4l-0.3,0l-0.3,-0.1l-0.4,-0.3l-0.4,-0.5l-0.2,0l-0.5,-0.1l-0.8,0.1l-2.7,-0.1l-0.2,0.4l-1.3,-1l-0.7,-0.3l-0.3,0l-0.4,0l-0.3,-0.1l-0.8,-0.5l-0.5,-0.4l-0.7,-0.3l-0.3,-0.1l0,-0.4l0.6,-1l0.2,-0.8l-0.2,-0.4l-0.3,-0.2l-0.5,-0.2l-0.2,-0.3l0,-0.2l0.2,-0.2l0,-0.3l-0.5,-1.2l0,-0.3l-0.1,-0.2l-0.2,-0.3l-0.4,-0.5l-0.7,-0.9l-0.4,-0.1l-0.6,0.1l-0.9,0.6l-0.5,0.2l-1,0l-0.5,-0.2l-0.3,-0.2l-0.2,-0.2l-0.1,-0.3l-0.3,-0.1l-0.3,-0.1l-0.2,0.2l0.1,0.2l0.1,0.3l-0.1,0.3l-0.2,0.1l-0.9,-0.3l-1,-0.1l-1.4,-0.9l-1.1,-0.1l-0.2,-1.2l-0.1,-0.3l-0.2,-0.3l0,-0.5l0,-0.3l1.3,-1.7l3,-2.1l0.6,-0.7l0.3,-0.5l0.1,-0.6l-0.1,-0.3l0.4,-0.7l-0.1,-0.5l-0.2,-0.1l-1.5,-0.3l1.7,-1.5l1.6,-0.3l0.4,-0.3l0.8,-0.7l0.3,-0.1l0.5,0l0.2,-0.1l0.2,-0.1l0.2,-0.1l0.2,-0.3l0,-0.3l0.1,-0.2l0.3,0l0.6,0.2l0.5,0.1l0.4,-0.2l0.3,0l0.2,0.1l0.2,-0.2l0.1,-0.2l0.2,-0.2l0.2,0l0.3,0.2l0.9,1l0.3,0.3l1.2,0.2l0.4,0.1l0.2,0.3l0.1,0.3l0.1,0.2l0.1,0.2l0.2,0.1l0.2,-0.1l0.2,0.1l0.2,0.6l0.1,0.2l0.6,0.4l0.6,-0.6l0.2,-0.7l0,-0.4l-0.2,-0.3l-0.4,-0.1l-0.2,0l-0.6,-0.7l-0.3,-0.4l0.1,-0.3l0.2,-0.8l-0.2,-0.4l-0.2,-0.1l-0.4,-0.1l-1.9,-0.8l-0.3,-0.2l-0.2,-0.3l-0.1,-0.3l0.1,-0.3l0.2,-0.3l0.2,-0.3l0.2,-0.4l0.1,-0.5l0,-0.7l0.1,-0.5l0.2,-0.3l0.1,0l0.5,0l0.3,-0.2l0.3,-0.6l0.7,-0.6l0.6,-0.3l0.3,-0.2l0.2,0l1,-0.1l0.6,0.2l0,0.3l-0.1,0.3l-0.1,0.6l0.1,0.6l0.3,0.3l0.2,-0.1l0.1,-0.3l0,-0.3l0,-0.2l0.1,-0.1l0,-0.1l0.4,-0.1l0.6,-0.1l0.3,0.1l0.2,0.1l0.8,0.9l0.1,0.4l0.1,0.7l-0.1,0.5l0.2,0.1l0.9,0.1l0.3,-0.1l0.3,-0.1l0.2,-0.2l0.2,-0.3l0.6,-0.4l0.8,-0.2l0.4,0.4l1.6,2.2l1.1,0.7l0.3,0.1l0.5,0l0.3,-0.1l0.7,0.1l1.2,-0.5l0.3,-0.3l0.6,-0.8l0.3,0.1l0.6,0.3l0.3,0.1l0.3,-0.2l0.4,0l0.3,0.1l0.8,0.3l0.3,-0.1l0.2,-0.1l0.2,-0.1l0.2,-0.4l0.2,-0.3l0.5,-0.5l0.5,-0.1l0.8,-0.2l0.5,-0.2l0.4,-0.3l0.1,-0.3l0,-0.3l-0.1,-0.2l-0.2,-0.4l0.4,-0.4l0.2,0.1l0.1,-0.1l0.1,0l0.1,0.5l1.5,0.6l0.6,0.6l0.2,0.4l0.1,0.8l0.1,0.3l0,0.5l0.8,0.7l0.3,0.9l0.1,0.7l0.5,0.7l-0.2,0.7l0.2,0.4l0.5,0.9l0.3,0.3l0.6,0.3l0.6,0l0.2,0.1l0.5,-0.2l0.8,-0.8l0.7,-0.7l1.1,-0.3l0.7,0l0.4,0.2l0.4,0.2l0.2,0.4l0,0.6l-0.1,0.3l-0.5,0.8l-0.1,0.3l0,0.4l0.3,0.3z" id="PT07"/>
   <path d="m514.6,291.7l-0.3,-0.3l0,-0.4l0.1,-0.3l0.5,-0.8l0.1,-0.3l0,-0.6l-0.2,-0.4l-0.4,-0.2l-0.4,-0.2l-0.7,0l-1.1,0.3l-0.7,0.7l-0.8,0.8l-0.5,0.2l-0.2,-0.1l-0.6,0l-0.6,-0.3l-0.3,-0.3l-0.5,-0.9l-0.2,-0.4l0.2,-0.7l-0.5,-0.7l-0.1,-0.7l-0.3,-0.9l-0.8,-0.7l0,-0.5l-0.1,-0.3l-0.1,-0.8l-0.2,-0.4l-0.6,-0.6l-1.5,-0.6l-0.1,-0.5l-0.1,0l-0.1,0.1l-0.2,-0.1l-0.4,0.4l0.2,0.4l0.1,0.2l0,0.3l-0.1,0.3l-0.4,0.3l-0.5,0.2l-0.8,0.2l-0.5,0.1l-0.5,0.5l-0.2,0.3l-0.2,0.4l-0.2,0.1l-0.2,0.1l-0.3,0.1l-0.8,-0.3l-0.3,-0.1l-0.4,0l-0.3,0.2l-0.3,-0.1l-0.6,-0.3l-0.3,-0.1l-0.6,0.8l-0.3,0.3l-1.2,0.5l-0.7,-0.1l-0.3,0.1l-0.5,0l-0.3,-0.1l-1.1,-0.7l-1.6,-2.2l-0.4,-0.4l-0.8,0.2l-0.6,0.4l-0.2,0.3l-0.2,0.2l-0.3,0.1l-0.3,0.1l-0.9,-0.1l-0.2,-0.1l0.1,-0.5l-0.1,-0.7l-0.1,-0.4l-0.8,-0.9l-0.2,-0.1l-0.3,-0.1l-0.6,0.1l-0.4,0.1l0,0.1l-0.1,0.1l0,0.2l0,0.3l-0.1,0.3l-0.2,0.1l-0.3,-0.3l-0.1,-0.6l0.1,-0.6l0.1,-0.3l0,-0.3l-0.6,-0.2l-1,0.1l-0.2,0l-0.3,0.2l-0.6,0.3l-0.7,0.6l-1.6,-0.5l-0.5,-0.4l-0.1,-0.4l-0.1,-0.3l-0.3,-0.5l-0.4,-0.4l-0.2,-0.3l-0.1,-0.4l-0.1,-0.5l-0.4,-0.3l-0.3,-0.3l-0.9,-0.3l0,-0.8l1.1,-1.7l0.5,-0.5l2,-1.4l2.1,-2l0.9,-0.7l0.4,-1l0.4,-0.5l0.4,-0.1l0.7,0.2l0.5,-0.2l0.3,-0.2l0.1,-0.2l0.2,-0.3l0.8,-1l0.6,-0.8l0.1,-0.3l0.1,-0.7l0.3,-0.2l1.7,-1.2l0.8,-1.2l-0.1,-0.2l-0.2,-0.4l-0.5,-0.4l-1.5,-1.5l0.8,-2l0.8,-1.2l0.6,-0.6l0.5,-0.2l0.7,0.2l1.5,0.8l0.5,0.5l0,0.1l0.2,-0.1l0.2,-0.1l0.7,-0.9l0.2,-0.2l0.8,-0.4l0.5,-0.6l0.5,-0.7l0.6,-0.7l0.7,-0.3l0.3,-0.3l0.3,-0.7l0.5,-0.8l0.6,-0.4l0.8,0l0.6,0.4l0.6,0.1l0.8,-0.7l0.5,-0.4l0.6,-0.5l0.7,-0.2l0.4,0.1l0.3,0.7l1.2,3.2l0.6,0.6l1.1,1.5l0.6,0.6l1.2,0.6l0.3,0.4l0.4,1l0.5,0.5l0.8,0.4l1.5,0.4l0.3,0.4l0,1.1l-0.2,1l-0.3,0.7l-0.2,0.7l0,1l0.2,1l0.3,0.5l0.7,0.6l1.8,2.2l-0.5,0.9l-0.1,0.9l0.3,1l0.5,0.7l0.9,0.5l1,0.3l0.9,0.4l0.4,0.9l-0.1,0.5l-0.4,0.9l0.1,0.4l0.4,0.3l0.5,0.3l0.5,0.1l0.5,-0.2l0.9,-0.5l0.9,-0.1l1,0.3l0.8,0.5l0.6,0.6l0.5,0.8l0.2,1l-0.2,0.8l0.4,0.3l0,0.4l-0.2,0.5l-0.3,0.4l-1.2,2.4l-0.9,1.1l-0.7,0.7l0.5,0.9l-0.2,0.7l0,0.7l-0.3,0.2l-0.4,0.4l-0.5,0.4l-0.5,0.3l-1.7,0.4l-0.4,0.3l-0.2,0.4l-0.5,0.6l-0.6,0.5l-0.5,0.2l-0.5,0.4z" id="PT12"/>
   <path d="m480,146.9l-0.1,0.1l-0.5,0l-3.4,1.9l-0.9,0.3l-3.2,0.1l-0.5,0.2l-0.5,0.2l-0.3,0.2l-0.6,0.5l-0.7,0.3l-0.2,-0.1l-0.3,0l-0.3,0l-0.2,0.2l-0.3,0.3l-0.1,0.3l-0.1,0.4l-0.1,0.8l0,0.3l-0.1,0.3l-0.4,0.4l-0.1,0.3l-0.1,0.3l0.1,0.5l-0.6,1.2l-0.2,-0.1l-0.4,-0.1l-0.4,-0.2l-0.7,-0.1l-1.1,-0.4l-0.3,-0.2l-0.1,0.1l-0.2,0.2l-0.2,0.3l-0.4,0l-1.8,0.1l-2.7,1l-0.3,0l-0.7,-0.1l-0.2,0l0,-0.6l-0.3,-0.9l-0.1,-1.1l0.1,-0.6l0.8,-0.3l2.3,-0.4l0.6,-0.2l0.6,-0.5l0.5,-0.5l-4,1.2l-0.9,0.2l-0.4,-0.1l-0.7,-0.4l-0.7,-1.6l0,-1.4l0.3,-2.2l-0.2,-1.4l0.1,-0.5l0.3,-0.4l2.5,-2.2l1.3,-1.4l0.4,-1.8l0.4,-0.3l0.8,-0.4l1,-0.3l0.7,-0.5l0.3,-0.5l0.4,-1l0.3,-0.5l0.6,-0.5l0.6,-0.1l1.3,-0.1l0.7,-0.2l1.3,-0.9l0.6,-0.3l5.6,-0.9l0.7,-0.3l0.9,-0.8l0.3,-0.2l0.3,-0.1l0.6,0l0.7,-0.3l1.1,-0.8l0.3,0.5l0.3,0.7l-0.1,2.1l0.1,0.8l0.5,0.4l0.5,-0.2l0.7,-0.3l0.7,-0.1l0.7,0.3l0.6,0.6l0.3,0.7l-0.1,0.9l-0.4,0.6l-0.6,0.5l-1,0.6l-1.1,1.1l-1.4,2.1l-0.3,0.8l-0.1,1l0.4,0.8l1.3,0.5l0.3,0.4l0.1,0.7l-0.2,1.1z" id="PT16"/>
   <path d="m502.6,249.1l-0.4,-0.1l-0.7,0.2l-0.6,0.5l-0.5,0.4l-0.8,0.7l-0.6,-0.1l-0.6,-0.4l-0.8,0l-0.6,0.4l-0.5,0.8l-0.3,0.7l-0.3,0.3l-0.7,0.3l-0.6,0.7l-0.5,0.7l-0.5,0.6l-0.3,-0.5l-0.3,-0.8l-0.2,-0.4l-0.7,-1.2l-0.8,-0.8l-0.6,-0.5l-0.6,-0.4l-0.7,-0.3l-0.4,0l-0.4,-0.1l-0.3,-0.2l-0.1,-0.4l0.1,-0.7l-0.1,-0.7l0,-0.3l0,-0.4l-0.1,-0.3l-0.1,-0.3l-0.2,-0.2l-0.9,-0.1l-1.2,-0.4l-0.7,0.2l-0.2,0.3l-0.4,2.4l-0.3,0.5l-0.2,0.6l0.1,0.5l0.2,0.8l0.1,0.3l0,0.2l-0.8,0.3l-1.3,0.1l-0.7,0l-1,-0.6l-2,-0.8l-0.3,-0.6l-0.1,-1.7l0,-0.9l0.2,-0.5l-0.1,-0.8l0.1,-0.2l0,-0.3l-0.1,-0.2l-0.1,-0.3l-0.2,-0.2l-0.4,-0.2l-0.5,-0.2l-0.4,-0.2l-0.2,-0.7l-0.2,-0.6l0,-0.2l0.3,-0.4l0.2,-0.2l0,-0.3l0,-0.2l0.2,-0.3l0.2,-0.2l1.6,-0.5l0.4,0.1l0.2,-0.2l0.3,-0.4l0.3,-0.4l0.3,-0.2l0.3,0l0.4,-0.3l0.3,-0.3l0.7,-1.4l0.6,-0.6l0.1,-0.3l0.3,-0.2l0.1,0l0.5,-0.1l0.4,-0.5l0.8,-0.2l0.6,0l0.2,-0.2l0,-0.2l0.1,-0.3l0.2,0l0.5,-0.1l0.2,-0.2l0.2,-0.1l0.3,-0.1l0.2,0.1l0.3,0.1l0.1,0l0.2,-0.1l0.5,-0.7l0.2,-0.2l0.3,0l0.7,0l0.4,-0.3l0,-0.2l-0.1,-0.7l0.1,-0.4l0.4,-0.4l0.9,-0.5l0.5,-0.1l0.4,0l0.4,0.1l0.3,0.2l0.7,0.5l0.1,-0.9l-0.1,-0.8l0.2,-0.3l0.2,-0.1l0.2,0.1l0,0.1l0.2,0.2l0.2,0.1l0.4,-0.1l0.7,-0.5l0.3,-0.3l0.2,-0.3l0,-0.2l0,-0.3l-0.1,-0.3l-0.1,-0.5l-1,-0.7l-0.6,-0.8l-0.4,-0.3l-0.2,-0.3l-0.2,-0.6l0.1,-0.4l0.8,-1.8l0.7,-0.3l0.6,-0.1l0.5,-0.2l1.3,-1l1,-0.4l0.9,-0.6l0.8,-0.9l0.7,-1l0.9,0.3l1.3,-0.2l0.3,-0.3l0.3,-0.3l0.2,-0.7l0.1,-0.3l0.5,-0.9l1.8,-1.7l1.4,1.1l0.9,0.3l0.4,0l1.2,-0.4l0.7,-0.9l0.3,0l0.4,-0.1l0.6,-0.1l0.3,0l0.4,0.2l-0.3,2.8l-0.4,1.3l-0.3,0.4l-0.3,0.3l-0.4,0.5l-0.1,0.4l0.1,0.2l0.1,0.2l0.2,0.1l0.3,0.1l0.3,0.1l0.8,0.2l0.9,0.2l1.7,-0.6l1.7,0l0.5,-0.2l0.2,-0.2l0.1,-0.4l0.2,-0.4l0.2,-0.3l0.4,-0.4l0.2,0.1l0.2,0.2l0.2,0.4l0.3,0.6l0.3,0.3l0.9,0.2l0.8,-0.1l0.6,-0.1l0.3,0l0.3,0l0.9,0.5l0.5,0.4l0.4,0.4l0.1,0.2l0.1,0l-0.5,0.1l-1.6,1l-0.6,0.3l-0.3,0.4l-0.4,1.1l-0.3,0.6l0.3,0.7l0.3,1.6l0.4,0.6l0.4,0.2l1,0.1l0.4,0.2l0.4,0.3l0.5,0.8l0.8,1l1.4,2.6l-0.6,1.1l-0.2,0.5l0.1,0.5l-0.1,0.4l-0.3,1.2l-0.1,0.2l-0.3,0.2l-0.1,0.3l0,0.2l0.1,0.5l0,0.2l-0.1,0.5l0,0.7l-0.1,0.5l-0.9,1.4l-0.4,0.2l-0.8,0.3l-0.3,0.3l-0.2,0.6l0,0.5l0.2,0.4l0,0.4l-0.1,0.5l-0.5,0.8l-0.1,0.4l0,0.4l0.1,0.4l0,0.3l-0.4,1l-0.5,0.2l-5.4,0.7l-1.1,0l-0.8,-0.5l-0.6,0.2l-1.5,-0.1l-0.6,0.2l-0.6,0.2l-0.5,0.2l-7.8,-0.4l0,0.1z" id="PT05"/>
   <path d="m524.9,221.8l-0.1,0l-0.1,-0.2l-0.4,-0.4l-0.5,-0.4l-0.9,-0.5l-0.3,0l-0.3,0l-0.6,0.1l-0.8,0.1l-0.9,-0.2l-0.3,-0.3l-0.3,-0.6l-0.2,-0.4l-0.2,-0.2l-0.2,-0.1l-0.4,0.4l-0.2,0.3l-0.2,0.4l-0.1,0.4l-0.2,0.2l-0.5,0.2l-1.7,0l-1.7,0.6l-0.9,-0.2l-0.8,-0.2l-0.3,-0.1l-0.3,-0.1l-0.2,-0.1l-0.1,-0.2l-0.1,-0.2l0.1,-0.4l0.4,-0.5l0.3,-0.3l0.3,-0.4l0.4,-1.3l0.3,-2.8l-0.4,-0.2l-0.3,0l-0.6,0.1l-0.4,0.1l-0.3,0l-0.7,0.9l-1.2,0.4l-0.4,0l-0.9,-0.3l-1.4,-1.1l-1.8,1.7l-0.5,0.9l-0.1,0.3l-0.2,0.7l-0.3,0.3l-0.3,0.3l-1.3,0.2l-0.9,-0.3l-0.7,1l-0.8,0.9l-0.9,0.6l-1,0.4l-1.3,1l-0.5,0.2l-0.6,0.1l-0.7,0.3l-0.5,-0.9l-1,-0.5l0.4,-1l0.2,-0.7l0.2,-0.5l0.3,-0.4l0.9,-0.5l0,-0.4l-0.1,-0.2l-0.5,-0.5l-0.2,-0.4l-0.3,-1.7l0,-0.4l-0.2,-0.2l-0.6,-0.2l-0.3,-0.2l-0.3,-0.4l0.1,-0.4l0.3,-0.2l0.3,-0.1l0.3,-0.2l0.2,-0.3l0.1,-0.4l0,-0.4l-0.2,-0.3l-0.3,-0.2l-0.3,-1.1l0.3,-0.3l1.1,-0.2l0.4,-0.1l1,-0.7l1,-0.4l1.2,-0.8l1.5,-0.6l2.4,-0.4l-0.1,-1l0.8,-2.6l0.5,-0.6l0.2,-1.2l-0.6,-0.9l-0.8,-0.5l-0.4,-0.7l0.4,-0.5l0.1,-0.3l0,-0.3l-0.1,-0.3l-0.2,-0.3l-0.9,-0.8l-0.3,-0.3l-0.1,-0.4l0.2,-0.3l0.4,-0.6l0.4,-0.7l0.4,-1.3l0.1,-0.2l0.3,-0.3l0.4,-0.2l0.9,0l0.4,0.2l0.5,0.4l1.3,1.3l0.2,0.2l0.2,0.3l0.6,0.1l0.4,-0.6l0.8,-1.9l0,-0.5l-0.1,-0.5l-0.1,-0.3l-0.2,-0.9l0.5,-0.3l1.3,0.4l1.2,-1.1l0.3,-0.8l0,-0.6l0,-0.3l-0.2,-0.3l-0.3,-0.1l-0.4,-0.3l-0.3,-0.2l-0.2,-0.6l-0.1,-0.3l0.1,-0.2l0.9,0.1l0.5,-0.3l-0.2,-1.3l0.1,-0.9l0.3,-1.4l1,-3.2l2.8,-0.2l1.2,0.3l0.7,0l0.3,-0.5l1.4,-1l0.4,-0.1l-0.3,1l-0.2,0.3l0.1,0.2l0.3,0.2l0.2,0.1l0.3,0.1l0.3,0.1l0,0.4l-0.2,0.4l0,0.4l0.2,0.7l0.2,0.6l0.4,0.5l3.2,1.7l1.6,0l0.6,0.2l-0.2,0.9l-0.4,0.6l0.1,0.6l0.4,0.6l1.1,1.2l0.5,0.9l0.8,1.9l0.3,1l0.3,0.4l0.5,0.2l0.4,0.2l0.2,0.7l-0.1,0.6l-0.6,0.2l-0.1,1.2l0.1,0.3l0.1,0.5l0,0.3l-0.1,0.2l-0.1,0.5l0,0.9l0.1,0.7l0.4,1.6l0.3,1.6l0.1,0.8l0,0.6l-0.3,0.8l-0.8,1.6l-0.2,0.7l0.1,0.8l0.3,0.5l0.4,0.5l0.4,0.6l0.2,0.8l-0.1,0.6l-0.9,1.2l-0.7,1.7l0.3,1.5l0.8,1.4l1.2,1.2l-0.6,1.1l-0.3,0.3l-1.6,1.2l-0.2,0.3l-0.2,0.3l0,0.4l0,0.4l-0.1,0.3l-0.7,0.5l-0.7,0l-0.7,-0.1l-0.2,0.1z" id="PT09"/>
   <path d="m525.4,183.9l-0.6,-0.2l-1.6,0l-3.2,-1.7l-0.4,-0.5l-0.2,-0.6l-0.2,-0.7l0,-0.4l0.2,-0.4l0,-0.4l-0.3,-0.1l-0.3,-0.1l-0.2,-0.1l-0.3,-0.2l-0.1,-0.2l0.2,-0.3l0.3,-1l-0.4,0.1l-1.4,1l-0.3,0.5l-0.7,0l-1.2,-0.3l-2.8,0.2l-1,0.1l-1.2,-0.4l-0.4,-0.4l-1.1,-1.6l-0.6,-0.4l-0.5,0l0.2,-0.6l0.1,-0.3l0.1,-0.2l0.4,-0.2l0.5,-0.1l0.1,-0.1l0,-0.2l-0.1,-0.3l0.1,-0.4l0.1,-0.7l0.3,-0.4l0.4,-0.4l0.1,-0.2l-0.1,-0.3l0.1,-0.5l0.6,-0.7l1.3,-0.4l-0.9,-0.5l-0.3,-0.4l-0.3,-0.6l-0.2,-1l0,-2.4l1.2,-0.9l0.3,-0.1l0.4,-0.2l0.3,-0.4l0.2,-0.8l0.5,-0.8l0.3,-0.4l0.4,-0.2l0.3,0l0.3,-0.1l0.3,-0.1l0.1,-0.3l-0.1,-0.3l-0.1,-0.3l-0.2,-0.3l-0.2,-0.3l-0.1,-0.4l0,-0.7l0.1,-1.3l1.2,-4l0.9,-1.9l0.3,-0.3l0.2,-0.1l0.2,-0.3l0.1,-0.3l0,-0.7l0,-0.4l-0.7,-0.9l-0.3,-0.9l-0.1,-0.4l-0.1,-0.9l0.1,-1l0.1,-0.5l-0.3,-0.9l0,-0.3l0.4,-0.6l0.1,-0.8l-0.3,-1.5l0.1,-0.7l0.3,-0.3l0.5,-0.4l0.7,-0.4l0.5,-0.1l1.2,0.7l1.1,1l1.1,0.5l1.3,-0.5l0.8,-0.7l0.4,0.2l0.5,0.3l0.9,0.7l1,0.2l2.2,-0.2l0.9,-0.6l0.2,-1.4l1.1,0.2l1.3,2l1.1,0.4l2.6,-0.1l1.2,-0.4l0.5,-1.1l0.9,0.4l0.5,0.6l0.1,0.8l-0.3,2.1l0.3,0.4l0.7,0l0.9,0.4l-0.4,0.9l-0.9,4l-0.1,0.4l-0.3,0.4l-0.2,0.5l0.1,0.4l0.2,0.4l0.2,0.5l0.1,0.9l0.2,0.9l0.5,0.8l1,0.4l0.4,-0.1l0.5,-0.3l0.5,-0.3l0.3,-0.3l0.2,-0.3l0.5,0.1l2.9,0.6l1.8,0.6l1.6,1.1l1.6,1.6l0.5,0.7l0.3,0.5l-1.7,2.5l-0.9,1l-0.3,0.5l0.1,0.4l0.1,0.3l0,0.4l-1.4,2.2l0,0.4l-1.2,0.1l-0.5,0.2l-0.4,0.4l0.1,0l0,0.3l0,0.4l-0.1,0.2l-0.2,0.1l-0.4,-0.1l-0.2,0l-1.1,1.9l-1.2,1.2l-0.7,0.5l-0.5,0.4l-2.1,0.9l-0.3,0.3l-2.4,0l-0.6,0.1l-0.4,0.5l-1.3,1.9l-0.3,0.8l-0.2,0.4l-1.3,1.1l-0.5,0.6l-0.1,0.3l0.1,1.2l-0.3,0.9l-1.4,2.1l-0.5,0.5l-1,0.1l-2.3,-0.2l-0.7,0.4z" id="PT04"/>
   <path d="m515.2,143.2l0,0.3l0.3,0.9l-0.1,0.5l-0.1,1l0.1,0.9l0.1,0.4l0.3,0.9l0.7,0.9l0,0.4l0,0.7l-0.1,0.3l-0.2,0.3l-0.2,0.1l-0.3,0.3l-0.9,1.9l-1.2,4l-0.1,1.3l0,0.7l0.1,0.4l0.2,0.3l0.2,0.3l0.1,0.3l0.1,0.3l-0.1,0.3l-0.3,0.1l-0.3,0.1l-0.3,0l-0.4,0.2l-0.3,0.4l-0.5,0.8l-0.2,0.8l-0.3,0.4l-0.4,0.2l-0.3,0.1l-1.2,0.9l0,2.4l0.2,1l0.3,0.6l0.3,0.4l0.9,0.5l-1.3,0.4l-0.6,0.7l-0.1,0.5l0.1,0.3l-0.1,0.2l-0.4,0.4l-0.3,0.4l-0.1,0.7l-0.1,0.4l0.1,0.3l0,0.2l-0.1,0.1l-0.5,0.1l-0.4,0.2l-0.1,0.2l-0.1,0.3l-0.2,0.6l-4.3,1.6l-1.7,0.2l-1.5,-0.1l-0.1,0l-0.6,0l-0.5,0.3l-1.1,0.7l-0.6,0.3l-0.7,0.1l-0.7,-0.1l-0.6,-0.1l-0.4,-0.4l-0.9,-0.8l-0.5,-0.3l-0.7,0.1l-1.9,1.3l0.2,-1.2l0,-1.1l0.5,-2l-0.1,-0.1l-0.5,-0.3l-0.6,-1.1l-0.2,-0.7l0.2,-0.7l-1,-0.7l-0.5,-0.3l-0.3,-0.4l0,-0.4l0,-0.5l-0.6,-0.7l0.3,-0.9l0,-0.2l-0.1,-0.4l0.1,-0.1l0.1,-0.1l0.2,-0.1l0.1,-0.4l0.5,-0.8l0.1,-0.4l0.1,-0.2l-0.2,-0.4l0.3,-1.1l0.4,-0.5l0.2,-0.1l0.1,0l0.3,0l0.4,-0.3l0.2,-0.6l0.1,-0.1l0.7,-0.4l0.4,-0.4l1.5,-2.2l0.1,-0.6l-0.6,-1.1l-0.2,-0.2l-0.4,-0.2l-0.7,0.8l-1.1,0.4l-0.5,-0.1l-1.4,-0.3l-0.3,-0.1l-0.4,-0.2l-0.4,-0.1l-0.7,-0.3l0.1,-2.2l0.1,-0.4l0.1,-0.6l-0.1,-0.3l-0.1,-0.2l-1,-0.6l-0.2,-0.1l-0.3,0l-0.6,0.3l-0.3,0l-0.3,0l-0.3,0l-0.3,0l-0.2,0.1l-0.5,0.1l-0.5,0l0.9,-1l0.1,-0.3l0.2,-0.4l0.4,-1.1l0.3,-0.6l0.3,-1.4l0.1,-0.3l0.2,-0.3l0.1,-0.3l0,-0.2l-0.1,-0.1l0.1,-0.1l1.1,-1.2l0.4,-0.6l0.4,-0.5l0.6,-0.2l0.5,0.1l0.7,0l0.4,-0.6l0.1,-0.9l0.2,-0.5l0.7,-0.3l0.1,1.3l0.3,1.4l1.1,0l0.3,-0.3l0.1,-0.3l0.2,-0.2l0.3,-0.2l1,0.1l2.3,-0.6l1,-0.5l0.6,0.2l1,0.7l0.6,0.3l1.9,0.1l-0.5,1.5l0,0.5l0.6,0.3l0.6,0.1l0.8,-0.2l0.7,-0.2l0.6,-0.4l0.2,-0.4l0,-0.3l0.1,-0.3l0.3,-0.2l0.2,0l0.6,0.4l0.3,0l0.5,0.2l0.5,0.6l0.4,0.9l0.1,0.8l0.5,-0.5l0.9,-1l0.5,-0.3l0.5,-0.1l1.3,0l0.7,-0.1l2.5,-0.9l1.2,-0.7l0.4,-0.5z" id="PT17"/>
   <path d="m456.8,156.4l0.2,0l0.7,0.1l0.3,0l2.7,-1l1.8,-0.1l0.4,0l0.2,-0.3l0.2,-0.2l0.1,-0.1l0.3,0.2l1.1,0.4l0.7,0.1l0.4,0.2l0.4,0.1l0.2,0.1l0.6,-1.2l-0.1,-0.5l0.1,-0.3l0.1,-0.3l0.4,-0.4l0.1,-0.3l0,-0.3l0.1,-0.8l0.1,-0.4l0.1,-0.3l0.3,-0.3l0.2,-0.2l0.3,0l0.3,0l0.2,0.1l0.7,-0.3l0.6,-0.5l0.3,-0.2l0.5,-0.2l0.5,-0.2l3.2,-0.1l0.9,-0.3l3.4,-1.9l0.5,0l0.1,-0.1l0,0.1l3.1,0.2l1.6,-0.4l0.1,0.1l0,0.2l-0.1,0.3l-0.2,0.3l-0.1,0.3l-0.3,1.4l-0.3,0.6l-0.4,1.1l-0.2,0.4l-0.1,0.3l-0.9,1l0.5,0l0.5,-0.1l0.2,-0.1l0.3,0l0.3,0l0.3,0l0.3,0l0.6,-0.3l0.3,0l0.2,0.1l1,0.6l0.1,0.2l0.1,0.3l-0.1,0.6l-0.1,0.4l-0.1,2.2l0.7,0.3l0.4,0.1l0.4,0.2l0.3,0.1l1.4,0.3l0.5,0.1l1.1,-0.4l0.7,-0.8l0.4,0.2l0.2,0.2l0.6,1.1l-0.1,0.6l-1.5,2.2l-0.4,0.4l-0.7,0.4l-0.1,0.1l-0.2,0.6l-0.4,0.3l-0.3,0l-0.1,0l-0.2,0.1l-0.4,0.5l-0.3,1.1l0.2,0.4l-0.1,0.2l-0.1,0.4l-0.5,0.8l-0.1,0.4l-0.2,0.1l-0.1,0.1l-0.1,0.1l0.1,0.4l0,0.2l-0.3,0.9l-0.1,0.5l-0.1,0.2l-0.1,0.2l-0.2,0.2l-0.2,0.1l-0.2,0.2l-0.2,0.2l-0.2,0.2l-0.3,0.2l-0.2,0.1l-0.4,0.1l-0.4,-0.4l-0.8,-0.4l-0.4,0.1l-1.1,-0.5l-1.3,-1l0,-0.5l-0.1,-0.2l-0.7,-0.8l-1.8,-0.7l-0.6,0.9l-0.7,0.5l-1.1,0.5l-0.3,0.1l-0.8,0.3l-0.3,0l-0.5,-0.3l-0.3,-0.1l-1.4,0.2l-1.2,0.3l-0.9,-0.2l-0.2,-0.2l-0.3,-0.1l-0.4,0l-0.7,0.2l-0.6,0.4l-0.3,0.2l-0.3,0.2l-0.3,0.1l-0.3,0.1l-2,0l-0.4,0.1l-0.1,0l-0.3,-0.2l-0.2,-0.3l-0.1,-0.7l-0.1,-0.3l0.3,-0.4l0.4,-0.1l0.2,-0.1l0.1,-0.3l-0.1,-0.3l-0.4,-0.3l-0.4,-0.1l-0.5,-0.3l-0.6,-0.7l-0.3,-0.2l-0.3,-0.3l-0.3,-0.1l-0.9,-0.1l-1,-0.4l-0.8,-0.5l-0.9,0l0,-0.1l-0.4,-1.1l-0.1,-1l-0.1,-0.7l-0.1,-0.8l-0.5,-1.4l-0.2,-1.1l-0.2,-0.8l0,-0.3z" id="PT03"/>
   <path d="m504.1,348.8l0.3,0.5l0.3,0.3l0.6,0.5l0.2,0.3l0.3,0.8l0.2,1.1l0.1,1l-0.1,0.5l0.6,1.5l0.3,3.6l0.4,1.5l-0.3,0.7l0.2,1l0.5,2l0.1,0.2l0.1,0.2l0.1,0.2l0.3,0.1l0,0.2l-0.3,0.4l-0.6,-0.5l-0.8,-0.2l-0.8,0l-0.8,0.1l-0.8,0.3l-1.5,1l-0.6,0.2l-2.1,1.4l-0.3,0.4l-5.5,3.7l-1.1,1.1l-0.6,0l-0.5,-0.2l-0.8,-0.2l-2.2,0l-0.7,-0.3l-0.3,0.5l-0.4,0l-0.4,-0.3l-0.4,-0.2l0.4,0.6l0.1,0.3l0.1,0.4l-0.9,-1.2l-1.3,-1.1l-2.6,-1.5l-1.4,-0.3l-1.2,-0.5l-1.2,0l-2.9,0.4l-1.3,-0.4l-1.3,-0.5l-1.1,0.5l-1.6,0.2l-1.6,-0.6l0,0.1l-2,-1.1l-1.5,-0.3l-1.7,0.2l-0.5,0.1l-0.5,0.4l-1.2,1.2l-2.2,0l-0.4,0.1l-1,0.6l-0.4,0.2l-0.6,0.1l-0.8,0.2l-0.8,0.7l-0.7,-0.3l-0.7,0.7l-0.3,0.2l-0.4,0.2l-0.7,0.6l-0.4,0.1l-0.5,-0.2l-0.4,-0.4l-0.4,-0.2l-0.6,0.2l0.3,-1.3l0.2,-0.6l0.2,-0.3l1.4,-2.2l0.5,-1.3l0.5,-1.1l-0.3,-1.3l0.6,-0.6l0.9,-0.9l0.5,-2l-0.3,-0.8l-0.3,-0.7l0.6,-1.2l1,-1.1l0.2,-1.1l0.6,-1.6l0.3,-1.4l0.5,0.3l0.7,0.5l0.5,0.1l0.6,0.5l0.3,0.4l0.4,0.3l0.2,0.1l1.5,0.1l1,0.5l0.2,0.1l0.3,0.1l0.2,-0.2l0.2,-0.2l0.2,-0.2l0.3,-0.2l1.4,-0.2l0.4,0.1l1.4,0.8l0.6,0.2l1.5,0.3l0.7,-0.3l0.6,-0.3l0.2,-0.4l0,-0.3l0.3,-0.3l0.1,-0.2l1.4,-0.5l0.8,-0.1l0.4,-0.1l0.4,0.1l0.3,-0.2l0.6,-0.1l0.9,0.3l0.3,0.5l0.1,0.7l0.1,0.2l0.4,0.5l0.6,0.3l2.5,1.9l1.2,0.4l0.7,0l1.4,0.1l0.4,0l0.5,-0.2l0.8,-0.7l1.3,-0.7l0.2,-0.1l0,-0.2l-0.2,-0.4l-0.1,-0.2l0,-0.3l0.2,-0.3l0.5,-0.3l1.1,-0.2l0.5,0l1,-0.2l0.5,-0.2l0.2,-0.3l0.1,-0.3l0.6,-0.4l0.5,-0.1l0.1,-0.3l0.2,-0.1l0.3,-0.1l0.7,-0.4l0.2,0l0.2,-0.1l0.2,-0.2l0.7,-0.4l2.8,-1.2l1.9,0l0.2,0.1l0.6,0.1l0.2,0.1l0.3,-0.1l0.4,-0.2l0.7,-0.7l0.8,-0.4l1,0l0.9,-0.2zm-16,25l1.9,0.2l0.7,-0.3l0.9,-0.9l0.1,0.2l0,0.1l0.1,0.4l-0.2,0.1l0,0.2l-0.7,0.4l-0.9,0.2l-1,0l-0.9,-0.3l0,-0.3z" id="PT08"/>
   <path d="m480.6,312.5l0.2,-0.4l2.7,0.1l0.8,-0.1l0.5,0.1l0.2,0l0.4,0.5l0.4,0.3l0.3,0.1l0.3,0l0.8,-0.4l0.4,0l0.3,0.1l1.1,0.4l0.8,1l3.1,1.4l1.8,0.2l1,0.4l2.3,1.3l0.5,0.1l2.4,0.1l0.7,0.1l0.8,0.3l1.6,0l0.4,-0.1l0.1,-0.3l0.5,-0.7l0.6,-0.7l1,-0.5l0.1,-0.2l0.5,-0.3l0.2,-0.2l0.3,-0.3l0.3,-0.4l0.2,-0.4l0,-0.3l0,-0.3l1.2,-0.4l1.2,-0.6l0.3,-0.1l0.2,0l0.9,-0.4l0.3,0l0.3,0l0.1,0.2l0,0.1l0.1,0.3l0,0.1l0.2,0.2l0.2,0.3l0.1,0.3l0.1,0.4l0.1,0.3l0.1,0.3l0.8,0.8l0.9,0.4l0.2,0.2l0.1,0.3l0.1,0.4l0.4,0.9l0.1,0.3l0.3,0.7l0.3,0.3l0.4,0.3l0.6,0.1l0.3,-0.1l0.3,-0.2l0.1,-0.1l0.5,0.5l0.6,0l0.9,-0.2l0.9,-0.4l0.4,-0.6l0.2,0l0.1,0.1l0.9,-0.3l1.1,-0.1l0.5,0.3l0.1,0.1l-0.4,1.3l-0.3,0.7l-0.5,1.6l-0.7,1.3l-0.3,1.4l-0.3,0.6l-0.3,1.1l-0.9,0.1l-2.1,-0.8l-0.6,-0.1l-0.3,0.4l-0.4,0.9l-0.4,0.5l-0.2,0.2l-0.5,0.2l-0.5,0.2l-0.4,-0.1l-0.5,-0.1l-0.4,0l-0.4,0.2l-1.2,0.3l-0.2,0.2l0,0.4l0.1,0.4l0,0.5l-0.2,0.8l-0.8,2.2l-0.4,1.5l-1,1.8l-3.3,2.8l-0.6,1l-0.5,1.3l-0.3,2.2l-0.2,0.7l-0.3,0.4l-0.9,1l-0.4,0.3l0.1,0.2l0,0.3l-0.1,0.2l0,0.2l-0.4,0.4l-0.1,0.2l0,0.5l0,0.1l0.2,0l0.2,0.6l0,0.3l0.1,0.3l-0.9,0.2l-1,0l-0.8,0.4l-0.7,0.7l-0.4,0.2l-0.3,0.1l-0.2,-0.1l-0.6,-0.1l-0.2,-0.1l-1.9,0l-2.8,1.2l-0.7,0.4l-0.2,0.2l-0.2,0.1l-0.2,0l-0.7,0.4l-0.3,0.1l-0.2,0.1l-0.1,0.3l-0.5,0.1l-0.6,0.4l-0.1,0.3l-0.2,0.3l-0.5,0.2l-1,0.2l-0.5,0l-1.1,0.2l-0.5,0.3l-0.2,0.3l0,0.3l0.1,0.2l0.2,0.4l0,0.2l-0.2,0.1l-1.3,0.7l-0.8,0.7l-0.5,0.2l-0.4,0l-1.4,-0.1l-0.7,0l-1.2,-0.4l-2.5,-1.9l-0.6,-0.3l-0.4,-0.5l-0.1,-0.2l-0.1,-0.7l-0.3,-0.5l-0.9,-0.3l-0.6,0.1l-0.3,0.2l-0.4,-0.1l-0.4,0.1l-0.8,0.1l-1.4,0.5l-0.1,0.2l-0.3,0.3l0,0.3l-0.2,0.4l-0.6,0.3l-0.7,0.3l-1.5,-0.3l-0.6,-0.2l-1.4,-0.8l-0.4,-0.1l-1.4,0.2l-0.3,0.2l-0.2,0.2l-0.2,0.2l-0.2,0.2l-0.3,-0.1l-0.2,-0.1l-1,-0.5l-1.5,-0.1l-0.2,-0.1l-0.4,-0.3l-0.3,-0.4l-0.6,-0.5l-0.5,-0.1l-0.7,-0.5l-0.5,-0.3l0.2,-0.6l0.2,-1.2l0.1,-2.1l-0.2,-1.1l-0.4,-0.7l-0.5,-0.6l0,-0.6l0.4,-2l0.2,-1.3l0.3,-1.1l0.5,-0.3l1,-0.2l0.2,-1.1l0,-0.1l-0.3,0.3l-0.8,0.2l-0.9,0l-0.3,-0.8l0.3,-2.3l0.3,-1.7l0.3,0.4l0.2,0.3l0.2,0.1l0.3,0l0.2,-0.1l0.3,-0.2l0.3,-0.1l0.6,0.2l0.3,0.4l0.1,0.2l0.9,1.2l0.4,0.6l0.1,0.2l0.2,0l0.2,-0.2l0.1,-0.3l0.2,-0.1l0.3,0.1l0.3,0.1l0.3,0.3l0.6,0.2l0.4,0.1l0.6,-0.3l0.2,-0.3l0.1,-0.3l0,-0.4l0.4,-1l0.1,-0.3l0.7,-0.7l0.1,-0.3l0.1,-0.4l0.4,-0.3l0.6,-0.3l3.2,-0.6l1.6,0.3l1,0l0.1,0l1.1,0.6l0.5,-1.3l0.2,-0.3l0.4,-1.2l0.2,-2.1l0,-1.3l-0.4,-1l-0.2,-0.4l-0.5,-0.4l-0.5,0l-0.4,-0.1l-0.4,-0.3l-0.6,-0.6l-0.7,-0.6l-0.1,-0.4l-0.1,-0.3l0,-0.2l0.1,-0.3l0,-0.3l0.1,-0.3l0.1,-0.3l0.2,-0.4l0.3,0l0.2,0.1l0.2,0l0.2,0l0.1,-0.2l0.1,-0.1l0.1,-0.5l0.1,-0.2l0,-0.2l0,-0.2l0.1,-0.2l0.3,-0.1l0.2,-0.2l0.2,-0.1l0.4,0.2l0.3,0.2l0.2,0.1l0.3,-0.2l0.2,-0.8l0.1,-0.4l0.1,-0.2l0.3,-0.2l1.3,0l0.2,-0.4l0.1,-0.5l0.3,-0.1l1.3,-0.3l0.6,-0.3l1.3,-0.4l0.2,-0.5l0,-0.3l0,-0.5l-0.3,-1.1l-0.9,-2z" id="PT02"/>
   <path d="m466.7,291.7l1.5,0.3l0.2,0.1l0.1,0.5l-0.4,0.7l0.1,0.3l-0.1,0.6l-0.3,0.5l-0.6,0.7l-3,2.1l-1.3,1.7l0,0.3l0,0.5l0.2,0.3l0.1,0.3l0.2,1.2l1.1,0.1l1.4,0.9l1,0.1l0.9,0.3l0.2,-0.1l0.1,-0.3l-0.1,-0.3l-0.1,-0.2l0.2,-0.2l0.3,0.1l0.3,0.1l0.1,0.3l0.2,0.2l0.3,0.2l0.5,0.2l1,0l0.5,-0.2l0.9,-0.6l0.6,-0.1l0.4,0.1l0.7,0.9l0.4,0.5l0.2,0.3l0.1,0.2l0,0.3l0.5,1.2l0,0.3l-0.2,0.2l0,0.2l0.2,0.3l0.5,0.2l0.3,0.2l0.2,0.4l-0.2,0.8l-0.6,1l0,0.4l0.3,0.1l0.7,0.3l0.5,0.4l0.8,0.5l0.3,0.1l0.4,0l0.3,0l0.7,0.3l1.3,1l0.9,2l0.3,1.1l0,0.5l0,0.3l-0.2,0.5l-1.3,0.4l-0.6,0.3l-1.3,0.3l-0.3,0.1l-0.1,0.5l-0.2,0.4l-1.3,0l-0.3,0.2l-0.1,0.2l-0.1,0.4l-0.2,0.8l-0.3,0.2l-0.2,-0.1l-0.3,-0.2l-0.4,-0.2l-0.2,0.1l-0.2,0.2l-0.3,0.1l-0.1,0.2l0,0.2l0,0.2l-0.1,0.2l-0.1,0.5l-0.1,0.1l-0.1,0.2l-0.2,0l-0.2,0l-0.2,-0.1l-0.3,0l-0.2,0.4l-0.1,0.3l-0.1,0.3l0,0.3l-0.1,0.3l0,0.2l0.1,0.3l0.1,0.4l0.7,0.6l0.6,0.6l0.4,0.3l0.4,0.1l0.5,0l0.5,0.4l0.2,0.4l0.4,1l0,1.3l-0.2,2.1l-0.4,1.2l-0.2,0.3l-0.5,1.3l-1.1,-0.6l-0.1,0l-1,0l-1.6,-0.3l-3.2,0.6l-0.6,0.3l-0.4,0.3l-0.1,0.4l-0.1,0.3l-0.7,0.7l-0.1,0.3l-0.4,1l0,0.4l-0.1,0.3l-0.2,0.3l-0.6,0.3l-0.4,-0.1l-0.6,-0.2l-0.3,-0.3l-0.3,-0.1l-0.3,-0.1l-0.2,0.1l-0.1,0.3l-0.2,0.2l-0.2,0l-0.1,-0.2l-0.4,-0.6l-0.9,-1.2l-0.1,-0.2l-0.3,-0.4l-0.6,-0.2l-0.3,0.1l-0.3,0.2l-0.2,0.1l-0.3,0l-0.2,-0.1l-0.2,-0.3l-0.3,-0.4l0.1,-0.8l0,-1.5l-0.3,-1.1l-0.5,-1.2l-1.2,-0.2l-1.5,-0.9l0.1,-0.4l0.3,-0.2l0.3,-0.1l0.3,-0.3l1.8,-4.1l0.7,-3.3l0.8,-2.4l-0.1,-2.5l-0.3,-2.9l-0.3,-2.6l-0.9,-1.8l-1,-1l-1.1,-1.4l-1.3,-1l-1.1,-0.4l0.6,-0.6l0.8,0.3l1.4,1.2l1.6,0.6l0.8,0.4l0.1,0.6l1.5,0l3.6,0.9l1.8,-0.5l-1.1,-0.1l-0.9,-0.2l-2.7,-1.3l-0.3,-0.4l-0.2,-0.6l-0.1,-0.6l0.1,-0.6l0.2,-0.5l0.3,-0.2l0,-0.3l-0.5,-0.2l-0.4,-0.6l-0.1,-0.6l0.2,-0.5l-0.5,-0.1l-0.7,1.4l-0.8,0.3l0,0.3l0.9,0.1l0.3,0.6l0,0.8l-0.3,0.4l-0.8,-0.1l-0.8,-0.2l-1.2,-0.7l-1.4,-0.5l-1.8,0.4l-1.6,1.9l0.3,0.2l-2.1,0.8l-3.5,0.5l-0.8,0.3l-0.5,0.4l-0.7,0.1l-0.9,-0.2l-0.2,0l-0.1,-0.3l0,-0.3l0.1,-0.3l0.1,-0.1l0.3,-0.4l1.1,-1.1l0.2,-1.5l0,-2.2l-0.9,-2.1l-1.1,-1.8l-0.5,-1.4l0.7,-0.3l1.7,-0.3l1.5,-0.1l0.8,0.5l0.3,0.5l0.3,0l-0.3,-0.9l0.6,-0.3l1.1,-0.3l0.6,-0.1l0,-0.3l0.5,-0.6l0.6,-0.6l1,-0.8l1.3,-1.1l0.2,-0.1l0.2,-0.2l0.1,-0.1l0.4,-0.1l0.4,0l-0.1,0.6l0.2,0.7l0.3,0.3l0.3,0.1l0.5,0l0.7,-0.3l0.4,-0.2l0.6,-0.2l0.4,0.1l0.3,0.1l0.3,0.5l1,0.3l0.3,0l0.6,-0.2l0.5,-0.7l0.1,-0.3l0.5,-1.3l1,-2.1l0.3,-0.1l0.2,0.1l0.2,0.2l0.5,0.3l1,0.4l0.7,-0.5l0.6,-0.2l0.2,0.1l0,0.2l-0.1,0.3l0,0.4l0,0.3l-0.1,0.4l0.1,0.4l0.4,0.6l0.4,0.1l0.4,-0.1l0.9,0.2z" id="PT15"/>
   <path d="m453.1,291.2l-0.4,0l-0.4,0.1l0,-0.3l-0.3,-0.6l-0.4,-0.9l-0.3,-1l0.3,-0.7l-0.8,0.1l-0.4,-0.8l-0.2,-1.1l-0.4,-1.1l1.6,-3.3l0.9,-1.5l1.3,-0.9l0.7,-0.2l1.6,-0.1l0.7,-0.3l1.3,-1l0,0.2l-0.1,0.2l-0.2,0.1l-0.7,0.9l-1.4,0.4l0.2,0.4l0.3,0.3l-0.7,1.1l-0.1,0.4l-0.4,0.5l-0.4,0.8l-1.2,3.4l-0.5,1l-0.3,0.4l-0.5,0.6l0,0.5l0.6,0.8l0.1,0.2l0.2,0.3l0.3,1.1zm4.7,-14.2l-1.6,1.2l-3.1,0.4l-0.5,0.4l-0.7,1.3l-1.8,2.5l-2,4l-1.1,1.3l-0.4,0.7l-0.2,0.7l0.1,0.9l0.1,1.6l0.1,1.1l-0.5,1.1l-1.9,0.5l-2,0.4l-2.4,-0.2l-0.6,0.5l-0.7,0.8l-1.4,-0.9l-1.6,-0.7l-0.9,-0.1l-1.5,0.2l-0.8,-0.2l0.1,-1l0.2,-0.8l-0.5,-2l0,-1l0.2,-0.4l0.5,-0.6l0.9,-0.9l1.1,-3.7l-0.1,-2.9l-0.4,-1.7l0.4,-1.1l0.1,-1.2l1.5,-2.6l0.4,-1.3l0.7,-1.7l0.2,-1.7l0.2,-1.5l-0.2,-1.2l0.3,0l1.4,0l1.5,-1l0.3,-0.2l0.5,0.1l0.2,0l0.2,0.1l0.3,0.4l0.3,0.5l0.8,2.9l0.6,0.5l0.8,-0.6l0.7,-0.9l0.9,-1.4l0.7,-1l0.4,-0.2l0.2,-0.1l0.5,-0.1l0.5,0.1l0.7,0.3l1,0.3l0.4,1.1l-0.1,0.7l2.5,0.7l1.5,-0.4l0.3,0.7l1.8,1.8l-0.5,0.4l-0.6,0.2l-1,-0.1l-0.5,0.2l-0.5,0.4l0,0.2l0.2,0.3l0.3,0.1l0.2,0.2l0.3,0.6l0.1,0.3l1.1,1l0.2,0.2l0.8,0.3l0.2,0.2l0.2,0.1l0.1,0.3l0.3,0.6zm-9,10l0.2,-0.1l0,0.3l-0.2,0.7l-0.5,0.7l-0.7,0.7l-0.2,-0.1l0.3,-0.8l0.3,-0.7l0.4,-0.4l0.3,-0.2l0.1,-0.1z" id="PT11"/>
   <path d="m479.4,280.8l-0.3,0.6l-0.3,0.2l-0.5,0l-0.1,0l-0.2,0.3l-0.1,0.5l0,0.7l-0.1,0.5l-0.2,0.4l-0.2,0.3l-0.2,0.3l-0.1,0.3l0.1,0.3l0.2,0.3l0.3,0.2l1.9,0.8l0.4,0.1l0.2,0.1l0.2,0.4l-0.2,0.8l-0.1,0.3l0.3,0.4l0.6,0.7l0.2,0l0.4,0.1l0.2,0.3l0,0.4l-0.2,0.7l-0.6,0.6l-0.6,-0.4l-0.1,-0.2l-0.2,-0.6l-0.2,-0.1l-0.2,0.1l-0.2,-0.1l-0.1,-0.2l-0.1,-0.2l-0.1,-0.3l-0.2,-0.3l-0.4,-0.1l-1.2,-0.2l-0.3,-0.3l-0.9,-1l-0.3,-0.2l-0.2,0l-0.2,0.2l-0.1,0.2l-0.2,0.2l-0.2,-0.1l-0.3,0l-0.4,0.2l-0.5,-0.1l-0.6,-0.2l-0.3,0l-0.1,0.2l0,0.3l-0.2,0.3l-0.2,0.1l-0.2,0.1l-0.2,0.1l-0.5,0l-0.3,0.1l-0.8,0.7l-0.4,0.3l-1.6,0.3l-1.7,1.5l-0.9,-0.2l-0.4,0.1l-0.4,-0.1l-0.4,-0.6l-0.1,-0.4l0.1,-0.4l0,-0.3l0,-0.4l0.1,-0.3l0,-0.2l-0.2,-0.1l-0.6,0.2l-0.7,0.5l-1,-0.4l-0.5,-0.3l-0.2,-0.2l-0.2,-0.1l-0.3,0.1l-1,2.1l-0.5,1.3l-0.1,0.3l-0.5,0.7l-0.6,0.2l-0.3,0l-1,-0.3l-0.3,-0.5l-0.3,-0.1l-0.4,-0.1l-0.6,0.2l-0.4,0.2l-0.7,0.3l-0.5,0l-0.3,-0.1l-0.3,-0.3l-0.2,-0.7l0.1,-0.6l-0.3,-1.1l-0.2,-0.3l-0.1,-0.2l-0.6,-0.8l0,-0.5l0.5,-0.6l0.3,-0.4l0.5,-1l1.2,-3.4l0.4,-0.8l0.4,-0.5l0.1,-0.4l0.7,-1.1l-0.3,-0.3l-0.2,-0.4l1.4,-0.4l0.7,-0.9l0.2,-0.1l0.1,-0.2l0,-0.2l0.5,-0.6l0.4,-0.7l-1,0.7l-0.3,-0.6l-0.1,-0.3l-0.2,-0.1l-0.2,-0.2l-0.8,-0.3l-0.2,-0.2l-1.1,-1l-0.1,-0.3l-0.3,-0.6l-0.2,-0.2l-0.3,-0.1l-0.2,-0.3l0,-0.2l0.5,-0.4l0.5,-0.2l1,0.1l0.6,-0.2l0.5,-0.4l-1.8,-1.8l-0.3,-0.7l-1.5,0.4l-2.5,-0.7l0.1,-0.7l-0.4,-1.1l-0.1,-1.5l-0.2,-0.9l0.1,-0.5l0.8,-1.4l0.7,-0.2l0.3,-0.2l0.3,-0.4l1.2,-2.5l0.5,-0.5l1.1,-0.4l2.3,-0.2l1.8,0.2l0.5,-0.4l0.1,-0.3l0,-0.2l0,-0.1l0,-0.1l-0.3,-0.5l0,-0.3l0,-0.4l0.2,-0.2l0.2,0l0.3,0.2l0.4,0l0.3,-0.1l0.9,-1.2l0.2,-0.4l-0.4,-1.3l0,-0.8l-0.4,-1.5l0.8,-0.6l0.4,-0.2l0.2,-0.3l0.3,-0.2l0.2,-0.5l-0.2,-0.7l-0.3,-0.4l-0.3,-0.2l-0.2,-0.3l-0.1,-0.3l0,-0.6l-0.1,-0.8l0,-0.4l0.2,-0.4l0.2,-0.3l1.6,-0.8l0.7,0.2l0.4,-0.1l0.7,-0.3l1.8,-1.3l0.5,-0.2l0.3,0l0.5,-0.4l0.5,-0.1l0.5,1.9l0.1,0.6l0.3,1.1l0,0.4l0.1,0.2l0.1,0.2l0.6,-0.2l1.5,-0.5l0.5,-0.1l0.8,-0.4l0.7,0.1l0.2,-0.1l-0.2,-0.9l0,-0.4l0,-0.2l0.3,0.1l1.5,0.2l0.2,0.7l0.4,0.2l0.5,0.2l0.4,0.2l0.2,0.2l0.1,0.3l0.1,0.2l0,0.3l-0.1,0.2l0.1,0.8l-0.2,0.5l0,0.9l0.1,1.7l0.3,0.6l2,0.8l1,0.6l0.7,0l1.3,-0.1l0.8,-0.3l0,-0.2l-0.1,-0.3l-0.2,-0.8l-0.1,-0.5l0.2,-0.6l0.3,-0.5l0.4,-2.4l0.2,-0.3l0.7,-0.2l1.2,0.4l0.9,0.1l0.2,0.2l0.1,0.3l0.1,0.3l0,0.4l0,0.3l0.1,0.7l-0.1,0.7l0.1,0.4l0.3,0.2l0.4,0.1l0.4,0l0.7,0.3l0.6,0.4l0.6,0.5l0.8,0.8l0.7,1.2l0.2,0.4l0.3,0.8l0.3,0.5l-0.8,0.4l-0.2,0.2l-0.7,0.9l-0.2,0.1l-0.2,0.1l0,-0.1l-0.5,-0.5l-1.5,-0.8l-0.7,-0.2l-0.5,0.2l-0.6,0.6l-0.8,1.2l-0.8,2l1.5,1.5l0.5,0.4l0.2,0.4l0.1,0.2l-0.8,1.2l-1.7,1.2l-0.3,0.2l-0.1,0.7l-0.1,0.3l-0.6,0.8l-0.8,1l-0.2,0.3l-0.1,0.2l-0.3,0.2l-0.5,0.2l-0.7,-0.2l-0.4,0.1l-0.4,0.5l-0.4,1l-0.9,0.7l-2.1,2l-2,1.4l-0.5,0.5l-1.1,1.7l0,0.8l0.9,0.3l0.3,0.3l0.4,0.3l0.1,0.5l0.1,0.4l0.2,0.3l0.4,0.4l0.3,0.5l0.1,0.3l0.1,0.4l0.5,0.4l1.6,0.5z" id="PT14"/>
   <path d="m481.9,237.6l-0.7,1.4l-0.3,0.3l-0.4,0.3l-0.3,0l-0.3,0.2l-0.3,0.4l-0.3,0.4l-0.2,0.2l-0.4,-0.1l-1.6,0.5l-0.2,0.2l-0.2,0.3l0,0.2l0,0.3l-0.2,0.2l-0.3,0.4l0,0.2l0.2,0.6l-1.5,-0.2l-0.3,-0.1l0,0.2l0,0.4l0.2,0.9l-0.2,0.1l-0.7,-0.1l-0.8,0.4l-0.5,0.1l-1.5,0.5l-0.6,0.2l-0.1,-0.2l-0.1,-0.2l0,-0.4l-0.3,-1.1l-0.1,-0.6l-0.5,-1.9l-0.5,0.1l-0.5,0.4l-0.3,0l-0.5,0.2l-1.8,1.3l-0.7,0.3l-0.4,0.1l-0.7,-0.2l-1.6,0.8l-0.2,0.3l-0.2,0.4l0,0.4l0.1,0.8l0,0.6l0.1,0.3l0.2,0.3l0.3,0.2l0.3,0.4l0.2,0.7l-0.2,0.5l-0.3,0.2l-0.2,0.3l-0.4,0.2l-0.8,0.6l0.4,1.5l0,0.8l0.4,1.3l-0.2,0.4l-0.9,1.2l-0.3,0.1l-0.4,0l-0.3,-0.2l-0.2,0l-0.2,0.2l0,0.4l0,0.3l0.3,0.5l0,0.1l0,0.1l0,0.2l-0.1,0.3l-0.5,0.4l-1.8,-0.2l-2.3,0.2l-1.1,0.4l-0.5,0.5l-1.2,2.5l-0.3,0.4l-0.3,0.2l-0.7,0.2l-0.8,1.4l-0.1,0.5l0.2,0.9l0.1,1.5l-1,-0.3l-0.7,-0.3l-0.5,-0.1l-0.5,0.1l-0.2,0.1l-0.4,0.2l-0.7,1l-0.9,1.4l-0.7,0.9l-0.8,0.6l-0.6,-0.5l-0.8,-2.9l-0.3,-0.5l-0.3,-0.4l-0.2,-0.1l-0.2,0l-0.5,-0.1l-0.3,0.2l-1.5,1l-1.4,0l-0.3,0l-0.3,-1.1l-0.4,-1l-1.3,-1.3l-0.3,-0.5l0.4,-0.1l1.7,0.4l2.6,-1.7l0.7,-0.6l0.8,-0.1l0.4,0.5l0.4,0.2l0.4,-0.5l-0.3,-0.6l-0.6,-0.6l0.6,-0.9l0.8,-1l0.3,-0.5l0.7,-0.4l1,-0.7l0.6,-0.9l0.3,-0.7l0.8,-1.4l0.1,-0.8l-0.1,-0.9l0.4,-1.3l0.3,-1.7l2.8,-7.7l3.3,-9.7l0.2,0.1l0.9,0.5l0.4,0.2l0.5,0.2l1.2,0.3l0.3,-0.1l0.4,-0.3l0.9,-0.4l1.9,0.2l0.7,0l0.8,0.2l0.4,0.3l0.6,0.6l0.4,0.5l0.1,0.1l0.2,0l0.4,0l0.2,-0.1l0.1,-0.1l0.5,-0.9l0.3,-0.2l0.3,-0.1l0.2,-0.1l0.2,0l0.3,0.2l0.2,0.2l0.3,1.1l0,0.4l0,0.8l0.1,0.3l0.1,0.3l0.2,0.2l0.3,-0.3l0.6,-0.8l1,-0.6l1.2,-1l0.7,0.1l0.1,-0.3l0.3,0.1l0.3,0.2l0.4,1l0.4,0.9l0.1,0.6l0,0.4l-0.2,0.3l-0.3,0.2l-0.2,0.2l0.3,0.1l0.3,0l1.5,-0.6l1.2,-1.4l0.4,-0.1l0.6,0.3l0.3,-0.1l0.2,-0.2l0.1,-0.4l-0.2,-0.3l-0.4,-0.4l-0.1,-0.1l-0.1,-0.4l0,-0.3l0.5,-0.9l1.6,-1.4l1.1,0.5l1.1,-1.5l0.5,0.3l0.2,0.2l0.2,0.3l0.1,0.3l-0.2,1.4l0.1,0.8l1.5,2.4l-0.4,0.3l-0.2,0.2l-0.1,0.5l0.1,0.3l0,0.2l0.1,0l-0.2,0.6z" id="PT10"/>
   <path d="m494.4,222.9l-0.8,1.8l-0.1,0.4l0.2,0.6l0.2,0.3l0.4,0.3l0.6,0.8l1,0.7l0.1,0.5l0.1,0.3l0,0.3l0,0.2l-0.2,0.3l-0.3,0.3l-0.7,0.5l-0.4,0.1l-0.2,-0.1l-0.2,-0.2l0,-0.1l-0.2,-0.1l-0.2,0.1l-0.2,0.3l0.1,0.8l-0.1,0.9l-0.7,-0.5l-0.3,-0.2l-0.4,-0.1l-0.4,0l-0.5,0.1l-0.9,0.5l-0.4,0.4l-0.1,0.4l0.1,0.7l0,0.2l-0.4,0.3l-0.7,0l-0.3,0l-0.2,0.2l-0.5,0.7l-0.2,0.1l-0.1,0l-0.3,-0.1l-0.2,-0.1l-0.3,0.1l-0.2,0.1l-0.2,0.2l-0.5,0.1l-0.2,0l-0.1,0.3l0,0.2l-0.2,0.2l-0.6,0l-0.8,0.2l-0.4,0.5l-0.5,0.1l-0.1,0l-0.3,0.2l-0.1,0.3l-0.6,0.6l0.2,-0.6l-0.1,0l0,-0.2l-0.1,-0.3l0.1,-0.5l0.2,-0.2l0.4,-0.3l-1.5,-2.4l-0.1,-0.8l0.2,-1.4l-0.1,-0.3l-0.2,-0.3l-0.2,-0.2l-0.5,-0.3l-1.1,1.5l-1.1,-0.5l-1.6,1.4l-0.5,0.9l0,0.3l0.1,0.4l0.1,0.1l0.4,0.4l0.2,0.3l-0.1,0.4l-0.2,0.2l-0.3,0.1l-0.6,-0.3l-0.4,0.1l-1.2,1.4l-1.5,0.6l-0.3,0l-0.3,-0.1l0.2,-0.2l0.3,-0.2l0.2,-0.3l0,-0.4l-0.1,-0.6l-0.4,-0.9l-0.4,-1l-0.3,-0.2l-0.3,-0.1l-0.1,0.3l-0.7,-0.1l-1.2,1l-1,0.6l-0.6,0.8l-0.3,0.3l-0.2,-0.2l-0.1,-0.3l-0.1,-0.3l0,-0.8l0,-0.4l-0.3,-1.1l-0.2,-0.2l-0.3,-0.2l-0.2,0l-0.2,0.1l-0.3,0.1l-0.3,0.2l-0.5,0.9l-0.1,0.1l-0.2,0.1l-0.4,0l-0.2,0l-0.1,-0.1l-0.4,-0.5l-0.6,-0.6l-0.4,-0.3l-0.8,-0.2l-0.7,0l-1.9,-0.2l-0.9,0.4l-0.4,0.3l-0.3,0.1l-1.2,-0.3l-0.5,-0.2l-0.4,-0.2l-0.9,-0.5l-0.2,-0.1l1.2,-3.6l0.6,-0.7l0.4,0.6l0.6,0.3l1.5,0.1l0,-0.4l-0.6,-0.6l-0.6,-0.4l-0.6,-0.2l-1.7,-0.2l-0.6,-0.4l-0.4,-0.7l0,-1l0.4,-1.4l1.1,-2.2l2.5,-9.5l0.4,-2.3l0,0.1l4,4.1l1.2,0.2l0.3,-0.5l0.2,-0.8l0.7,-1.2l1.4,1l-0.2,1.1l0,0.5l0.2,0.8l0.2,0.4l0.3,0.1l0.3,-0.2l0.6,-0.4l0.6,-0.2l0.4,-0.1l0.2,1l0.4,0.8l0.1,0.3l-0.1,0.3l-0.1,0.7l-0.1,0.1l-0.2,0.2l-0.1,0.1l-0.2,0.2l-0.2,0.3l-0.3,0.7l-0.1,0.5l0,0.4l0.1,0.3l0.2,0.3l2.1,0.2l0.3,-0.2l0.3,-0.3l0.2,-0.4l0.8,-1.1l0.2,-0.4l0.3,-0.3l0.3,-0.1l0.8,0l0.4,-0.5l0,-0.4l0.3,-0.4l0.4,0.2l0.4,0.3l1.1,0.3l0.8,0.6l0.6,0.5l0.6,0.3l0.3,0.3l0.2,0l0.1,-0.2l0.1,-0.2l0,-0.2l0.1,-0.2l0.2,-0.1l1.5,-0.3l2.1,0.3l2.7,-2l2,-0.9l1.6,-1.1l0.6,-0.3l0.9,-1.4l1.2,-0.9l0.4,-0.5l0.4,-0.3l0.8,-0.2l0.3,1.1l0.3,0.2l0.2,0.3l0,0.4l-0.1,0.4l-0.2,0.3l-0.3,0.2l-0.3,0.1l-0.3,0.2l-0.1,0.4l0.3,0.4l0.3,0.2l0.6,0.2l0.2,0.2l0,0.4l0.3,1.7l0.2,0.4l0.5,0.5l0.1,0.2l0,0.4l-0.9,0.5l-0.3,0.4l-0.2,0.5l-0.2,0.7l-0.4,1l1,0.5l0.5,0.9z" id="PT06"/>
   <path d="m473.8,216.2l-0.3,0.4l0,0.4l-0.4,0.5l-0.8,0l-0.3,0.1l-0.3,0.3l-0.2,0.4l-0.8,1.1l-0.2,0.4l-0.3,0.3l-0.3,0.2l-2.1,-0.2l-0.2,-0.3l-0.1,-0.3l0,-0.4l0.1,-0.5l0.3,-0.7l0.2,-0.3l0.2,-0.2l0.1,-0.1l0.2,-0.2l0.1,-0.1l0.1,-0.7l0.1,-0.3l-0.1,-0.3l-0.4,-0.8l-0.2,-1l-0.4,0.1l-0.6,0.2l-0.6,0.4l-0.3,0.2l-0.3,-0.1l-0.2,-0.4l-0.2,-0.8l0,-0.5l0.2,-1.1l-1.4,-1l-0.7,1.2l-0.2,0.8l-0.3,0.5l-1.2,-0.2l-4,-4.1l0,-0.1l0.1,-0.6l0.7,-2.2l0.4,-2.8l0.1,-0.1l0.2,-0.2l0,1l0,0.3l0.7,-1.2l0.6,-0.4l0.5,0.3l0.2,0l0,-0.3l-0.1,-0.1l-0.1,-0.3l-0.1,-0.3l0.1,-0.3l0.3,-0.2l0.2,0.2l0.2,0.2l0.2,0.2l0.3,-0.2l0.3,-0.3l0.5,-0.8l-0.6,-0.4l-0.3,-0.6l0.1,-0.5l0.6,-0.2l0.9,-0.1l0.6,-0.2l0.6,-0.4l0.6,-0.6l-0.7,0.1l-0.9,0.4l-0.7,0.2l-0.2,0.1l-0.2,0l-0.8,-0.4l-0.3,-0.4l-0.3,-1.3l1.4,-1.9l-0.3,-1.1l-0.1,0.8l-0.2,0.7l-0.3,0.2l-0.2,-0.7l-0.5,1l-0.4,1.2l-0.2,1.4l-0.1,1.2l-0.2,0.7l-0.4,1.2l-0.5,1l-0.4,0.5l3.5,-16.3l0,-1.1l0.3,-0.1l1.6,-0.2l0.6,0.4l1.1,-0.4l0.6,-0.4l0.4,0l0.4,0.1l0.3,0.3l0.5,0.3l0.4,0l0.2,-0.2l0.3,-0.7l0.1,-0.2l0.7,-0.8l0.7,0.8l0.2,0.3l0.2,0.5l0.7,0.5l0.3,0l0.1,-0.2l0,-0.3l-0.2,-0.3l0,-0.3l0,-0.2l0.9,-0.5l0.8,0.3l1.7,-1.2l0.1,-0.2l0.2,-0.5l2.2,1.4l0.1,0.3l0.1,0.5l0,0.3l0,1.1l2.7,1.3l0.4,0l0.5,-0.1l0.3,-0.6l0.1,-0.2l0.1,-0.1l0.5,-0.4l0.2,0l0.1,0.2l0.1,0.2l0,0.1l-0.1,0.1l0,0.2l-1.2,1.7l-0.1,0.5l-0.2,0.6l0.1,0.3l0.1,0.6l0.2,1.3l0.3,0.8l0,0.6l-0.2,0.3l-0.3,0.1l-0.3,0l-0.3,-0.1l-0.3,-0.3l-0.3,-0.1l-0.4,0l-0.7,0.4l-0.4,0l-0.4,0l-0.3,-0.2l-1.1,0.1l0.4,1.5l-0.1,0.3l-0.3,0.5l-0.7,1.6l-0.9,1l-0.8,0.7l-0.4,0.6l0,0.2l0,0.2l0.1,0.3l0.1,0.3l0.5,0.6l0.3,0.4l0.1,0.3l0,1.3l0.3,0.7l0.1,0.1l0.7,0.3l0.6,0.5l-1.5,0.5l-0.2,0.3l-0.2,0.3l0,0.4l0.4,1l0.2,0.9l0.2,0.3l0.3,0.2l0.2,0.3l0.4,0.7l-2,0.8l-0.8,0.7l-0.1,0.2l0.1,0.4l0.4,0.6l0,0.6l-0.2,0.4l-1,1.7l0.1,1.4z" id="PT01"/>
   <path d="m487.4,168.4l0.6,0.7l0,0.5l0,0.4l0.3,0.4l0.5,0.3l1,0.7l-0.2,0.7l0.2,0.7l0.6,1.1l0.5,0.3l0.1,0.1l-0.5,2l0,1.1l-0.2,1.2l-1.6,1l-4.4,1.5l-1.1,0.1l-3.6,-0.2l-1.2,0.2l-2.4,1l-0.2,0.5l-0.1,0.2l-1.7,1.2l-0.8,-0.3l-0.9,0.5l0,0.2l0,0.3l0.2,0.3l0,0.3l-0.1,0.2l-0.3,0l-0.7,-0.5l-0.2,-0.5l-0.2,-0.3l-0.7,-0.8l-0.7,0.8l-0.1,0.2l-0.3,0.7l-0.2,0.2l-0.4,0l-0.5,-0.3l-0.3,-0.3l-0.4,-0.1l-0.4,0l-0.6,0.4l-1.1,0.4l-0.6,-0.4l-1.6,0.2l-0.3,0.1l0,-0.7l-0.5,-3.2l0.1,-1.7l0.6,-0.6l0,-0.3l-1.3,-0.4l-0.7,-1.3l-0.5,-1.7l-0.7,-1.3l0.2,-0.7l-0.1,-0.5l-0.2,-0.5l-0.2,-0.6l0,-1.5l-0.1,-0.5l-0.3,-0.1l-0.1,-0.5l-0.2,-0.5l-0.5,-0.9l-0.2,-0.7l0,-0.6l-0.1,-1.4l0.4,-1.5l0.9,0l0.8,0.5l1,0.4l0.9,0.1l0.3,0.1l0.3,0.3l0.3,0.2l0.6,0.7l0.5,0.3l0.4,0.1l0.4,0.3l0.1,0.3l-0.1,0.3l-0.2,0.1l-0.4,0.1l-0.3,0.4l0.1,0.3l0.1,0.7l0.2,0.3l0.3,0.2l0.1,0l0.4,-0.1l2,0l0.3,-0.1l0.3,-0.1l0.3,-0.2l0.3,-0.2l0.6,-0.4l0.7,-0.2l0.4,0l0.3,0.1l0.2,0.2l0.9,0.2l1.2,-0.3l1.4,-0.2l0.3,0.1l0.5,0.3l0.3,0l0.8,-0.3l0.3,-0.1l1.1,-0.5l0.7,-0.5l0.6,-0.9l1.8,0.7l0.7,0.8l0.1,0.2l0,0.5l1.3,1l1.1,0.5l0.4,-0.1l0.8,0.4l0.4,0.4l0.4,-0.1l0.2,-0.1l0.3,-0.2l0.2,-0.2l0.2,-0.2l0.2,-0.2l0.2,-0.1l0.2,-0.2l0.1,-0.2l0.1,-0.2l0.1,-0.5z" id="PT13"/>
   <path d="m511.9,178.5l-1,3.2l-0.3,1.4l-0.1,0.9l0.2,1.3l-0.5,0.3l-0.9,-0.1l-0.1,0.2l0.1,0.3l0.2,0.6l0.3,0.2l0.4,0.3l0.3,0.1l0.2,0.3l0,0.3l0,0.6l-0.3,0.8l-1.2,1.1l-1.3,-0.4l-0.5,0.3l0.2,0.9l0.1,0.3l0.1,0.5l0,0.5l-0.8,1.9l-0.4,0.6l-0.6,-0.1l-0.2,-0.3l-0.2,-0.2l-1.3,-1.3l-0.5,-0.4l-0.4,-0.2l-0.9,0l-0.4,0.2l-0.3,0.3l-0.1,0.2l-0.4,1.3l-0.4,0.7l-0.4,0.6l-0.2,0.3l0.1,0.4l0.3,0.3l0.9,0.8l0.2,0.3l0.1,0.3l0,0.3l-0.1,0.3l-0.4,0.5l0.4,0.7l0.8,0.5l0.6,0.9l-0.2,1.2l-0.5,0.6l-0.8,2.6l0.1,1l-2.4,0.4l-1.5,0.6l-1.2,0.8l-1,0.4l-1,0.7l-0.4,0.1l-1.1,0.2l-0.3,0.3l-0.8,0.2l-0.4,0.3l-0.4,0.5l-1.2,0.9l-0.9,1.4l-0.6,0.3l-1.6,1.1l-2,0.9l-2.7,2l-2.1,-0.3l-1.5,0.3l-0.2,0.1l-0.1,0.2l0,0.2l-0.1,0.2l-0.1,0.2l-0.2,0l-0.3,-0.3l-0.6,-0.3l-0.6,-0.5l-0.8,-0.6l-1.1,-0.3l-0.4,-0.3l-0.4,-0.2l-0.1,-1.4l1,-1.7l0.2,-0.4l0,-0.6l-0.4,-0.6l-0.1,-0.4l0.1,-0.2l0.8,-0.7l2,-0.8l-0.4,-0.7l-0.2,-0.3l-0.3,-0.2l-0.2,-0.3l-0.2,-0.9l-0.4,-1l0,-0.4l0.2,-0.3l0.2,-0.3l1.5,-0.5l-0.6,-0.5l-0.7,-0.3l-0.1,-0.1l-0.3,-0.7l0,-1.3l-0.1,-0.3l-0.3,-0.4l-0.5,-0.6l-0.1,-0.3l-0.1,-0.3l0,-0.2l0,-0.2l0.4,-0.6l0.8,-0.7l0.9,-1l0.7,-1.6l0.3,-0.5l0.1,-0.3l-0.4,-1.5l1.1,-0.1l0.3,0.2l0.4,0l0.4,0l0.7,-0.4l0.4,0l0.3,0.1l0.3,0.3l0.3,0.1l0.3,0l0.3,-0.1l0.2,-0.3l0,-0.6l-0.3,-0.8l-0.2,-1.3l-0.1,-0.6l-0.1,-0.3l0.2,-0.6l0.1,-0.5l1.2,-1.7l0,-0.2l0.1,-0.1l0,-0.1l-0.1,-0.2l-0.1,-0.2l-0.2,0l-0.5,0.4l-0.1,0.1l-0.1,0.2l-0.3,0.6l-0.5,0.1l-0.4,0l-2.7,-1.3l0,-1.1l0,-0.3l-0.1,-0.5l-0.1,-0.3l-2.2,-1.4l2.4,-1l1.2,-0.2l3.6,0.2l1.1,-0.1l4.4,-1.5l1.6,-1l1.9,-1.3l0.7,-0.1l0.5,0.3l0.9,0.8l0.4,0.4l0.6,0.1l0.7,0.1l0.7,-0.1l0.6,-0.3l1.1,-0.7l0.5,-0.3l0.6,0l0.1,0l1.5,0.1l1.7,-0.2l4.3,-1.6l0.5,0l0.6,0.4l1.1,1.6l0.4,0.4l1.2,0.4l1,-0.1z" id="PT18"/>
  </g>
  <g id="points">
   <circle class="30.635461623995162|-30.03095379698591" cx="90.9" cy="547.8" id="0"/>
   <circle class="35.48521658364194|-17.491476654031555" cx="545.5" cy="338" id="1"/>
   <circle class="41.54741028320043|-7.4598949396680725" cx="909.1" cy="56.8" id="2"/>
  </g>
  <g id="label_points">
   <circle class="Évora" cx="899.9" cy="197.6" id="svg_1"/>
   <circle class="Portalegre" cx="902.5" cy="164.7" id="svg_2"/>
   <circle class="Viana do Castelo" cx="871" cy="39.5" id="svg_3"/>
   <circle class="Castelo Branco" cx="909" cy="131.9" id="svg_4"/>
   <circle class="Guarda" cx="920.7" cy="98.2" id="svg_5"/>
   <circle class="Bragança" cx="930.2" cy="57.5" id="svg_6"/>
   <circle class="Vila Real" cx="905" cy="56.3" id="svg_7"/>
   <circle class="Braga" cx="876.8" cy="55.7" id="svg_8"/>
   <circle class="Faro" cx="894.4" cy="259.8" id="svg_9"/>
   <circle class="Beja" cx="893.7" cy="231" id="svg_10"/>
   <circle class="Setúbal" cx="869" cy="213.9" id="svg_11"/>
   <circle class="Lisboa" cx="845.5" cy="177.2" id="svg_12"/>
   <circle class="Santarém" cx="870.7" cy="162.4" id="svg_13"/>
   <circle class="Leiria" cx="859" cy="143.9" id="svg_14"/>
   <circle class="Coimbra" cx="875.3" cy="123.3" id="svg_15"/>
   <circle class="Aveiro" cx="872.5" cy="101.7" id="svg_16"/>
   <circle class="Porto" cx="876.1" cy="73.1" id="svg_17"/>
   <circle class="Madeira" cx="565.2" cy="458.1" id="svg_18"/>
   <circle class="Azores" cx="254.8" cy="234.3" id="svg_19"/>
   <circle class="Viseu" cx="894.2" cy="93.9" id="svg_20"/>
  </g>
 </g>
</svg>