
<svg xmlns="http://www.w3.org/2000/svg" xmlns:svg="http://www.w3.org/2000/svg"  version="1.2">
 <g class="layer">
  <title>Layer 1</title>
  <g id="features">
   <path d="m509.7,190.2l0.1,0.3l0.4,-0.1l0.5,-0.3l0.8,-0.1l0.9,-0.3l0.3,0l0.8,0.4l0.4,0.3l0,0.2l-0.1,0.4l0,0.5l0.3,0.9l0.2,0.3l0.5,0.2l0.5,0.1l0.5,-0.1l0.4,-0.3l0.2,-0.4l0.4,-1l0.6,-0.4l0.8,0.1l1.2,0.3l1.7,0.9l0.5,0l0.4,-0.2l0.5,0l1.1,1.2l0.2,2l-0.4,2.2l-0.7,1.8l-0.5,0.7l-1.6,1.8l-0.4,0.4l0.5,1.2l0.8,0.9l0.9,0.5l1,0.3l1.1,0.1l0.7,-0.3l0.3,-0.7l0.1,-1.5l0.3,-1.1l0.7,-0.8l0.9,-0.3l0.9,0.2l-0.9,0.8l-0.3,0.7l0.2,0.7l0.7,0.8l0.7,0.5l2.4,0.4l1.4,0.8l1.3,1.1l1.5,-0.2l0.4,0.1l0.6,0.5l0.3,0.2l1.4,0.2l0.7,0.2l0.5,0.6l1.4,1l1.5,0.5l3.3,0.3l3.1,-0.6l1.1,0.4l0.5,1.6l-1,0l-1.4,0.7l-0.3,0.5l-0.1,0.4l0,0.4l-0.1,0.3l-1.1,1.5l-0.2,0.5l-0.1,0.4l0.1,0.9l-0.3,1.6l-0.4,1l-0.4,0.3l-0.5,0.3l-0.3,0.2l-0.3,0.7l-0.8,0.3l-1.1,1.1l-0.5,0.3l-0.5,0.3l-1.9,0.5l-0.3,0.3l-0.1,0.4l0,0.4l-0.1,0.4l-0.2,0.7l-0.1,0.3l-0.5,0.3l-0.8,0l-0.4,-0.1l-2.4,0.3l-0.3,0.3l-0.1,0.4l0,0.3l0,0.3l-0.4,0.2l-0.3,0.1l0.1,0.1l0.7,0.3l-0.1,0.2l-0.2,0.3l-1,0.6l-0.5,0.5l-0.3,0.5l0,0.5l-0.3,0.2l-0.3,0.2l-0.4,0.1l-0.7,-0.3l-0.5,0.1l-0.3,0.2l-0.2,0.4l-0.3,0.5l-0.2,0.4l0,0.5l0,0.3l0.1,0.3l0.2,0.4l0.1,0.2l0,0.4l-0.2,0.5l-0.6,1l-1.1,1l-0.9,1.4l-0.2,1l-0.1,0.6l0,0.4l0.2,0.3l0.3,0.2l0.2,0.3l0.1,0.3l-0.2,0.5l-1.2,1.4l-0.8,1.3l-0.2,0.7l-0.2,0.6l0,0.4l-0.2,0.8l-0.2,0.6l-0.3,0.7l-0.2,0.5l0,0.5l0.1,0.4l0.1,0.4l0.3,0.3l0.2,0.4l0.1,0.4l0.1,0.4l0,1.1l0,0.5l0,0.7l0.1,0.4l0.2,0.3l0.6,0.6l0.2,0.3l0.1,0.3l0.1,0.4l0.2,0.4l0.3,0.3l0.3,0.2l0.4,0.1l0.4,0l0.3,0.2l0.1,0.5l-0.1,0.9l-0.3,0.6l-0.8,1.1l-0.7,1.2l-0.6,1.3l-0.2,0.4l-0.1,0.5l-0.5,0.6l-0.3,0.4l-0.3,0.5l-0.2,0.3l-0.2,0.1l-0.3,-0.1l-0.7,-0.2l-0.4,0l-1.2,-0.4l-0.3,0l-0.3,0l-0.2,0.1l-0.6,0.4l-0.8,0.1l-0.3,0l-0.4,0l-0.7,-0.3l-0.7,-0.5l-0.2,-0.2l-0.5,-0.7l-0.3,-0.3l-0.3,-0.2l-0.7,-0.3l-0.7,-0.3l-0.4,0.1l-0.7,0.4l-0.4,0l-0.4,-0.1l-0.8,-0.3l-0.3,-0.2l-0.3,-0.3l-0.5,-0.6l-0.3,-0.3l-0.4,-0.2l-0.3,-0.2l-1.6,-0.1l-0.3,0.1l-0.5,-0.3l0,-0.1l-0.1,0l-0.1,0l-0.5,0l-1.5,-1.3l-0.3,-0.6l-0.2,-0.5l0,-0.5l0,-0.4l0.1,-0.4l0.1,-0.4l1.7,-1.9l0.5,-0.6l0.3,-0.3l0.1,-0.4l0.2,-0.3l0.2,-0.3l0.3,0l0.5,0l0.4,0.3l0.4,0.1l0.4,-0.1l0.8,-0.3l0.4,0l0.4,0.1l0.8,0.5l0.4,-0.1l0.4,-0.1l0.2,-0.2l0.1,-0.4l-0.1,-0.4l-0.1,-0.5l0,-0.3l0.1,-0.1l0,-0.2l0,-0.2l-0.1,-0.3l-0.2,-0.4l0,-1.2l-1.2,-0.8l-0.8,-0.3l-2,-1.1l-1,-0.9l-0.4,-0.3l-0.2,0l-0.6,0.1l-0.3,-0.1l-0.2,-0.3l0,-0.4l0,-0.5l0,-0.3l-1.6,-1.1l-3,-3.7l-2.3,0l-0.9,-0.3l-0.6,-0.9l0.2,-0.1l0.2,-0.3l0.2,-0.3l-0.8,-0.8l-1.2,-0.1l-2.7,0.2l-0.8,-0.1l-0.6,-0.2l-0.5,-0.4l-0.5,-0.6l-0.3,-0.4l-1.2,-0.8l-0.4,-0.2l-2.6,0.4l-1.7,-0.6l-0.9,-0.2l0.2,-0.8l0.3,-2.9l-0.1,-1l-0.1,-0.4l-0.2,-0.3l-0.3,-0.1l-0.4,0l-0.8,1l-0.3,0.2l-0.4,-0.1l-0.6,-0.4l-0.3,0l-0.3,-0.3l-0.2,-0.3l0,-0.3l0,-0.4l0.6,-0.6l0.4,-0.2l0.7,-0.6l0.6,-0.6l0.8,-0.7l0.3,-0.1l0.4,0l0.4,0.1l0.2,0.1l0.2,0.2l0.3,0.6l0.3,0.2l0.7,0l0.4,-0.1l0.4,-0.2l1.2,-0.8l0.2,-0.3l0,-0.5l-0.1,-0.3l-0.4,-0.1l-0.3,-0.2l-0.3,-2.1l0,-0.4l0.3,-0.5l1.1,-0.4l0.3,-0.3l0.1,-0.5l0,-0.9l0.1,-0.8l0.4,-1.3l0.9,-1.4l0.1,-0.5l0,-0.5l-0.6,-2.3l0.7,-1.3l0,-0.3l0.2,-0.4l0.2,-0.3l0.5,-0.5l0.5,-0.1l0.8,0.4l0.3,0.1l0.8,-0.1l0.4,0l0.5,-0.1l0.4,-0.2l0.4,-0.3l0.7,-1.1l0.4,-0.2l1.1,-0.2l0.4,-0.3l0.2,-0.3l0.2,-0.6l0,-0.4l-0.1,-0.4l0,-0.5l0.2,-0.4l0.3,-0.7l0.6,-1l2,-1.5l0.5,-0.3l0.6,-0.4l0.4,-0.5l0.6,-1.1l0,-0.6l0,-0.5l-0.2,-0.4l0,-0.4l-0.1,-0.8l0,-0.5l0.3,-1.1l0.1,-0.3l0.3,0.1l0.5,0.3l0.2,-0.1l0.2,-0.1l0,-0.3l0.1,-0.3l0.2,-0.1l0.3,0.1l0.3,0.1l0.4,0l0.6,-0.3l0.5,-0.5l0.6,-1.1l0.6,-1.1l0.4,-0.4l0.3,-0.3l1,-0.3zm22.6,49.2l-0.3,-0.5l0.1,-0.7l0.3,-0.3l0.6,-0.3l0.3,-0.3l0.3,0.2l0,0.6l-0.3,0.8l-0.5,0.4l-0.5,0.1zm4.6,-1.6l-0.5,-0.1l-0.8,-0.2l-0.6,-0.1l-0.5,-0.4l0.1,-0.5l0.2,-0.6l0.1,-0.4l0.5,-0.5l0.3,0l0.3,0l0.1,0.5l0,0.6l0.4,0.2l0.4,0.5l0.3,0.2l0,0.5l-0.3,0.3z" id="ESNC"/>
   <path d="m509.7,190.2l-1,0.3l-0.3,0.3l-0.4,0.4l-0.6,1.1l-0.6,1.1l-0.5,0.5l-0.6,0.3l-0.4,0l-0.3,-0.1l-0.3,-0.1l-0.2,0.1l-0.1,0.3l0,0.3l-0.2,0.1l-0.2,0.1l-0.5,-0.3l-0.3,-0.1l-0.1,0.3l-0.3,1.1l0,0.5l0.1,0.8l0,0.4l0.2,0.4l0,0.5l0,0.6l-0.6,1.1l-0.4,0.5l-0.6,0.4l-0.5,0.3l-2,1.5l-0.6,1l-0.3,0.7l-0.2,0.4l0,0.5l0.1,0.4l0,0.4l-0.2,0.6l-0.2,0.3l-0.4,0.3l-1.1,0.2l-0.4,0.2l-0.7,1.1l-0.4,0.3l-0.4,0.2l-0.5,0.1l-0.4,0l-0.8,0.1l-0.3,-0.1l-0.8,-0.4l-0.5,0.1l-0.5,0.5l-0.2,0.3l-0.2,0.4l0,0.3l-0.7,1.3l0.6,2.3l0,0.5l-0.1,0.5l-0.9,1.4l-0.4,1.3l-0.1,0.8l0,0.9l-0.1,0.5l-0.3,0.3l-1.1,0.4l-0.3,0.5l0,0.4l0.3,2.1l0.3,0.2l0.4,0.1l0.1,0.3l0,0.5l-0.2,0.3l-1.2,0.8l-0.4,0.2l-0.4,0.1l-0.7,0l-0.3,-0.2l-0.3,-0.6l-0.2,-0.2l-0.2,-0.1l-0.4,-0.1l-0.4,0l-0.3,0.1l-0.8,0.7l-0.6,0.6l-0.7,0.6l-0.4,0.2l-0.6,0.6l0,0.4l0,0.3l0.2,0.3l0.3,0.3l0.3,0l0.6,0.4l0.4,0.1l0.3,-0.2l0.8,-1l0.4,0l0.3,0.1l0.2,0.3l0.1,0.4l0.1,1l-0.3,2.9l-0.2,0.8l-0.8,-0.1l-1.4,-0.4l-1.2,-0.7l-0.4,-1l-0.4,0.1l-0.3,0.3l-0.2,0.3l-0.2,0.4l0.1,0.1l0,0.1l0.1,0l0.1,0.2l-0.8,-0.1l-0.7,0.1l-0.5,0.3l-0.5,0.5l-0.1,-0.9l-0.4,-0.3l-0.4,0l-0.2,0.2l-0.3,0.4l-0.6,-0.3l-1.4,-1.1l-0.4,-0.2l-0.3,-0.1l-0.1,-0.9l0,-0.8l0.1,-0.3l0,-0.4l-0.2,-0.4l-0.4,-0.5l-1.4,-1l-0.5,-0.1l-0.6,0.2l-0.3,0.3l-0.2,0.4l-0.3,0.9l-0.5,-0.1l-0.5,0.3l-0.3,0l-0.3,-0.1l-0.3,-0.4l0.1,-0.3l0.4,-0.5l0.1,-0.3l-0.1,-0.5l-0.6,0.3l-0.2,-0.4l-0.1,-0.7l0,-0.5l-0.2,-0.7l-0.4,-0.5l-2.6,-2.2l-1.1,-0.5l-1,-1.3l-0.6,-0.3l-0.8,-0.5l-1.1,-1.1l-1.3,-0.7l-1.2,0.6l-1.1,0.3l-0.1,-0.1l-0.6,0.1l0.2,-0.5l0.1,-0.4l-0.2,-0.4l-0.3,-0.3l-0.2,-0.3l-0.2,-0.4l0,-0.4l0.2,-0.4l0.2,-0.5l0.5,-0.6l0.4,-0.7l0.3,-0.6l0.1,-0.6l-0.2,-0.4l-0.2,-0.2l-0.4,0.1l-0.6,0.8l-0.3,0.3l-0.3,0.2l-0.7,0l-0.4,0.1l-0.4,0.2l-0.2,0.3l-0.2,0.3l-0.2,0.3l0.1,0.3l-0.1,0.3l-0.2,0.2l-0.3,-0.2l-0.3,-0.2l-1.2,-1.6l-0.6,-0.5l-0.2,-0.3l0.1,-0.4l0.1,-0.4l0.2,-0.4l0.6,-0.6l0.5,-0.7l0.2,-0.4l0.2,-0.3l0.4,-0.3l1.4,-0.2l0.5,0.1l0.4,0.1l0.4,0.2l0.2,0.3l0.2,0.7l0.3,0.3l0.3,0.2l0.3,0.1l0.8,0.1l0.4,0.1l0.4,0.1l0.4,0l0.7,-0.2l0.8,0l0.4,-0.1l0.3,-0.2l0.5,-0.5l0.3,0l0.6,-0.2l0.2,-0.1l0.1,-0.3l0.1,-0.3l-0.1,-0.3l-0.2,-0.3l-1.1,-0.4l-0.6,-0.4l-0.3,-0.4l-0.2,-0.3l0,-0.5l0.5,0l0.7,-0.1l0.3,0l0.1,-0.1l0.1,0l0.1,-0.2l0.2,-0.4l0.1,-0.4l-0.1,-0.3l-0.3,-0.4l-0.8,-0.2l-0.3,-0.4l0,-0.3l0,-0.3l-0.2,-0.2l-0.3,-0.2l-0.8,0.4l-0.7,1.6l-0.5,0.2l-0.3,-0.1l-1.2,-0.1l-1.2,-0.3l-0.3,-0.2l-0.2,-0.2l0.2,-0.4l0.2,-0.3l0.3,-0.6l0,-1.3l0.2,-1l0,-0.7l-0.2,-0.4l-0.7,-0.3l-0.2,-0.3l-0.1,-0.5l0.3,-0.9l0.2,-0.4l0.7,-0.6l0,-0.5l-0.1,-0.2l-0.3,-0.2l-0.9,-0.1l-1.3,0l-0.9,-0.2l-0.7,-0.6l-0.2,-0.1l-0.3,-0.1l-0.4,0.1l-0.4,0.2l-3.4,2.1l-2.5,1l0,-0.7l-0.3,-1.2l-0.2,-0.4l-0.2,-0.3l0,-0.4l0.1,-0.4l0,-0.4l-0.1,-0.5l-0.1,-0.3l0.1,-0.5l0.4,-0.6l3.4,-2.5l0.5,-0.4l0.5,-0.2l2.5,0.1l1.1,-0.1l0.9,0.3l0.3,0.1l1.8,-0.9l0.2,-0.4l0.2,-0.5l0,-1.6l0,-0.4l0.7,0.3l0.8,0.1l0.9,-0.8l1.3,0.8l2,1.8l0,-0.4l-0.5,-1.4l-0.1,-0.7l-0.2,-0.4l0,-0.2l0.2,-0.2l0.5,-0.2l0.5,-0.6l1.7,-1.1l0.7,-0.2l0,-0.4l-0.3,0l0,-0.3l0.7,-0.4l1,-0.1l2,0.1l2,-0.2l0.8,-0.4l0.7,-0.2l0.5,0.1l0.9,0.6l0.8,0.8l0.3,0.6l0.5,1.4l0.1,1.2l0.2,-0.2l0.3,-1l0,-0.3l0,-0.3l0.1,-0.3l0.2,-0.3l0.4,-0.1l0.5,0.2l0.5,0.2l1.2,0.2l2.4,1l1.7,0.4l0.9,0.3l0.8,1.2l2.3,1.1l1.6,0.8l1.6,0.5l1.8,0.2l1.7,-0.2l1.4,-0.4l0.4,-0.1l0.3,0.2l0.2,0.4l0.4,0.4l0.5,0.2l0.1,-0.1l0.1,-0.1l0.2,-0.1l0.3,-0.1l0.2,0.1l0.1,0.3l0.1,0.2l0.3,0.2l1.2,-1l0.5,-0.1l0.8,-0.2l2.9,-1l0.9,-0.6l0.5,-0.2l0.5,0l0.5,0.4l0.3,0.5l0.3,0.3l0.6,-0.4l-0.2,-0.2l-0.4,-0.4l-0.2,-0.2l1.6,-0.8l1.5,-1.3l1.5,-0.8l0.7,0.5l-0.1,0.6l-0.1,1.2l0.1,0.7l1.1,0.5l0.5,0.7l0.2,1.1l0.1,0.2zm-61.4,3.2l-0.7,-1l-0.7,-0.3l0,2.2l0.2,0.3l1.3,-0.6l-0.1,-0.6zm25.4,25.6l-2.4,-0.7l-0.6,-0.3l-0.5,-0.1l-1.1,-0.1l-2.5,0.1l-0.5,0.1l-0.2,0.3l-0.8,1.3l-0.6,0.7l-0.1,0.3l0.2,0.5l1,1l1.1,0.8l2.5,1.2l2.7,0.6l2,0.9l3.2,0.1l0.2,0l0.2,0.1l0.1,0.3l0.2,0.1l0.5,-0.1l0.4,-0.2l0.1,-0.2l0,-0.7l-0.2,-0.5l0,-0.4l-0.2,-0.3l-0.1,-0.1l-0.3,0l-0.2,0.2l-0.4,0.4l-0.2,0.2l-0.3,0.1l-0.2,-0.1l-0.3,-0.2l-0.4,-0.6l-0.2,-0.2l-0.2,-0.2l-0.2,-0.2l-0.1,-0.2l0,-0.3l0.1,-0.2l0.2,-0.2l0.5,-0.1l0.2,-0.2l0.2,-0.2l0.4,-0.8l0,-0.2l0.1,-0.3l0.1,-0.4l-0.1,-0.2l-0.5,0l-0.3,0l-0.4,-0.3l-0.2,-0.2l-0.1,-0.3l-0.2,-0.1l-0.3,0l-0.4,0.1l-0.3,0.1l-0.6,-0.1z" id="ESPV"/>
   <path d="m483.1,234.2l0.9,0.2l1.7,0.6l2.6,-0.4l0.4,0.2l1.2,0.8l0.3,0.4l0.5,0.6l0.5,0.4l0.6,0.2l0.8,0.1l2.7,-0.2l1.2,0.1l0.8,0.8l-0.2,0.3l-0.2,0.3l-0.2,0.1l0.6,0.9l0.9,0.3l2.3,0l3,3.7l1.6,1.1l0,0.3l0,0.5l0,0.4l0.2,0.3l0.3,0.1l0.6,-0.1l0.2,0l0.4,0.3l1,0.9l2,1.1l0.8,0.3l1.2,0.8l0,1.2l0.2,0.4l0.1,0.3l0,0.2l0,0.2l-0.1,0.1l0,0.3l0.1,0.5l0.1,0.4l-0.1,0.4l-0.2,0.2l-0.4,0.1l-0.4,0.1l-0.8,-0.5l-0.4,-0.1l-0.4,0l-0.8,0.3l-0.4,0.1l-0.4,-0.1l-0.4,-0.3l-0.5,0l-0.3,0l-0.2,0.3l-0.2,0.3l-0.1,0.4l-0.3,0.3l-0.5,0.6l-1.7,1.9l-0.1,0.4l-0.1,0.4l0,0.4l0,0.5l0.2,0.5l0.3,0.6l1.5,1.3l0.3,1l-0.1,0.2l-0.4,1.3l-1.6,0.9l-0.3,0.2l-0.7,0.5l-0.4,0.2l-0.5,0.1l-1,0.1l-0.4,-0.1l-0.4,-0.4l-0.4,-0.3l-1,-0.5l-0.7,0l-2.2,-0.6l-0.4,-0.2l-0.2,-0.4l-0.2,-0.8l-0.1,-0.3l0.1,-0.4l0.2,-0.2l0.1,-0.2l0.1,0l0,-0.1l0,-0.1l-0.1,-0.3l-0.4,-0.7l-0.9,-0.8l-0.3,-0.4l-0.1,-0.4l0,-0.4l0,-0.4l0.3,-0.2l0.3,-0.2l0.3,-0.3l0.2,-0.3l0,-0.4l-0.2,-0.3l-0.4,-0.3l-0.6,-0.1l-0.8,-0.1l-0.7,0.1l-2.3,0.8l-0.4,0l-0.4,-0.3l-0.2,-0.4l-0.2,-0.4l0,-0.4l-0.1,-0.4l-0.1,-0.3l-0.2,-0.2l-0.4,-0.2l-2.1,-0.3l-2.5,0.2l-1.1,0.4l-0.5,0.5l-0.9,0.6l-0.4,0.2l-0.8,-0.2l-0.3,0.1l-0.1,0.2l-0.1,0.4l0,0.9l-0.1,0.7l-0.1,0.3l-0.3,0.2l-0.2,0.2l-0.2,0.2l-0.2,0.3l-0.2,0.5l-0.4,0.8l-0.5,0.7l-0.1,0.3l-0.1,0.2l0,0.1l-0.7,0l-1.2,-0.2l-1.4,0.1l-0.2,0.1l-0.2,0l-0.3,-0.1l-0.7,-0.6l-0.5,-0.2l-0.5,-0.1l-0.6,0l-0.6,-0.3l-0.2,-0.3l0.1,-0.4l0.1,-0.4l0.1,-0.4l0.1,-0.4l0.2,-0.3l0.5,-0.5l0.2,-0.4l0.2,-0.8l0,-0.3l-0.1,-0.4l-0.1,-0.4l-0.3,-0.1l-0.5,-0.2l-1,0.1l-0.5,0.3l-0.5,0.7l-0.2,0.4l-0.2,0.4l-0.1,0.4l0,0.4l0.1,0.4l0,0.4l-0.2,0.5l-0.5,0.5l-1.1,0.7l-1.2,0.6l-1.6,-0.5l-0.3,-1.8l-0.2,-0.4l-0.1,-0.4l-0.2,-0.3l-0.2,-0.3l-0.3,-0.2l-0.4,0l-0.3,0.1l-0.6,0.1l-0.6,0l-0.4,0l-0.5,0l-0.6,-0.3l-0.4,-0.7l-0.2,-0.3l-0.1,-0.4l-0.5,-0.7l-0.6,-0.4l-0.3,-0.2l-0.3,-0.8l-0.1,-0.4l-1.3,-2l0,-0.3l0.5,-0.4l0.2,-0.5l0.5,-1.7l0.1,-0.6l0,-0.5l0,-0.5l-0.1,-0.4l-0.1,-0.3l-0.1,-0.5l-0.1,-0.4l0,-1l-0.1,-0.4l-0.2,-0.2l-0.2,-0.4l0.1,-0.3l0.4,-0.2l0.8,-0.1l0.2,-0.2l0.7,-1.2l0,-0.4l-0.1,-0.4l0,-0.4l0,-1.3l0.4,-1.1l0,-0.3l-0.1,-0.4l-0.3,-0.3l-0.1,-0.4l-0.2,-0.3l-0.6,-0.4l-0.1,-0.4l0.1,-0.4l0.3,-0.7l0.1,-0.5l0,-0.4l-0.1,-0.4l-0.2,-0.2l-0.3,0l-0.4,0l-0.3,0.2l-0.3,0l-0.2,-0.3l0.1,-0.4l1.2,-1.3l0.1,-0.4l0.3,-0.3l0.3,-0.3l0.2,-0.5l0,-0.4l-0.2,-0.4l-0.4,-0.6l0.1,-0.4l0.7,-0.3l1.7,-0.2l2.6,0.4l0.6,0.2l1.1,0.2l2.8,-0.9l0,0.5l0.1,0.7l0.2,0.4l0.6,-0.3l0.1,0.5l-0.1,0.3l-0.4,0.5l-0.1,0.3l0.3,0.4l0.3,0.1l0.3,0l0.5,-0.3l0.5,0.1l0.3,-0.9l0.2,-0.4l0.3,-0.3l0.6,-0.2l0.5,0.1l1.4,1l0.4,0.5l0.2,0.4l0,0.4l-0.1,0.3l0,0.8l0.1,0.9l0.3,0.1l0.4,0.2l1.4,1.1l0.6,0.3l0.3,-0.4l0.2,-0.2l0.4,0l0.4,0.3l0.1,0.9l0.5,-0.5l0.5,-0.3l0.7,-0.1l0.8,0.1l-0.1,-0.2l-0.1,0l0,-0.1l-0.1,-0.1l0.2,-0.4l0.2,-0.3l0.3,-0.3l0.4,-0.1l0.4,1l1.2,0.7l1.4,0.4l0.8,0.1z" id="ESRI"/>
   <path d="m601.5,340.6l-0.2,-0.2l-2.5,-1.1l-0.4,-0.2l-0.3,-0.5l-0.1,-0.4l0,-0.4l-0.3,-0.3l-0.5,-0.4l-1.2,-0.7l-2.9,-1l-0.9,-0.5l-0.4,-0.4l-0.3,-0.7l0,-0.5l0.2,-0.5l0.2,-0.3l0.1,-0.3l-0.4,-0.4l-0.5,-0.4l-0.9,-0.2l-0.5,-0.5l-0.2,-0.4l-0.1,-0.4l-0.2,-0.2l-0.8,0.2l-1.1,-0.2l-0.2,-0.7l0.2,-0.2l2.2,-1.3l0.3,-0.3l0.3,-0.7l0.8,-0.9l0.2,-0.4l0.2,-0.4l0,-0.4l-0.4,-0.9l-0.1,-0.5l-0.1,-0.5l0,-0.4l-0.3,-0.8l0.1,-0.6l0.1,-0.4l0.2,-0.4l0.1,-0.4l0.1,-0.4l0.5,-0.7l0.2,-0.5l0.2,-0.4l0.1,-1.3l-0.6,-1.9l-0.6,-0.5l-0.6,-0.3l-0.7,-0.5l-0.4,-1.5l-0.2,-0.7l-0.1,-0.3l-0.2,-0.4l0,-0.4l0.1,-0.4l0.1,-0.4l0.2,-0.3l0.4,-0.3l0.4,0l0.3,-0.1l0.3,-0.2l0.1,-0.3l0.3,-0.2l0.7,-0.2l0.4,-0.2l0.3,-0.3l0.2,-0.3l0.3,-1l0,-0.5l0.1,-0.4l0.2,-0.4l0.3,-0.4l0.6,-0.4l0.5,-0.2l0.4,-0.3l0.1,-0.1l-0.2,-1.2l-0.1,-1.3l1,-2.2l-0.1,-1l-0.4,-0.7l-0.5,-0.6l-0.7,-0.3l-0.3,-0.1l-0.2,-1l0.6,-0.9l0.4,-1.5l0.1,-1l-0.1,-1.1l0.1,-0.3l0.4,-0.3l1.2,-0.4l0.3,-0.2l0.1,-0.1l0.1,-0.1l0,-0.1l0.1,-0.2l0.1,-0.3l0.2,-0.3l0.8,-1l0.2,-0.3l0.2,-0.4l-0.2,-0.4l-0.2,-0.4l-0.1,-0.4l0,-0.4l0,-0.4l-0.2,-0.5l-0.4,-0.1l-0.4,-0.1l-0.4,0.1l-1.2,-0.2l-0.4,-0.2l-0.2,-0.3l-0.1,-0.4l-0.2,-1.2l-0.5,-1.3l-0.1,-0.4l0,-0.4l0.6,-0.9l0.9,-0.9l0.6,-0.9l0.3,-0.3l0.3,-0.3l0,-0.3l0.3,-0.3l0.1,-0.2l0.3,-0.2l0.3,-0.1l1.4,-0.3l0.4,-0.2l0.4,-0.5l0.4,-0.9l0.5,-0.9l0.2,-0.2l0.2,-0.2l0.3,-0.1l0.8,-0.2l0.3,-0.2l0.3,-0.4l0.4,-0.6l0.6,-0.4l0.3,-0.2l0.3,-0.3l0.2,-0.3l0.2,-0.4l-0.1,-1.8l-0.1,-0.4l-0.1,-0.2l-0.4,-0.3l-0.5,-0.5l-0.1,-0.3l0.2,-0.3l0.2,-0.4l0.3,-0.3l0.4,-0.2l0.3,-0.1l0.3,-0.1l0.2,-0.2l0.3,-0.6l0.2,-0.3l0.2,-0.2l0.5,-0.2l0.2,-0.2l0.2,-0.3l0.1,-0.6l0,-0.5l0,-0.3l0.5,-1.2l0.7,-2.2l0,-0.3l0.4,-0.3l0.2,-0.5l0.1,-0.6l0.2,-1.1l0.1,-0.6l-0.1,-0.6l-0.1,-0.3l0,-0.5l0.2,-0.6l0.1,-0.4l0.3,-1.7l0.1,-0.2l0.2,-0.3l0.3,-0.5l0.3,-1l0.1,-0.4l0.1,-1l0,-0.7l-0.1,-0.2l0.2,-0.7l0.1,-0.6l0,-1l-0.2,-2.3l-0.3,-1.4l-0.3,-0.6l-0.2,-0.4l-0.2,-0.2l-0.1,-0.1l-0.2,-0.2l-0.1,-0.4l0,-0.6l-0.1,-0.4l-0.2,-0.5l-0.1,-0.4l0.1,-0.4l0.3,-0.2l0.3,0l0.1,-0.1l0.2,0l0.1,-0.2l0.1,-0.1l0.1,-0.3l-0.1,-0.6l0.1,-0.5l0.1,-0.3l0.2,-0.2l0.2,-0.5l0.2,-0.4l0.2,-0.3l0.1,-0.3l0.1,-0.2l0.1,-0.4l0,-0.7l0.1,-0.3l0.1,-0.4l0,-0.2l-0.1,-0.3l-0.5,-0.2l-0.8,-0.2l-0.4,-0.1l-0.3,-0.3l-0.3,-0.5l-0.6,-1.5l-0.8,-1.5l-0.5,-0.4l0.1,-0.1l0.1,-0.9l-0.3,-0.8l-0.5,-0.7l-0.6,-0.2l0.3,-0.5l0.1,-0.3l0.3,-0.2l-0.4,-0.6l0.6,-1.6l-0.1,-1.1l0.2,-0.8l0.9,-0.4l1.1,-0.1l0.7,0.1l1.4,0.6l0.7,0.1l0.8,-0.1l0.7,0.2l1.7,1l1.2,0.5l0.4,0.2l0.6,0.7l0.5,0.2l0.3,-0.2l0.4,-0.4l0.4,-0.1l0.4,0.1l0.6,0.6l0.3,0.2l3.5,0.2l0.8,0.3l0.8,0.6l0.3,0.8l0.4,0.9l0.4,0.7l0.7,0.5l0.4,0.1l1.4,-0.5l4.9,0.1l1,0.2l-0.2,0.8l0.2,0.2l0.4,0l0.3,0.2l0.7,1.3l0.8,1.1l0.7,1.9l0.6,0.7l-0.2,0.4l-0.2,0.5l-0.1,0.5l0.4,0.3l0,0.2l-0.7,1.1l-0.1,0.7l0.9,-0.2l0.7,0.7l0.1,0.8l-0.8,0.6l-0.2,0.1l-0.7,0.3l1.2,1.8l0,0.7l0.4,0.4l2.5,0.3l0.3,-0.1l0.5,-0.2l0.2,-0.3l0.2,-0.4l0.2,-0.2l1.2,-0.2l1.4,-0.1l1.3,-0.6l0.4,-1.5l0.2,-0.1l0.1,-0.1l0.1,0l0.1,0.2l0.5,0.2l0.5,0l0.4,-0.2l0.4,-0.5l0.1,0.1l0.1,0.1l0,0.1l0,0.2l0.8,0.3l2.5,0.4l0.8,0.3l2.3,1.6l0.9,0.2l0.8,0.1l0.6,0.2l0.6,0.9l0.5,2.1l0.4,0.8l0.8,0.7l0.5,0.4l0.5,0l1.1,-0.1l0.6,-0.1l0.5,-0.4l0.7,-0.7l0.9,-0.7l0.2,-0.3l0.3,-0.8l0.2,-0.3l0.7,-0.3l1.9,0.2l2.5,-0.8l1.2,-0.1l1.2,0.6l0.5,0.4l2.3,1.1l1.3,0.3l0.6,0l0.3,0.9l0.6,0.9l0.8,0.6l0.8,0.2l0.8,0.5l0.4,0.1l0.5,0l0.2,-0.3l0.4,-0.9l0.3,-0.2l0.8,-0.1l1.8,0.7l0.9,0.1l1.1,0l0,-0.3l-0.5,-0.5l-0.4,-1.1l0.3,-0.4l1.7,-1.4l0.7,-0.4l0.9,0l1.5,0.2l0.9,-0.1l0.6,-0.4l1.3,-1.2l0.6,-0.4l0.7,-0.1l0.6,0.1l0.7,-0.2l1.4,-1l1.3,0.5l0.6,-0.4l0.5,0l1.2,0.1l0.2,0.1l0.3,0.6l0.3,0.5l0.4,0.4l0.5,0.3l0.8,0.3l1,0.1l1.1,-0.1l1.7,-0.3l0,0.8l-0.4,1.1l0.2,0.9l0,0.9l0.5,0.8l0.7,0.6l0.9,-0.2l0.9,0l0.6,0.7l0.2,0l0.5,-0.4l0.5,0.1l1,0.7l-1,1.9l-0.1,0.5l-0.2,0.8l-0.3,0.4l-0.3,0.3l-0.3,0.6l-0.7,-0.3l-1.5,0.3l-1.2,-0.5l-0.4,-0.6l-0.7,0.2l-0.9,0.9l-0.5,1.2l0,1.9l-0.1,1.3l0.3,1l0.6,0.7l1.4,0.9l0.8,1l0.9,1.3l-0.1,0.7l-0.5,0.5l-0.2,0.8l0.3,0.8l0.2,1.1l0,0.4l0.2,0.3l0.7,0.6l0.3,0.4l-0.2,1.1l-1,1.7l-0.5,1.4l-0.7,0.7l-1.1,1.7l-1.3,-0.2l-1.6,1.2l-0.4,1.5l-1.1,0.6l-3.6,2.9l-0.8,1.2l-1.3,0.3l-0.9,0.2l-1.1,0.3l-0.4,0.1l-0.2,0.1l-0.6,0.6l-0.2,0.2l-0.1,0.4l-0.4,0.1l-0.5,0l-0.5,1.3l-5.1,2.1l-8.2,3.8l-0.8,0.9l-2.4,1.6l-3,1.3l-1.2,0.9l-1.1,1.5l-1.9,3.5l-1.2,1.6l-1.3,1.2l-2.8,1.6l-1.7,0.4l-2.7,0.3l-2.7,0.7l-0.9,0.5l-0.4,0.1l-1.3,0l-7.9,2.4l-3.5,0.3l-10.1,3.8l-2.9,0.6l-0.3,0.2l-0.7,1.3l-0.1,0.4l-0.2,0.3l-0.5,0.3l-0.9,-0.6l-0.3,-0.1l-1.8,0l-1.7,0.3l-1.6,0.7l-1,0.7l-4.6,4.5l-2.2,3l-4.4,4.5l-0.8,1.5l1.1,0.7l1.1,0.4l0.5,0l0.2,-0.3l-0.1,-0.4l-0.6,-0.4l0.7,0.1l0.6,0.3l0.4,0.4l1,1.2l1,0.9l0.5,0l0.8,0.2l0,1.1l-0.6,1.2l-0.4,0.5l-2.6,0.8l-1.1,1l-2,3.1l-1.2,1l-1.2,0.4l-1.3,0.2l-0.9,-1.5l1.9,-0.3l0.9,0.7l1.4,-0.8l1.4,-2.4l-0.8,-0.1l-1.2,0.1l-3.3,1.1l-0.8,0.5l-0.7,0.8l-0.6,0.9l-1,2.5zm57.5,-103.9l-0.1,-0.6l0.5,-1l0.4,-0.2l0.5,0.5l0.4,1l0.4,0.7l-0.1,0.1l-0.4,0.1l-0.1,0l-1,-0.1l-0.5,-0.5z" id="ESCT"/>
   <path d="m505.5,261.3l0.5,0l0.1,0l0.1,0l0,0.1l0.5,0.3l0.3,-0.1l1.6,0.1l0.3,0.2l0.4,0.2l0.3,0.3l0.5,0.6l0.3,0.3l0.3,0.2l0.8,0.3l0.4,0.1l0.4,0l0.7,-0.4l0.4,-0.1l0.7,0.3l0.7,0.3l0.3,0.2l0.3,0.3l0.5,0.7l0.2,0.2l0.7,0.5l0.7,0.3l0.4,0l0.3,0l0.8,-0.1l0.6,-0.4l0.2,-0.1l0.3,0l0.3,0l1.2,0.4l0.4,0l0.7,0.2l0.3,0.1l0.2,-0.1l0.2,-0.3l0.3,-0.5l0.3,-0.4l0.5,-0.6l0.1,-0.5l0.2,-0.4l0.6,-1.3l0.7,-1.2l0.8,-1.1l0.3,-0.6l0.1,-0.9l-0.1,-0.5l-0.3,-0.2l-0.4,0l-0.4,-0.1l-0.3,-0.2l-0.3,-0.3l-0.2,-0.4l-0.1,-0.4l-0.1,-0.3l-0.2,-0.3l-0.6,-0.6l-0.2,-0.3l-0.1,-0.4l0,-0.7l0,-0.5l0,-1.1l-0.1,-0.4l-0.1,-0.4l-0.2,-0.4l-0.3,-0.3l-0.1,-0.4l-0.1,-0.4l0,-0.5l0.2,-0.5l0.3,-0.7l0.2,-0.6l0.2,-0.8l0,-0.4l0.2,-0.6l0.2,-0.7l0.8,-1.3l1.2,-1.4l0.2,-0.5l-0.1,-0.3l-0.2,-0.3l-0.3,-0.2l-0.2,-0.3l0,-0.4l0.1,-0.6l0.2,-1l0.9,-1.4l1.1,-1l0.6,-1l0.2,-0.5l0,-0.4l-0.1,-0.2l-0.2,-0.4l-0.1,-0.3l0,-0.3l0,-0.5l0.2,-0.4l0.3,-0.5l0.2,-0.4l0.3,-0.2l0.5,-0.1l0.7,0.3l0.4,-0.1l0.3,-0.2l0.3,-0.2l0,-0.5l0.3,-0.5l0.5,-0.5l1,-0.6l0.2,-0.3l0.1,-0.2l-0.7,-0.3l-0.1,-0.1l0.3,-0.1l0.4,-0.2l0,-0.3l0,-0.3l0.1,-0.4l0.3,-0.3l2.4,-0.3l0.4,0.1l0.8,0l0.5,-0.3l0.1,-0.3l0.2,-0.7l0.1,-0.4l0,-0.4l0.1,-0.4l0.3,-0.3l1.9,-0.5l0.5,-0.3l0.5,-0.3l1.1,-1.1l0.8,-0.3l0.3,-0.7l0.3,-0.2l0.5,-0.3l0.4,-0.3l0.4,-1l0.3,-1.6l-0.1,-0.9l0.1,-0.4l0.2,-0.5l1.1,-1.5l0.1,-0.3l0,-0.4l0.1,-0.4l0.3,-0.5l1.4,-0.7l1,0l0.2,0.4l0,0.4l-0.1,0.2l-0.1,0.3l0.2,0.5l0.4,0.4l0.4,0.1l0.4,-0.1l0.4,0.1l1.4,0.9l0.8,0.6l1.5,2.1l0.1,0.2l-0.1,0.2l0,0.2l0.3,0.2l0.6,0l0.2,0l0.2,0.4l0,0.3l0,0.3l0.4,0.3l0.3,0l0.7,-0.5l0.3,-0.1l0.1,-1.3l1,0l2.2,1l1.2,-0.1l1,-0.6l1.9,-1.5l0.4,0.3l0.3,-0.1l0.3,-0.4l0.2,-0.5l0.6,0.5l0.1,0.1l2.4,1.4l0.4,1.1l1.1,0.1l1.2,-0.3l0.7,-0.3l-0.1,0.9l0.3,1l0.5,0.8l0.6,0.5l0.3,0.3l0,0.4l0.1,0.4l0.5,0.2l0.5,0.1l0.3,0.3l0.1,0.2l0.3,0.3l1.6,0.6l1.4,-0.1l3.1,-1.2l2.5,-0.3l0.7,-0.6l0.7,-0.1l2.1,0.6l0.7,0.3l0.8,1.6l0.7,0.7l0.6,-0.1l1.1,-1.6l0.7,-0.7l0.8,-0.3l1.1,1l0.1,0.2l-0.1,0.2l0.1,0.2l0.2,0.2l0.8,0.2l0.8,-0.1l1.5,-0.4l0.7,0.3l5,-0.1l1.4,0.2l0.6,-0.2l0.2,-0.5l0.5,0.4l0.8,1.5l0.6,1.5l0.3,0.5l0.3,0.3l0.4,0.1l0.8,0.2l0.5,0.2l0.1,0.3l0,0.2l-0.1,0.4l-0.1,0.3l0,0.7l-0.1,0.4l-0.1,0.2l-0.1,0.3l-0.2,0.3l-0.2,0.4l-0.2,0.5l-0.2,0.2l-0.1,0.3l-0.1,0.5l0.1,0.6l-0.1,0.3l-0.1,0.1l-0.1,0.2l-0.2,0l-0.1,0.1l-0.3,0l-0.3,0.2l-0.1,0.4l0.1,0.4l0.2,0.5l0.1,0.4l0,0.6l0.1,0.4l0.2,0.2l0.1,0.1l0.2,0.2l0.2,0.4l0.3,0.6l0.3,1.4l0.2,2.3l0,1l-0.1,0.6l-0.2,0.7l0.1,0.2l0,0.7l-0.1,1l-0.1,0.4l-0.3,1l-0.3,0.5l-0.2,0.3l-0.1,0.2l-0.3,1.7l-0.1,0.4l-0.2,0.6l0,0.5l0.1,0.3l0.1,0.6l-0.1,0.6l-0.2,1.1l-0.1,0.6l-0.2,0.5l-0.4,0.3l0,0.3l-0.7,2.2l-0.5,1.2l0,0.3l0,0.5l-0.1,0.6l-0.2,0.3l-0.2,0.2l-0.5,0.2l-0.2,0.2l-0.2,0.3l-0.3,0.6l-0.2,0.2l-0.3,0.1l-0.3,0.1l-0.4,0.2l-0.3,0.3l-0.2,0.4l-0.2,0.3l0.1,0.3l0.5,0.5l0.4,0.3l0.1,0.2l0.1,0.4l0.1,1.8l-0.2,0.4l-0.2,0.3l-0.3,0.3l-0.3,0.2l-0.6,0.4l-0.4,0.6l-0.3,0.4l-0.3,0.2l-0.8,0.2l-0.3,0.1l-0.2,0.2l-0.2,0.2l-0.5,0.9l-0.4,0.9l-0.4,0.5l-0.4,0.2l-1.4,0.3l-0.3,0.1l-0.3,0.2l-0.1,0.2l-0.3,0.3l0,0.3l-0.3,0.3l-0.3,0.3l-0.6,0.9l-0.9,0.9l-0.6,0.9l0,0.4l0.1,0.4l0.5,1.3l0.2,1.2l0.1,0.4l0.2,0.3l0.4,0.2l1.2,0.2l0.4,-0.1l0.4,0.1l0.4,0.1l0.2,0.5l0,0.4l0,0.4l0.1,0.4l0.2,0.4l0.2,0.4l-0.2,0.4l-0.2,0.3l-0.8,1l-0.2,0.3l-0.1,0.3l-0.1,0.2l0,0.1l-0.1,0.1l-0.1,0.1l-0.3,0.2l-1.2,0.4l-0.4,0.3l-0.1,0.3l0.1,1.1l-0.1,1l-0.4,1.5l-0.6,0.9l0.2,1l0.3,0.1l0.7,0.3l0.5,0.6l0.4,0.7l0.1,1l-1,2.2l0.1,1.3l0.2,1.2l-0.1,0.1l-0.4,0.3l-0.5,0.2l-0.6,0.4l-0.3,0.4l-0.2,0.4l-0.1,0.4l0,0.5l-0.3,1l-0.2,0.3l-0.3,0.3l-0.4,0.2l-0.7,0.2l-0.3,0.2l-0.1,0.3l-0.3,0.2l-0.3,0.1l-0.4,0l-0.4,0.3l-0.2,0.3l-0.1,0.4l-0.1,0.4l0,0.4l0.2,0.4l0.1,0.3l0.2,0.7l0.4,1.5l0.7,0.5l0.6,0.3l0.6,0.5l0.6,1.9l-0.1,1.3l-0.2,0.4l-0.2,0.5l-0.5,0.7l-0.1,0.4l-0.1,0.4l-0.2,0.4l-0.1,0.4l-0.1,0.6l0.3,0.8l0,0.4l0.1,0.5l0.1,0.5l0.4,0.9l0,0.4l-0.2,0.4l-0.2,0.4l-0.8,0.9l-0.3,0.7l-0.3,0.3l-2.2,1.3l-0.2,0.2l0.2,0.7l-1.1,0.4l-1.5,0.1l-0.6,0.1l-0.5,0.1l-0.3,0.2l-0.4,0.3l-0.3,0.3l-0.4,0.3l-0.4,0l-0.3,-0.2l0,-0.3l0,-0.4l-0.2,-0.4l-0.2,-0.3l-0.7,-0.2l-2,0.2l-1.1,-0.2l-1.8,-1.2l-0.6,-0.6l-0.3,-0.3l-0.4,-0.3l-0.6,-0.2l-0.7,0l-0.4,0.2l-0.8,0.9l-0.2,0.4l-0.2,0.3l-0.2,0.8l0,0.8l0,0.4l0,0.4l-0.2,0.3l-2.1,1.1l-0.3,0.3l-0.5,0.3l-0.3,0l-0.7,-0.5l-0.6,-0.1l-0.5,0.1l-0.5,0.3l-0.3,0.3l-0.1,0.4l0.1,0.4l0,0.4l0,0.8l0.1,0.3l0.3,0.2l0.4,0.1l0.3,0.1l0.3,0.2l0.4,0.1l0.3,0l0.7,-0.2l0.3,0l0.3,0.1l-0.1,0.8l-0.1,0.4l0,0.4l0.1,0.7l0.1,0.4l0,0.4l0,0.8l-0.1,0.3l-0.1,0.4l0,0.3l0.1,0.3l0.6,0.4l0,0.1l0.2,0.6l0.1,0.3l0,0.4l-0.2,0.2l-1.8,0.7l-0.4,0.4l-0.3,0.4l0.1,0.4l0.1,0.4l0.2,0.3l0.7,0.5l0.2,0.2l0.5,0.7l0.3,0.3l0.1,0.4l0,0.6l-0.3,0.3l-1.6,1.1l-0.3,0.4l-0.7,1l-0.5,0.5l-0.8,0.7l-0.1,0.3l0.1,0.4l0,0.4l-0.1,0.6l-0.2,0.4l-0.4,0.3l-1.4,0.7l-0.4,0.1l-0.8,0l-0.3,0.1l-0.4,0.1l-0.3,0.1l-0.2,0l-0.6,-0.2l-0.4,-0.2l-0.3,-0.2l-0.4,0l-0.3,0.3l0,0.4l0,0.7l-0.1,0.4l0,0.3l-0.1,0.8l-0.3,0.5l-0.2,0.4l-0.1,0.8l-0.2,0.5l-0.3,0.5l-0.6,0.4l-0.6,0.7l-0.2,0.4l-0.1,0.4l0.1,0.4l0.2,0.7l-0.1,0.3l-2.8,1.5l-1.5,0.2l-0.7,0l-0.3,-0.1l-0.3,0.1l-0.2,0.3l-0.1,0.8l-0.2,0.5l-0.4,0.5l-0.1,0l-0.5,0.4l-0.4,0.1l-1,0.5l-0.2,0.4l-0.2,0.3l-0.1,0.8l-0.1,0.4l0.2,0.3l0,0.3l0.1,0.8l0.4,0.7l0.2,0.2l0.4,0.2l0.4,0.6l0.3,0.5l-2.3,1.1l-0.5,0.2l-0.7,0l-0.4,-0.1l-0.4,-0.3l-0.2,-0.3l-0.1,-0.4l0.1,-0.4l0,-0.4l-0.1,-0.3l-0.2,-0.3l-0.1,-0.3l0,-0.4l0.1,-0.4l0.1,-0.3l0.1,-0.4l-0.2,-0.5l-0.5,-0.7l-2,-0.9l-0.7,-0.2l-0.5,-0.1l-0.7,0.1l-1.4,-0.1l-1,0.2l-0.8,0.3l-0.3,0l-1,0.3l-0.6,-0.4l-0.7,-2.1l0.9,-0.2l1.9,-1l0.3,-0.2l0.3,-0.4l0.1,-0.3l-0.1,-0.4l-0.1,-0.3l-0.5,-0.6l-1.3,-1.1l-1.1,-0.7l-2.5,-0.3l-0.8,-0.4l-0.3,-0.3l-0.2,-0.3l0,-0.3l0,-0.2l-0.2,-0.2l-0.3,-0.2l-0.3,-0.2l-0.2,-0.4l-0.2,-0.3l-0.4,-0.7l-0.2,-0.8l-0.2,-0.2l-0.2,-0.1l-0.5,0.4l-0.3,0.4l-0.1,0.5l0.2,0.8l-0.1,0.4l-0.2,0.3l-0.7,0.4l-0.9,0.2l-1.2,-0.1l-2.2,-0.5l0.3,-0.5l0.1,-0.6l0.1,-0.4l0,-0.4l-0.1,-0.3l-0.2,-0.3l-1,0.2l-0.5,0l-0.6,-0.3l-0.5,-0.1l-0.5,0l-0.5,0.3l-0.3,-0.1l-0.6,-0.4l-4.2,-4.1l-1,-0.6l-0.6,-0.1l-0.4,0.2l-0.2,0.2l-0.2,-0.1l-0.1,-0.7l0.2,-0.4l0,-0.6l-0.2,-0.7l-1.6,-2.3l-0.7,-0.7l-1.2,-0.5l0.5,-0.7l0.2,-0.1l0.3,-0.2l1.3,-2.1l0.4,-0.4l0.4,-0.3l0.7,-0.4l0.3,-0.3l0.3,-0.4l0,-1.9l0,-0.7l0.7,-1.9l0.2,-0.4l0.2,-0.2l1.1,0.3l0.3,0l0.7,0.3l0.3,0.2l0.3,0.2l0.4,0.1l0.3,-0.1l0.7,-0.4l0.4,-0.2l0.2,-0.4l0.2,-0.3l-0.2,-1l0.1,-0.6l0.2,-0.9l0.3,-0.7l0.1,-0.4l0.1,-1.1l-0.2,-0.6l-0.2,-0.7l-0.3,-0.5l-0.2,-0.4l0.1,-0.6l0,-0.4l0.2,-0.5l0.4,-0.8l0.1,-0.5l-0.1,-1.3l0,-0.4l-0.2,-0.4l-0.3,-0.5l-1.1,-0.7l-0.5,-0.6l-0.3,-0.4l-0.3,-0.7l-0.3,-0.8l0.1,-1.8l0.1,-0.4l-0.5,-1.1l-1.4,-1.2l-0.2,-0.3l-0.4,-0.5l-0.3,-0.3l-2.2,-1.9l-0.5,-0.7l-0.3,-0.3l-0.1,-0.4l-0.2,-0.3l-0.3,-0.4l-2,-1.7l-1.3,-0.8l-1.7,-1.2l-1,-0.5l-0.5,-0.3l-0.4,-0.4l-0.2,-0.4l-1.1,-0.3l-3.3,1l-0.3,-0.4l-0.9,-0.7l-0.4,-0.2l-0.4,-0.1l-0.3,0l-0.8,-0.1l-0.3,-0.1l-0.3,-0.3l-0.2,-0.4l-0.1,-2l-0.3,-2l-0.1,-0.4l-0.1,-0.3l-0.4,-0.7l0.1,-1.8l0.2,-1l0.3,-0.4l0.2,-0.2l0.3,-0.1l0.3,-0.2l0.2,-0.3l0.3,-0.4l0.2,-1.2l0.1,-0.5l0,-0.4l0,-0.5l0.2,-0.4l0.2,-0.3l0.4,-0.3l1.2,0.2l0.7,0.2l0.3,0.3l0.2,0.3l0.1,0.4l0,0.4l-0.1,0.4l0,0.4l0.1,0.3l0.3,0.2l0.4,0l0.3,-0.1l0.7,-0.6l0.7,-0.3l0.4,-0.2l0.4,-0.1l0.3,-0.1l0.2,-0.2l-0.2,-2.3l-0.2,-0.5l-0.2,-0.4l-0.3,-0.3l-0.3,-0.6l-0.1,-0.9l0.1,-1.9l-0.2,-1.5l-0.3,-0.2l-0.1,-0.4l0,-0.3l0.1,-0.4l0.3,-0.4l0.3,-0.1l0.2,-0.2l0.2,0l0.2,0l0.3,0.1l0.8,0.3l0.3,-0.1l0.3,-0.3l0.2,-0.3l0.7,-0.9l0.8,-0.4l0.4,-0.3l0.4,-0.5l0.4,-0.2l0.4,-0.1l0.4,0l0.4,-0.2l0.3,-0.5l0.4,-0.9l0.2,-0.5l0.2,-0.5l0.1,-0.7l-0.4,-0.5l-0.3,-0.2l-0.2,-0.3l-0.1,-0.4l-0.3,-0.7l-0.7,-1l-0.3,-0.4l-0.1,-0.4l0.1,-0.5l0.4,-0.8l0.3,-0.3l0.2,-0.4l0.1,-0.4l0.1,-0.5l0,-0.4l-0.9,-1.2l-0.6,-1.7l-0.2,-2.7l0.4,-1.3l0.1,-0.2l-0.3,-1zm26.8,-21.9l0.5,-0.1l0.5,-0.4l0.3,-0.8l0,-0.6l-0.3,-0.2l-0.3,0.3l-0.6,0.3l-0.3,0.3l-0.1,0.7l0.3,0.5zm4.6,-1.6l0.3,-0.3l0,-0.5l-0.3,-0.2l-0.4,-0.5l-0.4,-0.2l0,-0.6l-0.1,-0.5l-0.3,0l-0.3,0l-0.5,0.5l-0.1,0.4l-0.2,0.6l-0.1,0.5l0.5,0.4l0.6,0.1l0.8,0.2l0.5,0.1z" id="ESAR"/>
   <path d="m302.6,353.7l0.5,0.4l0.8,0.8l0.3,0.3l0.5,0.2l0.4,0.1l0.4,0l0.4,-0.2l0.3,0l0.3,0.1l0.8,0.1l1.3,-0.7l0.4,-0.1l0.7,0.5l0.4,0l0.5,-0.2l0.4,-0.2l0.5,-0.2l2.8,-0.5l0.6,-0.3l0.4,-0.3l0.2,-0.2l0.1,-0.4l0,-0.4l-0.2,-0.7l0,-0.4l0.2,-0.3l0.3,-0.3l1.2,-1l0.4,-0.2l0.8,-0.3l0.3,-0.2l1.5,-0.6l0.8,-0.9l0.4,-0.2l0.4,-0.2l1.2,-0.2l0.4,-0.3l0.2,-0.4l0.1,-0.3l0.2,-0.4l0.3,-0.2l0.4,-0.3l0.4,-0.3l0.7,-0.1l0.5,-0.2l0.5,-0.2l1.4,-1l0.4,-0.2l0.5,-0.1l0.7,0.2l1.4,0.8l0.4,0.4l0.6,0.7l0.4,0.2l0.8,0.2l0.1,0.3l0,0.3l0.3,0.3l0.5,0.3l0.9,0.3l0.2,0.3l0,0.2l-0.3,0.4l0,0.2l-0.1,0.2l-0.2,0.2l0,0.2l-0.1,0.4l-0.2,0.2l-0.2,0.2l0.1,0.2l0.5,0.3l1.4,0.6l0.9,0.5l0.6,0.5l0.3,0.4l0.6,0.4l1.4,0.7l1.1,0.4l0.5,0.1l0.4,-0.2l0.2,-0.3l0.2,-0.4l0.2,-0.4l0.1,-0.3l0.1,-0.4l0.3,-0.2l0.3,-0.2l1.4,-0.3l0.8,-0.5l0.4,-0.1l0.3,0.1l0.4,0.5l0.2,0.4l0,0.5l-0.1,0.3l-0.3,0.7l0.1,0.3l0.2,0.2l0.9,0.1l1.4,-0.5l1.6,0.6l1.2,0.9l1.2,1.1l1,1.3l1,0.7l1.6,0.5l1.5,-0.1l0.3,0l0.3,-0.1l0.3,-0.2l0.6,-0.5l0.3,-0.4l1.4,-1.1l2,-0.6l0.7,-0.1l0.2,0.3l0,0.3l-0.4,1l-0.1,0.4l-0.1,0.5l0.2,2.3l0.3,0.7l0.2,0.4l0.1,0.4l0.7,1.1l-1.2,0.6l-0.1,0.2l-0.2,0.4l-0.2,1.3l0,0.6l0.1,0.5l-0.3,2.8l-0.6,3.9l0,1.4l0.2,0.7l0.3,-0.2l0.8,-0.1l1.1,-0.1l0.4,0.1l0.3,0.1l0.3,0.3l0.3,0.3l0.2,0.3l0.2,0.3l0,0.4l-0.1,0.3l-0.5,0.7l-0.2,0.4l-0.1,0.7l0,0.6l-0.1,0.5l-0.1,1.1l0.1,0.5l0.2,0.2l1.4,0.3l0.5,0.1l0.3,-0.1l0.2,-0.2l0.5,-0.7l0.3,-0.5l0.8,-0.7l0.3,-0.1l0.8,-0.1l0.3,0l0.3,0.2l0.1,0.4l0.2,0.7l0,0.5l-0.2,0.8l0.1,0.3l0.5,0.7l0.3,0.4l0.1,0.5l-0.1,0.4l-0.1,0.3l-0.2,0.7l-0.1,1.2l-0.1,0.3l-0.1,0.4l-0.1,0.3l-0.5,0.6l-0.1,0.4l-0.3,0.3l-0.2,0.4l-0.4,0.6l-0.1,0.3l0.1,0.3l0.3,0.3l0.3,0.3l0.6,0.4l0.3,0.2l1.5,2l0.9,0.9l0.6,0.5l0.3,0.4l0.6,0.4l0.7,0.1l0.3,0.2l0.6,1l1.2,1.4l0.4,0.6l0.5,0.6l0.2,0.2l0.4,0.3l0.5,0.5l2.6,1.3l1,-0.6l0.2,-0.1l0.3,-0.1l0.3,-0.1l0.9,-0.5l1.4,-0.4l0.5,-0.2l0.5,-0.7l2,-1.1l0.5,-0.6l0.6,1.7l-0.2,0.9l-0.6,1.2l-0.6,1.7l-0.3,0.5l-0.4,0.3l-0.5,0.1l-0.3,0.2l-0.3,0.4l0,0.5l0.1,0.5l0.8,1.9l0.7,1.3l0,0.2l0.3,0.3l0.4,0.4l1.2,1.4l0.5,0.9l-0.6,0l-0.2,-0.1l-1.4,-0.7l-0.3,-0.2l-0.3,-0.1l-0.7,-0.2l-0.7,0.2l-0.4,0l-0.4,0l-0.7,-0.2l-0.3,0l-0.3,0.3l-0.3,0.3l-0.2,0.3l-0.6,0.6l-0.3,0.3l-0.1,0.3l-0.2,0.6l-0.5,2.2l0,0.7l0.2,0.5l0.2,0.3l0.7,0.4l0.3,0.3l0.1,0.5l-0.2,0.3l-0.9,0.6l-0.4,0.1l-0.4,0.1l-0.7,-0.3l-1,-0.6l-0.4,-0.1l-0.3,-0.1l-0.4,0.1l-0.3,0.3l0,0.4l0.1,0.3l0.2,0.4l0,0.4l0.1,0.4l0.2,0.2l0.2,0.2l0.1,0.1l0.1,0l0,0.4l0,0.4l0.1,0.3l0.1,0.4l0.2,0.3l0.2,0.3l1.4,0.4l0.3,0.1l1.1,0.2l0.2,0.3l0.2,0.6l-0.2,0.7l-0.2,1.2l-0.2,0.3l-0.3,0l-1.1,-0.2l-0.4,0.1l-0.4,0.1l-0.3,0.2l-0.3,0.3l-0.3,0.3l-0.6,1.1l-0.2,0.5l-1,3.7l-0.4,1l-0.4,0.5l-0.3,0.2l-0.2,0l-0.2,0l-0.5,0.1l-0.6,0.3l-1.1,0.1l-0.7,0.3l-3.2,0.1l-0.4,0.2l-0.1,0.3l0.1,0.4l0.1,0.4l-0.1,0.5l-0.2,0.4l-0.1,0.2l-0.1,0.3l-1.2,0.4l-1.9,1.2l-1.3,1.2l-0.2,0.2l-0.2,0.2l-0.1,0.3l-0.1,0.2l0,0.2l-0.1,0.3l-0.2,0l-0.2,0.1l-0.5,-0.2l-0.9,0l-0.5,0.1l-0.7,0.7l-0.2,0.3l-0.4,0.5l-0.2,0.3l-0.2,0.3l-0.1,0.3l0,0.3l-0.2,0.4l-0.3,0.5l-1.2,0.8l-0.6,0.5l-0.2,0.4l-0.5,0.7l-0.3,0.2l-0.6,0.2l-1.8,1l-0.5,0.5l-0.3,0.3l-0.3,1.1l0,0.3l0,0.2l0.1,0.3l0.4,0.4l0.1,0.2l0,0.3l0,0.2l-0.1,0.6l-0.1,0.3l0,0.5l0,0.2l0.1,0.2l0.1,0.2l0.3,0.2l0.1,0.2l0.2,0.3l0.1,0.2l0.1,0.6l0.1,0.2l0.1,0.3l0.2,0.3l0.3,0.7l0.1,0.2l0,0.4l0,0.3l0.1,0.4l0,0.4l0.1,0.4l0,0.4l-0.1,0.7l-0.3,0.3l-0.1,0.4l-0.2,0.7l0,0.4l0,0.3l-0.2,0.3l-1.7,1.4l-1.7,-0.1l-0.8,0.5l-0.3,0.3l-0.9,0.9l-0.9,0.6l-0.7,0.1l-0.4,0l-0.3,-0.3l-0.2,-1.1l0,-0.3l0,-0.4l0.2,-0.2l0.3,-0.2l0.4,-0.1l0.6,-0.4l0.2,-0.3l-0.1,-0.3l-0.1,-0.3l-0.7,-0.7l-0.5,-0.5l-0.5,-0.1l-2.7,0.4l-1.3,0.5l-0.3,0.2l-0.3,0.4l-0.3,0.6l-0.3,0.3l-0.3,0.2l-1,0.6l-0.4,0.4l-0.2,0.3l-0.2,0.4l-0.1,0.4l0,0.3l0.1,0.4l0.2,0.3l0.2,0.3l0,0.4l-0.1,0.3l-0.7,0.9l-0.2,0.3l0,0.3l-0.1,0.3l-0.2,0.4l-0.4,0.5l-0.4,0.3l-0.6,0.2l-1.7,0.3l-0.8,0.1l-3,0.6l-1,0.5l-1.3,1l-0.5,0.5l-0.7,-0.6l-5.3,-2.2l-1,-0.3l-0.2,-0.3l0,-0.4l-0.2,-0.4l-0.3,-0.5l-1.6,-1.2l-0.5,-0.1l-0.4,0l-0.3,0.1l-0.3,0.2l-0.2,0.3l-0.2,0.3l-0.6,0.5l-0.2,0.2l-0.1,0.3l-0.1,0.2l-0.6,0l-1,-0.3l-1.9,-0.1l-0.3,-0.3l-0.1,-0.3l0.1,-0.4l-0.1,-0.4l-0.1,-0.3l-0.8,-1.1l-0.6,-0.5l-0.5,-0.2l-0.6,-0.1l-1.3,-0.1l-1,0.1l-1.9,0l-1.1,-0.4l-0.5,-0.2l-0.5,-0.2l-0.4,-0.2l-0.1,-0.3l0.1,-0.4l0.2,-0.6l0.2,-0.4l0.2,-0.3l0.2,-0.3l-0.1,-0.4l-0.2,-0.4l-5.5,-1.8l-0.6,0.5l-0.6,-0.4l-1.1,0.1l-1.1,0.3l-0.1,0l-0.2,-0.1l-0.5,0.7l-1,0.5l-1,0.2l-0.6,0l-0.6,-0.5l-0.4,-0.4l-1.6,-4.2l-0.2,-0.2l-0.7,-0.5l-0.3,-0.3l-0.1,-0.3l-0.3,-0.7l-0.2,-0.3l-4.2,-5.5l-1.2,-0.9l-0.5,-0.3l0.5,-0.6l0.4,-0.5l0.1,-0.6l-0.5,-0.7l0.4,-0.6l0.7,-2.6l1.7,-2.5l0.2,-0.7l-0.1,-0.4l-0.2,-0.2l-0.3,-0.1l-0.2,-0.4l0,-0.4l-0.1,-0.5l0.1,-1.2l0.3,-1.7l0.1,-0.4l0.4,-0.7l0,-0.2l1.8,-1.5l0.6,-0.5l0.6,-0.2l0.7,-0.6l0.6,-0.6l0.2,-0.5l0.4,-0.3l1.8,-0.4l0.7,-0.4l0.5,-0.5l0.5,-0.4l0.3,-0.2l0,-0.7l0.2,-0.8l-0.6,-1.1l0.9,-0.7l0.9,-1.3l1.3,-2.6l0.4,-0.5l0.2,-0.5l0,-0.5l-0.5,-0.4l0.3,-0.9l-0.3,-1l-0.5,-0.9l-0.7,-0.7l-0.9,-0.6l-1.1,-0.3l-1,0.1l-1,0.6l-0.5,0.2l-0.6,-0.1l-0.6,-0.3l-0.4,-0.4l-0.1,-0.5l0.5,-1l0.1,-0.5l-0.5,-1l-1,-0.4l-1.1,-0.3l-1,-0.6l-0.6,-0.8l-0.3,-1.1l0.1,-1.1l0.5,-0.9l-2,-2.5l-0.7,-0.6l-0.3,-0.6l-0.2,-1.1l0,-1.2l0.2,-0.7l0.3,-0.8l0.2,-1.2l0,-1.1l-0.3,-0.5l-1.7,-0.5l-0.8,-0.4l-0.7,-0.5l-0.3,-1.1l-0.4,-0.5l-1.4,-0.7l-0.6,-0.6l-1.2,-1.6l-0.8,-0.7l-1.3,-3.7l-0.3,-0.7l0,-0.1l8.7,0.4l0.5,-0.2l0.7,-0.3l0.7,-0.1l1.7,0l0.6,-0.2l0.9,0.6l1.3,0l5.9,-0.7l0.6,-0.3l0.5,-1.1l-0.1,-0.4l-0.1,-0.3l0,-0.5l0.2,-0.5l0.5,-0.9l0.2,-0.5l-0.1,-0.4l-0.2,-0.5l0,-0.6l0.3,-0.7l0.3,-0.3l0.9,-0.3l0.4,-0.3l1,-1.5l0.1,-0.5l0.1,-0.9l0,-0.5l0,-0.2l-0.1,-0.6l0,-0.2l0.1,-0.3l0.4,-0.3l0.1,-0.2l0.3,-1.3l0.1,-0.5l-0.1,-0.5l0.2,-0.6l0.7,-1.2l-1.6,-2.9l-0.9,-1.1l-0.5,-0.9l-0.5,-0.4l-0.4,-0.2l-1.1,-0.1l-0.5,-0.2l-0.4,-0.7l-0.3,-1.8l-0.4,-0.8l0.4,-0.6l0.4,-1.2l0.3,-0.5l0.8,-0.3l1.7,-1.2l0.5,0l0.3,-0.1l0.8,0.1l0.8,-0.1l0.7,-0.5l0.1,-0.3l0,-0.4z" id="ESEX"/>
   <path d="m295.7,179.7l-0.1,0.4l-0.1,0.1l-1.2,1.1l-0.6,0.9l-0.4,0.4l-0.3,0.2l-0.3,0l-0.3,0l-0.4,-0.1l-0.4,0l-0.5,0.1l-0.3,0.3l-0.1,0.4l-0.1,1.1l0.1,0.3l0.1,0.3l0.6,0.2l0.7,0l0.2,0.2l0.2,0.3l0,0.4l0,0.5l0,0.5l0.2,0.6l0.2,0.6l0.3,0.4l0.5,0.6l0.4,0.1l0.3,0.2l0.3,0.3l0.3,2.4l0.3,0.5l0.2,0.4l0.3,0.3l0.9,0.8l0.3,0l0.3,0.1l0.4,0.6l0.7,0.3l0.3,0.1l0.3,0.2l0,0.3l-0.1,0.3l-0.2,0.8l-0.1,0.6l0.1,0.4l0.3,0.4l0.2,0.3l0.3,0.2l0.4,0.1l0.6,-0.3l0.8,-0.4l0.4,-0.2l0.3,-0.2l0.2,-0.3l0,-0.3l0.2,-0.4l0.3,-0.2l0.3,0l0.3,0.3l0.4,0.6l0.6,1l0.2,0.6l-0.1,0.5l-1.5,1.4l-0.4,0.2l-1.4,0.6l-0.4,0l-0.4,0l-0.3,0.1l-0.2,0.1l-0.2,0.3l-0.1,0.3l-0.1,0.4l-0.1,0.5l-0.3,0.4l-0.3,0.2l-0.3,0.1l-0.3,0.4l-0.1,0.6l0.2,0.6l0.3,0.6l0.4,0.2l0.2,-0.1l0.2,-0.1l0,-0.1l0.1,-0.1l0,-0.2l0,-1l0.1,-0.1l0.3,0l0.8,1.2l0.1,0.2l0.4,0.3l0.3,0.1l0.4,0.1l0.7,-0.1l0.4,0.2l0.9,0.9l0.4,0.5l0.1,0.6l0.2,2.1l-0.4,0.5l0,0.5l-0.2,0.4l-0.7,0.8l-0.1,0.7l0.4,1.3l0,0.5l-0.2,0.6l-0.2,0.5l-1.3,1.6l-0.9,1.2l-0.4,0.4l-0.5,0.2l-0.3,0l-0.3,-0.1l-0.4,0.1l-1,0.9l-1.1,0.6l-0.2,0.1l-0.5,0.7l-0.2,0.4l0,0.5l0.1,0.7l0.2,0.5l0.3,0.4l0.3,0.3l0.1,0.4l0,0.3l-0.4,0.3l-0.3,0.3l-0.3,0.3l-0.2,0.5l0.1,1.5l-0.1,0.6l-0.7,1.6l-0.1,0.4l0.1,1.1l-0.4,1l1.8,0.1l1.8,0.4l0.4,-0.1l0.1,-0.1l0.1,-0.2l0.2,-0.1l0.4,-0.3l0.8,-0.2l0.5,0l0.4,0.2l0.5,0.4l0.2,0.1l2.9,0.8l0.5,1.1l-0.1,0.5l-0.1,0.9l-0.1,0.5l-0.2,0.4l-0.3,0.4l-0.1,0.2l-0.3,0.1l2,1.7l1.3,0.9l0.7,0.7l0.1,0.5l0,0.4l-0.1,0.4l0.1,0.8l-0.1,0.3l-0.1,0.4l-0.1,0.4l-0.5,0.6l-0.5,1l-0.6,0.5l-0.6,0.8l-0.1,0.4l-0.2,0.7l-0.2,0.1l-0.8,-0.3l-0.6,0l-0.8,0.2l-0.7,0.4l-0.6,0.6l-1.4,1.4l-0.3,0.5l-0.2,0.3l-0.4,1.5l-0.3,0.3l-0.4,0.2l-0.3,0.2l-0.3,0.3l-1,1.5l-0.5,0.5l-0.2,0.5l0.1,0.3l0.3,0.3l0.3,0.2l0.3,0.1l0.8,0l0.3,0.2l0.4,0.6l0,0.2l0.1,0.2l-0.7,1.7l-0.2,0.4l0,0.4l0.2,0.5l-0.1,0.6l-0.3,-0.2l-1,0.7l-1.4,0.6l-1.3,-0.6l-1.2,-1l-1.3,-0.9l-0.6,0.1l-0.7,0.4l-0.6,0.5l-0.3,0.3l-0.1,0.8l0.3,1.7l-0.1,0.9l-0.5,0.7l-0.4,0.5l-1.3,0.9l-2.9,1l-0.7,0.1l-1.5,-0.1l-0.6,0.1l-0.5,0.4l-1,1.1l-0.5,0.5l-0.2,-0.9l-0.4,-0.9l-0.5,-0.7l-0.6,-0.2l-0.3,-0.1l-0.7,-0.4l-0.3,0l-0.3,0.3l0,0.3l-0.1,0.3l-0.2,0.4l-0.6,0.5l-0.8,0.3l-0.9,0.1l-0.7,-0.1l-0.7,-0.3l0,-0.5l0.6,-1.8l-2.1,0l-0.7,-0.4l-1.2,-0.8l-0.6,-0.2l-1.1,0.6l-2.5,0.6l-1.1,0l-0.5,0.1l-0.1,0.3l-0.2,0.4l-0.3,0.3l-1.2,0l-0.3,-1.6l-0.1,-1.5l-0.8,0.3l-0.2,0.7l-0.2,0.9l-0.4,0.7l-0.7,0l-0.7,-0.1l-0.6,0.3l-0.5,0.5l-0.4,0.6l-1.3,1.4l-0.1,0l-1.7,0.6l-3.5,-0.3l0,-0.1l0.2,-1.3l-0.1,-0.7l-0.3,-0.4l-1.4,-0.6l-0.5,-1l0.1,-1l0.4,-0.9l1.5,-2.4l1.2,-1.1l1.2,-0.8l0.6,-0.5l0.4,-0.7l0.1,-1l-0.3,-0.8l-0.6,-0.6l-0.8,-0.3l-0.8,0.1l-0.7,0.3l-0.7,0.2l-0.5,-0.4l-0.1,-0.9l0.1,-2.3l-0.3,-0.9l-0.4,-0.5l-1.2,0.9l-0.8,0.3l-0.7,0l-0.3,0.1l-0.3,0.2l-1.1,1l-0.6,0.3l-6.3,1l-0.7,0.3l-1.4,1l-0.8,0.3l-1.4,0l-0.8,0.2l-0.6,0.5l-0.4,0.6l-0.4,1.1l-0.3,0.6l-0.9,0.5l-1,0.3l-0.9,0.5l-0.5,0.3l-0.4,0.9l-0.6,0.9l-0.8,0.6l-0.8,0.2l-0.7,0.4l-0.6,0.8l-0.7,0.6l-0.6,-0.2l0.1,-0.8l-0.8,-10.6l0.1,-0.9l0.4,-0.4l1.6,0l0.8,-0.2l0.3,-0.5l-0.2,-0.5l-0.8,-0.3l-0.1,-0.4l0.2,-0.2l1,-0.5l0.1,-0.3l0.1,-0.5l0.2,-0.5l0.4,-0.2l0.2,-0.2l0.8,-0.9l2.1,-1.7l0.5,-0.2l0.2,-0.1l1.3,-1.2l0.7,-0.3l0.9,-0.6l0.2,-0.3l0.2,-0.4l0,-1.7l-0.1,-0.4l-0.1,0l-0.4,0.1l-0.6,0.6l-0.4,1l-0.6,1l-1,0.4l-0.8,0.2l-2.2,1l-0.4,0.5l-0.5,0.1l-2.1,-0.2l-0.8,0.3l0.2,-0.7l0.4,-1.2l0,-0.8l0.3,0l0.5,0.9l0.3,-0.4l0,-1.8l-0.1,-0.4l-0.1,-0.3l0.2,-0.1l0.5,-0.1l1.5,0.3l0.2,-0.1l0.3,-0.7l1.5,-1.8l0.7,-0.7l1.3,-0.9l0.6,-0.5l0.3,-0.8l-0.4,0.2l-0.3,-0.1l-0.4,-0.1l-0.4,0l-0.1,0.1l-0.1,0.1l-0.9,0.5l-1,0.8l-0.5,0.4l-0.9,0.2l-1.3,0.1l-1.3,-0.2l-1,-0.6l-0.3,-0.6l-0.2,-1l-0.3,-0.6l-0.5,-0.3l-1.4,-0.2l-0.3,-0.2l0.3,-0.6l0.7,-0.4l0.9,-0.4l0.6,-0.1l0.5,0.1l0.3,0.5l0,0.5l-0.5,0.4l0.3,0.2l0.6,0.2l0.6,0.1l0.4,-0.1l0.1,-0.6l-0.1,-0.7l0,-0.5l0.5,-0.5l-0.5,-1.9l0,-0.9l0.1,-0.8l0.4,-0.7l0.5,-0.4l0.5,-0.2l0.5,-0.7l1.5,-3.3l0.3,-1.3l-0.2,0l-0.3,0.9l-0.4,0.9l-0.5,0.6l-0.7,0.3l-0.8,-0.3l-0.5,-0.7l-0.4,-0.9l-0.5,-0.4l-0.7,1.1l0,0.7l0.4,0.5l-0.9,1.2l-0.5,0.3l-0.6,-0.4l0.2,-0.6l-0.5,0.3l-1.4,1l0.6,0.7l-0.5,0.4l-1.4,0.4l-0.1,0.3l-0.3,1.3l-0.4,0.1l-0.3,0.3l-0.6,0.7l-0.6,-0.7l-0.1,-1l-0.2,-0.9l-0.9,-0.4l-0.6,-0.6l0.2,-1.3l0.6,-1.4l0.5,-0.9l0,-0.6l0.1,-0.8l0.3,-1.1l0.4,-0.7l0.2,-0.4l0.3,-0.4l0.5,-0.1l0.1,-0.2l1.2,-0.6l1,-1.5l0.6,-0.5l1,-0.3l0.3,-0.4l0.2,-0.8l-0.1,-0.9l-0.8,-0.5l-0.2,1.3l-0.6,0.8l-0.9,0.4l-1.1,0.1l-2.1,-0.3l-0.8,0.2l0.1,0.9l-0.9,1l-0.5,0.3l-0.8,-0.2l-0.5,-0.4l-0.3,-0.7l-0.2,-0.9l-0.4,-1l0.5,0l0.4,-0.2l0.3,-0.4l0.2,-0.5l-0.3,-0.7l-0.6,-0.4l-0.7,-0.3l-0.1,-0.4l-0.2,-0.7l0,-0.4l0.1,-0.2l0.3,-0.4l0.1,-0.3l0.1,-0.5l-0.1,-0.4l-0.2,-0.2l-0.7,-0.1l-0.4,-0.2l-0.6,-1l-0.5,-0.2l0,0.3l0.2,0.6l-0.2,0.3l-0.4,0.1l-0.2,0l-0.2,-0.8l-0.4,0l-0.4,0.3l-0.4,0.3l-0.3,0.5l-0.4,1.1l-0.3,0.5l-0.2,-0.1l-0.4,-1.3l-0.3,-0.4l0,-0.3l0.2,-0.5l0.9,-2.3l0,-0.4l0.1,-0.4l0.1,-0.5l0.2,-0.3l0.1,-0.5l-0.2,-0.3l-0.6,-0.5l-0.3,-1.3l0.3,-0.3l0.6,0l0.2,-0.5l0.3,-1l0.4,-0.5l0.5,-0.3l0.2,-0.7l0.6,0.6l0.5,0.1l0.5,-0.2l0.6,-0.5l0.2,-0.3l0.1,-0.2l0.2,-0.3l0.4,-0.3l0.3,-0.2l0.3,-0.1l0.7,0l0,-0.4l-0.7,0.3l-0.9,0.2l-0.6,-0.1l0,-0.4l-1.3,0.6l-0.5,-0.1l-0.4,-0.9l1.9,-1.9l1.3,-0.7l1.5,0.7l0.7,0l0.7,-0.2l0.6,-0.2l0.5,-0.4l0.5,-0.4l0.4,-0.7l0.2,-0.8l0.3,0l0.8,0.6l1,0l1.1,-0.5l0.7,-0.5l-0.9,0.1l-0.4,-0.4l-0.6,-1.2l-0.2,0l-0.5,-0.3l-0.3,-0.3l0.3,-0.2l0.4,0l1.6,-0.7l1.7,-1.2l1.3,-0.3l0.3,-0.4l0.3,-0.3l0.4,-0.1l0.6,0.3l1.2,1.3l0.7,0.3l0.8,0.1l1.5,0.5l0.8,0.1l1.1,-0.4l1.4,-0.8l1.5,-0.5l1.4,0.6l2.1,-1l0.4,-0.3l0.1,-0.5l0.3,-0.5l0.4,-0.3l0.9,-0.2l0.1,-0.2l0.1,-0.2l0.3,-0.2l2.2,-0.6l0.1,0.7l0.4,0.6l0.9,0.8l0.5,-0.7l0.1,-0.5l-0.1,-1.3l0.4,-0.7l0.8,0.1l1.2,0.8l0.6,0.2l0.2,0.5l0.2,0.6l0.3,0.6l0.9,0.9l0.4,0.6l0.3,0.8l0.3,-0.9l0,-0.8l-0.3,-1.7l0,-0.9l0.2,-0.5l0.4,-0.4l0.8,-0.5l-0.8,-0.4l-0.7,-0.1l-1.4,0.1l-0.7,-0.2l-1,-1.1l-0.7,-0.2l0.8,-0.6l4.1,-0.6l0.3,-0.1l0.2,-0.2l0.2,-0.4l0,-0.4l-0.2,-0.1l-1,0.5l-2.4,0.4l0.1,-0.2l0.1,-0.1l0.3,-0.1l-0.1,-0.2l-0.4,-0.2l-0.5,0.7l-0.8,0.3l-1.8,0.1l0.3,-0.8l0.2,-1.2l0.2,-0.8l0.4,0.2l0.6,-0.8l-0.4,-0.3l-0.3,-0.4l-0.2,-0.6l0,-0.6l0.2,0l0.7,0.1l0.3,-0.1l0.9,0.1l1.2,-0.6l5.9,-4.5l0.1,0.6l0.4,0.4l0.4,0l0.5,-0.2l-0.4,0l-0.2,0l0,-0.4l0.2,-0.1l0.2,-0.2l0.2,-0.1l-0.8,-0.6l-0.1,-0.6l0.2,-0.6l0.1,-0.7l0.3,-0.4l0.6,-0.2l1.3,0l1.2,-0.3l1.2,-0.7l1,-0.9l0.8,-1.1l1.1,0.1l0.5,0.8l0.3,1l0.6,0.8l0,0.3l-0.3,-0.1l-0.4,-0.1l-0.2,-0.1l-0.3,0.5l-0.1,0.5l-0.1,0.4l0.3,0.4l-0.4,0.4l-0.2,-0.1l-0.3,-0.3l-0.2,0.3l-0.1,0.1l-0.2,0.1l0,0.3l2,0.2l0.4,-0.5l-0.8,-1.2l0.5,-0.3l0.5,0l1,0.3l-0.1,-0.2l-0.1,-0.4l-0.1,-0.2l0.6,-0.6l0.7,-0.6l0.8,-0.5l1.6,-0.4l0.9,-0.6l0.7,-0.8l0.2,-0.9l0.2,-0.1l0.3,0.1l0.3,0.4l0.1,0.6l-0.2,0.4l-0.9,1.1l-0.1,0.8l0.2,0.3l0.3,-0.1l0.4,-0.2l0.1,-0.1l-0.1,-0.3l0.1,-0.3l0.3,-0.1l0.3,0l0.7,-0.4l0.1,0.8l1,1.9l-0.1,0.9l0.3,-0.1l0.5,-0.7l0.4,-0.8l0.5,0.2l0.3,-0.3l0.4,-0.5l0.6,-0.2l1.6,0.2l0.5,0.2l3.3,1.9l1.6,0.6l2.6,4.5l1.9,1l-0.1,0.2l-0.1,0.2l-0.1,0.2l-0.3,0.1l0,0.4l0.6,0.3l0.3,-0.2l0.3,-0.3l0.5,-0.2l0.6,0l0.8,0.3l1.5,0.2l2.5,-0.1l0.7,-0.4l0.7,0.4l0.7,0.1l0.5,0.4l0,1.1l-0.3,0.6l-0.4,0.7l-0.2,0.7l0.3,0.7z" id="ESGA"/>
   <path d="m302.6,353.7l0.1,-0.5l0.1,-0.4l0.3,-0.3l1.7,-1.3l0.4,-0.3l0.7,-1.3l-1.4,-1.3l-0.9,-1.5l-0.3,-1.8l0.8,-1.8l0.9,-1.4l0.1,-0.6l-0.2,-0.9l-0.4,-0.8l-0.5,-0.4l-0.3,-0.6l-0.1,-0.9l0.3,-0.8l0.9,-1.8l0.3,-0.9l0,-0.6l-0.1,-1l-0.3,-1.7l-0.5,-1.8l-0.1,-0.7l0,-1.1l0,-0.5l0.2,-0.3l0,-0.3l-0.1,-0.6l-0.1,-0.3l0.1,-1.4l0.6,-0.2l0.2,-0.6l-0.2,-0.8l-0.4,-0.3l-0.7,-0.1l-0.3,-0.5l-0.3,-1.1l-0.9,-2.2l-0.6,-0.9l-1.2,-1.4l-0.4,-0.6l-0.1,-0.7l0.4,-0.7l0.2,-1l0.8,-0.4l2.5,0.2l1.1,-0.1l0.6,-0.6l1.6,-2.3l0.3,-1l-0.1,-1.3l0.2,-0.4l0.5,-0.7l1.4,-1.2l0.2,-0.5l0.3,-0.8l1.5,-2.1l0.4,-0.6l0.8,-0.1l2.6,0l0.4,-0.3l2.3,-1l0.6,-0.5l0.8,-0.6l1.3,-1.3l1.2,-2.1l0.2,0l0.5,0.1l0.1,-0.1l0.1,-0.3l0.1,-0.4l0,-0.3l-0.2,0l0.6,-0.5l0.5,-0.2l1.3,-0.1l0,-0.4l1.5,-2.5l0.1,-0.4l-0.2,-0.3l0,-0.5l0.3,-0.5l1,-1.1l1.9,-2.9l-0.4,-0.5l-0.5,-0.8l-1.7,-1.8l-1.8,-1.2l-2,-0.7l-3.3,-0.7l-0.5,0l-0.3,0.2l-0.3,0.4l-0.5,0.4l-0.7,0.3l-0.4,0.1l-1.1,-0.4l-0.6,-0.9l-0.2,-1.1l-0.1,-1l-0.2,-0.5l-0.2,-0.5l-0.2,-0.4l0.3,-0.5l0.3,-0.5l0.1,-0.5l1,-4.4l0.5,-1l-1.1,-0.4l-0.7,-0.1l-0.3,-0.4l0.3,-2.3l-0.1,-0.9l-0.6,-0.7l-1,-0.4l-0.5,1.2l-1.4,0.4l-2.8,0.1l-1.3,-0.3l-1.4,-2.3l-1.3,-0.3l-0.2,1.7l-1,0.6l-2.5,0.2l-1.1,-0.3l-1,-0.7l-0.6,-0.3l0.1,-0.6l-0.2,-0.5l0,-0.4l0.2,-0.4l0.7,-1.7l-0.1,-0.2l0,-0.2l-0.4,-0.6l-0.3,-0.2l-0.8,0l-0.3,-0.1l-0.3,-0.2l-0.3,-0.3l-0.1,-0.3l0.2,-0.5l0.5,-0.5l1,-1.5l0.3,-0.3l0.3,-0.2l0.4,-0.2l0.3,-0.3l0.4,-1.5l0.2,-0.3l0.3,-0.5l1.4,-1.4l0.6,-0.6l0.7,-0.4l0.8,-0.2l0.6,0l0.8,0.3l0.2,-0.1l0.2,-0.7l0.1,-0.4l0.6,-0.8l0.6,-0.5l0.5,-1l0.5,-0.6l0.1,-0.4l0.1,-0.4l0.1,-0.3l-0.1,-0.8l0.1,-0.4l0,-0.4l-0.1,-0.5l-0.7,-0.7l-1.3,-0.9l-2,-1.7l0.3,-0.1l0.1,-0.2l0.3,-0.4l0.2,-0.4l0.1,-0.5l0.1,-0.9l0.1,-0.5l-0.5,-1.1l-2.9,-0.8l-0.2,-0.1l-0.5,-0.4l-0.4,-0.2l-0.5,0l-0.8,0.2l-0.4,0.3l-0.2,0.1l-0.1,0.2l-0.1,0.1l-0.4,0.1l-1.8,-0.4l-1.8,-0.1l0.4,-1l-0.1,-1.1l0.1,-0.4l0.7,-1.6l0.1,-0.6l-0.1,-1.5l0.2,-0.5l0.3,-0.3l0.3,-0.3l0.4,-0.3l0,-0.3l-0.1,-0.4l-0.3,-0.3l-0.3,-0.4l-0.2,-0.5l-0.1,-0.7l0,-0.5l0.2,-0.4l0.5,-0.7l0.2,-0.1l1.1,-0.6l1,-0.9l0.4,-0.1l0.3,0.1l0.3,0l0.5,-0.2l0.4,-0.4l0.9,-1.2l1.3,-1.6l0.2,-0.5l0.2,-0.6l0,-0.5l-0.4,-1.3l0.1,-0.7l0.7,-0.8l0.2,-0.4l0,-0.5l0.4,-0.5l1.3,0.2l0.8,0.4l0.2,0.5l0.3,0.1l0.5,-0.3l0.3,-0.3l0.3,-0.3l0.3,-0.4l0.4,-0.2l0.7,-0.3l0.8,-0.1l1.9,0l0.5,0.1l0.3,0.1l0.3,0.2l1.9,0.2l0.4,-0.1l1.4,-0.6l0.6,-0.1l2.1,-1.1l0.2,-0.4l0,-0.3l-0.2,-0.3l-0.7,-0.2l-0.4,-0.3l-0.2,-0.3l0.1,-0.3l0.2,-0.2l1.1,0l0.9,-0.3l0.3,-0.2l0.1,-0.2l0,-0.3l0.1,-0.3l0.2,-0.4l0.2,-0.3l0.2,-0.4l0.2,-0.4l1.1,-0.5l0.7,0.2l0.4,0.3l0.3,0.3l0.8,0.2l0.6,0l1.7,0.9l0.8,0.2l0.3,-0.1l0.2,-0.2l0.1,-0.8l0.3,-0.3l0.5,-0.1l1,0.2l1.1,0.4l0.5,0.2l0.5,-0.1l0.8,-0.4l0.3,-0.3l0.1,-0.5l0.1,-0.4l0.1,-0.3l0.4,-0.1l2,0.4l0.5,0l1.2,-0.3l0.4,0.3l0.2,0.3l0.2,0.8l0.1,0.4l0.2,0.4l0.2,0.3l1,0.6l0.5,0.4l0.5,0.4l0.5,0.1l0.1,0.3l1.1,0.4l0.3,0.2l0.4,0.1l1.6,0.1l0.7,-0.1l0.4,-0.1l0.4,-0.4l0.1,-0.4l0.2,-0.3l0.1,-0.3l0,-0.1l0,-0.2l0.1,-0.3l0.2,-0.3l0.3,-0.3l0.2,-0.4l0.2,-0.3l0.2,-0.4l0.4,-0.2l0.6,-0.2l1,-0.1l0.6,0.1l1.1,0.6l0.9,0.2l0.6,0l0.9,0.1l0.3,0.3l0.4,0.2l0.4,0.1l0.4,0l1,-0.4l0.7,0l0.3,0l0.2,-0.3l0.2,-0.3l0.1,-0.4l0.2,-0.3l2.2,0l0.5,-0.1l0.4,-0.2l0.3,-0.4l0.3,-1.1l0.4,-0.3l0.5,-0.1l2.1,0.3l3.9,-0.4l2.1,-1.1l0.4,0l0.4,0.2l0.4,0.1l0.5,0l0.6,-0.6l0.3,-0.5l0.3,-0.9l0.1,-0.4l0.1,-0.4l0.4,-0.8l0.4,-0.3l0.7,-0.4l1.5,-0.4l1.3,-0.7l0.6,-0.6l2.2,-1.2l0.4,0l0.4,0l0.3,0.2l0.8,0.6l1.2,1.9l-0.2,3l0.1,0.6l0.2,0.9l0.3,0.4l0.4,0.3l1.6,0.9l0.3,0.4l0.2,0.5l0.8,0.8l0.2,0.4l0.3,1.4l0.8,0l0.7,-0.2l2,0l1.6,-0.3l1.4,0.1l0.5,-0.1l1.4,-0.7l0.5,-0.1l0.6,0l0.4,-0.2l0.8,-0.4l0.6,0l0.5,0.1l1,0.5l0.4,0.3l0.8,1.4l0.1,0.4l0.1,0.1l0.2,0.4l0.6,0.4l4.1,1.5l0.6,0.4l0.1,0.4l-0.1,0.4l0,0.4l0.1,0.7l0.2,0.8l0.1,0.4l0,0.4l0.1,0.4l0,0.4l0.1,0.4l0,0.3l0,0.2l0.1,0.3l0.2,0.3l0.3,0.1l0.3,0.1l0.2,-0.1l0.5,-0.5l0.4,-0.2l1,-0.3l0.4,0.2l0.2,0.2l0.1,0.5l-0.1,0.3l-0.3,0.3l-0.3,0.2l-0.4,0l-0.7,0.2l-0.3,0.2l-0.1,0.3l0.1,0.3l0.3,0.4l0.8,0.7l0.4,0.1l1.1,0.1l0.4,0.2l0.4,0.2l0.2,0.3l0.4,0.7l1.6,-0.4l1.1,-2.5l0.3,-0.2l0.3,-0.2l0.1,0.1l0.1,0.3l0,1.3l0.1,0.4l-0.1,0.9l1.4,0.4l0.6,-0.1l0.8,-0.3l0.5,-0.2l1.4,-1.3l0.7,-0.2l1.4,0l0.4,-0.2l0.2,-0.4l0,-0.3l0,-0.4l-0.1,-0.3l-0.3,-0.6l-0.1,-0.4l0.1,-0.6l-0.1,-0.4l-0.1,-0.4l-0.4,-0.2l-0.4,0l-0.5,0.2l-0.3,0.4l-0.3,0.6l-0.3,0.2l-0.4,0l-0.2,-0.3l-0.2,-0.3l0,-0.4l-0.2,-0.6l0.1,-0.3l0.3,-0.2l0,-0.3l0.1,-0.2l1.1,-0.1l1.2,-0.8l0.3,-0.4l-0.1,-0.4l-0.2,-0.3l-0.3,-0.4l-0.3,-0.2l-0.4,-0.2l-0.3,0.1l-0.3,0.2l-0.2,0.3l-0.4,0.7l-0.3,0.3l-1,0.6l-0.8,0.2l-0.4,0l-0.4,-0.1l-0.3,-0.3l-0.3,-0.3l-0.1,-0.4l0,-0.4l0,-0.4l0.9,-2.6l0.4,-0.7l0,-0.1l0.3,-0.2l0.4,-0.2l0.7,-0.4l0.9,-1l0.6,-0.3l0.6,-0.2l0.4,-0.3l0.5,-0.5l0.2,-0.5l0,-0.5l0,-0.5l0.3,-0.2l0.3,-0.1l0.4,-0.1l1.2,0.1l0.3,0l0.4,-0.2l0.6,-0.5l0.8,-0.5l0.4,-0.4l0.6,-0.6l1,-1.3l0.8,-0.9l0.6,-0.4l0.4,0l0.4,0.1l0.6,0.5l0.4,0.2l1.2,0.2l1.1,0.3l1.1,0.5l0.8,0.2l0.7,-0.1l1.2,0.2l1.1,-0.1l2.5,-1l3.4,-2.1l0.4,-0.2l0.4,-0.1l0.3,0.1l0.2,0.1l0.7,0.6l0.9,0.2l1.3,0l0.9,0.1l0.3,0.2l0.1,0.2l0,0.5l-0.7,0.6l-0.2,0.4l-0.3,0.9l0.1,0.5l0.2,0.3l0.7,0.3l0.2,0.4l0,0.7l-0.2,1l0,1.3l-0.3,0.6l-0.2,0.3l-0.2,0.4l0.2,0.2l0.3,0.2l1.2,0.3l1.2,0.1l0.3,0.1l0.5,-0.2l0.7,-1.6l0.8,-0.4l0.3,0.2l0.2,0.2l0,0.3l0,0.3l0.3,0.4l0.8,0.2l0.3,0.4l0.1,0.3l-0.1,0.4l-0.2,0.4l-0.1,0.2l-0.1,0l-0.1,0.1l-0.3,0l-0.7,0.1l-0.5,0l0,0.5l0.2,0.3l0.3,0.4l0.6,0.4l1.1,0.4l0.2,0.3l0.1,0.3l-0.1,0.3l-0.1,0.3l-0.2,0.1l-0.6,0.2l-0.3,0l-0.5,0.5l-0.3,0.2l-0.4,0.1l-0.8,0l-0.7,0.2l-0.4,0l-0.4,-0.1l-0.4,-0.1l-0.8,-0.1l-0.3,-0.1l-0.3,-0.2l-0.3,-0.3l-0.2,-0.7l-0.2,-0.3l-0.4,-0.2l-0.4,-0.1l-0.5,-0.1l-1.4,0.2l-0.4,0.3l-0.2,0.3l-0.2,0.4l-0.5,0.7l-0.6,0.6l-0.2,0.4l-0.1,0.4l-0.1,0.4l0.2,0.3l0.6,0.5l1.2,1.6l0.3,0.2l0.3,0.2l0.2,-0.2l0.1,-0.3l-0.1,-0.3l0.2,-0.3l0.2,-0.3l0.2,-0.3l0.4,-0.2l0.4,-0.1l0.7,0l0.3,-0.2l0.3,-0.3l0.6,-0.8l0.4,-0.1l0.2,0.2l0.2,0.4l-0.1,0.6l-0.3,0.6l-0.4,0.7l-0.5,0.6l-0.2,0.5l-0.2,0.4l0,0.4l0.2,0.4l0.2,0.3l0.3,0.3l0.2,0.4l-0.1,0.4l-0.2,0.5l0.6,-0.1l0.1,0.1l1.1,-0.3l1.2,-0.6l1.3,0.7l1.1,1.1l0.8,0.5l0.6,0.3l1,1.3l1.1,0.5l2.6,2.2l0.4,0.5l0.2,0.7l-2.8,0.9l-1.1,-0.2l-0.6,-0.2l-2.6,-0.4l-1.7,0.2l-0.7,0.3l-0.1,0.4l0.4,0.6l0.2,0.4l0,0.4l-0.2,0.5l-0.3,0.3l-0.3,0.3l-0.1,0.4l-1.2,1.3l-0.1,0.4l0.2,0.3l0.3,0l0.3,-0.2l0.4,0l0.3,0l0.2,0.2l0.1,0.4l0,0.4l-0.1,0.5l-0.3,0.7l-0.1,0.4l0.1,0.4l0.6,0.4l0.2,0.3l0.1,0.4l0.3,0.3l0.1,0.4l0,0.3l-0.4,1.1l0,1.3l0,0.4l0.1,0.4l0,0.4l-0.7,1.2l-0.2,0.2l-0.8,0.1l-0.4,0.2l-0.1,0.3l0.2,0.4l0.2,0.2l0.1,0.4l0,1l0.1,0.4l0.1,0.5l0.1,0.3l0.1,0.4l0,0.5l0,0.5l-0.1,0.6l-0.5,1.7l-0.2,0.5l-0.5,0.4l0,0.3l1.3,2l0.1,0.4l0.3,0.8l0.3,0.2l0.6,0.4l0.5,0.7l0.1,0.4l0.2,0.3l0.4,0.7l0.6,0.3l0.5,0l0.4,0l0.6,0l0.6,-0.1l0.3,-0.1l0.4,0l0.3,0.2l0.2,0.3l0.2,0.3l0.1,0.4l0.2,0.4l0.3,1.8l1.6,0.5l1.2,-0.6l1.1,-0.7l0.5,-0.5l0.2,-0.5l0,-0.4l-0.1,-0.4l0,-0.4l0.1,-0.4l0.2,-0.4l0.2,-0.4l0.5,-0.7l0.5,-0.3l1,-0.1l0.5,0.2l0.3,0.1l0.1,0.4l0.1,0.4l0,0.3l-0.2,0.8l-0.2,0.4l-0.5,0.5l-0.2,0.3l-0.1,0.4l-0.1,0.4l-0.1,0.4l-0.1,0.4l0.2,0.3l0.6,0.3l0.6,0l0.5,0.1l0.5,0.2l0.7,0.6l0.3,0.1l0.2,0l0.2,-0.1l1.4,-0.1l1.2,0.2l0.7,0l0,-0.1l0.1,-0.2l0.1,-0.3l0.5,-0.7l0.4,-0.8l0.2,-0.5l0.2,-0.3l0.2,-0.2l0.2,-0.2l0.3,-0.2l0.1,-0.3l0.1,-0.7l0,-0.9l0.1,-0.4l0.1,-0.2l0.3,-0.1l0.8,0.2l0.4,-0.2l0.9,-0.6l0.5,-0.5l1.1,-0.4l2.5,-0.2l2.1,0.3l0.4,0.2l0.2,0.2l0.1,0.3l0.1,0.4l0,0.4l0.2,0.4l0.2,0.4l0.4,0.3l0.4,0l2.3,-0.8l0.7,-0.1l0.8,0.1l0.6,0.1l0.4,0.3l0.2,0.3l0,0.4l-0.2,0.3l-0.3,0.3l-0.3,0.2l-0.3,0.2l0,0.4l0,0.4l0.1,0.4l0.3,0.4l0.9,0.8l0.4,0.7l0.1,0.3l0,0.1l0,0.1l-0.1,0l-0.1,0.2l-0.2,0.2l-0.1,0.4l0.1,0.3l0.2,0.8l0.2,0.4l0.4,0.2l2.2,0.6l0.7,0l1,0.5l0.4,0.3l0.4,0.4l0.4,0.1l1,-0.1l0.5,-0.1l0.4,-0.2l0.7,-0.5l0.3,-0.2l1.6,-0.9l0.2,2.7l0.6,1.7l0.9,1.2l0,0.4l-0.1,0.5l-0.1,0.4l-0.2,0.4l-0.3,0.3l-0.4,0.8l-0.1,0.5l0.1,0.4l0.3,0.4l0.7,1l0.3,0.7l0.1,0.4l0.2,0.3l0.3,0.2l0.4,0.5l-0.1,0.7l-0.2,0.5l-0.2,0.5l-0.4,0.9l-0.3,0.5l-0.4,0.2l-0.4,0l-0.4,0.1l-0.4,0.2l-0.4,0.5l-0.4,0.3l-0.8,0.4l-0.7,0.9l-0.2,0.3l-0.3,0.3l-0.3,0.1l-0.8,-0.3l-0.3,-0.1l-0.2,0l-0.2,0l-0.2,0.2l-0.3,0.1l-0.3,0.4l-0.1,0.4l0,0.3l0.1,0.4l0.3,0.2l0.2,1.5l-0.1,1.9l0.1,0.9l0.3,0.6l0.3,0.3l0.2,0.4l0.2,0.5l0.2,2.3l-0.2,0.2l-0.3,0.1l-0.4,0.1l-0.4,0.2l-0.7,0.3l-0.7,0.6l-0.3,0.1l-0.4,0l-0.3,-0.2l-0.1,-0.3l0,-0.4l0.1,-0.4l0,-0.4l-0.1,-0.4l-0.2,-0.3l-0.3,-0.3l-0.7,-0.2l-1.2,-0.2l-0.4,0.3l-0.2,0.3l-0.2,0.4l0,0.5l0,0.4l-0.1,0.5l-0.2,1.2l-0.3,0.4l-0.2,0.3l-0.3,0.2l-0.3,0.1l-0.2,0.2l-0.3,0.4l-0.2,1l-0.1,1.8l0.4,0.7l0.1,0.3l0.1,0.4l0.3,2l0.1,2l0.2,0.4l0.3,0.3l0.3,0.1l0.8,0.1l0.3,0l0.4,0.1l0.4,0.2l0.9,0.7l0.3,0.4l0,0.8l-0.3,1.4l0,1l0.1,0.3l0,0.3l-0.3,0.2l-0.3,-0.1l-0.3,-0.3l-0.2,-0.3l-0.2,-0.3l-1,-0.6l-0.3,-0.3l-0.3,-0.2l-0.3,-0.1l-0.3,0.2l-1.3,1.2l-0.4,0.1l-0.4,0.1l-0.9,-0.2l-0.7,0.1l-0.5,0.3l-0.5,0.4l-0.5,0.3l-0.6,0.2l-1,0.2l-0.6,-0.1l-0.7,-0.4l-0.3,-0.3l-0.5,-0.1l-0.5,0.1l-1.3,0.7l-0.5,0l-1.1,-0.5l-0.4,-0.3l-0.3,-0.3l-0.2,-0.4l-0.2,-0.8l-0.2,-0.3l-0.3,-0.2l-0.5,-0.2l-0.2,-0.2l-0.1,-0.1l-0.1,-0.3l-0.1,-0.4l-0.2,-0.3l-0.2,-0.4l-0.3,-0.2l-0.4,0.1l-0.4,0.2l-0.7,0.3l-0.4,0l-0.3,-0.2l-0.1,-0.3l0.3,-0.6l0,-0.3l-0.2,-0.4l-0.7,-0.4l-0.3,-0.3l0.1,-0.2l0.6,-0.4l0.2,-0.4l0.1,-0.3l-0.3,-0.3l-0.3,0l-0.4,0l-0.3,0.1l-0.3,-0.1l-0.3,-0.3l-0.3,-0.4l-0.6,-0.3l-1,-0.2l-0.8,-0.2l-0.4,-0.2l-0.2,-0.4l-0.2,-0.4l-0.4,-0.3l-0.5,-0.1l-0.4,0l-0.4,0.2l-0.4,0.3l-0.4,0.2l-1,0.1l-1.5,-0.5l-0.5,-0.2l-0.3,-0.4l-0.3,-0.7l-0.1,-0.4l-0.1,-0.4l-0.2,-0.4l-0.7,-0.3l-0.5,-0.1l-0.5,0.1l-0.3,0.2l-0.2,0.3l-0.3,0.3l-0.1,0.4l-0.6,0.4l-0.9,0.2l-2.7,0.3l-1.4,0l-4.7,-1.1l-0.8,0.5l-1.2,1.4l-1.3,0l-0.4,0.3l-2,0.4l-2,-0.1l-1.1,-0.5l-0.1,0.2l0.1,0.2l0.2,0.4l0.2,0.3l0,0.4l-0.1,0.8l-0.1,0.4l-0.3,0.2l-0.9,0.2l-3.1,2.4l-0.4,0.1l-0.7,-0.1l-1.9,0.4l-1.2,0.8l-0.5,0.4l-0.3,0.4l-0.2,0.4l-0.7,0.9l-0.8,0.9l-1.8,1.2l-0.6,0.5l-0.4,0.5l-0.3,0.8l-0.3,0.4l-0.2,0.4l-0.5,0.9l-0.4,0.3l-0.4,0.2l-3.5,1.2l-0.4,0.3l-0.4,0.5l-0.3,0.5l-0.6,0.7l-0.5,1l-0.2,0.4l0,0.4l0.1,0.7l0,0.4l-0.1,0.4l-0.3,0.5l-0.2,0.4l0,0.4l-0.1,0.8l-0.1,0.4l-0.3,0.8l-0.1,0.4l-0.2,0.4l-0.2,0.2l-0.3,0.1l-0.9,0.2l-0.4,0l-0.3,-0.2l-0.5,-0.1l-0.5,0l-0.8,0.4l-0.4,0.4l-1.5,2.4l-0.2,0.3l-1.2,1.7l-0.2,1l0,0.4l-0.2,0.9l0,0.8l-0.1,0.3l-0.4,0.4l-0.4,0.1l-0.4,0.2l-0.8,0.3l-0.7,0.1l-0.4,-0.1l-0.3,-0.1l-0.3,-0.3l-0.3,-0.6l-0.2,-0.2l-0.3,0l-0.2,0.3l0,0.5l0.2,0.4l0.1,0.4l0,0.3l0,0.4l-0.2,0.6l-0.1,0.2l-0.1,0.2l-0.1,0.1l-0.3,0.2l-0.3,0.3l-0.3,0.5l0,0.6l0,0.4l0,0.8l0,0.3l0.1,0.3l-0.1,0.2l0,0.7l0.1,0.3l0,0.4l0,0.4l-0.2,0.4l-0.3,1.1l0.2,0.8l-0.1,0.3l-0.4,0.2l-1.1,0.1l-0.3,0.1l-0.2,0l-0.2,0l-0.3,-0.1l-0.3,-0.1l-0.2,0l-0.3,0l-0.2,0.2l-0.3,0.1l-0.3,0.4l-0.2,0.3l-0.1,0.9l0,0.3l-0.1,0.4l-0.1,0.5l-0.4,0.8l-0.3,0.5l-0.5,0.3l-0.4,0.1l-0.7,0.1l-0.2,-0.1l-0.2,-0.2l-0.5,-0.7l-0.2,-0.2l-0.3,0l-0.3,0.3l0,0.4l0.1,0.4l0.2,0.7l0.1,0.4l-0.1,0.4l-0.2,0.3l-0.5,1.1l-0.4,1.8l-0.5,0.9l-1.3,0.5l-0.9,0.3l-0.6,0l-0.5,-0.1l-0.8,-0.4l-0.3,-0.2l-0.2,-0.3l-0.1,-0.4l-0.2,-1.3l-0.1,-0.3l-0.1,-0.4l0.1,-0.4l-0.2,-0.3l-0.5,-0.1l-0.8,0.3l-1.9,0.3l-0.9,0l-0.2,0.2l-0.2,0.8l-0.1,0.4l-0.1,0.5l-0.4,0.6l-0.7,0.6l-0.9,0.5l-0.4,0.4l-0.7,0.5l-0.4,0.3l-0.4,0.7l-0.1,0.4l-0.1,0.4l-0.2,0.3l-0.3,0.3l-0.9,0.6l-0.6,0.3l-0.9,0.2l-0.6,-0.2l-0.2,-0.2l-0.2,-1.5l-0.3,-0.3l-0.4,0.1l-1.1,0.3l-0.5,0.2l-0.3,0.3l-0.3,0.4l-0.2,0.3l-1.6,1.2l-0.2,0.2l-0.2,0.2l-0.4,0.2l-0.7,0.1l-0.9,0l-0.5,-0.4l-1.1,-0.5l-4,-0.5l-0.7,-1.1l-0.1,-0.4l-0.2,-0.4l-0.3,-0.7l-0.2,-2.3l0.1,-0.5l0.1,-0.4l0.4,-1l0,-0.3l-0.2,-0.3l-0.7,0.1l-2,0.6l-1.4,1.1l-0.3,0.4l-0.6,0.5l-0.3,0.2l-0.3,0.1l-0.3,0l-1.5,0.1l-1.6,-0.5l-1,-0.7l-1,-1.3l-1.2,-1.1l-1.2,-0.9l-1.6,-0.6l-1.4,0.5l-0.9,-0.1l-0.2,-0.2l-0.1,-0.3l0.3,-0.7l0.1,-0.3l0,-0.5l-0.2,-0.4l-0.4,-0.5l-0.3,-0.1l-0.4,0.1l-0.8,0.5l-1.4,0.3l-0.3,0.2l-0.3,0.2l-0.1,0.4l-0.1,0.3l-0.2,0.4l-0.2,0.4l-0.2,0.3l-0.4,0.2l-0.5,-0.1l-1.1,-0.4l-1.4,-0.7l-0.6,-0.4l-0.3,-0.4l-0.6,-0.5l-0.9,-0.5l-1.4,-0.6l-0.5,-0.3l-0.1,-0.2l0.2,-0.2l0.2,-0.2l0.1,-0.4l0,-0.2l0.2,-0.2l0.1,-0.2l0,-0.2l0.3,-0.4l0,-0.2l-0.2,-0.3l-0.9,-0.3l-0.5,-0.3l-0.3,-0.3l0,-0.3l-0.1,-0.3l-0.8,-0.2l-0.4,-0.2l-0.6,-0.7l-0.4,-0.4l-1.4,-0.8l-0.7,-0.2l-0.5,0.1l-0.4,0.2l-1.4,1l-0.5,0.2l-0.5,0.2l-0.7,0.1l-0.4,0.3l-0.4,0.3l-0.3,0.2l-0.2,0.4l-0.1,0.3l-0.2,0.4l-0.4,0.3l-1.2,0.2l-0.4,0.2l-0.4,0.2l-0.8,0.9l-1.5,0.6l-0.3,0.2l-0.8,0.3l-0.4,0.2l-1.2,1l-0.3,0.3l-0.2,0.3l0,0.4l0.2,0.7l0,0.4l-0.1,0.4l-0.2,0.2l-0.4,0.3l-0.6,0.3l-2.8,0.5l-0.5,0.2l-0.4,0.2l-0.5,0.2l-0.4,0l-0.7,-0.5l-0.4,0.1l-1.3,0.7l-0.8,-0.1l-0.3,-0.1l-0.3,0l-0.4,0.2l-0.4,0l-0.4,-0.1l-0.5,-0.2l-0.3,-0.3l-0.8,-0.8l-0.5,-0.4zm105,-22l-0.9,-0.2l-0.8,0.8l-0.1,1.3l2.5,-0.2l-0.7,-1.7zm66.1,-112.7l0.6,0.1l0.3,-0.1l0.4,-0.1l0.3,0l0.2,0.1l0.1,0.3l0.2,0.2l0.4,0.3l0.3,0l0.5,0l0.1,0.2l-0.1,0.4l-0.1,0.3l0,0.2l-0.4,0.8l-0.2,0.2l-0.2,0.2l-0.5,0.1l-0.2,0.2l-0.1,0.2l0,0.3l0.1,0.2l0.2,0.2l0.2,0.2l0.2,0.2l0.4,0.6l0.3,0.2l0.2,0.1l0.3,-0.1l0.2,-0.2l0.4,-0.4l0.2,-0.2l0.3,0l0.1,0.1l0.2,0.3l0,0.4l0.2,0.5l0,0.7l-0.1,0.2l-0.4,0.2l-0.5,0.1l-0.2,-0.1l-0.1,-0.3l-0.2,-0.1l-0.2,0l-3.2,-0.1l-2,-0.9l-2.7,-0.6l-2.5,-1.2l-1.1,-0.8l-1,-1l-0.2,-0.5l0.1,-0.3l0.6,-0.7l0.8,-1.3l0.2,-0.3l0.5,-0.1l2.5,-0.1l1.1,0.1l0.5,0.1l0.6,0.3l2.4,0.7z" id="ESCL"/>
   <path d="m587.3,329.7l1.1,0.2l0.8,-0.2l0.2,0.2l0.1,0.4l0.2,0.4l0.5,0.5l0.9,0.2l0.5,0.4l0.4,0.4l-0.1,0.3l-0.2,0.3l-0.2,0.5l0,0.5l0.3,0.7l0.4,0.4l0.9,0.5l2.9,1l1.2,0.7l0.5,0.4l0.3,0.3l0,0.4l0.1,0.4l0.3,0.5l0.4,0.2l2.5,1.1l0.2,0.2l-0.3,0.6l-0.6,1.6l-0.7,1l-0.7,0.8l-0.6,0.9l-0.2,1.3l-1.1,1.1l-2.8,5.5l-0.5,0.5l-1,0.9l-0.6,0.6l-1.4,1.9l-2.4,2.1l-2.4,4.9l-1.1,1.2l-2.1,1.2l-1,1.6l-1.8,3.7l-1,1.6l-2.5,2.8l-4.2,7l-0.2,0.6l-0.1,1.2l-0.3,0.9l-0.4,0.7l-1,1l-0.6,0.8l-0.4,0.9l-0.3,0.9l-0.2,0.7l-1.3,1.8l-0.4,0.9l-0.3,1.9l0.1,2.6l0.3,2.2l0.8,3.5l2.5,5.6l0.4,0.8l0.5,0.9l-0.5,0.4l-0.5,0.4l0.2,1l0.4,1.9l0.7,1.7l1,1.9l1.1,2.1l1.5,2.6l0.6,0.8l1.5,1.2l1.5,1.6l0.8,0.6l1.1,0.3l1.9,0.2l1.9,0.6l1.8,1l1.2,1.4l-0.1,0.1l-0.5,0.3l0.5,0.2l0.3,0.3l1.1,0.9l0.4,-0.1l0.3,0.6l0,0.9l-0.3,0.4l-0.7,0l-0.7,0.2l-0.6,0.3l-0.6,0.5l-0.5,1.1l0,0.2l-0.2,0.1l-0.8,0.1l-0.3,0.1l-0.5,0.6l-0.5,0.2l-0.4,0.4l-0.4,0.8l0.3,0.7l-0.8,-0.2l-0.6,0.1l-0.5,0.3l-0.7,0.1l-1.3,0.1l-0.5,0.1l-0.6,0.5l-0.5,0.9l0,0.7l0.1,0.7l-0.3,0.8l-0.6,0.6l-0.6,0.3l-1.7,0l-1.8,0.4l-1,0.4l-1.3,0.9l-3.9,1.6l-0.6,0.5l-0.2,0.6l-0.3,0.2l-1.5,1.6l-0.5,0.8l-0.1,1l0,0.5l-0.2,0.2l-1.3,0.1l-0.5,0.2l-0.5,0.4l-0.1,0.8l-1.5,-0.1l-0.3,2.1l0.6,4.7l-0.5,0.6l-0.7,0.1l-1.4,-0.1l-0.9,0.3l-0.8,0.6l-0.6,0.8l-0.4,0.8l-0.2,0.7l-0.2,0.8l-0.1,2.2l-0.2,3.4l-0.1,0.9l-0.4,0.5l-1,0.4l-0.8,0.8l-0.4,0.7l-1.6,4.1l-0.1,0.8l0,0.1l-0.8,0.1l-0.3,0l-0.1,-0.1l-0.2,-0.3l-0.3,-0.2l-0.4,-0.2l-0.7,-0.2l-0.3,-0.2l-1.7,-1.8l-0.4,-0.3l-1.1,-1.3l-0.2,-0.4l-0.5,-1l-0.6,-0.9l-0.2,-0.3l-0.5,-0.8l-0.6,-1.4l-0.9,-1.3l-0.1,-0.2l-0.3,-0.3l-0.3,-0.3l-0.2,-0.5l-0.2,-1l-0.1,-1l0.2,-0.9l0.2,-0.6l1.2,-1.8l0.3,-0.7l0.1,-0.4l0.3,-1.6l0.1,-0.4l0.2,-0.9l0,-0.6l-0.6,-2.1l-0.4,-0.7l-0.2,-0.2l-0.5,-0.3l-1.5,-0.5l-0.8,-0.1l-0.4,-0.2l-0.1,-0.5l-0.1,-0.8l-0.1,-2.1l0.1,-0.8l0.3,-0.5l0.3,-0.4l1.5,-1.4l0.3,-0.4l0.2,-0.3l0.1,-0.4l-0.1,-1.2l0.1,-0.8l0.4,-1.5l0,-1.3l-0.6,-3.3l0.6,-0.2l0.2,0l1,0.1l0.8,-0.1l0.7,-0.3l1.3,-0.9l0.1,-0.2l0,-0.2l-0.2,-0.4l-0.3,-0.3l-0.4,-0.6l-0.3,-0.3l-0.3,-0.6l-0.3,-0.6l-0.2,-1l0,-0.4l0.2,-0.4l0.4,-0.1l0.3,-0.3l0.5,-0.3l0,-0.9l0.2,-0.2l0.1,-0.4l0,-0.2l-0.6,-1.6l0,-0.4l0.2,-0.8l0,-0.4l-0.2,-0.5l-1.3,-2.3l-0.5,-0.3l-0.4,-0.2l-0.4,-0.1l-0.3,0.1l-0.2,0l-0.6,0.5l-0.8,0.1l-1.1,0l-1.1,0.2l-1.1,0.1l-0.6,-0.3l-0.7,-0.5l-3.9,-4.7l-0.3,-0.5l-0.2,-0.8l0,-0.6l0.1,-0.4l0.1,-0.4l0,-0.3l0.2,-0.4l0.4,-0.7l0.2,-0.4l0.2,-0.8l0.2,-0.4l0.5,-0.6l0.2,-0.3l0.3,-0.3l0.3,-0.8l0.1,-0.3l0.2,-0.5l0.1,-0.3l0.1,-0.3l0.1,-0.4l0.1,-0.8l0,-0.3l0,-0.4l-0.1,-0.4l0.1,-0.9l0.1,-0.3l0.2,-0.4l-0.1,-0.4l-0.2,-0.5l-5.4,-1.7l-0.4,0l-0.3,0l-0.5,-0.2l-1.8,-1.2l-0.9,-0.3l-0.3,0l-0.3,0.1l-0.2,0.1l-0.3,-0.1l-0.3,0.1l-0.2,0l-0.1,-0.4l0,-0.3l-0.1,-0.3l0,-0.3l-0.2,-0.2l-0.3,-0.1l-0.1,-0.2l-0.1,-0.2l-0.3,-0.1l-0.2,-0.2l-0.1,-0.3l-0.1,-0.2l-0.6,-0.1l-0.2,-0.5l-0.2,-0.1l-0.2,-0.2l-0.1,-0.2l0,-0.3l0,-0.3l0.2,-0.4l0.3,-0.8l-0.1,-0.6l0.1,-0.2l0.2,-0.2l0.1,-0.1l0,-0.1l0,-0.1l-0.1,0l-0.1,-0.2l0,-0.5l0,-0.2l0,-0.3l0.1,-0.2l0.1,-0.3l0,-0.1l0,-0.1l-0.1,-0.2l-0.1,-0.1l0,-0.2l0,-0.2l0,-0.2l0.2,-0.5l0.2,-0.2l0.3,-0.2l0.5,-0.4l0.4,-0.6l1.5,-2.9l0.2,-0.3l0.9,-1l0.8,-0.6l0.3,-0.1l0.4,-0.1l0.3,0.1l0.7,0.3l0.4,0.2l0.3,0.1l0.8,0l0.3,-0.1l0.4,-0.1l0.3,-0.3l0.2,-0.3l0.2,-0.4l0,-0.5l-0.1,-0.8l-0.1,-0.4l0,-0.4l0.2,-0.5l0.9,-1.7l0.4,-0.6l0.3,-0.4l0.3,-0.9l0.7,-2.7l0.1,-0.8l0,-0.8l0.1,-0.9l0,-0.4l-0.1,-0.3l-0.2,-0.5l-0.1,-0.2l0.1,-0.3l0.3,-0.4l1.6,-0.7l0.5,-0.4l0.6,0.4l1,-0.3l0.3,0l0.8,-0.3l1,-0.2l1.4,0.1l0.7,-0.1l0.5,0.1l0.7,0.2l2,0.9l0.5,0.7l0.2,0.5l-0.1,0.4l-0.1,0.3l-0.1,0.4l0,0.4l0.1,0.3l0.2,0.3l0.1,0.3l0,0.4l-0.1,0.4l0.1,0.4l0.2,0.3l0.4,0.3l0.4,0.1l0.7,0l0.5,-0.2l2.3,-1.1l-0.3,-0.5l-0.4,-0.6l-0.4,-0.2l-0.2,-0.2l-0.4,-0.7l-0.1,-0.8l0,-0.3l-0.2,-0.3l0.1,-0.4l0.1,-0.8l0.2,-0.3l0.2,-0.4l1,-0.5l0.4,-0.1l0.5,-0.4l0.1,0l0.4,-0.5l0.2,-0.5l0.1,-0.8l0.2,-0.3l0.3,-0.1l0.3,0.1l0.7,0l1.5,-0.2l2.8,-1.5l0.1,-0.3l-0.2,-0.7l-0.1,-0.4l0.1,-0.4l0.2,-0.4l0.6,-0.7l0.6,-0.4l0.3,-0.5l0.2,-0.5l0.1,-0.8l0.2,-0.4l0.3,-0.5l0.1,-0.8l0,-0.3l0.1,-0.4l0,-0.7l0,-0.4l0.3,-0.3l0.4,0l0.3,0.2l0.4,0.2l0.6,0.2l0.2,0l0.3,-0.1l0.4,-0.1l0.3,-0.1l0.8,0l0.4,-0.1l1.4,-0.7l0.4,-0.3l0.2,-0.4l0.1,-0.6l0,-0.4l-0.1,-0.4l0.1,-0.3l0.8,-0.7l0.5,-0.5l0.7,-1l0.3,-0.4l1.6,-1.1l0.3,-0.3l0,-0.6l-0.1,-0.4l-0.3,-0.3l-0.5,-0.7l-0.2,-0.2l-0.7,-0.5l-0.2,-0.3l-0.1,-0.4l-0.1,-0.4l0.3,-0.4l0.4,-0.4l1.8,-0.7l0.2,-0.2l0,-0.4l-0.1,-0.3l-0.2,-0.6l0,-0.1l-0.6,-0.4l-0.1,-0.3l0,-0.3l0.1,-0.4l0.1,-0.3l0,-0.8l0,-0.4l-0.1,-0.4l-0.1,-0.7l0,-0.4l0.1,-0.4l0.1,-0.8l-0.3,-0.1l-0.3,0l-0.7,0.2l-0.3,0l-0.4,-0.1l-0.3,-0.2l-0.3,-0.1l-0.4,-0.1l-0.3,-0.2l-0.1,-0.3l0,-0.8l0,-0.4l-0.1,-0.4l0.1,-0.4l0.3,-0.3l0.5,-0.3l0.5,-0.1l0.6,0.1l0.7,0.5l0.3,0l0.5,-0.3l0.3,-0.3l2.1,-1.1l0.2,-0.3l0,-0.4l0,-0.4l0,-0.8l0.2,-0.8l0.2,-0.3l0.2,-0.4l0.8,-0.9l0.4,-0.2l0.7,0l0.6,0.2l0.4,0.3l0.3,0.3l0.6,0.6l1.8,1.2l1.1,0.2l2,-0.2l0.7,0.2l0.2,0.3l0.2,0.4l0,0.4l0,0.3l0.3,0.2l0.4,0l0.4,-0.3l0.3,-0.3l0.4,-0.3l0.3,-0.2l0.5,-0.1l0.6,-0.1l1.5,-0.1l1.1,-0.4zm-65.5,30.8l2.2,0.5l1.2,0.1l0.9,-0.2l0.7,-0.4l0.2,-0.3l0.1,-0.4l-0.2,-0.8l0.1,-0.5l0.3,-0.4l0.5,-0.4l0.2,0.1l0.2,0.2l0.2,0.8l0.4,0.7l0.2,0.3l0.2,0.4l0.3,0.2l0.3,0.2l0.2,0.2l0,0.2l0,0.3l0.2,0.3l0.3,0.3l0.8,0.4l2.5,0.3l1.1,0.7l1.3,1.1l0.5,0.6l0.1,0.3l0.1,0.4l-0.1,0.3l-0.3,0.4l-0.3,0.2l-1.9,1l-0.9,0.2l-0.7,0.2l-0.3,0.1l-0.8,0.1l-0.7,0.1l-0.4,0.1l-0.4,0.2l-0.6,-0.1l-1.1,-0.4l-2.6,-0.4l-0.4,0l-0.4,-0.1l-0.3,-0.3l-1.2,-3.4l-0.1,-0.6l-0.1,-0.4l-0.2,-0.3l-1,-0.5l-0.2,-0.3l-0.2,-0.3l0.1,-1z" id="ESVC"/>
   <path d="m539.1,438.7l0.6,3.3l0,1.3l-0.4,1.5l-0.1,0.8l0.1,1.2l-0.1,0.4l-0.2,0.3l-0.3,0.4l-1.5,1.4l-0.3,0.4l-0.3,0.5l-0.1,0.8l0.1,2.1l0.1,0.8l0.1,0.5l0.4,0.2l0.8,0.1l1.5,0.5l0.5,0.3l0.2,0.2l0.4,0.7l0.6,2.1l0,0.6l-0.2,0.9l-0.1,0.4l-0.3,1.6l-0.1,0.4l-0.3,0.7l-1.2,1.8l-0.2,0.6l-0.2,0.9l0.1,1l0.2,1l0.2,0.5l0.3,0.3l0.3,0.3l0.1,0.2l0.9,1.3l0.6,1.4l0.5,0.8l0.2,0.3l0.6,0.9l0.5,1l0.2,0.4l1.1,1.3l0.4,0.3l1.7,1.8l0.3,0.2l0.7,0.2l0.4,0.2l0.3,0.2l0.2,0.3l0.1,0.1l0.3,0l0.8,-0.1l0.2,2l-0.2,0.5l-1.1,-1.3l-1,2.7l-0.5,0.4l-0.9,0.3l-0.3,0.7l0.1,0.9l1.3,2.4l0.4,0.5l1.3,0.9l1,0.4l0.8,0.1l0.3,-0.6l0.7,0.5l0.3,0.5l-0.1,0.7l-0.6,0.4l-0.4,0.4l-0.3,0.2l-0.4,0l-0.3,-0.3l-0.4,0.3l-1.1,0.4l-0.7,0.1l-1.1,0.7l-1.6,0l-0.5,0.1l-0.5,0.2l-1,0.7l-0.4,-0.3l-1.6,-0.7l-1.3,-0.3l-2.6,-0.1l-0.7,0.1l-0.6,0.3l-0.5,0.3l-0.2,0.5l0.1,0.5l0.5,0.9l-1.3,-0.3l-1.2,-0.3l-0.3,-0.6l-0.2,-0.4l-0.8,-0.1l-1.2,-0.5l-0.6,-0.2l-0.6,0.6l-0.1,0.5l-1.2,0l-1.3,-0.2l-1.2,0.6l-0.7,0.4l-1.8,1.8l-0.6,0.4l-0.8,0.2l-0.3,0.1l-0.3,0.3l-0.3,0.2l-0.1,0.3l-0.1,0.2l-0.4,1.7l-0.1,0.3l-0.3,0.3l-0.3,-0.1l-0.2,-0.1l-0.3,-0.1l-0.3,0.3l-0.8,0.7l-0.4,0.1l-0.6,0.1l-2,0.9l-1,0.6l-3.6,-2.9l-0.4,-0.2l-2.1,-0.4l-0.2,0l-0.2,0.2l0,0.2l-0.1,0.2l-0.2,0l-0.3,-0.2l-0.3,-0.2l-0.5,-0.5l-6.1,-9.3l-0.3,-0.5l-0.2,-0.3l-0.1,-0.5l-0.1,-0.9l0.1,-0.4l0,-0.8l0,-0.4l0.2,-0.5l0.1,-0.7l0,-0.3l-0.1,-0.5l-0.2,-1.9l0.1,-0.3l0.3,-0.8l0,-0.3l0,-0.9l0.1,-0.4l0.2,-0.3l0.4,-0.6l0,-0.3l-0.3,-0.3l-3.8,-0.5l-1.4,-0.7l-0.5,-0.2l-1.9,0.1l-1.5,-1l-0.9,-0.5l-1.2,-1.4l-0.8,-1.3l-0.6,-1l0,-0.1l-0.3,-0.3l-1.4,-1.1l0.6,-1.8l0.2,-0.4l1.5,-1.7l1.2,-1.7l1.2,-2.4l0.4,-0.7l1.2,-1.1l0.5,-0.3l0.4,-0.2l0.8,-0.1l0.5,-0.3l1.7,-1.6l1.1,-1.2l0.6,-0.4l0.5,-0.1l0.3,0l0.3,0.2l0.7,0.7l0.2,0.1l0.4,0.1l1,-0.4l1.3,-0.3l0.7,-0.2l1,-0.5l1.5,-1.2l2.1,-1.3l0.1,-0.3l0,-0.3l0.1,-0.1l0.2,0l0.5,-0.1l0.3,-0.3l0.2,-0.1l0.4,-0.2l0.3,0l0.3,0.1l0.5,0.3l0.2,0.1l0.7,-0.1l0.2,0l0.2,0.2l0.2,0.2l0.2,0.2l0,0.2l0,0.3l-0.1,0.3l0,0.2l0,0.3l0.1,0.3l0.2,0.2l0.1,0.2l0.3,0.2l0.5,0.2l0.3,0.2l0.4,0l0.4,0l2.4,-0.8l3,-2.4l0.3,-0.4l0.2,-0.4l0.1,-0.3l0,-0.5l0,-0.4l-0.2,-1.2l0,-0.9l-0.1,-1.6l-0.1,-0.8l-0.2,-0.7l-0.2,-0.3l-0.1,-0.2l0,-0.3l0,-0.3l0,-0.3l0.2,-0.3l0.4,-0.9l0.4,-0.3l0.5,-0.4l0.2,-0.3l0.2,-0.4l0.1,-0.7l-0.1,-0.4l0.2,-0.8l0.6,-1.5l1.3,-1.5l0.7,-0.6l0.5,-0.3l0.4,0.1l0.2,0.2l0.2,0.3l0.3,0.2l0.4,0l2.3,-1.3l1,-1l0.4,-0.3l0.4,-0.2l2.4,-0.7l0.4,0.1l1.5,0.5l0.3,0.2l0.2,0.2l0.1,0.4l0,0.4l0.1,0.3l0.2,0.4l1.1,1l2.3,1.7zm11.6,46.6l-0.3,1.1l0,1.2l0.6,1.9l-0.8,-0.9l-0.2,-1.5l0,-1.7l-0.1,-1.5l0.2,0l0,0.1l0,0.1l0.1,0.2l0.1,0.2l0.2,0.5l0.2,0.3z" id="ESMC"/>
   <path d="m299.6,462.2l0.6,-0.5l5.5,1.8l0.2,0.4l0.1,0.4l-0.2,0.3l-0.2,0.3l-0.2,0.4l-0.2,0.6l-0.1,0.4l0.1,0.3l0.4,0.2l0.5,0.2l0.5,0.2l1.1,0.4l1.9,0l1,-0.1l1.3,0.1l0.6,0.1l0.5,0.2l0.6,0.5l0.8,1.1l0.1,0.3l0.1,0.4l-0.1,0.4l0.1,0.3l0.3,0.3l1.9,0.1l1,0.3l0.6,0l0.1,-0.2l0.1,-0.3l0.2,-0.2l0.6,-0.5l0.2,-0.3l0.2,-0.3l0.3,-0.2l0.3,-0.1l0.4,0l0.5,0.1l1.6,1.2l0.3,0.5l0.2,0.4l0,0.4l0.2,0.3l1,0.3l5.3,2.2l0.7,0.6l0.5,-0.5l1.3,-1l1,-0.5l3,-0.6l0.8,-0.1l1.7,-0.3l0.6,-0.2l0.4,-0.3l0.4,-0.5l0.2,-0.4l0.1,-0.3l0,-0.3l0.2,-0.3l0.7,-0.9l0.1,-0.3l0,-0.4l-0.2,-0.3l-0.2,-0.3l-0.1,-0.4l0,-0.3l0.1,-0.4l0.2,-0.4l0.2,-0.3l0.4,-0.4l1,-0.6l0.3,-0.2l0.3,-0.3l0.3,-0.6l0.3,-0.4l0.3,-0.2l1.3,-0.5l2.7,-0.4l0.5,0.1l0.5,0.5l0.7,0.7l0.1,0.3l0.1,0.3l-0.2,0.3l-0.6,0.4l-0.4,0.1l-0.3,0.2l-0.2,0.2l0,0.4l0,0.3l0.2,1.1l0.3,0.3l0.4,0l0.7,-0.1l0.9,-0.6l0.9,-0.9l0.3,-0.3l0.8,-0.5l1.7,0.1l1.7,-1.4l0.2,-0.3l0,-0.3l0,-0.4l0.2,-0.7l0.1,-0.4l0.3,-0.3l0.1,-0.7l0,-0.4l-0.1,-0.4l0,-0.4l-0.1,-0.4l0,-0.3l0,-0.4l-0.1,-0.2l-0.3,-0.7l-0.2,-0.3l-0.1,-0.3l-0.1,-0.2l-0.1,-0.6l-0.1,-0.2l-0.2,-0.3l-0.1,-0.2l-0.3,-0.2l-0.1,-0.2l-0.1,-0.2l0,-0.2l0,-0.5l0.1,-0.3l0.1,-0.6l0,-0.2l0,-0.3l-0.1,-0.2l-0.4,-0.4l-0.1,-0.3l0,-0.2l0,-0.3l0.3,-1.1l0.3,-0.3l0.5,-0.5l1.8,-1l0.6,-0.2l0.3,-0.2l0.5,-0.7l0.2,-0.4l0.6,-0.5l1.2,-0.8l0.3,-0.5l0.2,-0.4l0,-0.3l0.1,-0.3l0.2,-0.3l0.2,-0.3l0.4,-0.5l0.2,-0.3l0.7,-0.7l0.5,-0.1l0.9,0l0.5,0.2l0.2,-0.1l0.2,0l0.1,-0.3l0,-0.2l0.1,-0.2l0.1,-0.3l0.2,-0.2l0.2,-0.2l1.3,-1.2l1.9,-1.2l1.2,-0.4l0.1,-0.3l0.1,-0.2l0.2,-0.4l0.1,-0.5l-0.1,-0.4l-0.1,-0.4l0.1,-0.3l0.4,-0.2l3.2,-0.1l0.7,-0.3l1.1,-0.1l2.3,1.7l1.3,0.6l0.9,0l0.5,-0.1l1.2,0l0.4,0.2l0.1,0.4l0.1,0.8l0,0.4l0.1,0.8l0.2,0.5l0.5,0.5l0.8,0.6l0.6,0.2l0.5,0.1l0.8,0.1l0.5,0.1l1.7,0.8l0.5,0.3l0.3,0.4l0.1,0.3l0.8,0.5l0.7,0.2l1.4,1.2l0.4,0.4l0.2,0.5l0.3,0.4l0.3,0.3l0.4,0.1l0.4,0l0.5,0.2l0.5,0.4l0.6,0.3l1.1,0.9l1.1,1.2l0.8,1.1l0.4,0.5l0.4,0.2l1.8,0.9l1,0.3l0.6,0.1l2.6,1.1l0.4,0.1l0.6,-0.1l0.1,-1.9l0.1,-0.4l0.3,-0.3l0.3,-0.1l0.9,0l0.8,0.1l1.5,0.5l11.5,0.5l1.3,-0.2l0.8,-0.4l0.4,-0.8l0.3,-0.3l0.6,-0.5l0.6,-0.1l0.6,-0.1l0.5,0.1l0.3,0.2l0.7,0.2l0.4,-0.1l0.2,-0.1l0.4,0l1,0.4l0.8,0.1l2.1,0.6l0.5,-0.1l0.5,-0.1l0.3,-0.2l0.1,-0.3l0.2,-1.1l0.2,-0.4l0.4,-0.3l0.5,-0.1l0.4,0.1l0.2,0.3l0.2,0.3l0,0.4l0.1,0.3l0.2,0.4l0.3,0.1l1.3,0.4l0.7,0.1l0.5,0l0.5,-0.1l1,-0.4l1,-0.6l0.5,-0.7l0.2,-0.3l0.1,-0.3l0.1,-0.4l0.1,-0.4l0.3,-0.3l0.7,-0.4l0.9,-0.1l0.6,0l0.5,0.2l0.7,0.3l0.8,0.3l0.7,0.1l2.9,0.2l1.3,0.4l0.6,0l0.4,-0.2l0.6,-0.6l1.1,-0.7l0.4,0l0.3,0.2l0.3,0.3l0.9,1.3l0.6,0.7l0.3,0.2l0.2,-0.2l0.1,-0.3l0,-0.6l0.3,-0.3l0.8,-0.6l0.6,-0.3l0.6,-0.1l0.5,0l0.5,0.1l0.4,0.1l0.3,0.3l0.4,0.3l0.2,0l0.2,-0.1l0.1,-0.1l0.1,-0.1l0.2,-0.1l0.1,0l0,-0.1l0.1,-0.2l0.4,-0.3l0.2,-0.2l1.2,-0.6l0.2,-0.1l0.1,-0.1l0.1,0l0.6,-0.4l0.8,-0.7l0.1,-0.2l0.5,-0.4l1.5,0.9l1.8,0.8l0.7,-0.3l0.6,-0.2l0.6,-0.1l1.2,0.1l0.6,0.2l0.4,0.2l0.1,0.1l0,0.2l-0.2,0.6l0.1,0.7l0.1,0.4l0,0.7l-0.1,0.4l0,0.4l0.1,0.3l0.1,0.3l0.4,0.4l2.8,0.8l0.1,0.3l-0.1,0.7l0.1,0.4l0,0.4l0.2,0.4l0.1,0.7l0,0.8l0,0.5l0.1,0.5l0.2,0.5l1.3,0.8l0.3,0.5l0.1,0.4l0,0.3l-0.1,0.3l0,0.4l-0.1,0.3l-0.1,0.3l-0.2,0.3l-0.2,0.1l-0.1,0.2l0,0.2l0.2,0.7l0.1,0.4l-0.1,0.4l-2.5,3.3l-0.4,0.7l-0.2,0.3l-0.6,0.6l-0.5,0.7l3.3,1.6l4.3,1.2l0.4,0.1l0.5,-0.2l1.4,1.1l0.3,0.3l0,0.1l0.6,1l0.8,1.3l1.2,1.4l0.9,0.5l1.5,1l1.9,-0.1l0.5,0.2l1.4,0.7l3.8,0.5l0.3,0.3l0,0.3l-0.4,0.6l-0.2,0.3l-0.1,0.4l0,0.9l0,0.3l-0.3,0.8l-0.1,0.3l0.2,1.9l0.1,0.5l0,0.3l-0.1,0.7l-0.2,0.5l0,0.4l0,0.8l-0.1,0.4l0.1,0.9l0.1,0.5l0.2,0.3l0.3,0.5l6.1,9.3l0.5,0.5l0.3,0.2l0.3,0.2l0.2,0l0.1,-0.2l0,-0.2l0.2,-0.2l0.2,0l2.1,0.4l0.4,0.2l3.6,2.9l-0.1,0.6l-0.3,0.4l-0.8,-0.1l-0.3,0.4l-0.3,0.9l-0.5,1.1l-1.2,1.7l-2.4,2.4l-1,1.4l-0.7,2.1l-0.3,1.8l-0.5,1.3l-0.2,1.4l-1.2,3.1l-0.9,1.4l0,0.7l0.1,0.4l0.2,0.4l0,0.4l0,0.5l-0.2,0.3l-0.3,0.1l-0.9,0l-0.3,0.2l-0.5,0.5l-1.4,0.9l-0.6,0.7l-0.4,2.1l-0.5,0.6l-0.6,0.5l-0.6,0.7l-0.2,0.4l-0.2,1l-0.2,0.4l-0.4,0.2l-0.4,0.1l-0.4,0.2l-0.4,0.9l-0.7,0.5l-0.8,0.4l-0.8,0.1l-1.5,-0.5l-1.1,-1.2l-1,-1.3l-1.1,-1.2l-1.4,-0.9l-0.8,-0.3l-1,-0.1l-0.7,0.1l-1.3,0.7l-0.8,0.2l-0.4,-0.1l-1.1,-0.5l-0.5,-0.1l-3.2,0.6l-0.7,0.4l-0.8,1.9l-0.8,2.2l-1,1.1l-0.2,0.2l-0.5,0.4l-1,0.5l-1.4,0.2l-0.7,-0.3l-0.8,0.4l-1.1,-0.8l-0.8,-0.6l-0.7,-0.3l-0.4,0.1l-0.3,0.4l-0.4,0.2l-0.4,-0.3l-1.1,-1.5l-1.2,-0.8l-0.7,0l-2.2,0.7l-3.6,-0.6l-2.1,0.1l-1.2,0.1l-2.9,-0.5l-4.1,0.5l-0.6,0.4l-0.5,0.6l-0.8,0.6l-1.5,0.9l-2.5,0l-1.6,-1.3l-0.8,0.1l-0.6,0.3l-1.4,-0.7l-0.6,-0.8l-1.3,0.1l-1.3,0.1l-0.6,0.5l-2.1,0.2l-1.8,-0.5l-1.1,-0.4l-1.4,-0.5l-2.1,0.5l-2.9,0.8l-3.8,-1.1l-1,0.3l-1.2,0.9l-3.5,0.5l-1.1,0.1l-7.2,-0.5l-0.7,0.2l-0.5,0.4l-1.2,2l-0.2,0.4l-0.6,0.6l-0.4,0.8l-0.2,0.8l-1.1,2l-2.6,0.3l-1.1,2.2l-1.4,0.9l-0.4,0.2l-0.8,0.4l-1.7,0.4l-1.7,-0.1l-4.7,-0.6l-0.9,0l-0.4,0.1l-0.4,0.4l-2.9,2l-2.8,0.2l-1.8,1.2l-0.5,0.2l-1.5,0.1l-0.7,0.3l-0.5,0.3l-0.5,0.7l-1.1,2l0,0.4l-0.7,1.9l-0.4,0.7l-0.2,0.2l-0.3,0.3l-0.3,0.2l-0.7,0.3l0.1,0.4l0.1,0.4l-0.4,0.7l-1.3,2.5l-0.2,0.5l-0.2,2.3l-0.8,0l-0.3,-1.1l-0.7,-0.4l-0.9,-0.4l-0.8,0l-0.2,0.5l-0.3,0.4l-0.2,0.6l0,0.7l0.3,0.7l-0.2,0.4l0.1,0.7l0.2,0.5l0.1,0.4l-0.1,0.6l-0.3,0.3l-0.2,0.3l-0.9,0.3l-4,1.5l-0.6,0.4l-1.3,0.3l-0.7,-1.5l-1.7,-0.9l-0.7,-0.6l-0.9,0.4l-0.9,-0.3l-0.8,-0.5l-1.7,-0.5l-0.6,-0.6l-0.9,-1.2l-2.6,-2.6l-0.8,-0.5l-0.9,0l-1.8,0.3l-2.1,-0.6l-1.1,-1.4l-0.8,-1.7l-0.9,-1.5l-2.2,-1.2l-0.2,-0.7l-0.1,-0.8l-0.3,-0.9l-0.4,-0.9l-1.4,-1.6l-0.9,-2.2l-0.6,-1.5l-0.9,-1.7l-0.9,-0.8l-0.4,-0.4l0.5,-0.2l0.4,0.1l1.3,1.1l0.3,0.5l-0.2,0.4l0.3,0.5l0.6,0.7l0.5,-0.1l0.3,-0.3l0.5,-0.7l0.8,-1l-0.3,0l-0.8,0.3l-0.7,-0.1l-0.3,-0.8l0.2,-1.5l-0.3,-1l-2,-1.8l-0.4,-0.3l-2.7,-0.1l-0.8,-0.2l-0.6,-0.7l-0.5,-2l-0.4,-0.9l-0.6,-1l-0.2,-0.9l0.2,-0.9l0.7,-0.8l0.8,-0.4l1.5,-0.6l0.5,-0.4l0.4,-1.2l-0.3,-2.1l0.2,-1.2l1.4,-1.2l2.9,0.2l0.3,0.1l1.2,-1.6l-0.8,0.6l-1,0.4l-1,0l-0.8,-0.6l-1.7,0.6l-0.5,0.4l-0.3,0.2l-0.3,1.1l0.3,3l-0.3,0.6l-1.4,0l-1.1,-1.5l-1.4,-3.3l-0.9,-1.6l-1.1,-1.2l-9.9,-7.2l-1.1,-0.6l-0.9,-0.2l-0.7,-0.3l-1.7,-1.4l-0.8,-0.4l-0.8,-0.4l-0.7,-1.2l-0.3,-1.3l0.3,-0.6l0.5,-0.4l1.4,-2.1l0.4,-0.9l-2,2.3l-1.1,0.8l-1.3,0l0,0.3l0.9,1.4l0.4,0.8l0.1,0.6l-0.6,0.1l-3.5,-1.8l-1.3,-0.4l-1.6,-0.5l-1.1,0.4l1.2,0.2l0.5,0.3l-9.8,0.2l-0.6,0.3l-0.8,0.7l-0.7,0.1l-0.7,-0.3l-0.7,-0.3l-0.6,-2.3l-0.2,-1.1l0.3,-0.8l-0.4,-1.7l-0.3,-4l-0.7,-1.6l0.1,-0.6l-0.1,-1.1l-0.3,-1.2l-0.3,-1l-0.2,-0.3l-0.7,-0.6l-0.3,-0.3l-0.3,-0.5l-0.1,-0.1l0,-0.2l-0.1,-0.4l-0.2,-0.7l-0.1,0l-0.1,0l0,-0.6l0.1,-0.2l0.4,-0.5l0.1,-0.2l0.1,-0.3l0,-0.2l-0.1,-0.3l0.4,-0.3l1,-1.1l0.3,-0.4l0.2,-0.8l0.4,-2.5l0.5,-1.5l0.7,-1l3.8,-3.2l1.1,-2l0.4,-1.7l0.9,-2.4l0.2,-0.9l0,-0.5l-0.1,-0.5l0,-0.4l0.2,-0.3l1.3,-0.3l0.4,-0.3l0.6,0.1l0.5,0.1l0.5,0.1l0.5,-0.3l0.5,-0.1l0.3,-0.2l0.4,-0.6l0.4,-1.1l0.4,-0.4l0.7,0.1l2.3,1l1,-0.2l0.3,-1.2l0.4,-0.6l0.4,-1.6l0.7,-1.6l0.6,-1.7l0.3,-0.7l0.4,-1.5l-0.1,-0.1z" id="ESAN"/>
   <path d="m304.5,211.3l-0.2,-2.1l-0.1,-0.6l-0.4,-0.5l-0.9,-0.9l-0.4,-0.2l-0.7,0.1l-0.4,-0.1l-0.3,-0.1l-0.4,-0.3l-0.1,-0.2l-0.8,-1.2l-0.3,0l-0.1,0.1l0,1l0,0.2l-0.1,0.1l0,0.1l-0.2,0.1l-0.2,0.1l-0.4,-0.2l-0.3,-0.6l-0.2,-0.6l0.1,-0.6l0.3,-0.4l0.3,-0.1l0.3,-0.2l0.3,-0.4l0.1,-0.5l0.1,-0.4l0.1,-0.3l0.2,-0.3l0.2,-0.1l0.3,-0.1l0.4,0l0.4,0l1.4,-0.6l0.4,-0.2l1.5,-1.4l0.1,-0.5l-0.2,-0.6l-0.6,-1l-0.4,-0.6l-0.3,-0.3l-0.3,0l-0.3,0.2l-0.2,0.4l0,0.3l-0.2,0.3l-0.3,0.2l-0.4,0.2l-0.8,0.4l-0.6,0.3l-0.4,-0.1l-0.3,-0.2l-0.2,-0.3l-0.3,-0.4l-0.1,-0.4l0.1,-0.6l0.2,-0.8l0.1,-0.3l0,-0.3l-0.3,-0.2l-0.3,-0.1l-0.7,-0.3l-0.4,-0.6l-0.3,-0.1l-0.3,0l-0.9,-0.8l-0.3,-0.3l-0.2,-0.4l-0.3,-0.5l-0.3,-2.4l-0.3,-0.3l-0.3,-0.2l-0.4,-0.1l-0.5,-0.6l-0.3,-0.4l-0.2,-0.6l-0.2,-0.6l0,-0.5l0,-0.5l0,-0.4l-0.2,-0.3l-0.2,-0.2l-0.7,0l-0.6,-0.2l-0.1,-0.3l-0.1,-0.3l0.1,-1.1l0.1,-0.4l0.3,-0.3l0.5,-0.1l0.4,0l0.4,0.1l0.3,0l0.3,0l0.3,-0.2l0.4,-0.4l0.6,-0.9l1.2,-1.1l0.1,-0.1l0.1,-0.4l0.1,0.3l0.2,0l0.2,-0.9l0.2,-0.9l0.2,-0.8l0.6,-0.4l0.3,-1.3l2.3,-0.5l4,-0.2l0.6,0.2l2.4,-0.2l1.7,0.5l1,0.1l2.3,-1.2l2,0.2l2.1,0.8l1.5,0.8l0.4,-0.3l0.4,-0.1l1.1,0l-0.1,-0.3l-0.1,-0.6l-0.1,-0.3l0.6,0.1l0.9,0.6l0.6,0.1l2.1,-0.4l2.1,0l0.5,-0.1l1.1,-0.5l1,-0.2l0.2,-0.3l0.3,-0.3l0.6,-0.1l1.3,1l0.5,0.1l3.1,0.4l0.6,-0.4l0.7,0.4l0.6,-0.3l0.6,-0.5l0.6,-0.3l4.7,0l0.2,-0.5l-0.3,-0.4l-0.1,-0.5l0.5,-0.5l-0.1,-0.2l-0.1,-0.4l-0.1,-0.2l1.3,0l0.5,-0.2l0.2,-0.7l0.2,-0.6l0.7,0.1l1.3,0.6l0.9,0.8l2.2,2.6l0.7,1.2l0.3,0l0.2,-0.8l0.3,0.3l0.5,0.9l2.1,0.4l8.1,-0.4l1.3,0.4l0.1,0.7l-0.5,0.9l-0.7,0.7l0.2,0.4l0.5,-0.3l0.8,-0.3l0.4,-0.2l0.3,-0.4l0.1,-0.3l0.2,-0.3l0.6,-0.1l1.7,0.1l0.7,0.3l2.9,1.9l1.4,0.5l3.5,0.2l0.9,0.3l0.5,0.7l0.4,-0.3l2.9,0.8l0.3,-0.1l0.6,-0.5l0.4,-0.1l0.5,0.1l0.9,0.5l2.9,0.6l3.3,1.6l0.8,0.2l8.9,0.8l0,0.4l0,0.7l-0.3,0.7l-0.5,0.9l-0.1,0.4l0,0.3l0.2,0.2l0.4,1l0.1,0.8l-0.1,0.6l-0.1,0.4l-0.2,0.4l-0.3,0.2l-0.4,0.1l-0.2,-0.2l-0.2,-0.6l-0.3,-0.2l-0.7,-0.2l-0.5,0l-0.4,0l-0.6,0.4l-0.3,0.3l-0.1,0.3l-0.2,0.2l-0.4,0.2l-0.9,0.1l-0.4,0l-0.3,-0.1l-0.4,0l-0.5,0.1l-0.5,0.3l-0.2,0.3l-0.1,0.4l0.1,0.8l-0.1,0.4l0,0.3l0,0.5l-0.1,0.5l-0.3,0.6l-0.3,0.2l-0.4,0l-0.8,-0.1l-0.4,0.1l-0.4,0.1l-1.2,0.2l-0.4,-0.1l-1.2,-1.9l-0.8,-0.6l-0.3,-0.2l-0.4,0l-0.4,0l-2.2,1.2l-0.6,0.6l-1.3,0.7l-1.5,0.4l-0.7,0.4l-0.4,0.3l-0.4,0.8l-0.1,0.4l-0.1,0.4l-0.3,0.9l-0.3,0.5l-0.6,0.6l-0.5,0l-0.4,-0.1l-0.4,-0.2l-0.4,0l-2.1,1.1l-3.9,0.4l-2.1,-0.3l-0.5,0.1l-0.4,0.3l-0.3,1.1l-0.3,0.4l-0.4,0.2l-0.5,0.1l-2.2,0l-0.2,0.3l-0.1,0.4l-0.2,0.3l-0.2,0.3l-0.3,0l-0.7,0l-1,0.4l-0.4,0l-0.4,-0.1l-0.4,-0.2l-0.3,-0.3l-0.9,-0.1l-0.6,0l-0.9,-0.2l-1.1,-0.6l-0.6,-0.1l-1,0.1l-0.6,0.2l-0.4,0.2l-0.2,0.4l-0.2,0.3l-0.2,0.4l-0.3,0.3l-0.2,0.3l-0.1,0.3l0,0.2l0,0.1l-0.1,0.3l-0.2,0.3l-0.1,0.4l-0.4,0.4l-0.4,0.1l-0.7,0.1l-1.6,-0.1l-0.4,-0.1l-0.3,-0.2l-1.1,-0.4l-0.1,-0.3l-0.5,-0.1l-0.5,-0.4l-0.5,-0.4l-1,-0.6l-0.2,-0.3l-0.2,-0.4l-0.1,-0.4l-0.2,-0.8l-0.2,-0.3l-0.4,-0.3l-1.2,0.3l-0.5,0l-2,-0.4l-0.4,0.1l-0.1,0.3l-0.1,0.4l-0.1,0.5l-0.3,0.3l-0.8,0.4l-0.5,0.1l-0.5,-0.2l-1.1,-0.4l-1,-0.2l-0.5,0.1l-0.3,0.3l-0.1,0.8l-0.2,0.2l-0.3,0.1l-0.8,-0.2l-1.7,-0.9l-0.6,0l-0.8,-0.2l-0.3,-0.3l-0.4,-0.3l-0.7,-0.2l-1.1,0.5l-0.2,0.4l-0.2,0.4l-0.2,0.3l-0.2,0.4l-0.1,0.3l0,0.3l-0.1,0.2l-0.3,0.2l-0.9,0.3l-1.1,0l-0.2,0.2l-0.1,0.3l0.2,0.3l0.4,0.3l0.7,0.2l0.2,0.3l0,0.3l-0.2,0.4l-2.1,1.1l-0.6,0.1l-1.4,0.6l-0.4,0.1l-1.9,-0.2l-0.3,-0.2l-0.3,-0.1l-0.5,-0.1l-1.9,0l-0.8,0.1l-0.7,0.3l-0.4,0.2l-0.3,0.4l-0.3,0.3l-0.3,0.3l-0.5,0.3l-0.3,-0.1l-0.2,-0.5l-0.8,-0.4l-1.3,-0.2z" id="ESAS"/>
   <path d="m453.1,186.6l0,0.4l0,1.6l-0.2,0.5l-0.2,0.4l-1.8,0.9l-0.3,-0.1l-0.9,-0.3l-1.1,0.1l-2.5,-0.1l-0.5,0.2l-0.5,0.4l-3.4,2.5l-0.4,0.6l-0.1,0.5l0.1,0.3l0.1,0.5l0,0.4l-0.1,0.4l0,0.4l0.2,0.3l0.2,0.4l0.3,1.2l0,0.7l-1.1,0.1l-1.2,-0.2l-0.7,0.1l-0.8,-0.2l-1.1,-0.5l-1.1,-0.3l-1.2,-0.2l-0.4,-0.2l-0.6,-0.5l-0.4,-0.1l-0.4,0l-0.6,0.4l-0.8,0.9l-1,1.3l-0.6,0.6l-0.4,0.4l-0.8,0.5l-0.6,0.5l-0.4,0.2l-0.3,0l-1.2,-0.1l-0.4,0.1l-0.3,0.1l-0.3,0.2l0,0.5l0,0.5l-0.2,0.5l-0.5,0.5l-0.4,0.3l-0.6,0.2l-0.6,0.3l-0.9,1l-0.7,0.4l-0.4,0.2l-0.3,0.2l0,0.1l-0.4,0.7l-0.9,2.6l0,0.4l0,0.4l0.1,0.4l0.3,0.3l0.3,0.3l0.4,0.1l0.4,0l0.8,-0.2l1,-0.6l0.3,-0.3l0.4,-0.7l0.2,-0.3l0.3,-0.2l0.3,-0.1l0.4,0.2l0.3,0.2l0.3,0.4l0.2,0.3l0.1,0.4l-0.3,0.4l-1.2,0.8l-1.1,0.1l-0.1,0.2l0,0.3l-0.3,0.2l-0.1,0.3l0.2,0.6l0,0.4l0.2,0.3l0.2,0.3l0.4,0l0.3,-0.2l0.3,-0.6l0.3,-0.4l0.5,-0.2l0.4,0l0.4,0.2l0.1,0.4l0.1,0.4l-0.1,0.6l0.1,0.4l0.3,0.6l0.1,0.3l0,0.4l0,0.3l-0.2,0.4l-0.4,0.2l-1.4,0l-0.7,0.2l-1.4,1.3l-0.5,0.2l-0.8,0.3l-0.6,0.1l-1.4,-0.4l0.1,-0.9l-0.1,-0.4l0,-1.3l-0.1,-0.3l-0.1,-0.1l-0.3,0.2l-0.3,0.2l-1.1,2.5l-1.6,0.4l-0.4,-0.7l-0.2,-0.3l-0.4,-0.2l-0.4,-0.2l-1.1,-0.1l-0.4,-0.1l-0.8,-0.7l-0.3,-0.4l-0.1,-0.3l0.1,-0.3l0.3,-0.2l0.7,-0.2l0.4,0l0.3,-0.2l0.3,-0.3l0.1,-0.3l-0.1,-0.5l-0.2,-0.2l-0.4,-0.2l-1,0.3l-0.4,0.2l-0.5,0.5l-0.2,0.1l-0.3,-0.1l-0.3,-0.1l-0.2,-0.3l-0.1,-0.3l0,-0.2l0,-0.3l-0.1,-0.4l0,-0.4l-0.1,-0.4l0,-0.4l-0.1,-0.4l-0.2,-0.8l-0.1,-0.7l0,-0.4l0.1,-0.4l-0.1,-0.4l-0.6,-0.4l-4.1,-1.5l-0.6,-0.4l-0.2,-0.4l-0.1,-0.1l-0.1,-0.4l-0.8,-1.4l-0.4,-0.3l-1,-0.5l-0.5,-0.1l-0.6,0l-0.8,0.4l-0.4,0.2l-0.6,0l-0.5,0.1l-1.4,0.7l-0.5,0.1l-1.4,-0.1l-1.6,0.3l-2,0l-0.7,0.2l-0.8,0l-0.3,-1.4l-0.2,-0.4l-0.8,-0.8l-0.2,-0.5l-0.3,-0.4l-1.6,-0.9l-0.4,-0.3l-0.3,-0.4l-0.2,-0.9l-0.1,-0.6l0.2,-3l0.4,0.1l1.2,-0.2l0.4,-0.1l0.4,-0.1l0.8,0.1l0.4,0l0.3,-0.2l0.3,-0.6l0.1,-0.5l0,-0.5l0,-0.3l0.1,-0.4l-0.1,-0.8l0.1,-0.4l0.2,-0.3l0.5,-0.3l0.5,-0.1l0.4,0l0.3,0.1l0.4,0l0.9,-0.1l0.4,-0.2l0.2,-0.2l0.1,-0.3l0.3,-0.3l0.6,-0.4l0.4,0l0.5,0l0.7,0.2l0.3,0.2l0.2,0.6l0.2,0.2l0.4,-0.1l0.3,-0.2l0.2,-0.4l0.1,-0.4l0.1,-0.6l-0.1,-0.8l-0.4,-1l-0.2,-0.2l0,-0.3l0.1,-0.4l0.5,-0.9l0.3,-0.7l0,-0.7l0,-0.4l0.1,0l0.1,0.1l1.1,1l0.8,-0.8l1.2,-0.2l1.1,0.3l0.8,0.7l0.2,0l0.5,-0.7l0.3,-0.2l1.9,0.2l5,-0.5l1.2,-0.9l2.5,-0.8l1,-0.1l1.8,0l0.2,-0.2l0,-0.2l0.1,-0.3l0.3,-0.1l0.3,0.1l1,0.7l0.2,-0.3l0.2,-0.1l0.2,0l0.2,0l-0.1,-0.1l-0.4,-0.3l0,-0.4l1.4,-1l0.7,-0.3l0.6,0.2l0.5,-0.3l0.2,0l0.2,0.3l1.1,-0.7l1.3,-0.3l1.2,0.2l1.1,0.8l-1.8,0.8l-0.7,0.5l-0.6,0.6l0.5,0.5l0.2,0.2l0.2,0.1l-0.2,0l-0.1,0l0,0.1l0,0.2l0.4,0.1l0.4,-0.1l0.6,-0.3l0.3,-0.3l0.5,-0.8l0.2,-0.1l0.3,0.1l0.4,0.5l0.4,0.2l0.1,-0.3l-0.1,-0.5l-0.2,-0.5l-0.3,-0.2l0,-0.4l0.6,0.1l0.2,0.1l0.3,0.2l0.1,-0.3l0.2,-0.1l-0.3,-0.4l0.5,-0.2l1.1,-0.1l0.5,-0.3l0.4,-0.4l0.5,-0.2l3,-1l1.1,0.1l-0.1,1l0.7,0l0.5,0.4l0.5,0.5l0.3,0.2l2.8,0.5l0.2,0.2l0.2,0.3l0,0.3l-0.1,0.5l-0.1,0.1l-0.3,-0.1l-0.3,0.1l-0.2,-0.2l-0.4,-0.2l-0.3,-0.1l-0.2,0.3l-0.1,0.3l-0.4,0.3l-0.6,0.4l0.8,0.1l0.4,0.7l0.4,0.2l0.6,-1l0.4,0.6l0.6,0.1l1.2,-0.4l0.6,0.1l1.9,0.7l2.5,0.4l1.8,0.7l0.6,0.1l0.4,0.2l0.9,1.1l1.1,0.3zm-4.8,6.8l0.1,0.6l-1.3,0.6l-0.2,-0.3l0,-2.2l0.7,0.3l0.7,1z" id="ESCB"/>
   <path d="m642,437.5l1.6,-0.7l0.7,0.8l-0.1,1.2l-0.9,0.2l-1.4,0l-2,-1.3l-0.7,-0.4l-0.7,0.6l-0.4,0.3l-0.7,0.9l-0.6,0.4l-0.6,-0.2l0.2,-1l-0.2,-0.4l0,-0.5l0.2,-0.4l0.2,-0.5l0,-0.4l-0.2,-0.2l-0.2,-0.2l0.2,-0.3l0.5,-0.6l0.3,0.3l0.4,-0.2l0.4,-0.6l0.2,-0.8l0.1,0l0.1,0l0,0.2l0,0.1l2,2.8l1.6,0.9zm3.2,-21.5l-0.2,0.5l0.3,1l0.6,1.8l-0.7,0l-0.5,0.4l-0.3,0.7l-0.2,0.8l-0.2,0.3l-1.4,1l-1.3,1.9l-0.5,0.4l-1.1,0.6l-0.4,0.6l-0.2,-0.2l-0.2,-0.3l-0.2,-0.2l-0.6,0.9l-0.6,0.3l-0.4,1.7l-0.1,1.3l-1.3,0l-0.4,-1l-0.7,-0.6l-0.6,0.3l-0.3,0l-0.1,-0.1l-0.4,0.1l-0.3,-0.7l-0.7,-0.2l-0.7,0.2l-0.3,0.7l-1.2,-0.9l-0.5,-0.6l-0.2,-0.9l0.5,-1.2l0.1,-0.8l-0.3,-0.6l0.3,-0.4l0.4,-0.2l0.5,-0.1l0.4,0.3l0.3,-0.3l0.4,-0.1l1,0.1l-0.4,-2.2l0.1,-1.3l0.4,-0.5l0.6,-0.2l0.6,-0.5l1,-1.1l0.2,0l0.4,0.4l0.8,-0.7l0.4,0.3l0.8,-0.6l1.1,-0.6l1.2,-0.3l0.8,0.1l0.4,-0.5l0.6,-0.2l0.5,0l0.7,0.6l0.3,0.1l0.7,0l0.5,0.1l0.3,0.3l0.3,0.3zm70.7,-36.2l1.1,0.3l2.3,1.4l1.4,0.1l-0.2,0.5l0,0.5l0.1,0.4l0.1,0.4l-0.2,0.3l-0.2,0.2l-0.1,0.3l0.2,0.7l-0.5,1.4l-0.5,0.8l-0.5,0.3l-0.7,0.2l-0.4,0.6l-0.2,0.9l0.3,0.8l-1.6,1.5l-1.7,2l-1.3,2.6l-0.4,2.9l-0.4,-0.3l-0.1,-0.1l-0.7,2.2l-1.2,1.3l-3.7,2.3l-1.6,1.4l-0.3,0.5l-0.2,0.2l-0.3,0.2l-0.4,0.2l-0.2,-0.2l-1.1,-1.7l-0.2,-0.2l-0.7,-0.3l-0.2,-0.2l-0.2,-0.5l-0.1,-0.5l-0.1,-0.5l-0.3,-0.2l-0.4,-0.1l-0.6,-0.6l-0.4,-0.1l-0.5,0.1l-0.6,0.2l-0.4,0.1l-3.5,-0.3l-1.6,-0.6l-1,-1.3l-0.4,-2.8l-0.6,-0.4l0.1,-0.9l0.6,-1.2l-0.4,-1.1l-1.2,-1.1l-1.3,-0.8l-1.1,-0.3l-0.9,0.3l-2.6,1.4l-0.5,0.6l-0.5,1.5l-1,1l-1.1,0.2l-0.7,-1.4l-0.1,-0.1l-0.1,-0.4l0.1,-0.3l0.4,-0.3l-1.1,-1.1l-0.4,0.5l-0.3,0.2l-0.2,-0.2l-0.3,-0.5l-1.1,0.7l-0.2,0.1l-0.4,-0.3l-0.4,-1l-0.7,-0.6l-0.2,-0.9l0,-1.1l0.3,-0.8l2.9,-1.8l0.8,-0.2l0.8,-0.5l1.9,-2.1l0.6,-0.3l0.9,-0.1l0.6,-0.3l0.7,-0.5l1.3,-1.4l0.2,-0.3l0.2,-0.6l0.1,-0.2l0.2,0l0.5,0.1l0.2,-0.1l0.9,-1l0.2,-0.2l0.2,-0.1l0.8,-1l0.2,-0.2l0.3,-0.1l1.2,-0.6l0.6,-0.5l0.5,-0.5l0.4,-0.3l0.6,-0.2l0.2,-0.1l0.2,-0.5l0.2,-0.1l0.8,0.1l0.4,-0.1l1.2,-0.5l2.4,-1.7l1.3,-0.3l2.3,-0.2l2.2,-0.6l4.2,-1.7l0.5,0.7l0.2,-0.2l0.2,-0.1l0.5,0.3l-0.4,0.3l-1.5,0.7l-0.5,0.1l-0.6,0.3l-0.5,0.6l-0.5,0.4l-0.5,-0.2l-0.3,0l0,1.7l1.4,0.2l3.1,-0.8l0,0.3l-0.4,0.3l-0.1,0.3l0.1,0.4l-0.2,0.4l-0.2,0.3l-0.2,0.2l-0.7,0.2l-1.3,0.4l-0.3,0.4l0,1.1l0.4,1.1l1.1,1.1l1.3,0.7l1.2,0.3l2.7,0l0.8,-0.3l1.2,-1.2l0.6,-0.3zm38.3,-7.4l0.1,0.7l0.9,1.5l0.3,0.8l-0.2,0l-0.2,-0.3l-0.3,-0.3l-0.3,-0.3l-0.3,-0.2l-0.2,3.5l-2,0.3l-2.9,-1.4l-6.6,-4.4l-1.3,-0.5l-1.6,0l-3,0.6l-1.5,-0.6l0.2,-0.6l0,-0.8l0.1,-0.7l0.5,-0.4l-0.3,-0.3l-0.9,-0.3l-0.3,-0.3l-0.4,-0.7l0,-0.2l0.1,-0.3l0.1,-0.6l0.5,-0.7l2.8,-0.6l1,0.4l3.9,-0.4l1.6,0.1l0.5,-0.1l0.6,-0.3l0.6,-0.5l0.5,-0.3l0.1,0.7l0.3,0.4l0.9,0.7l0,0.2l-0.1,0.3l0,0.4l0.3,0.2l0.2,-0.1l0.3,-0.4l0.4,-0.6l-0.1,-0.8l0.3,-0.2l0.3,0.3l-0.2,0.7l0.2,0.4l1.2,0.7l0.2,0.4l0.2,0.3l0.4,0.4l0.2,0.1l0.6,0.1l0.3,0.2l0.4,0.5l0.4,0.9l-0.1,0.8l-0.7,0.3l0.6,0.3l0.7,-0.1l0.5,0.2l0.2,0.9zm-53.3,39.7l-0.1,1.4l-0.8,1.2l-1.3,-0.1l-0.7,-1.7l1.1,-1.1l1.6,-0.7l0.2,1z" id="ESIB"/>
   <path d="m533.4,367.8l0.7,2.1l-0.5,0.4l-1.6,0.7l-0.3,0.4l-0.1,0.3l0.1,0.2l0.2,0.5l0.1,0.3l0,0.4l-0.1,0.9l0,0.8l-0.1,0.8l-0.7,2.7l-0.3,0.9l-0.3,0.4l-0.4,0.6l-0.9,1.7l-0.2,0.5l0,0.4l0.1,0.4l0.1,0.8l0,0.5l-0.2,0.4l-0.2,0.3l-0.3,0.3l-0.4,0.1l-0.3,0.1l-0.8,0l-0.3,-0.1l-0.4,-0.2l-0.7,-0.3l-0.3,-0.1l-0.4,0.1l-0.3,0.1l-0.8,0.6l-0.9,1l-0.2,0.3l-1.5,2.9l-0.4,0.6l-0.5,0.4l-0.3,0.2l-0.2,0.2l-0.2,0.5l0,0.2l0,0.2l0,0.2l0.1,0.1l0.1,0.2l0,0.1l0,0.1l-0.1,0.3l-0.1,0.2l0,0.3l0,0.2l0,0.5l0.1,0.2l0.1,0l0,0.1l0,0.1l-0.1,0.1l-0.2,0.2l-0.1,0.2l0.1,0.6l-0.3,0.8l-0.2,0.4l0,0.3l0,0.3l0.1,0.2l0.2,0.2l0.2,0.1l0.2,0.5l0.6,0.1l0.1,0.2l0.1,0.3l0.2,0.2l0.3,0.1l0.1,0.2l0.1,0.2l0.3,0.1l0.2,0.2l0,0.3l0.1,0.3l0,0.3l0.1,0.4l0.2,0l0.3,-0.1l0.3,0.1l0.2,-0.1l0.3,-0.1l0.3,0l0.9,0.3l1.8,1.2l0.5,0.2l0.3,0l0.4,0l5.4,1.7l0.2,0.5l0.1,0.4l-0.2,0.4l-0.1,0.3l-0.1,0.9l0.1,0.4l0,0.4l0,0.3l-0.1,0.8l-0.1,0.4l-0.1,0.3l-0.1,0.3l-0.2,0.5l-0.1,0.3l-0.3,0.8l-0.3,0.3l-0.2,0.3l-0.5,0.6l-0.2,0.4l-0.2,0.8l-0.2,0.4l-0.4,0.7l-0.2,0.4l0,0.3l-0.1,0.4l-0.1,0.4l0,0.6l0.2,0.8l0.3,0.5l3.9,4.7l0.7,0.5l0.6,0.3l1.1,-0.1l1.1,-0.2l1.1,0l0.8,-0.1l0.6,-0.5l0.2,0l0.3,-0.1l0.4,0.1l0.4,0.2l0.5,0.3l1.3,2.3l0.2,0.5l0,0.4l-0.2,0.8l0,0.4l0.6,1.6l0,0.2l-0.1,0.4l-0.2,0.2l0,0.9l-0.5,0.3l-0.3,0.3l-0.4,0.1l-0.2,0.4l0,0.4l0.2,1l0.3,0.6l0.3,0.6l0.3,0.3l0.4,0.6l0.3,0.3l0.2,0.4l0,0.2l-0.1,0.2l-1.3,0.9l-0.7,0.3l-0.8,0.1l-1,-0.1l-0.2,0l-0.6,0.2l-2.3,-1.7l-1.1,-1l-0.2,-0.4l-0.1,-0.3l0,-0.4l-0.1,-0.4l-0.2,-0.2l-0.3,-0.2l-1.5,-0.5l-0.4,-0.1l-2.4,0.7l-0.4,0.2l-0.4,0.3l-1,1l-2.3,1.3l-0.4,0l-0.3,-0.2l-0.2,-0.3l-0.2,-0.2l-0.4,-0.1l-0.5,0.3l-0.7,0.6l-1.3,1.5l-0.6,1.5l-0.2,0.8l0.1,0.4l-0.1,0.7l-0.2,0.4l-0.2,0.3l-0.5,0.4l-0.4,0.3l-0.4,0.9l-0.2,0.3l0,0.3l0,0.3l0,0.3l0.1,0.2l0.2,0.3l0.2,0.7l0.1,0.8l0.1,1.6l0,0.9l0.2,1.2l0,0.4l0,0.5l-0.1,0.3l-0.2,0.4l-0.3,0.4l-3,2.4l-2.4,0.8l-0.4,0l-0.4,0l-0.3,-0.2l-0.5,-0.2l-0.3,-0.2l-0.1,-0.2l-0.2,-0.2l-0.1,-0.3l0,-0.3l0,-0.2l0.1,-0.3l0,-0.3l0,-0.2l-0.2,-0.2l-0.2,-0.2l-0.2,-0.2l-0.2,0l-0.7,0.1l-0.2,-0.1l-0.5,-0.3l-0.3,-0.1l-0.3,0l-0.4,0.2l-0.2,0.1l-0.3,0.3l-0.5,0.1l-0.2,0l-0.1,0.1l0,0.3l-0.1,0.3l-2.1,1.3l-1.5,1.2l-1,0.5l-0.7,0.2l-1.3,0.3l-1,0.4l-0.4,-0.1l-0.2,-0.1l-0.7,-0.7l-0.3,-0.2l-0.3,0l-0.5,0.1l-0.6,0.4l-1.1,1.2l-1.7,1.6l-0.5,0.3l-0.8,0.1l-0.4,0.2l-0.5,0.3l-1.2,1.1l-0.4,0.7l-1.2,2.4l-1.2,1.7l-1.5,1.7l-0.2,0.4l-0.6,1.8l-0.5,0.2l-0.4,-0.1l-4.3,-1.2l-3.3,-1.6l0.5,-0.7l0.6,-0.6l0.2,-0.3l0.4,-0.7l2.5,-3.3l0.1,-0.4l-0.1,-0.4l-0.2,-0.7l0,-0.2l0.1,-0.2l0.2,-0.1l0.2,-0.3l0.1,-0.3l0.1,-0.3l0,-0.4l0.1,-0.3l0,-0.3l-0.1,-0.4l-0.3,-0.5l-1.3,-0.8l-0.2,-0.5l-0.1,-0.5l0,-0.5l0,-0.8l-0.1,-0.7l-0.2,-0.4l0,-0.4l-0.1,-0.4l0.1,-0.7l-0.1,-0.3l-2.8,-0.8l-0.4,-0.4l-0.1,-0.3l-0.1,-0.3l0,-0.4l0.1,-0.4l0,-0.7l-0.1,-0.4l-0.1,-0.7l0.2,-0.6l0,-0.2l-0.1,-0.1l-0.4,-0.2l-0.6,-0.2l-1.2,-0.1l-0.6,0.1l-0.6,0.2l-0.7,0.3l-1.8,-0.8l-1.5,-0.9l-0.5,0.4l-0.1,0.2l-0.8,0.7l-0.6,0.4l-0.1,0l-0.1,0.1l-0.2,0.1l-1.2,0.6l-0.2,0.2l-0.4,0.3l-0.1,0.2l0,0.1l-0.1,0l-0.2,0.1l-0.1,0.1l-0.1,0.1l-0.2,0.1l-0.2,0l-0.4,-0.3l-0.3,-0.3l-0.4,-0.1l-0.5,-0.1l-0.5,0l-0.6,0.1l-0.6,0.3l-0.8,0.6l-0.3,0.3l0,0.6l-0.1,0.3l-0.2,0.2l-0.3,-0.2l-0.6,-0.7l-0.9,-1.3l-0.3,-0.3l-0.3,-0.2l-0.4,0l-1.1,0.7l-0.6,0.6l-0.4,0.2l-0.6,0l-1.3,-0.4l-2.9,-0.2l-0.7,-0.1l-0.8,-0.3l-0.7,-0.3l-0.5,-0.2l-0.6,0l-0.9,0.1l-0.7,0.4l-0.3,0.3l-0.1,0.4l-0.1,0.4l-0.1,0.3l-0.2,0.3l-0.5,0.7l-1,0.6l-1,0.4l-0.5,0.1l-0.5,0l-0.7,-0.1l-1.3,-0.4l-0.3,-0.1l-0.2,-0.4l-0.1,-0.3l0,-0.4l-0.2,-0.3l-0.2,-0.3l-0.4,-0.1l-0.5,0.1l-0.4,0.3l-0.2,0.4l-0.2,1.1l-0.1,0.3l-0.3,0.2l-0.5,0.1l-0.5,0.1l-2.1,-0.6l-0.8,-0.1l-1,-0.4l-0.4,0l-0.2,0.1l-0.4,0.1l-0.7,-0.2l-0.3,-0.2l-0.5,-0.1l-0.6,0.1l-0.6,0.1l-0.6,0.5l-0.3,0.3l-0.4,0.8l-0.8,0.4l-1.3,0.2l-11.5,-0.5l-1.5,-0.5l-0.8,-0.1l-0.9,0l-0.3,0.1l-0.3,0.3l-0.1,0.4l-0.1,1.9l-0.6,0.1l-0.4,-0.1l-2.6,-1.1l-0.6,-0.1l-1,-0.3l-1.8,-0.9l-0.4,-0.2l-0.4,-0.5l-0.8,-1.1l-1.1,-1.2l-1.1,-0.9l-0.6,-0.3l-0.5,-0.4l-0.5,-0.2l-0.4,0l-0.4,-0.1l-0.3,-0.3l-0.3,-0.4l-0.2,-0.5l-0.4,-0.4l-1.4,-1.2l-0.7,-0.2l-0.8,-0.5l-0.1,-0.3l-0.3,-0.4l-0.5,-0.3l-1.7,-0.8l-0.5,-0.1l-0.8,-0.1l-0.5,-0.1l-0.6,-0.2l-0.8,-0.6l-0.5,-0.5l-0.2,-0.5l-0.1,-0.8l0,-0.4l-0.1,-0.8l-0.1,-0.4l-0.4,-0.2l-1.2,0l-0.5,0.1l-0.9,0l-1.3,-0.6l-2.3,-1.7l0.6,-0.3l0.5,-0.1l0.2,0l0.2,0l0.3,-0.2l0.4,-0.5l0.4,-1l1,-3.7l0.2,-0.5l0.6,-1.1l0.3,-0.3l0.3,-0.3l0.3,-0.2l0.4,-0.1l0.4,-0.1l1.1,0.2l0.3,0l0.2,-0.3l0.2,-1.2l0.2,-0.7l-0.2,-0.6l-0.2,-0.3l-1.1,-0.2l-0.3,-0.1l-1.4,-0.4l-0.2,-0.3l-0.2,-0.3l-0.1,-0.4l-0.1,-0.3l0,-0.4l0,-0.4l-0.1,0l-0.1,-0.1l-0.2,-0.2l-0.2,-0.2l-0.1,-0.4l0,-0.4l-0.2,-0.4l-0.1,-0.3l0,-0.4l0.3,-0.3l0.4,-0.1l0.3,0.1l0.4,0.1l1,0.6l0.7,0.3l0.4,-0.1l0.4,-0.1l0.9,-0.6l0.2,-0.3l-0.1,-0.5l-0.3,-0.3l-0.7,-0.4l-0.2,-0.3l-0.2,-0.5l0,-0.7l0.5,-2.2l0.2,-0.6l0.1,-0.3l0.3,-0.3l0.6,-0.6l0.2,-0.3l0.3,-0.3l0.3,-0.3l0.3,0l0.7,0.2l0.4,0l0.4,0l0.7,-0.2l0.7,0.2l0.3,0.1l0.3,0.2l1.4,0.7l0.2,0.1l0.6,0l-0.5,-0.9l-1.2,-1.4l-0.4,-0.4l-0.3,-0.3l0,-0.2l-0.7,-1.3l-0.8,-1.9l-0.1,-0.5l0,-0.5l0.3,-0.4l0.3,-0.2l0.5,-0.1l0.4,-0.3l0.3,-0.5l0.6,-1.7l0.6,-1.2l0.2,-0.9l-0.6,-1.7l-0.5,0.6l-2,1.1l-0.5,0.7l-0.5,0.2l-1.4,0.4l-0.9,0.5l-0.3,0.1l-0.3,0.1l-0.2,0.1l-1,0.6l-2.6,-1.3l-0.5,-0.5l-0.4,-0.3l-0.2,-0.2l-0.5,-0.6l-0.4,-0.6l-1.2,-1.4l-0.6,-1l-0.3,-0.2l-0.7,-0.1l-0.6,-0.4l-0.3,-0.4l-0.6,-0.5l-0.9,-0.9l-1.5,-2l-0.3,-0.2l-0.6,-0.4l-0.3,-0.3l-0.3,-0.3l-0.1,-0.3l0.1,-0.3l0.4,-0.6l0.2,-0.4l0.3,-0.3l0.1,-0.4l0.5,-0.6l0.1,-0.3l0.1,-0.4l0.1,-0.3l0.1,-1.2l0.2,-0.7l0.1,-0.3l0.1,-0.4l-0.1,-0.5l-0.3,-0.4l-0.5,-0.7l-0.1,-0.3l0.2,-0.8l0,-0.5l-0.2,-0.7l-0.1,-0.4l-0.3,-0.2l-0.3,0l-0.8,0.1l-0.3,0.1l-0.8,0.7l-0.3,0.5l-0.5,0.7l-0.2,0.2l-0.3,0.1l-0.5,-0.1l-1.4,-0.3l-0.2,-0.2l-0.1,-0.5l0.1,-1.1l0.1,-0.5l0,-0.6l0.1,-0.7l0.2,-0.4l0.5,-0.7l0.1,-0.3l0,-0.4l-0.2,-0.3l-0.2,-0.3l-0.3,-0.3l-0.3,-0.3l-0.3,-0.1l-0.4,-0.1l-1.1,0.1l-0.8,0.1l-0.3,0.2l-0.2,-0.7l0,-1.4l0.6,-3.9l0.3,-2.8l-0.1,-0.5l0,-0.6l0.2,-1.3l0.2,-0.4l0.1,-0.2l1.2,-0.6l4,0.5l1.1,0.5l0.5,0.4l0.9,0l0.7,-0.1l0.4,-0.2l0.2,-0.2l0.2,-0.2l1.6,-1.2l0.2,-0.3l0.3,-0.4l0.3,-0.3l0.5,-0.2l1.1,-0.3l0.4,-0.1l0.3,0.3l0.2,1.5l0.2,0.2l0.6,0.2l0.9,-0.2l0.6,-0.3l0.9,-0.6l0.3,-0.3l0.2,-0.3l0.1,-0.4l0.1,-0.4l0.4,-0.7l0.4,-0.3l0.7,-0.5l0.4,-0.4l0.9,-0.5l0.7,-0.6l0.4,-0.6l0.1,-0.5l0.1,-0.4l0.2,-0.8l0.2,-0.2l0.9,0l1.9,-0.3l0.8,-0.3l0.5,0.1l0.2,0.3l-0.1,0.4l0.1,0.4l0.1,0.3l0.2,1.3l0.1,0.4l0.2,0.3l0.3,0.2l0.8,0.4l0.5,0.1l0.6,0l0.9,-0.3l1.3,-0.5l0.9,0.6l0.6,0.2l0.5,-0.1l0.4,-0.2l0.2,-0.3l0.4,-0.4l0.5,-0.3l1.2,-0.5l0.6,-0.4l0.4,-0.4l0.2,-0.5l1.2,-1.2l0.3,-0.4l0.2,-0.4l0.5,-0.8l0.2,0l0.2,0l0.3,0.2l0.1,0.4l0.1,0.3l-0.1,0.8l0,0.4l0.1,0.3l0.3,0.8l0.3,0.3l0.3,0.3l0.6,0.2l0.6,0.7l0.2,0l0.2,-0.1l0.5,-0.5l0.3,-0.3l0.3,-0.5l0.3,-0.6l0.3,-0.3l0.4,-0.3l1,-0.2l1,-0.6l0.4,0l0.3,0.3l0.3,0.3l1.1,1.1l0.6,0.2l0.8,0.2l0.5,-0.2l0.4,-0.3l0.4,-0.3l0.3,0.1l0.9,0.3l0.4,0.3l0.3,0.3l0.2,0.4l0.2,0.3l0.4,0.3l0.5,0.3l2.2,0.7l1.2,0.6l2,0.5l0.2,0.1l0.2,0.2l0.2,0.3l0.4,0.4l0.4,0l0.7,-0.2l0.3,0.1l0.3,0.2l0.6,0.9l0.3,0.2l0.2,0.2l0.5,0.1l1,-0.2l0.6,0.1l0.6,0.2l0.8,0.1l1.9,0.9l0.4,0.4l0.2,0.3l0,0.2l0,0.5l-0.1,0.3l-0.3,1.1l-0.1,0.2l-0.4,0.5l0,0.2l-0.2,0.2l-0.5,0.3l-0.3,0.1l-0.5,0.3l-1.9,2l-0.7,0.5l-0.7,0.3l-0.2,0.1l-0.7,0.8l-0.2,0.2l-0.5,0l-2.5,0.8l-0.5,0.3l-0.3,0.3l0.1,0.4l0.5,0.4l1.3,0.8l0.6,0.1l0.5,-0.1l0.3,-0.4l0.7,-0.5l0.3,-0.1l0.6,-0.6l0.4,-0.4l0.2,-0.3l0.3,-0.1l0.5,-0.2l0.7,0l0.5,-0.2l0.7,-0.5l0.9,-0.3l0.4,-0.2l0.1,-0.3l-0.1,-0.7l0.2,-0.2l0.6,-0.3l0.8,-0.2l0.3,-0.3l0.3,-0.2l0.3,-0.1l1.6,-0.4l0.4,-0.2l0.2,-0.3l0.2,-0.6l0.6,-0.4l3.8,0.1l1.4,-0.6l0.8,0.6l0.4,0.1l0.5,-0.2l1.7,-0.3l2.5,-1.3l1.6,-0.5l0.7,0.4l0.2,0.2l0,0.5l2.1,-0.1l0.8,-0.2l0.6,-0.5l0.4,-0.5l0.2,-0.4l0,-0.3l-0.1,-0.4l-0.2,-0.3l-0.2,-0.3l-0.2,-0.4l-0.1,-0.4l-0.1,-0.4l-0.1,-0.4l0.2,-0.2l0.1,-0.1l0.3,0.1l-0.4,-2.1l0,-1.1l0,-0.5l-0.1,-0.6l-0.4,-1l-0.3,-0.6l-0.5,-0.4l-0.4,0.1l-1,0.8l-0.3,0.3l-0.3,0.3l-0.3,0.3l-0.3,0l-0.3,-0.4l-0.1,-0.7l0.1,-0.6l0.1,-0.5l0.1,-0.4l0.1,-0.5l0.1,-0.6l0.2,-0.4l0.6,-0.6l0.2,-0.3l0,-0.2l0.1,-0.3l0.1,-0.5l0.2,-0.2l0,-0.3l0,-0.2l0,-0.5l0,-0.2l0.1,-0.2l0.1,-0.5l-0.2,-0.5l-0.6,-1.1l-0.5,-0.4l-0.4,-0.2l-0.4,-0.1l-0.3,-0.2l-0.1,-0.4l0,-1.5l-0.1,-1.1l0,-0.2l0,-0.2l-0.1,-0.3l-0.9,-0.9l-0.3,-0.2l-0.3,-0.3l-0.3,-0.1l-0.3,-0.1l-0.3,0.1l-0.3,0.1l-0.2,0.2l-0.3,0.1l-0.2,0l-0.2,-0.1l-0.1,-0.2l0.1,-0.2l0.1,-0.2l0.1,-0.1l0,-0.3l-0.1,-0.4l-0.1,-0.4l-0.5,-0.5l-0.4,-0.2l-0.2,-0.4l-0.2,-0.4l0.1,-1.5l0.2,-1.1l-0.3,-0.1l-0.2,0.1l-0.3,0.1l-0.3,0l-0.4,-0.3l-0.5,-0.5l-0.5,-1l-0.4,-0.5l-0.3,0l-0.1,0.3l-0.2,0.2l-0.6,0l-0.6,0.1l-0.3,-0.1l-0.3,-0.3l-0.2,-0.3l-0.2,-0.3l0.2,-0.5l0.5,-0.7l0.1,-0.3l0,-0.4l-0.1,-0.4l-0.1,-0.7l-0.1,-0.6l-0.2,-0.5l-0.3,-0.4l-1.2,-0.3l-0.3,-0.2l-0.1,-0.2l0,-0.2l0.2,-0.2l0.1,-0.2l0.3,-0.5l0.2,-0.5l0,-0.4l0.3,-1.5l0.1,-0.3l0.1,-0.2l0.2,-0.1l0.2,-0.1l0.2,-0.2l0.2,-0.3l0,-0.6l-0.2,-0.4l0,-0.4l0.2,-0.4l0.1,-0.5l0.2,-0.4l0.1,-0.4l0.4,-1.2l0.1,-0.4l0.2,-0.4l0.3,-0.7l0.1,-0.5l0,-0.8l-0.6,-1.6l-0.5,-1.8l-0.4,-0.2l-0.3,-0.1l-0.9,-0.5l-0.3,-0.2l-0.4,-0.4l-0.4,-0.7l-1.5,-1.5l-0.2,-1l0.7,0.1l0.4,-0.1l3.1,-2.4l0.9,-0.2l0.3,-0.2l0.1,-0.4l0.1,-0.8l0,-0.4l-0.2,-0.3l-0.2,-0.4l-0.1,-0.2l0.1,-0.2l1.1,0.5l2,0.1l2,-0.4l0.4,-0.3l1.3,0l1.2,-1.4l0.8,-0.5l4.7,1.1l1.4,0l2.7,-0.3l0.9,-0.2l0.6,-0.4l0.1,-0.4l0.3,-0.3l0.2,-0.3l0.3,-0.2l0.5,-0.1l0.5,0.1l0.7,0.3l0.2,0.4l0.1,0.4l0.1,0.4l0.3,0.7l0.3,0.4l0.5,0.2l1.5,0.5l1,-0.1l0.4,-0.2l0.4,-0.3l0.4,-0.2l0.4,0l0.5,0.1l0.4,0.3l0.2,0.4l0.2,0.4l0.4,0.2l0.8,0.2l1,0.2l0.6,0.3l0.3,0.4l0.3,0.3l0.3,0.1l0.3,-0.1l0.4,0l0.3,0l0.3,0.3l-0.1,0.3l-0.2,0.4l-0.6,0.4l-0.1,0.2l0.3,0.3l0.7,0.4l0.2,0.4l0,0.3l-0.3,0.6l0.1,0.3l0.3,0.2l0.4,0l0.7,-0.3l0.4,-0.2l0.4,-0.1l0.3,0.2l0.2,0.4l0.2,0.3l0.1,0.4l0.1,0.3l0.1,0.1l0.2,0.2l0.5,0.2l0.3,0.2l0.2,0.3l0.2,0.8l0.2,0.4l0.3,0.3l0.4,0.3l1.1,0.5l0.5,0l1.3,-0.7l0.5,-0.1l0.5,0.1l0.3,0.3l0.7,0.4l0.6,0.1l1,-0.2l0.6,-0.2l0.5,-0.3l0.5,-0.4l0.5,-0.3l0.7,-0.1l0.9,0.2l0.4,-0.1l0.4,-0.1l1.3,-1.2l0.3,-0.2l0.3,0.1l0.3,0.2l0.3,0.3l1,0.6l0.2,0.3l0.2,0.3l0.3,0.3l0.3,0.1l0.3,-0.2l0,-0.3l-0.1,-0.3l0,-1l0.3,-1.4l0,-0.8l3.3,-1l1.1,0.3l0.2,0.4l0.4,0.4l0.5,0.3l1,0.5l1.7,1.2l1.3,0.8l2,1.7l0.3,0.4l0.2,0.3l0.1,0.4l0.3,0.3l0.5,0.7l2.2,1.9l0.3,0.3l0.4,0.5l0.2,0.3l1.4,1.2l0.5,1.1l-0.1,0.4l-0.1,1.8l0.3,0.8l0.3,0.7l0.3,0.4l0.5,0.6l1.1,0.7l0.3,0.5l0.2,0.4l0,0.4l0.1,1.3l-0.1,0.5l-0.4,0.8l-0.2,0.5l0,0.4l-0.1,0.6l0.2,0.4l0.3,0.5l0.2,0.7l0.2,0.6l-0.1,1.1l-0.1,0.4l-0.3,0.7l-0.2,0.9l-0.1,0.6l0.2,1l-0.2,0.3l-0.2,0.4l-0.4,0.2l-0.7,0.4l-0.3,0.1l-0.4,-0.1l-0.3,-0.2l-0.3,-0.2l-0.7,-0.3l-0.3,0l-1.1,-0.3l-0.2,0.2l-0.2,0.4l-0.7,1.9l0,0.7l0,1.9l-0.3,0.4l-0.3,0.3l-0.7,0.4l-0.4,0.3l-0.4,0.4l-1.3,2.1l-0.3,0.2l-0.2,0.1l-0.5,0.7l1.2,0.5l0.7,0.7l1.6,2.3l0.2,0.7l0,0.6l-0.2,0.4l0.1,0.7l0.2,0.1l0.2,-0.2l0.4,-0.2l0.6,0.1l1,0.6l4.2,4.1l0.6,0.4l0.3,0.1l0.5,-0.3l0.5,0l0.5,0.1l0.6,0.3l0.5,0l1,-0.2l0.2,0.3l0.1,0.3l0,0.4l-0.1,0.4l-0.1,0.6l-0.3,0.5l-0.1,1l0.2,0.3l0.2,0.3l1,0.5l0.2,0.3l0.1,0.4l0.1,0.6l1.2,3.4l0.3,0.3l0.4,0.1l0.4,0l2.6,0.4l1.1,0.4l0.6,0.1l0.4,-0.2l0.4,-0.1l0.7,-0.1l0.8,-0.1l0.3,-0.1l0.7,-0.2z" id="ESCM"/>
   <path d="m407.6,331.7l0.7,1.7l-2.5,0.2l0.1,-1.3l0.8,-0.8l0.9,0.2zm-11.9,25.5l0.5,-0.9l0.4,-1.8l0.5,-1.1l0.2,-0.3l0.1,-0.4l-0.1,-0.4l-0.2,-0.7l-0.1,-0.4l0,-0.4l0.3,-0.3l0.3,0l0.2,0.2l0.5,0.7l0.2,0.2l0.2,0.1l0.7,-0.1l0.4,-0.1l0.5,-0.3l0.3,-0.5l0.4,-0.8l0.1,-0.5l0.1,-0.4l0,-0.3l0.1,-0.9l0.2,-0.3l0.3,-0.4l0.3,-0.1l0.2,-0.2l0.3,0l0.2,0l0.3,0.1l0.3,0.1l0.2,0l0.2,0l0.3,-0.1l1.1,-0.1l0.4,-0.2l0.1,-0.3l-0.2,-0.8l0.3,-1.1l0.2,-0.4l0,-0.4l0,-0.4l-0.1,-0.3l0,-0.7l0.1,-0.2l-0.1,-0.3l0,-0.3l0,-0.8l0,-0.4l0,-0.6l0.3,-0.5l0.3,-0.3l0.3,-0.2l0.1,-0.1l0.1,-0.2l0.1,-0.2l0.2,-0.6l0,-0.4l0,-0.3l-0.1,-0.4l-0.2,-0.4l0,-0.5l0.2,-0.3l0.3,0l0.2,0.2l0.3,0.6l0.3,0.3l0.3,0.1l0.4,0.1l0.7,-0.1l0.8,-0.3l0.4,-0.2l0.4,-0.1l0.4,-0.4l0.1,-0.3l0,-0.8l0.2,-0.9l0,-0.4l0.2,-1l1.2,-1.7l0.2,-0.3l1.5,-2.4l0.4,-0.4l0.8,-0.4l0.5,0l0.5,0.1l0.3,0.2l0.4,0l0.9,-0.2l0.3,-0.1l0.2,-0.2l0.2,-0.4l0.1,-0.4l0.3,-0.8l0.1,-0.4l0.1,-0.8l0,-0.4l0.2,-0.4l0.3,-0.5l0.1,-0.4l0,-0.4l-0.1,-0.7l0,-0.4l0.2,-0.4l0.5,-1l0.6,-0.7l0.3,-0.5l0.4,-0.5l0.4,-0.3l3.5,-1.2l0.4,-0.2l0.4,-0.3l0.5,-0.9l0.2,-0.4l0.3,-0.4l0.3,-0.8l0.4,-0.5l0.6,-0.5l1.8,-1.2l0.8,-0.9l0.7,-0.9l0.2,-0.4l0.3,-0.4l0.5,-0.4l1.2,-0.8l1.9,-0.4l0.2,1l1.5,1.5l0.4,0.7l0.4,0.4l0.3,0.2l0.9,0.5l0.3,0.1l0.4,0.2l0.5,1.8l0.6,1.6l0,0.8l-0.1,0.5l-0.3,0.7l-0.2,0.4l-0.1,0.4l-0.4,1.2l-0.1,0.4l-0.2,0.4l-0.1,0.5l-0.2,0.4l0,0.4l0.2,0.4l0,0.6l-0.2,0.3l-0.2,0.2l-0.2,0.1l-0.2,0.1l-0.1,0.2l-0.1,0.3l-0.3,1.5l0,0.4l-0.2,0.5l-0.3,0.5l-0.1,0.2l-0.2,0.2l0,0.2l0.1,0.2l0.3,0.2l1.2,0.3l0.3,0.4l0.2,0.5l0.1,0.6l0.1,0.7l0.1,0.4l0,0.4l-0.1,0.3l-0.5,0.7l-0.2,0.5l0.2,0.3l0.2,0.3l0.3,0.3l0.3,0.1l0.6,-0.1l0.6,0l0.2,-0.2l0.1,-0.3l0.3,0l0.4,0.5l0.5,1l0.5,0.5l0.4,0.3l0.3,0l0.3,-0.1l0.2,-0.1l0.3,0.1l-0.2,1.1l-0.1,1.5l0.2,0.4l0.2,0.4l0.4,0.2l0.5,0.5l0.1,0.4l0.1,0.4l0,0.3l-0.1,0.1l-0.1,0.2l-0.1,0.2l0.1,0.2l0.2,0.1l0.2,0l0.3,-0.1l0.2,-0.2l0.3,-0.1l0.3,-0.1l0.3,0.1l0.3,0.1l0.3,0.3l0.3,0.2l0.9,0.9l0.1,0.3l0,0.2l0,0.2l0.1,1.1l0,1.5l0.1,0.4l0.3,0.2l0.4,0.1l0.4,0.2l0.5,0.4l0.6,1.1l0.2,0.5l-0.1,0.5l-0.1,0.2l0,0.2l0,0.5l0,0.2l0,0.3l-0.2,0.2l-0.1,0.5l-0.1,0.3l0,0.2l-0.2,0.3l-0.6,0.6l-0.2,0.4l-0.1,0.6l-0.1,0.5l-0.1,0.4l-0.1,0.5l-0.1,0.6l0.1,0.7l0.3,0.4l0.3,0l0.3,-0.3l0.3,-0.3l0.3,-0.3l1,-0.8l0.4,-0.1l0.5,0.4l0.3,0.6l0.4,1l0.1,0.6l0,0.5l0,1.1l0.4,2.1l-0.3,-0.1l-0.1,0.1l-0.2,0.2l0.1,0.4l0.1,0.4l0.1,0.4l0.2,0.4l0.2,0.3l0.2,0.3l0.1,0.4l0,0.3l-0.2,0.4l-0.4,0.5l-0.6,0.5l-0.8,0.2l-2.1,0.1l0,-0.5l-0.2,-0.2l-0.7,-0.4l-1.6,0.5l-2.5,1.3l-1.7,0.3l-0.5,0.2l-0.4,-0.1l-0.8,-0.6l-1.4,0.6l-3.8,-0.1l-0.6,0.4l-0.2,0.6l-0.2,0.3l-0.4,0.2l-1.6,0.4l-0.3,0.1l-0.3,0.2l-0.3,0.3l-0.8,0.2l-0.6,0.3l-0.2,0.2l0.1,0.7l-0.1,0.3l-0.4,0.2l-0.9,0.3l-0.7,0.5l-0.5,0.2l-0.7,0l-0.5,0.2l-0.3,0.1l-0.2,0.3l-0.4,0.4l-0.6,0.6l-0.3,0.1l-0.7,0.5l-0.3,0.4l-0.5,0.1l-0.6,-0.1l-1.3,-0.8l-0.5,-0.4l-0.1,-0.4l0.3,-0.3l0.5,-0.3l2.5,-0.8l0.5,0l0.2,-0.2l0.7,-0.8l0.2,-0.1l0.7,-0.3l0.7,-0.5l1.9,-2l0.5,-0.3l0.3,-0.1l0.5,-0.3l0.2,-0.2l0,-0.2l0.4,-0.5l0.1,-0.2l0.3,-1.1l0.1,-0.3l0,-0.5l0,-0.2l-0.2,-0.3l-0.4,-0.4l-1.9,-0.9l-0.8,-0.1l-0.6,-0.2l-0.6,-0.1l-1,0.2l-0.5,-0.1l-0.2,-0.2l-0.3,-0.2l-0.6,-0.9l-0.3,-0.2l-0.3,-0.1l-0.7,0.2l-0.4,0l-0.4,-0.4l-0.2,-0.3l-0.2,-0.2l-0.2,-0.1l-2,-0.5l-1.2,-0.6l-2.2,-0.7l-0.5,-0.3l-0.4,-0.3l-0.2,-0.3l-0.2,-0.4l-0.3,-0.3l-0.4,-0.3l-0.9,-0.3l-0.3,-0.1l-0.4,0.3l-0.4,0.3l-0.5,0.2l-0.8,-0.2l-0.6,-0.2l-1.1,-1.1l-0.3,-0.3l-0.3,-0.3l-0.4,0l-1,0.6l-1,0.2l-0.4,0.3l-0.3,0.3l-0.3,0.6l-0.3,0.5l-0.3,0.3l-0.5,0.5l-0.2,0.1l-0.2,0l-0.6,-0.7l-0.6,-0.2l-0.3,-0.3l-0.3,-0.3l-0.3,-0.8l-0.1,-0.3l0,-0.4l0.1,-0.8l-0.1,-0.3l-0.1,-0.4l-0.3,-0.2l-0.2,0l-0.2,0l-0.5,0.8l-0.2,0.4l-0.3,0.4l-1.2,1.2l-0.2,0.5l-0.4,0.4l-0.6,0.4l-1.2,0.5l-0.5,0.3l-0.4,0.4l-0.2,0.3l-0.4,0.2l-0.5,0.1l-0.6,-0.2l-0.9,-0.6z" id="ESMD"/>
   <path d="m364.3,580.9l0.1,-0.1l0,-0.1l0,-0.1l0,-0.1l0,-0.1l0,-0.1l0.1,-0.2l0,-0.1l-0.1,0l-0.1,0l0,-0.1l0,-0.1l-0.1,0l0,0.1l-0.1,0l-0.2,-0.1l-0.1,-0.2l-0.1,0l-0.1,0l-0.1,0l0,-0.1l-0.1,0l-0.1,0l0,-0.1l0,-0.1l-0.1,-0.3l0,-0.1l0,-0.1l-0.1,-0.2l0.1,0l-0.1,0l0,-0.2l0,-0.1l0,-0.1l0,-0.1l-0.1,0l0,-0.1l-0.1,0l0,-0.1l0,0.1l-0.1,0l-0.3,0.1l-0.2,-0.8l0.5,-0.1l0.8,0.2l0.8,0.5l0.7,0.5l0.7,0.1l1.1,-0.5l-0.3,1.1l-1.8,1.3l-0.2,0.8l-0.3,-0.3z" id="ESCE"/>
   <path d="m462.6,609.6l0,-0.1l0,-0.1l0,-0.1l-0.1,-0.1l0,-0.1l0,0.1l0,0.1l0.1,0l0,0.1l0,0.1l-0.1,-0.1l-0.1,0l0.1,0.2l-0.1,0l-0.1,-0.1l0,0.1l0.1,0l-0.3,0.1l-0.6,0.2l-0.6,-0.6l-0.3,-0.2l0,-0.2l0,-0.8l0.1,-0.4l0.2,-0.2l0.2,-0.1l-0.1,-0.1l0.1,0l0,-0.1l-0.1,0l0,0.1l0,-0.1l0.1,-0.2l0.2,-0.1l1.4,2.7l-0.1,0z" id="ESML"/>
  </g>
  <g id="points">
   <circle class="28.449798919939386|-17.042010051327626" cx="90.9" cy="812.6" id="0"/>
   <circle class="34.91028065897241|-5.789853480226222" cx="545.5" cy="505.6" id="1"/>
   <circle class="42.98588283276368|3.2118717766549025" cx="909.1" cy="85.3" id="2"/>
  </g>
  <g id="label_points">
   <circle class="Navarra, Comunidad Foral de" cx="712.4" cy="102.8" id="svg_1"/>
   <circle class="Pas Vasco" cx="674.1" cy="79.7" id="svg_2"/>
   <circle class="La Rioja" cx="678.5" cy="122.1" id="svg_3"/>
   <circle class="Catalua" cx="841.2" cy="149.6" id="svg_4"/>
   <circle class="Aragon" cx="753.6" cy="165.5" id="svg_5"/>
   <circle class="Extremadura" cx="531.5" cy="288.2" id="svg_6"/>
   <circle class="Galicia" cx="464.1" cy="99.5" id="svg_7"/>
   <circle class="Castilla y Len" cx="578.4" cy="151" id="svg_8"/>
   <circle class="Comunidad Valenciana" cx="750.1" cy="282.8" id="svg_9"/>
   <circle class="Murcia" cx="718.9" cy="353.6" id="svg_10"/>
   <circle class="Andaluca" cx="584.7" cy="373.3" id="svg_11"/>
   <circle class="Asturias" cx="542.7" cy="67.1" id="svg_12"/>
   <circle class="Cantabria" cx="613.5" cy="74.3" id="svg_13"/>
   <circle class="Islas Canarias" cx="213.3" cy="815.8" id="svg_14"/>
   <circle class="Islas Baleares" cx="899.3" cy="266.8" id="svg_15"/>
   <circle class="Castilla la Mancha" cx="679.3" cy="277.2" id="svg_16"/>
   <circle class="Comunidad de Madrid" cx="627.2" cy="219.2" id="svg_17"/>
   <circle class="Ceuta" cx="563.3" cy="456.9" id="svg_18"/>
   <circle class="Melilla" cx="660.4" cy="486.7" id="svg_19"/>
  </g>
 </g>
</svg>