<?xml version="1.0"?>
<svg width="1000" height="589" xmlns="http://www.w3.org/2000/svg" xmlns:svg="http://www.w3.org/2000/svg" stroke-linejoin="round" version="1.1">
 <defs id="defs4">
  <style id="style6" type="text/css">path { fill-rule: evenodd; }</style>
 </defs>
 <metadata id="metadata8">image/svg+xml</metadata>
 <g class="layer">
  <title>Layer 1</title>
  <path d="m956.31,153.05l-0.29,-0.19l0,0.29l0.29,-0.1zm-2.91,-2.62l0.68,-0.29l0,-0.39l-0.68,0.68zm12.04,-7.57l-0.1,-1.36l-0.2,-0.78l0.3,2.14zm-42.42,-10l-0.68,0.29l-5.53,1.65l-1.94,0.68l-2.24,0.68l-0.77,0.29l0,0.29l0.29,5.05l0.29,4.66l0.29,4.27l0.49,0.29l1.74,-0.48l7.87,-2.33l0.19,0.48l13.98,-5.34l0.09,0.2l1.27,-0.49l4.46,-1.74l4.27,5.14l0,0l0.58,-0.48l0.29,-1.46l-0.09,2.33l0,0l0.97,0l0.29,1.16l0.87,1.65l0,0l4.56,-5.53l3.79,1.26l0.87,-1.94l6.22,-3.3l-2.62,-5.14l0.67,3.3l-3.2,2.42l-3.59,0.3l-7.18,-7.67l-3.21,-4.86l3.21,-3.39l-3.3,-0.2l-1.36,-3.2l-0.1,-0.19l-5.53,6.01l-12.23,4.08l-3.98,1.26l0,0z" data-id="MA" data-name="Massachusetts" fill="#f9f9f9" id="MA" stroke-width="0.97"/>
  <path d="m558.55,73.85l1.94,6.89l4.08,24.85l1.94,9.9l0.58,8.73l2.23,5.24l0.49,4.47l0.38,1.46l-0.09,0.29l-3.88,6.4l2.52,4.27l4.85,34.17l0.2,4.46l4.85,-0.29l19.12,-1.06l47.76,-3.98l4.75,-0.49l0,-0.48l-1.36,-7.48l-5.92,-3.01l-4.66,-4.85l-7.37,-4.47l-2.33,-0.19l-3.59,-2.72l0.97,-13.39l-3.4,-3.11l1.16,-5.43l6.22,-5.63l-1.07,-11.65l2.23,-2.52l0,0l7.57,-7.96l8.64,-11.07l3.3,-2.33l5.82,-2.81l6.12,-4.57l-4.08,0.78l-2.42,-1.84l-9.32,1.26l-1.46,-1.75l-8.35,3.4l-6.69,-2.82l-1.85,-2.23l-5.34,0.39l-3.59,-1.84l1.17,-1.36l-4.56,-1.46l-4.08,0l-6.5,2.82l-1.27,-1.95l-10.28,-1.45l-3.5,-8.74l-0.39,-2.62l-4.46,-1.26l0.39,7.47l-11.85,0.88l-14.65,0.58l-0.97,0.1z" data-id="MN" data-name="Minnesota" fill="#f9f9f9" id="MN" stroke-width="0.97"/>
  <path d="m465.66,72.97l-32.13,-2.13l-23.39,-2.23l-23.3,-2.72l-14.46,-1.94l-23.1,-3.59l-11.55,-1.95l-25.82,-4.95l-2.72,-0.58l-4.17,19.8l1.84,3.59l1.46,5.54l-0.88,0.77l1.85,5.05l2.52,2.14l7.19,12.03l0.67,2.04l2.92,-0.19l-3.4,15.91l-1.36,0.39l-1.84,5.34l9.61,0.68l0.77,4.47l5.44,13.29l0.97,0.78l3.78,7.76l0.97,-0.77l8.06,-0.1l10.19,1.07l2.53,-3.3l3,5.43l0.59,0.3l0.09,-0.59l1.36,-9.51l33.2,4.08l26.5,2.52l13.97,1.17l24.95,1.45l1.26,0.1l0.29,0l0.1,-1.36l0.29,-6.7l0.39,-8.83l0.1,-2.23l0.19,-3.89l1.55,-30.47l1.26,-23.69l0.1,-3.88l-1.84,-0.1z" data-id="MT" data-name="Montana" fill="#f9f9f9" id="MT" stroke-width="0.97"/>
  <path d="m556.51,73.85l-29.31,0.58l-20.48,-0.1l-17.57,-0.39l-20.58,-0.77l-1.07,-0.1l-0.1,3.88l-1.26,23.69l-1.55,30.47l-0.19,3.89l3.78,0.19l42.81,1.17l39.5,-0.3l16.4,-0.48l3.3,-0.19l-0.38,-1.46l-0.49,-4.47l-2.23,-5.24l-0.58,-8.73l-1.95,-9.9l-4.07,-24.85l-1.94,-6.89l-2.04,0z" data-id="ND" data-name="North Dakota" fill="#f9f9f9" id="ND" stroke-width="0.97"/>
  <path d="m416.35,515l-3.01,-2.23l-2.62,0.68l0.58,5.43l-3.59,4.47l3.11,7.08l0.87,7.28l3.59,2.33l2.23,-3.59l3.98,-2.91l4.86,-1.26l5.34,-4.57l-5.25,-4.46l-0.09,-2.72l-10,-5.53zm-17.67,-7.86l-1.45,-1.26l-1.36,1.84l2.81,-0.58zm-7.28,-4.18l0.39,-3.59l-1.84,-0.29l1.45,3.88zm6.12,-5.92l-1.65,0.78l1.16,3.69l2.53,0.19l0.77,3.2l2.72,1.17l6.02,-2.82l-5.63,-4.65l-5.92,-1.56zm-12.42,-3.98l-0.88,2.62l4.18,-0.09l3.88,0.97l-2.04,-3.21l-5.14,-0.29zm-12.23,-7.67l-2.24,-2.13l-4.27,3.3l2.72,5.05l1.94,-2.04l5.53,1.16l-0.48,-2.33l-3.2,-3.01zm-43.49,-4.27l0.58,-1.35l1.65,-0.88l-2.23,2.23zm15.43,-8.83l-6.79,2.53l-0.68,1.84l2.72,1.94l3.78,0.97l2.72,-5.34l-1.75,-1.94zm-47.07,-17.86l0,-0.1l-0.2,0l0.2,0.1zm-51.44,-12.71l0,0.19l0.09,0l-0.09,-0.19zm-26.99,-4.47l0.1,0.1l0,0l-0.1,-0.1zm-1.07,-1.94l0,0l0,0l0,0zm-0.87,-0.97l-0.19,0l0,0.1l0.19,-0.1zm0.68,0l-0.1,0l0.1,0l0,0zm-0.1,-0.1l0,0l0,0.1l0,-0.1zm-30.48,-25.04l-0.09,-0.29l0,0.1l0.09,0.19zm-66.48,-21.26l-0.29,0.29l0.19,0.1l0.1,-0.39zm-70.37,-49.01l0,0l0,0l0,0zm2.42,0.09l-0.09,0l0,0l0.09,0zm-0.48,-0.09l0,0l0,0l0,0zm-41.45,-18.15l0.29,-0.1l0,-0.2l-0.29,0.3z" data-id="HI" data-name="Hawaii" fill="#f9f9f9" id="HI" stroke-width="0.97"/>
  <path d="m309.09,52.88l-8.63,-1.75l-2.82,-0.67l-1.26,-0.3l-11.26,50.67l0.49,4.17l-0.39,4.37l0.19,0.97l0,0.1l0.1,1.84l3.3,3.6l-4.76,11.93l-10.09,13.21l-0.29,2.42l2.62,6.21l-9.22,38.25l-0.39,2.03l2.72,0.59l27.46,5.43l10.97,2.04l2.82,0.49l2.72,0.48l13.97,2.23l25.05,3.79l2.81,0.39l0.39,-3.21l0.87,-6.3l3.3,-25.24l1.75,-12.52l0.39,-3.2l-0.59,-0.3l-3,-5.43l-2.53,3.3l-10.19,-1.07l-8.06,0.1l-0.97,0.77l-3.78,-7.76l-0.97,-0.78l-5.44,-13.29l-0.77,-4.47l-9.61,-0.68l1.84,-5.34l1.36,-0.39l3.4,-15.91l-2.92,0.19l-0.67,-2.04l-7.19,-12.03l-2.52,-2.14l-1.85,-5.05l0.88,-0.77l-1.46,-5.54l-1.84,-3.59l4.17,-19.8l-0.1,0z" data-id="ID" data-name="Idaho" fill="#f9f9f9" id="ID" stroke-width="0.97"/>
  <path d="m192.13,77.05l0.1,-1.65l-0.19,0.1l0.09,1.55zm20.68,-8.83l0.58,-0.97l-0.68,-0.1l0.1,1.07zm-1.85,-1.75l0.59,-1.94l-0.59,-0.19l0,2.13zm7.09,-2.81l-0.1,-1.95l-1.65,2.53l1.75,-0.58zm0.19,-4.08l0.3,-1.94l-0.2,-0.49l-0.1,2.43zm0.3,-9.51l-0.1,-1.07l-0.39,-0.1l0.48,1.17l0.01,0zm3.1,-6.41l-0.87,-0.1l-1.75,2.72l2.62,-2.62zm-2.43,-2.62l0.49,-0.39l0.1,-0.29l-0.59,0.68zm-0.48,0.29l-0.29,-1.94l-0.88,1.65l1.17,0.29zm-0.49,-2.72l-0.87,-0.38l0.68,0.97l0.19,-0.59zm2.92,1.65l0,-1.26l-0.3,0.49l0.3,0.77zm0.87,-1.26l-0.39,-0.29l-0.1,0l0.49,0.29zm-5.53,-2.13l-0.49,-0.39l-0.19,-0.1l0.68,0.49zm3.59,-0.39l-2.62,0.68l0.68,0.19l1.94,-0.87zm-2.14,-0.2l-0.48,-0.58l-0.1,0.1l0.58,0.48zm2.04,-1.16l-0.39,0l0.49,0.19l-0.1,-0.19zm-19.02,49.79l3.49,3.79l-0.58,7.28l0.68,1.84l5.24,2.82l14.75,1.36l0.59,1.74l6.98,0.1l6.6,0.87l10.78,-1.16l5.34,0.87l1.45,-0.68l27.28,6.21l1.84,0.39l-0.19,-0.97l0.39,-4.37l-0.49,-4.17l11.26,-50.67l-1.55,-0.29l-22.72,-5.34l-19.8,-5.04l-22.42,-6.21l-6.7,-1.66l1.56,8.45l-1.46,2.72l-2.62,-1.36l2.52,11.74l-2.71,3.89l-1.27,3.59l0,3.69l-5.72,3.97l-2.43,-1.55l-2.33,1.17l4.27,-5.54l-1.07,3.79l2.43,-2.62l1.94,0.39l-0.58,-4.86l1.26,0.2l2.62,-5.83l-0.87,-0.87l-3.4,4.37l-2.23,0.1l2.43,-2.72l2.71,-0.68l-0.97,-4.95l-2.71,-0.68l-1.36,-2.33l-1.65,0.87l-8.93,-3.88l-7.87,-6.11l-2.13,5.92l-0.19,2.52l1.65,4.46l-1.07,14.47l-0.78,2.23l4.37,0.39l-4.37,3.1l2.33,1.17l-1.84,6.21l-0.88,-4.85l-1.65,5.63l2.24,2.71l2.42,-0.19l2.91,1.75l1.46,2.81l1.75,0l0,0z" data-id="WA" data-name="Washington" fill="#f9f9f9" id="WA" stroke-width="0.97"/>
  <path d="m372.19,309.9l-32.71,-4.07l-17.57,-2.53l-25.05,-3.98l-2.52,-0.38l0,0.19l-4.27,18.83l-2.23,-0.1l-3.4,-3l-4.27,3.59l-0.1,15.43l-1.55,3.3l0,0.29l0,0.1l-0.19,2.42l3.39,9.13l3.01,4.08l-5.43,3.2l-2.14,3.98l-3.49,8.54l-1.75,0.39l-0.1,7.08l3.01,2.24l-1.55,4.27l-3.5,0.19l0,0l-2.03,3.79l6.98,4.36l13.21,7.38l40.76,21.65l34.56,4.27l0.38,0l2.72,-28.64l0.68,-7.08l7.28,-75.13l0.39,-3.49l-2.52,-0.3z" data-id="AZ" data-name="Arizona" fill="#f9f9f9" id="AZ" stroke-width="0.97"/>
  <path d="m206.01,363.77l0.39,2.14l0,0.39l-0.39,-2.53zm-14.26,-8.34l0.68,1.45l0.38,-0.09l-1.06,-1.36zm16.98,-0.29l0.29,2.52l1.75,1.26l-2.04,-3.78zm-11.74,-13.79l-1.07,-0.29l0.87,0.39l0.2,-0.1zm-10.78,-2.91l-2.62,1.55l0.68,0.68l1.94,-2.23zm-5.04,-1.84l-0.2,0.77l0.88,0.2l-0.68,-0.97zm8.54,1.94l4.27,2.43l0.77,-0.68l-5.04,-1.75zm-33.1,-85.51l-0.1,0.09l0.1,-0.09l0,0zm10.38,0.48l-0.09,-0.29l0,0.39l0.09,-0.1zm56.01,-73.67l-3.79,-0.97l-41.54,-11.45l-15.43,-4.66l0,0.39l-0.88,9.6l-4.07,11.36l-6.8,8.45l-0.19,4.27l3.3,5.92l1.65,7.76l-2.33,6.31l0.39,6.31l-1.17,2.62l3.98,8.64l2.53,3.3l-0.2,9.42l6.02,5.72l3.5,-5.82l3.78,3.01l1.46,-1.36l-5.24,0.97l-0.1,4.95l1.07,6.21l-2.92,-2.81l-1.65,-3.79l-0.48,5.24l1.36,10.39l5.43,6.7l-3.59,4.65l0.58,5.93l3.89,6.01l6.79,18.64l2.14,1.16l-0.68,12.91l1.06,1.56l14.56,5.24l4.47,4.75l1.55,3.11l4.27,2.43l4.66,0.87l1.94,5.34l3.89,1.84l5.82,6.89l5.43,9.03l-0.38,8.35l3.01,3.98l39.69,3.88l0,0l3.5,-0.19l1.55,-4.27l-3.01,-2.24l0.1,-7.08l1.75,-0.39l3.49,-8.54l2.14,-3.98l5.43,-3.2l-3.01,-4.08l-3.39,-9.13l0.19,-2.42l0,-0.1l-2.52,-3.4l-7.77,-10.38l-15.04,-21.16l-20.97,-30.09l-11.84,-16.41l-11.45,-16.5l13.2,-56l0.87,-3.69z" data-id="CA" data-name="California" fill="#f9f9f9" id="CA" stroke-width="0.97"/>
  <path d="m489.63,255.55l0.39,-19.02l-4.66,-0.2l-23.68,-0.87l-2.33,-0.1l-1.94,-0.1l-28.83,-1.84l-19.22,-1.55l-23.97,-2.33l-2.33,-0.29l-0.29,2.52l-5.25,50.57l-1.84,17.66l-0.78,7.67l-0.19,2.53l3.01,0.29l48.92,4.27l21.55,1.36l21.45,0.97l3.1,0.09l1.94,0.1l4.08,0.1l1.94,0.1l6.12,0.19l1.55,0l0,-1.94l1.07,-51.35l0.1,-5.72l0,-1.85l0.09,-1.26z" data-id="CO" data-name="Colorado" fill="#f9f9f9" id="CO" stroke-width="0.97"/>
  <path d="m294.83,295.83l10.09,-62.8l5.15,-31.45l0.58,-3.1l-2.82,-0.49l-10.97,-2.04l-27.46,-5.43l-2.72,-0.59l-2.72,-0.58l-13.69,-3.01l-24.55,-5.82l-2.72,-0.68l-0.87,3.69l-13.2,56l11.45,16.5l11.84,16.41l20.97,30.09l15.04,21.16l7.77,10.38l2.52,3.4l0,-0.29l1.55,-3.3l0.1,-15.43l4.27,-3.59l3.4,3l2.23,0.1l4.27,-18.83l0,-0.19l0.49,-3.11z" data-id="NV" data-name="Nevada" fill="#f9f9f9" id="NV" stroke-width="0.97"/>
  <path d="m472.45,324.76l0.1,-2.53l0.1,-2.52l0.09,-2.53l-3.1,-0.09l-21.45,-0.97l-21.55,-1.36l-48.92,-4.27l-3.01,-0.29l-0.39,3.49l-7.28,75.13l-0.68,7.08l-2.72,28.64l0.39,0.09l13.4,1.27l1.26,-6.8l2.43,-1.94l27.17,2.43l0.2,0l-2.43,-4.76l12.33,0.87l30.77,1.75l19.22,0.87l3.3,-91.04l0.68,0.1l0.09,-2.62z" data-id="NM" data-name="New Mexico" fill="#f9f9f9" id="NM" stroke-width="0.97"/>
  <path d="m162.24,162.76l15.43,4.66l41.54,11.45l3.79,0.97l2.72,0.68l24.55,5.82l13.69,3.01l2.72,0.58l0.39,-2.03l9.22,-38.25l-2.62,-6.21l0.29,-2.42l10.09,-13.21l4.76,-11.93l-3.3,-3.6l-0.1,-1.84l0,-0.1l-1.84,-0.39l-27.28,-6.21l-1.45,0.68l-5.34,-0.87l-10.78,1.16l-6.6,-0.87l-6.98,-0.1l-0.59,-1.74l-14.75,-1.36l-5.24,-2.82l-0.68,-1.84l0.58,-7.28l-3.49,-3.79l-0.29,0.1l-0.68,0.48l-4.86,-2.52l-2.91,0.87l-1.94,-0.97l-2.04,8.35l-1.36,2.33l-6.02,14.66l-1.74,8.05l-1.07,0.1l-5.63,13.4l-3.79,5.72l-1.35,0.97l-3.5,6.8l-0.68,7.18l-2.13,6.41l1.26,5.82l0,0.1zm35.52,-79.69l-0.29,-0.88l-0.09,0.68l0.38,0.2z" data-id="OR" data-name="Oregon" fill="#f9f9f9" id="OR" stroke-width="0.97"/>
  <path d="m352.39,204.98l-25.05,-3.79l-13.97,-2.23l-2.72,-0.48l-0.58,3.1l-5.15,31.45l-10.09,62.8l-0.49,3.11l2.52,0.38l25.05,3.98l17.57,2.53l32.71,4.07l2.52,0.3l0.19,-2.53l0.78,-7.67l1.84,-17.66l5.25,-50.57l0.29,-2.52l-1.94,-0.2l-24.76,-3.01l-3.78,-0.48l2.43,-18.93l0.19,-1.26l-2.81,-0.39z" data-id="UT" data-name="Utah" fill="#f9f9f9" id="UT" stroke-width="0.97"/>
  <path d="m461.39,192.17l0.77,-15.14l0.97,-20.39l0.1,-2.52l-1.26,-0.1l-24.95,-1.45l-13.97,-1.17l-26.5,-2.52l-33.2,-4.08l-1.36,9.51l-0.09,0.59l-0.39,3.2l-1.75,12.52l-3.3,25.24l-0.87,6.3l-0.39,3.21l-0.19,1.26l-2.43,18.93l3.78,0.48l24.76,3.01l1.94,0.2l2.33,0.29l23.97,2.33l19.22,1.55l28.83,1.84l1.94,0.1l0.1,-2.52l0.48,-10.19l0.87,-17.77l0.39,-7.57l0.1,-2.52l0.1,-2.62z" data-id="WY" data-name="Wyoming" fill="#f9f9f9" id="WY" stroke-width="0.97"/>
  <path d="m690.46,328.06l-10.49,1.55l4.27,-6.8l-1.84,-3.78l-36.98,3.59l-31.26,2.52l-4.56,0.29l0.58,2.72l3.79,19.61l0.1,4.37l1.06,26.4l0.1,4.37l0.29,0.09l1.46,1.56l5.82,-0.2l0.59,8.54l0.19,2.43l3.01,-0.29l9.22,-0.68l36.59,-3.4l0.2,0l-0.1,-2.13l0.97,-0.68l-1.75,-3.3l3.69,-15.53l-1.45,-1.75l5.53,-6.11l-0.39,-5.25l4.08,-6.79l0,-0.1l-0.2,-0.19l3.5,-3.2l-0.97,-3.89l2.71,-4.27l-0.58,-3.98l2.91,-5.63l0,-0.09l-0.09,0z" data-id="AR" data-name="Arkansas" fill="#f9f9f9" id="AR" stroke-width="0.97"/>
  <path d="m661.53,197.7l-5.34,-2.81l-2.91,-3.98l-0.97,-5.73l0.78,-2.62l-2.82,-3.4l0,0l-4.75,0.49l-47.76,3.98l-19.12,1.06l-4.85,0.29l-2.04,0.1l1.65,10.78l-1.36,5.14l2.13,3.2l0,0.68l0.68,0.1l3.11,9.12l3.01,4.76l0.19,5.44l3.3,4.56l-0.58,1.94l3.01,12.23l0,0.29l0,0l19.9,-0.58l21.25,-1.85l20.87,-2.62l4.76,4.18l0.19,0.19l0.88,-0.39l-0.68,-3.78l3.59,-2.24l1.45,-9.9l-1.45,-0.68l0.87,-5.04l4.37,-0.88l4.85,-3.49l2.14,-6.12l0.1,-3.1l-3.89,-3.69l-1.16,-2.33l-3.69,-2.33l0.19,-0.48l0.1,-0.49z" data-id="IA" data-name="Iowa" fill="#f9f9f9" id="IA" stroke-width="0.97"/>
  <path d="m608.92,312.72l-2.42,-41.06l-4.37,-2.52l-0.39,-1.94l-3.49,-3.11l3.39,-4.17l-1.36,-2.43l-2.52,0.1l-2.33,-1.65l-0.97,-0.78l-3.3,0.2l-35.82,1.35l-16.4,0.39l-32.61,0l-13.11,-0.19l-3.68,-0.1l0,1.85l-0.1,5.72l-1.07,51.35l0,1.94l4.17,0.1l22.52,0.29l52.71,-0.78l37.56,-1.75l3.69,-0.29l-0.1,-2.52z" data-id="KS" data-name="Kansas" fill="#f9f9f9" id="KS" stroke-width="0.97"/>
  <path d="m653.67,242.45l-4.76,-4.18l-20.87,2.62l-21.25,1.85l-19.9,0.58l0,0l-0.1,0.58l2.43,4.66l2.23,1.55l2.62,4.66l0.39,0.39l0.97,0.78l2.33,1.65l2.52,-0.1l1.36,2.43l-3.39,4.17l3.49,3.11l0.39,1.94l4.37,2.52l2.42,41.06l0.1,2.52l0.19,2.53l0.1,2.52l0.2,2.62l0.09,2.52l4.56,-0.29l31.26,-2.52l36.98,-3.59l1.84,3.78l-4.27,6.8l10.49,-1.55l0.09,0l0,-0.78l0.2,-4.47l1.94,-2.42l-0.58,-2.72l-0.1,-0.1l-0.1,-0.09l0.39,-1.27l0.58,0.2l0.29,0.77l-0.09,0.3l0,0.09l0,0.78l0.38,0.1l0.78,-0.97l0,-0.1l0.1,-0.29l2.52,-1.56l0.39,-0.19l0.87,-7.96l-0.19,-0.39l-0.29,-0.09l-6.89,-5.63l1.06,-2.04l-1.94,-5.53l-3.49,-2.72l-6.6,-2.91l-4.17,-3.4l0.48,-6.99l1.26,-6.5l-6.99,0.38l-2.13,-2.23l-0.97,-4.46l-11.07,-9.32l-3.1,-8.64l0.77,-4.27l0,0l-0.19,-0.19z" data-id="MO" data-name="Missouri" fill="#f9f9f9" id="MO" stroke-width="0.97"/>
  <path d="m572.33,204.69l-3.01,-3.01l-10.58,-3.11l-3.4,-0.09l-5.14,1.45l-6.12,-3.88l-19.12,0.19l-27.85,-0.29l-32.91,-1.06l-2.91,-0.1l-0.1,2.52l-0.39,7.57l-0.87,17.77l-0.48,10.19l-0.1,2.52l2.33,0.1l23.68,0.87l4.66,0.2l-0.39,19.02l-0.09,1.26l3.68,0.1l13.11,0.19l32.61,0l16.4,-0.39l35.82,-1.35l3.3,-0.2l-0.39,-0.39l-2.62,-4.66l-2.23,-1.55l-2.43,-4.66l0.1,-0.58l0,-0.29l-3.01,-12.23l0.58,-1.94l-3.3,-4.56l-0.19,-5.44l-3.01,-4.76l-3.11,-9.12l-0.68,-0.1l-1.84,-0.19z" data-id="NE" data-name="Nebraska" fill="#f9f9f9" id="NE" stroke-width="0.97"/>
  <path d="m609.51,322.91l-0.2,-2.62l-0.1,-2.52l-0.19,-2.53l-3.69,0.29l-37.56,1.75l-52.71,0.78l-22.52,-0.29l-4.17,-0.1l-1.55,0l-6.12,-0.19l-1.94,-0.1l-4.08,-0.1l-1.94,-0.1l-0.09,2.53l-0.1,2.52l-0.1,2.53l-0.1,2.62l0.59,0l23.49,0.58l24.84,0.29l0.3,33.2l1.74,5.82l3.89,3.69l4.17,0.19l0.87,-1.75l5.73,5.25l7.47,0.77l1.36,1.56l2.72,-1.27l6.79,3.21l0,1.84l2.53,-0.1l2.62,-2.23l4.85,3.11l4.56,1.65l3.11,-4.27l9.9,4.66l3.69,-3.01l3.01,-1.17l2.42,0.58l9.13,-2.62l4.85,2.04l4.37,2.82l3.78,0.68l0.1,0l-0.1,-4.37l-1.06,-26.4l-0.1,-4.37l-3.79,-19.61l-0.58,-2.72l-0.1,-2.52l0.01,0z" data-id="OK" data-name="Oklahoma" fill="#f9f9f9" id="OK" stroke-width="0.97"/>
  <path d="m566.89,135.58l-16.4,0.48l-39.5,0.3l-42.81,-1.17l-3.78,-0.19l-0.1,2.23l-0.39,8.83l-0.29,6.7l-0.1,1.36l-0.29,0l-0.1,2.52l-0.97,20.39l-0.77,15.14l-0.1,2.62l2.91,0.1l32.91,1.06l27.85,0.29l19.12,-0.19l6.12,3.88l5.14,-1.45l3.4,0.09l10.58,3.11l3.01,3.01l1.84,0.19l0,-0.68l-2.13,-3.2l1.36,-5.14l-1.65,-10.78l2.04,-0.1l-0.2,-4.46l-4.85,-34.17l-2.53,-4.27l3.89,-6.4l0.09,-0.29l-3.3,0.19z" data-id="SD" data-name="South Dakota" fill="#f9f9f9" id="SD" stroke-width="0.97"/>
  <path d="m689,469.28l-1.26,0.29l-0.58,0.59l1.84,-0.88zm4.08,0l-0.68,-0.29l-0.2,0.29l0.88,0zm2.33,-0.77l-0.68,0l-0.39,0.48l1.07,-0.48zm-1.17,-0.68l-0.19,-0.29l-0.1,0.29l0.29,0zm7.77,-5.15l-0.29,0.2l0.48,0l-0.19,-0.2zm13.59,-5.72l0.58,-0.78l-0.68,0.87l0.1,-0.09zm1.94,-2.53l-0.2,0.1l0,0.1l0.2,-0.2zm-49.89,8.54l1.45,-1.84l-3.98,-1.07l-1.74,1.46l4.27,1.45zm40.28,-8.44l-0.39,-0.39l-0.1,0.19l0.49,0.2zm1.06,-1.75l-0.97,-0.29l0.3,0.97l0.67,-0.68zm7.96,-1.65l0,-0.29l0,0.1l0,0.19zm1.95,-1.26l-0.1,-0.1l0.1,0.2l0,-0.1zm-0.78,-0.19l-0.2,-0.1l-0.09,0.29l0.29,-0.19zm-6.8,-0.3l0.88,-0.29l0,-0.29l-0.88,0.58zm0.49,-0.48l0.49,-0.49l-0.1,-0.09l-0.39,0.58zm-3.4,-3.59l-0.19,0.19l0.1,0l0.09,-0.19zm-35.81,-54.36l-0.2,0l-36.59,3.4l-9.22,0.68l-3.01,0.29l0.1,2.33l1.94,18.73l3.2,4.47l0.1,2.62l3.1,5.43l2.53,7.96l-0.88,4.47l-0.68,11.06l-1.45,3.59l0.19,0l0.29,2.53l-1.65,2.33l12.04,-1.36l9.41,2.62l6.7,0.87l3.4,-2.42l-1.84,-2.43l6.21,-1.94l-0.2,2.13l3.21,-0.77l2.62,4.07l2.23,-0.77l5.82,3.98l-3.59,1.26l8.25,2.43l3.11,0l1.84,-2.24l3.98,-2.13l2.82,4.07l1.94,-3.68l-0.58,-5.83l5.24,2.04l0.58,1.75l6.21,0.77l3.11,2.53l-0.39,2.04l4.37,-4.08l-1.65,-2.14l-7.28,-1.84l-2.72,-1.55l-0.1,-2.91l3.01,0.38l2.33,-4.75l-3.01,-4.18l-1.65,3.98l-3.78,-0.68l2.62,-4.27l-1.75,-0.48l-4.27,3.01l-6.12,0.39l-1.74,-1.36l2.81,-4.95l3.3,-0.1l5.63,1.84l4.08,0.39l0,0l-2.23,-2.81l-4.27,-8.35l1.16,-4.66l-33.49,3.69l1.26,-1.26l-1.35,-3.5l2.03,-3.01l1.17,-7.57l7.38,-12.62l-3.6,-4.36l0.2,-3.21l-2.23,-5.24l0,-0.68z" data-id="LA" data-name="Louisiana" fill="#f9f9f9" id="LA" stroke-width="0.97"/>
  <path d="m573.98,536.94l-4.66,-17.57l0,3.3l4.66,14.27zm-1.07,-30.87l-3.3,6.21l-0.39,2.04l3.69,-8.25zm2.62,-4.56l3.11,-4.08l-2.23,1.36l-0.88,2.72zm10.97,-9.9l-7.28,3.78l2.04,-0.39l5.24,-3.39zm0.97,-1.36l2.04,-1.65l-0.78,0.19l-1.26,1.46zm-115.11,-162.87l-0.68,-0.1l-3.3,91.04l-19.22,-0.87l-30.77,-1.75l-12.33,-0.87l2.43,4.76l0.09,0.09l10.49,10.49l6.02,7.08l7.95,5.92l5.63,10.29l2.14,10.78l4.56,3l3.59,3.98l5.15,1.85l7.47,4.75l3.4,1.27l4.66,-4.66l1.45,-4.95l2.43,-4.76l7.57,-3.01l2.91,1.46l8.45,0.68l7.67,4.75l5.24,0.97l-1.46,2.72l3.01,1.94l2.81,3.4l0.59,3.59l1.84,2.43l4.27,10.29l4.27,3.59l3.3,5.43l4.18,4.27l1.84,0.59l1.55,11.06l4.57,2.53l0.19,3.49l1.16,-0.29l7.96,9.7l3.98,0.88l5.05,3.01l7.77,0l5.63,3.1l6.69,-1.45l-3.01,-2.82l-2.71,-8.15l-1.07,-7.09l-1.55,-2.33l0.67,-4.75l-2.03,-0.2l-2.72,-4.46l3.1,3.3l3.6,-1.26l1.94,-5.15l-3.89,-5.24l5.83,0.68l2.72,-4.17l-0.39,-1.46l2.42,-3.2l-0.58,2.81l2.72,-2.13l-1.07,-3.79l3.5,1.85l4.46,-2.53l-4.37,-4.56l2.72,1.07l5.05,0.29l6.6,-1.46l7.38,-4.95l4.46,-3.68l0.68,-2.72l2.72,-2.82l-1.46,-4.66l0.29,-2.91l4.86,-2.13l-0.39,5.14l2.91,0l-3.2,2.72l12.91,-6.8l2.13,-0.09l1.36,-6.22l0.39,0l1.45,-3.59l0.68,-11.06l0.88,-4.47l-2.53,-7.96l-3.1,-5.43l-0.1,-2.62l-3.2,-4.47l-1.94,-18.73l-0.1,-2.33l-0.19,-2.43l-0.59,-8.54l-5.82,0.2l-1.46,-1.56l-0.29,-0.09l-0.1,0l-3.78,-0.68l-4.37,-2.82l-4.85,-2.04l-9.13,2.62l-2.42,-0.58l-3.01,1.17l-3.69,3.01l-9.9,-4.66l-3.11,4.27l-4.56,-1.65l-4.85,-3.11l-2.62,2.23l-2.53,0.1l0,-1.84l-6.79,-3.21l-2.72,1.27l-1.36,-1.56l-7.47,-0.77l-5.73,-5.25l-0.87,1.75l-4.17,-0.19l-3.89,-3.69l-1.74,-5.82l-0.3,-33.2l-24.84,-0.29l-23.49,-0.58l-0.59,0l0.01,0z" data-id="TX" data-name="Texas" fill="#f9f9f9" id="TX" stroke-width="0.97"/>
  <path d="m937,143.34l-13.98,5.34l-0.19,-0.48l-7.87,2.33l-1.74,0.48l0.19,0.97l3.69,14.27l1.16,1.46l-2.52,3.1l1.75,1.65l0,0l5.63,-5.43l3.01,-4.18l0.58,1.17l14.17,-6.31l0.29,-0.29l-0.1,-2.33l-0.58,-2.04l-3.01,-8.44l-0.39,-1.07l-0.09,-0.2z" data-id="CT" data-name="Connecticut" fill="#f9f9f9" id="CT" stroke-width="0.97"/>
  <path d="m923.89,75.98l-1.26,1.56l-1.46,-0.3l-0.77,6.41l0,0.1l2.33,8.73l-0.2,1.75l-4.17,5.53l1.07,5.05l0,6.31l-0.78,5.82l4.37,15.92l0,0l0,0l3.98,-1.26l12.23,-4.08l5.53,-6.01l0,0l0,-1.56l0.29,-2.52l-0.68,0.29l-0.09,-0.58l-6.12,-7.48l-0.19,-0.68l-14.08,-33l0,0z" data-id="NH" data-name="New Hampshire" fill="#f9f9f9" id="NH" stroke-width="0.97"/>
  <path d="m946.51,152.08l-0.1,-2.04l-0.29,0.78l0.39,1.26zm1.94,-1.55l-1.26,-2.43l-0.1,2.52l1.36,-0.09zm-0.58,-3.01l0.68,1.75l0.87,1.55l0.58,-1.17l-0.87,-1.65l-0.29,-1.16l-0.97,0l0,0.68zm-10.78,-3.98l0.39,1.07l3.01,8.44l0.58,2.04l0.1,2.33l0.19,-0.29l4.66,-3.69l-0.87,-6.6l1.94,-0.39l0,0l-4.27,-5.14l-4.46,1.74l-1.27,0.49z" data-id="RI" data-name="Rhode Island" fill="#f9f9f9" id="RI" stroke-width="0.97"/>
  <path d="m923.02,132.86l-4.37,-15.92l0.78,-5.82l0,-6.31l-1.07,-5.05l4.17,-5.53l0.2,-1.75l-2.33,-8.73l-1.26,0.48l-5.34,1.94l-5.24,2.04l-12.04,4.37l-0.68,0.19l4.37,10.2l1.46,9.61l5.14,8.05l4.85,15.92l0.2,-0.1l0.77,-0.29l2.24,-0.68l1.94,-0.68l5.53,-1.65l0.68,-0.29l0,0z" data-id="VT" data-name="Vermont" fill="#f9f9f9" id="VT" stroke-width="0.97"/>
  <path d="m718.31,344.85l0.39,0.77l1.36,0.88l0.58,39.79l0.2,21.84l4.95,29.9l0.39,-0.1l4.36,0.87l1.17,-8.63l1.94,4.85l3.3,3.01l6.31,-3.69l-0.68,-0.58l0.19,0.09l-4.36,-9.99l41.93,-6.8l2.81,-0.48l0,-0.1l-2.62,-4.95l-0.19,-7.09l-2.14,-3.88l1.07,-7.57l1.75,-1.94l-7.19,-12.81l-13,-39.6l-0.1,-0.2l-2.91,0.49l-15.53,2.52l-7.77,0.97l-16.3,2.23l0.09,0.2z" data-id="AL" data-name="Alabama" fill="#f9f9f9" id="AL" stroke-width="0.97"/>
  <path d="m854.69,535.29l-0.2,0l0.1,0.09l0.1,-0.09zm-0.88,-0.1l0,0.1l0.1,0l-0.1,-0.1zm0.2,-0.1l0,-0.1l0,0.1l0,0zm-13.2,1.46l0,0l0,0.09l0,-0.09zm-0.2,0.09l0,-0.09l0,0.09l0,0zm0.1,-0.09l0,0l0,0l0,0zm-0.97,0.09l-0.1,0l0,0.1l0.1,-0.1zm27.56,-6.11l-0.09,0l0.09,0.19l0,-0.19zm2.63,-0.68l0,-0.19l-0.2,0.29l0.2,-0.1zm-0.97,-0.19l-0.39,-0.39l-0.1,0.09l0.48,0.3l0.01,0zm-0.3,0.77l-1.16,-1.45l0.68,1.26l0.48,0.19zm9.22,-5.72l0,0.38l0.2,-0.19l-0.2,-0.19zm1.36,-0.98l0.29,-0.48l-0.38,0.39l0.09,0.09zm0.29,-0.97l-0.09,0l0,0.1l0.09,-0.1zm-1.74,-0.29l-0.1,-0.09l0.1,0.09l0,0zm0.87,-1.45l-0.1,-0.1l0,0.19l0.1,-0.09zm-2.62,-0.1l-0.1,-0.1l0.1,0.1l0,0zm3.3,-2.23l-0.19,0.09l0.29,0.1l-0.1,-0.19zm0.39,0l-0.2,-0.2l0.1,0.29l0.1,-0.09zm-0.68,-0.2l-0.1,-0.09l0,0.19l0.1,-0.1zm3.59,-0.68l0,-0.09l-0.19,0.39l0.19,-0.3zm-4.08,0.39l-0.19,0l0.19,0.1l0,-0.1zm2.04,-1.16l-0.29,0l-0.1,0.09l0.39,-0.09zm0.78,-0.49l0,0l-0.1,0l0.1,0zm-8.15,0.39l0,-0.19l-0.1,0.19l0.1,0zm0.87,-0.29l-0.29,0l0.29,0.58l0,-0.58zm-2.33,0.1l0,-0.59l-0.49,0.1l0.49,0.49zm-1.36,-0.97l0.49,0.48l0,-0.19l-0.49,-0.29zm14.27,0.58l-1.75,0.77l0.58,0.1l1.17,-0.87zm-13.59,-0.88l-0.58,0l0,0.2l0.58,-0.2zm15.34,-4.85l0.09,-0.48l0.1,-1.27l-0.19,1.75zm0.09,-5.43l-0.38,-0.97l-0.2,0.38l0.58,0.59zm-22.42,2.42l-0.19,0.29l0.48,0.1l-0.29,-0.39zm-1.84,-0.87l-0.88,0.29l0.68,0.1l0.2,-0.39zm-1.94,0.19l0,-0.29l-0.1,0.1l0.1,0.19zm-2.04,-0.09l-0.58,0.38l0.77,0.39l-0.19,-0.77zm2.72,0.09l-0.1,-0.29l-0.49,-0.1l0.59,0.39zm-12.72,-9.51l-0.58,0.29l1.16,0.39l-0.58,-0.68zm-2.33,-3.11l-0.78,-1.16l0.3,0.87l0.48,0.29zm3.01,1.95l-1.36,-3.11l-0.97,-0.29l2.33,3.4zm-3.88,-3.89l-0.29,-0.77l-0.2,-0.49l0.49,1.26zm-8.06,-10.77l-1.75,-1.26l0.68,0.68l1.07,0.58zm43.68,-6.5l-7.09,-11.85l-0.38,0l7.47,11.85zm-49.02,-18.93l-0.29,-0.1l0.29,0.2l0,-0.1zm-0.58,-0.68l-0.1,0.1l0.1,0.09l0,-0.19zm-0.68,-0.97l0,-0.1l-0.1,0.1l0.1,0zm0.39,-0.39l0.29,0.19l0,-0.19l-0.29,0zm0.58,-0.39l-0.39,0.1l0.1,0l0.29,-0.1zm-0.68,-0.09l-0.29,-0.3l0.1,0.1l0.19,0.2zm-0.68,-1.07l-0.19,0l0.29,0.09l-0.1,-0.09zm0.68,-1.17l-0.39,0l-0.09,0.1l0.48,-0.1zm0.39,0.2l-0.48,-0.49l0.19,0.1l0.29,0.39zm-3.69,-4.18l-0.19,-0.09l0,0.09l0.19,0zm-4.17,0l-0.29,-0.39l0.09,0.49l0.2,-0.1zm-35.33,-3.2l2.91,-2.23l-3.2,2.13l0.29,0.1zm5.82,-4.66l0.29,-0.29l-1.16,0.49l0.87,-0.2zm-36.88,-6.5l-10.58,3.4l5.82,-1.66l4.76,-1.74zm26.3,-16.5l-2.81,0.48l-41.93,6.8l4.36,9.99l0.29,0.1l-1.06,3.98l3.1,-1.36l3.4,-3.01l5.82,-0.19l6.7,-2.43l4.56,0.68l-1.06,1.65l8.34,2.82l7.19,3.49l1.65,3.88l5.33,-1.16l12.62,-10.29l4.66,0.19l19.03,14.37l3.88,-0.78l4.07,5.44l0.78,8.64l-1.26,5.43l0.58,2.72l3.4,6.8l-1.55,-5.34l4.36,-0.1l0.39,3.88l-2.33,6.02l8.06,11.07l3.01,0.09l-2.53,-3.39l3.11,0.38l1.84,-1.16l-0.77,6.21l4.17,3.3l2.82,7.57l3.78,2.33l4.85,1.26l6.7,8.54l3.5,1.85l-4.66,0.29l2.13,2.43l7.67,-2.53l3.79,-2.13l3.49,-12.23l-1.75,-19.03l-0.38,-1.94l-9.32,-15.53l-7.96,-11.26l-4.47,-9.22l3.79,3.2l0.77,-0.58l1.66,8.06l4.27,6.11l-4.18,-8.15l0.2,-3.88l-12.52,-15.24l-3.01,-4.76l-3.98,-8.05l-2.72,-6.8l-2.14,-2.42l-0.48,-3.11l-0.1,-0.1l-6.7,-0.39l-2.62,2.04l-1.45,7.48l-1.36,-3.5l-45.82,5.73l-3.3,-5.15l0.1,-0.09z" data-id="FL" data-name="Florida" fill="#f9f9f9" id="FL" stroke-width="0.97"/>
  <path d="m845.85,396.1l-0.09,-2.91l-0.68,2.52l0.77,0.39zm1.07,-4.47l-0.39,-2.23l-0.29,1.36l0.68,0.87zm-45.42,-61.15l-1.27,0.29l-3.68,0.78l-13.59,2.81l-1.26,0.3l-1.36,0.19l-7.57,1.46l-2.04,0.38l-8.25,1.56l-1.75,0.19l0.1,0.2l13,39.6l7.19,12.81l-1.75,1.94l-1.07,7.57l2.14,3.88l0.19,7.09l2.62,4.95l0,0.1l-0.1,0.09l3.3,5.15l45.82,-5.73l1.36,3.5l1.45,-7.48l2.62,-2.04l6.7,0.39l0,0l-0.58,-10.48l1.26,-2.23l-0.68,-4.18l1.36,-3.98l2.04,-2.23l-1.46,-1.36l3.4,-4.17l-0.1,0l-5.82,-5.44l-7.96,-11.35l-4.37,-2.04l-18.73,-15.73l-4.56,-5.82l-8.84,-3.69l-0.48,-1.94l2.72,-5.34l0,0z" data-id="GA" data-name="Georgia" fill="#f9f9f9" id="GA" stroke-width="0.97"/>
  <path d="m716.76,442.78l-0.49,0.1l0,0.1l0.49,-0.2zm9.03,-1.16l-1.36,0l1.26,0.1l0.1,-0.1zm-11.26,0.97l-0.39,0.39l0.1,0.1l0.29,-0.49zm9.12,-0.78l-3.69,0l3.5,0.1l0.19,-0.1zm-40.47,-92.5l0,0.1l-4.08,6.79l0.39,5.25l-5.53,6.11l1.45,1.75l-3.69,15.53l1.75,3.3l-0.97,0.68l0.1,2.13l0,0.68l2.23,5.24l-0.2,3.21l3.6,4.36l-7.38,12.62l-1.17,7.57l-2.03,3.01l1.35,3.5l-1.26,1.26l33.49,-3.69l-1.16,4.66l4.27,8.35l2.23,2.81l0,-0.1l3.59,-4.07l7.57,-1.65l6.99,0.77l1.07,-1.35l0,-0.1l-4.95,-29.9l-0.2,-21.84l-0.58,-39.79l-1.36,-0.88l-0.39,-0.77l-0.19,0l-4.85,0.68l-8.55,1.16l-19.41,2.43l-2.13,0.19z" data-id="MS" data-name="Mississippi" fill="#f9f9f9" id="MS" stroke-width="0.97"/>
  <path d="m801.5,330.48l0,0l-2.72,5.34l0.48,1.94l8.84,3.69l4.56,5.82l18.73,15.73l4.37,2.04l7.96,11.35l5.82,5.44l0,0l0.97,-4.47l-1.55,-4.27l4.17,3.11l2.33,-1.85l-3.98,-3.3l4.86,-0.29l7.57,-6.4l-0.88,-1.65l4.66,-3.59l-0.48,-1.75l3.4,-2.14l0.19,-4.95l5.34,-9.9l3.59,-4.56l0.39,-0.19l-21.65,-13.69l-8.05,1.55l-10.97,-0.38l-5.44,-2.82l-32.22,10.19l-0.29,0z" data-id="SC" data-name="South Carolina" fill="#f9f9f9" id="SC" stroke-width="0.97"/>
  <path d="m661.43,198.19l-0.19,0.48l3.69,2.33l1.16,2.33l3.89,3.69l-0.1,3.1l-2.14,6.12l-4.85,3.49l-4.37,0.88l-0.87,5.04l1.45,0.68l-1.45,9.9l-3.59,2.24l0.68,3.78l-0.88,0.39l0,0l-0.77,4.27l3.1,8.64l11.07,9.32l0.97,4.46l2.13,2.23l6.99,-0.38l-1.26,6.5l-0.48,6.99l4.17,3.4l6.6,2.91l3.49,2.72l1.94,5.53l-1.06,2.04l6.89,5.63l0.29,0.09l-0.58,-0.58l1.94,-4.56l7.47,2.04l1.85,-2.14l-1.46,-4.27l6.12,-3.59l-1.65,-2.33l1.45,-3.3l0,-0.29l-0.39,-0.1l0.1,-8.64l2.14,-1.55l3.68,-8.64l-0.77,-3.78l-2.43,-4.57l1.36,-5.14l-6.79,-47.85l-0.98,-1.07l-2.52,-5.73l-2.04,-2.13l-0.87,-5.63l0,-0.2l-13.1,1.85l-7.87,0.97l-21.16,2.43l0,0z" data-id="IL" data-name="Illinois" fill="#f9f9f9" id="IL" stroke-width="0.97"/>
  <path d="m750.34,200.22l-14.85,2.62l-3.39,0.68l-12.04,1.94l-2.52,2.04l-3.79,1.75l-1.45,-0.1l-1.75,-0.87l-0.58,-0.58l6.79,47.85l-1.36,5.14l2.43,4.57l0.77,3.78l-3.68,8.64l-2.14,1.55l-0.1,8.64l0.39,0.1l0.39,-0.1l1.46,-2.72l3.59,0l4.36,-1.45l5.44,2.04l0.58,-2.24l3.11,-2.33l4.66,0.68l2.52,-4.95l6.89,0.59l-0.09,-2.82l6.11,-8.06l-0.97,-3.68l4.27,-0.1l5.24,-4.17l-1.26,-4.76l0.19,-0.19l-0.19,-1.65l-5.82,-34.37l-2.62,-14.65l-0.3,-1.55l-0.29,-1.27z" data-id="IN" data-name="Indiana" fill="#f9f9f9" id="IN" stroke-width="0.97"/>
  <path d="m693.17,317.18l-0.29,-0.77l-0.58,-0.2l-0.39,1.27l0.1,0.09l1.07,-0.09l0.09,-0.3zm66.39,-63.47l-0.19,0.19l1.26,4.76l-5.24,4.17l-4.27,0.1l0.97,3.68l-6.11,8.06l0.09,2.82l-6.89,-0.59l-2.52,4.95l-4.66,-0.68l-3.11,2.33l-0.58,2.24l-5.43,-2.04l-4.37,1.45l-3.59,0l-1.46,2.72l-0.39,0.1l0,0.29l-1.45,3.3l1.65,2.33l-6.12,3.59l1.46,4.27l-1.85,2.14l-7.47,-2.04l-1.94,4.56l0.58,0.58l0.19,0.39l-0.87,7.96l-0.39,0.19l-2.52,1.56l-0.1,0.29l2.82,-0.39l19.6,-2.62l-0.97,-3.88l3.3,-0.1l39.51,-5.24l27.76,-4.66l0.39,-0.29l0.67,-0.78l7.28,-3.88l5.63,-7.38l0.78,-2.52l3.69,-2.91l4.66,-5.92l0.68,-0.97l-0.29,-0.1l-2.43,0l-3.11,-1.75l-5.53,-6.7l-1.94,-6.79l0,-0.19l-0.19,-0.2l-4.08,-2.33l-1.84,-3.1l-3.69,3.59l-2.33,0.58l-2.91,-1.17l-2.53,1.95l-5.24,-2.33l-1.36,0.58l-4.95,-4.27l-2.52,-1.26l-4.76,0.58l-0.78,0.78z" data-id="KY" data-name="Kentucky" fill="#f9f9f9" id="KY" stroke-width="0.97"/>
  <path d="m890.21,332.23l-1.07,1.07l0.2,0.19l0.87,-1.26zm0.78,-5.63l-0.49,0.78l0.2,0.77l0.29,-1.55zm5.82,-9.03l-1.45,0.97l-0.78,1.17l2.23,-2.14zm12.52,-6.11l-0.58,-0.39l-1.26,-0.1l1.84,0.49zm-2.62,-0.58l-0.87,0l-1.46,0.77l2.33,-0.77zm3.01,1.06l2.82,-6.99l-1.94,2.92l-0.88,4.07zm4.18,-9.22l1.26,-1.84l-0.68,0l-0.58,1.84zm8.15,-7.57l-2.14,-10.77l1.85,5.63l0.29,5.14zm-11.84,-24.56l-0.2,0.1l-0.29,0.1l0,0l0.1,0l5.34,9.03l4.17,4.17l-9.12,-13.4l0,0zm-1.75,0.59l-0.78,0.19l0,0l0.2,0.1l1.65,0l-0.2,-0.58l0,0l-0.29,0.09l-0.29,0l0,0l0,0.2l-0.19,0.09l-0.1,-0.09l0,0zm-89.78,22.13l-0.49,1.45l0.1,4.18l-1.07,-0.1l-2.52,5.14l-2.82,0.3l-5.24,5.14l-2.33,-0.87l-3.01,4.46l-7.96,7.18l-3.88,0.97l-4.08,3.79l-0.19,2.52l-3.59,1.94l0.1,4.28l0,0.97l1.26,-0.3l13.59,-2.81l3.68,-0.78l1.27,-0.29l0.29,0l32.22,-10.19l5.44,2.82l10.97,0.38l8.05,-1.55l21.65,13.69l0.39,-0.29l9.99,-4.08l0.1,-5.34l3.59,-6.5l3.88,-3.69l8.06,-5.34l1.07,-1.94l2.13,0.97l0.97,-6.41l-1.16,2.24l-4.08,1.35l-3.88,0.1l4.76,-3.49l-1.46,-1.56l1.65,-3.49l-9.12,-1.46l-0.39,-0.48l7.76,-1.46l2.53,1.26l3.2,-0.29l2.62,-1.94l1.94,-3.78l1.75,-0.49l-0.29,-5.34l-2.23,-2.13l-2.24,2.04l0.49,5.14l-1.65,-6.31l-1.26,-0.29l-9.61,3.98l4.27,-4.17l0.19,-1.65l4.47,-1.07l1.26,-3.3l3.01,1.75l-3.21,-4.76l-2.23,-1.94l0,0l-38.82,11.06l-24.75,6.31l-25.05,4.66l-0.09,-0.19z" data-id="NC" data-name="North Carolina" fill="#f9f9f9" id="NC" stroke-width="0.97"/>
  <path d="m818.19,206.63l-2.43,-10.48l-0.48,-2.14l-2.72,-11.94l-3.49,2.24l-7.48,5.72l-4.85,5.92l-3.79,0.59l-6.98,3.97l-3.89,-2.32l-11.74,-1.36l0,0l-6.21,1.55l-6.12,1.46l-6.4,1.35l-0.97,0.3l0.29,1.55l2.62,14.65l5.82,34.37l0.19,1.65l0.78,-0.78l4.76,-0.58l2.52,1.26l4.95,4.27l1.36,-0.58l5.24,2.33l2.53,-1.95l2.91,1.17l2.33,-0.58l3.69,-3.59l1.84,3.1l4.08,2.33l0.19,0.2l0,0l4.17,-2.04l1.46,-3.21l-1.17,-3.3l3.31,-5.04l2.42,-0.39l-0.29,-4.27l3.98,-5.44l0.68,0.78l3.59,-2.72l3.11,-4.66l0.48,-21.25l0.2,-0.1l-0.49,-2.04z" data-id="OH" data-name="Ohio" fill="#f9f9f9" id="OH" stroke-width="0.97"/>
  <path d="m786.26,300.49l-27.76,4.66l-39.51,5.24l-3.3,0.1l0.97,3.88l-19.6,2.62l-2.82,0.39l0,0.1l-0.78,0.97l-0.38,-0.1l0,-0.78l0,-0.09l-1.07,0.09l0.1,0.1l0.58,2.72l-1.94,2.42l-0.2,4.47l0,0.78l0,0.09l-2.91,5.63l0.58,3.98l-2.71,4.27l0.97,3.89l-3.5,3.2l0.2,0.19l2.13,-0.19l19.41,-2.43l8.55,-1.16l4.85,-0.68l0.19,0l-0.09,-0.2l16.3,-2.23l7.77,-0.97l15.53,-2.52l2.91,-0.49l1.75,-0.19l8.25,-1.56l2.04,-0.38l7.57,-1.46l1.36,-0.19l0,-0.97l-0.1,-4.28l3.59,-1.94l0.19,-2.52l4.08,-3.79l3.88,-0.97l7.96,-7.18l3.01,-4.46l2.33,0.87l5.24,-5.14l2.82,-0.3l2.52,-5.14l1.07,0.1l-0.1,-4.18l0.49,-1.45l-1.56,0.29l-5.53,1.55l-6.6,1.36l-16.6,3.4l-1.74,0.29l-0.39,0.29z" data-id="TN" data-name="Tennessee" fill="#f9f9f9" id="TN" stroke-width="0.97" transform="matrix(1 0 0 1 0 0)"/>
  <path d="m908.75,270.98l0.29,0l0.29,-0.09l0,0l-0.19,-0.49l-0.39,0.58l0,0zm-3.3,-10.87l0,0.49l0.49,-0.29l-0.49,-0.2zm1.75,-3.4l-0.1,-0.77l0,0l0.1,0.77zm-0.58,1.17l-0.2,1.26l-0.29,0.49l0.49,-1.75zm0.87,-2.52l0.1,-0.59l-0.2,0.59l0.1,0zm0.58,-2.63l0.29,-0.67l-0.48,1.74l0.19,-1.07zm0.1,-1.45l0.39,-2.14l-0.49,0.49l0.1,1.65zm1.75,-9.61l0.19,-0.87l-0.1,0.19l-0.09,0.68zm-0.39,-2.23l-1.26,0.48l-1.95,0.88l-0.68,0.87l0.3,0.1l-2.33,14.46l0.87,2.33l1.36,-6.02l2.52,-7.86l1.17,-5.15l0,-0.09zm1.94,-0.78l-0.29,0.1l-0.1,0.39l-0.48,3l0.38,-1.06l0.49,-2.43zm-101.43,37.18l-0.68,0.97l-4.66,5.92l-3.69,2.91l-0.78,2.52l-5.63,7.38l-7.28,3.88l-0.67,0.78l1.74,-0.29l16.6,-3.4l6.6,-1.36l5.53,-1.55l1.56,-0.29l0.09,0.19l25.05,-4.66l24.75,-6.31l38.82,-11.06l0,0l-0.29,-0.49l-0.1,-0.29l0.68,0.68l0,0l0,0l0.78,-0.19l-0.1,-0.1l-0.68,-3.3l0.49,0.1l1.55,2.91l0,0l0,0l0.29,-0.1l0.2,-0.1l-0.39,-0.77l-3.98,-6.12l-4.95,0.88l-2.23,1.84l-2.14,-1.94l-7.28,-2.43l-5.05,-0.19l9.81,-0.88l5.43,3.69l1.56,-2.42l-4.37,-5.54l3.1,0.2l-1.65,-4.47l-3.88,0.2l-9.22,-7.48l-1.16,0l13,6.41l-0.87,-4.47l0.87,-1.45l-6.6,-2.52l-5.72,-0.39l-2.82,-2.53l-2.33,1.46l-0.87,-6.7l0.97,0.2l-0.2,-5.44l-0.19,-0.19l-0.19,0.09l-0.2,-0.09l-0.48,-0.39l-0.3,-0.29l-3.1,-1.36l-3.2,-2.33l-4.47,-1.17l-0.29,-0.09l0,0.09l-0.58,4.08l-9.03,-3.88l0.19,5.63l-4.95,9.41l-3,3.3l-1.95,5.73l-5.92,-2.04l-2.91,13.2l-2.33,4.47l-0.39,5.82l-1.74,2.82l-6.51,1.94l-5.34,4.17l-2.52,0.39l-2.43,2.13l-6.11,-2.23l-1.07,-3.01l-0.19,-0.09z" data-id="VA" data-name="Virginia" fill="#f9f9f9" id="VA" stroke-width="0.97"/>
  <path d="m705.79,134.8l-2.42,3.01l-1.46,4.37l0.68,2.43l3.2,-9.81zm-55.71,-22.81l1.45,-2.04l-1.06,0.98l-0.39,1.06zm2.23,-3.2l-0.49,-0.58l-1.06,0.68l1.55,-0.1zm-21.16,5.44l-2.23,2.52l1.07,11.65l-6.22,5.63l-1.16,5.43l3.4,3.11l-0.97,13.39l3.59,2.72l2.33,0.19l7.37,4.47l4.66,4.85l5.92,3.01l1.36,7.48l0,0.48l0,0l2.82,3.4l-0.78,2.62l0.97,5.73l2.91,3.98l5.34,2.81l-0.1,0.49l0,0l21.16,-2.43l7.87,-0.97l13.1,-1.85l-0.39,-1.45l0,-4.56l-2.62,-4.86l-0.68,-6.11l1.26,-6.8l-0.68,-5.24l2.33,-6.5l-0.87,-1.07l0.19,-6.02l1.27,-4.56l-1.46,-1.55l-2.82,0.97l-1.55,4.08l-3.69,2.13l1.17,-5.14l3.3,-4.37l0.19,-1.94l0.1,-0.1l-4.66,-4.66l0,-6.6l-5.24,-4.27l-7.18,-0.49l-7.38,-1.94l-15.92,-4.85l-3.11,-1.75l-0.29,0.29l-4.95,-0.67l-1.65,0.97l0.68,-7.09l-7.96,4.08l-9.7,1.55l-0.1,-0.19zm19.02,-5.15l-0.19,-0.68l-0.68,0.29l0.87,0.39zm-3.49,-0.68l0.29,-0.58l-0.19,-0.19l-0.1,0.77zm7.09,-1.65l-0.3,-1.36l-0.29,1.65l0.59,-0.29z" data-id="WI" data-name="Wisconsin" fill="#f9f9f9" id="WI" stroke-width="0.97"/>
  <path d="m836.73,223.71l-13.78,3.4l-4.27,-18.44l0,0l-0.2,0.1l-0.48,21.25l-3.11,4.66l-3.59,2.72l-0.68,-0.78l-3.98,5.44l0.29,4.27l-2.42,0.39l-3.31,5.04l1.17,3.3l-1.46,3.21l-4.17,2.04l0,0l0,0.19l1.94,6.79l5.53,6.7l3.11,1.75l2.43,0l0.29,0.1l0.19,0.09l1.07,3.01l6.11,2.23l2.43,-2.13l2.52,-0.39l5.34,-4.17l6.51,-1.94l1.74,-2.82l0.39,-5.82l2.33,-4.47l2.91,-13.2l5.92,2.04l1.95,-5.73l3,-3.3l4.95,-9.41l-0.19,-5.63l9.03,3.88l0.58,-4.08l0,-0.09l0,0l-2.82,-4.86l-5.82,-0.68l-3.4,2.63l0,1.94l-2.91,0.68l-4.27,3l-2.23,0.49l-4.47,6.31l-2.23,-10.19l-1.94,0.48z" data-id="WV" data-name="West Virginia" fill="#f9f9f9" id="WV" stroke-width="0.97"/>
  <path d="m893.8,207.7l0.39,1.45l8.06,23.01l9.22,-2.72l-0.1,-0.19l0.2,0l0.29,0.09l0,0l0.19,-0.09l-0.19,-0.39l-2.33,-6.21l-11.36,-10.78l0.49,-7.47l0,0l-2.33,0l-1.75,1.36l-0.78,1.94l0,0z" data-id="DE" data-name="Delaware" fill="#f9f9f9" id="DE" stroke-width="0.97"/>
  <path d="m878.18,229.15l0.48,0.39l0.2,0.09l0.19,-0.09l0.19,0.09l0.68,0.39l0.2,0.29l0,0.68l0.19,0.39l1.26,-2.33l-1.36,-0.78l-1.65,0.1l-0.38,0.78z" data-id="DC" data-name="District of Columbia" fill="#f9f9f9" id="DC" stroke-width="0.97"/>
  <path d="m911.57,238.27l0.68,-5.24l-0.59,3.88l-0.39,1.65l-0.09,0.2l0.29,-0.1l0.1,-0.39zm0.48,-9.02l-0.19,0.09l0.19,0.58l0,1.17l0,-1.84l0,0zm-73.38,-6.02l2.23,10.19l4.47,-6.31l2.23,-0.49l4.27,-3l2.91,-0.68l0,-1.94l3.4,-2.63l5.82,0.68l2.82,4.86l0,0l0.29,0.09l4.47,1.17l3.2,2.33l3.1,1.36l0.3,0.29l0.38,-0.78l1.65,-0.1l1.36,0.78l-1.26,2.33l0,0.1l-1.84,5.63l6.02,3.88l6.01,0.29l3.98,1.85l-1.65,-4.66l-5.14,-1.75l-1.26,-3.98l3.2,4.27l2.62,0.39l-2.33,-2.33l-1.84,-6.89l0.48,-3.98l-2.04,-4.37l2.14,-1.75l1.55,-5.63l-0.58,8.35l1.65,2.82l1.55,-3.3l0.88,5.43l-1.65,3.98l4.75,1.75l-4.07,1.36l2.13,3.98l3.5,1.16l1.94,-3.4l-0.2,4.76l3.3,-0.1l2.14,2.43l0.09,0l0.68,-0.87l1.95,-0.88l1.26,-0.48l-0.1,-0.2l2.52,-7.47l0,-0.29l-0.48,-1.94l0,-0.1l-9.22,2.72l-8.06,-23.01l-0.39,-1.45l-1.65,0.48l-6.89,2.14l-37.95,10.58l-6.89,1.84l-1.75,0.49z" data-id="MD" data-name="Maryland" fill="#f9f9f9" id="MD" stroke-width="0.97"/>
  <path d="m916.81,207.31l-0.49,-1.17l0,1.17l0.49,0zm0.97,-3.59l0.29,-2.91l-0.58,2.52l0.29,0.39zm-3.98,-29.8l-10.19,-2.52l-1.75,-0.49l-1.65,-0.39l0,0l-4.08,9.03l1.75,2.13l-0.1,6.51l1.85,0.29l3.78,9.9l-0.19,0.29l-4.76,6.99l0.49,5.34l11.45,3.88l0.1,4.46l2.62,-3.68l0.39,-5.34l2.71,-1.85l-1.06,-3.98l2.04,-4.75l0,-10.39l-0.68,-3.39l-4.57,0.09l1.17,-4.66l0.68,-7.47l0,0z" data-id="NJ" data-name="New Jersey" fill="#f9f9f9" id="NJ" stroke-width="0.97"/>
  <path d="m913.51,181.78l-1.46,2.04l-0.39,0.58l1.85,-2.62zm13.39,-4.75l4.85,-4.28l0,-0.19l-4.85,4.47zm-12.71,3l0,-3.3l-0.29,1.75l0.29,1.55zm22.52,-15.53l-1.17,-0.29l-0.19,0.88l1.36,-0.59zm2.62,-1.74l-0.1,0.97l0.19,-0.58l-0.09,-0.39zm-2.72,0.09l-6.51,6.02l-9.99,4.27l-2.62,2.24l-0.2,2.13l-2.72,2.23l0.39,2.92l4.18,-1.65l6.11,-4.96l6.8,-3.59l10.28,-9.7l-7.28,5.53l-2.32,0.97l3.88,-6.41zm3.01,-4.07l0.39,-0.58l-1.17,1.35l0.78,-0.77zm-109.1,-3.59l-1.56,-0.2l1.17,1.56l0.39,-1.36zm32.22,-29.71l0.2,-1.06l-0.78,0.97l0.58,0.1l0,-0.01zm0.49,-6.98l-0.39,0.19l-0.49,1.07l0.88,-1.26zm-41.06,55.13l0.68,2.91l5.14,1.26l29.51,-8.05l29.7,-8.93l5.44,4.17l1.07,2.43l6.31,2.71l0.19,0.39l1.65,0.39l1.75,0.49l10.19,2.52l-0.2,-0.49l0.88,3.98l1.94,-0.48l1.07,-4.37l0,-0.1l-1.75,-1.65l2.52,-3.1l-1.16,-1.46l-3.69,-14.27l-0.19,-0.97l-0.49,-0.29l-0.29,-4.27l-0.29,-4.66l-0.29,-5.05l0,-0.29l-0.2,0.1l-4.85,-15.92l-5.14,-8.05l-1.46,-9.61l-4.37,-10.2l-0.58,0.3l-20.29,6.79l-4.07,4.37l-4.57,8.73l0.2,1.95l-6.02,9.12l3.69,1.26l1.07,6.89l-4.27,5.63l-12.82,7.77l-2.42,-0.97l-9.52,1.36l-8.83,5.33l0.49,2.82l3.1,2.72l-1.74,8.54l-6.99,8.15l-0.1,0.1z" data-id="NY" data-name="New York" fill="#f9f9f9" id="NY" stroke-width="0.97"/>
  <path d="m900.02,170.13l-6.31,-2.71l-1.07,-2.43l-5.44,-4.17l-29.7,8.93l-29.51,8.05l-5.14,-1.26l-0.68,-2.91l-1.65,1.26l-2.62,1.84l-4.76,4.86l-0.58,0.48l2.72,11.94l0.48,2.14l2.43,10.48l0.49,2.04l0,0l4.27,18.44l13.78,-3.4l1.94,-0.48l1.75,-0.49l6.89,-1.84l37.95,-10.58l6.89,-2.14l1.65,-0.48l0,0l0.78,-1.94l1.75,-1.36l2.33,0l0.29,-0.88l3.78,-4.27l0.39,-0.68l0.29,-0.19l-3.78,-9.9l-1.85,-0.29l0.1,-6.51l-1.75,-2.13l4.08,-9.03l0,0l-0.19,-0.39z" data-id="PA" data-name="Pennsylvania" fill="#f9f9f9" id="PA" stroke-width="0.97"/>
  <path d="m946.8,118.4l-0.1,0l0.2,0.1l-0.1,-0.1zm7.18,-20.68l-0.77,-1.16l0,0.58l0.77,0.58zm-1.36,-1.06l0,-0.97l-0.09,-0.59l0.09,1.56zm3.5,-4.08l-0.2,-0.1l0.1,0.29l0.1,-0.19zm9.7,-4.85l-0.19,-1.46l-0.39,0.68l0.58,0.78zm-2.42,0.58l0.09,-1.07l-1.16,0.2l1.07,0.87zm3.59,-3.2l-0.39,0l0,0.19l0.39,-0.19zm-4.85,1.45l-0.88,-0.19l-0.1,0.87l0.98,-0.68zm4.95,-3.01l0.87,0.68l-0.29,-0.77l-0.58,0.09zm-2.62,0.1l-0.88,1.65l1.17,-0.58l-0.29,-1.07zm-4.18,0.1l-0.39,0.58l0.29,0.87l0.1,-1.45zm5.73,-3.21l-0.1,-0.77l-0.29,0.48l0.39,0.29zm-0.49,0.39l-0.87,-0.77l0,0.68l0.87,0.09zm-5.43,2.24l-0.2,-1.07l-0.39,0.87l0.59,0.2zm9.22,-3.4l-1.46,2.13l-0.09,-1.55l1.55,-0.58zm7.08,-6.51l-0.68,-0.97l-0.38,0.2l1.06,0.77zm2.62,-4.36l-0.58,-0.29l-0.09,0.29l0.67,0zm1.27,-7.57l-0.88,0l0.97,0.29l-0.09,-0.29zm1.45,0.97l-0.29,-1.75l-0.78,-0.1l1.07,1.85zm-1.55,-1.56l-0.19,-1.84l-0.68,1.26l0.87,0.58zm-56.3,15.24l14.08,33l0.19,0.68l6.12,7.48l0,-0.1l0.97,-0.29l0.19,-5.53l1.55,-1.94l0.97,-5.15l-0.87,-0.87l1.65,-5.05l5.63,-2.62l3.69,-4.47l1.36,-7.76l5.92,-0.39l-0.78,-3.98l7.38,-2.81l0.48,-4.37l1.75,0.39l4.85,-3.98l2.14,-5.15l-4.95,-4.95l-5.24,-1.06l-1.94,-3.98l0,-2.33l-3.21,0.97l-3.59,-1.26l0,-3.98l-9.7,-20.97l-7.09,-3.69l-7.86,6.6l-2.14,-0.39l-1.84,-3.39l-2.52,0.97l-3.6,17.86l1.27,5.82l1.06,11.84l-2.81,9.13l1.94,1.45l-2.33,4.47l-2.52,-0.39l-0.2,0.19z" data-id="ME" data-name="Maine" fill="#f9f9f9" id="ME" stroke-width="0.97"/>
  <path d="m719.96,138.2l-0.48,-0.78l-0.1,0.97l0.58,-0.19zm1.56,-1.75l-1.17,-1.55l-0.19,0.68l1.36,0.87zm0.97,-6.99l-0.97,-0.87l0,0.2l0.97,0.67zm-2.43,76l12.04,-1.94l3.39,-0.68l14.85,-2.62l0.3,1.27l0.97,-0.3l6.4,-1.35l6.12,-1.46l6.21,-1.55l-0.1,-0.29l3.2,-6.31l-0.29,-5.25l3.59,-9.02l2.82,1.65l1.07,-2.04l-0.29,-7.77l-2.62,-4.85l-3.89,-10.29l-3.39,-3.78l-1.75,-0.49l-6.31,4.37l0.68,0.87l-3.3,6.22l-3.2,-0.59l-0.97,-6.5l1.35,-0.49l2.82,-6.5l0.29,-11.45l-4.37,-9.71l-9.7,-1.65l-0.97,-1.45l-9.03,-2.63l-4.08,5.05l0.39,4.37l-3.11,3.88l0.68,6.02l-3.01,2.14l0,-7.58l-2.71,5.73l-3.21,5.05l-2.13,1.65l1.07,5.34l-1.36,5.53l0.77,6.89l-0.97,3.4l6.99,13.39l0.88,5.15l-0.88,9.51l-4.66,10.68l-0.58,0.38zm20.77,-87.45l-2.52,0.2l1.55,1.16l0.97,-1.36zm-14.75,2.52l-0.78,0l0.88,0.39l-0.1,-0.39zm16.98,-12.32l-0.97,-1.56l-0.38,0.1l1.35,1.46zm-87.94,7.08l3.11,1.75l15.92,4.85l7.38,1.94l7.18,0.49l5.24,4.27l0,6.6l4.66,4.66l0,-0.1l3.78,-10.96l4.57,-3.21l3.49,-3.88l0.58,3.49l3.59,-5.53l8.64,-3.3l0.68,-1.36l8.74,1.07l3.4,1.75l1.65,-4.27l1.55,0.97l6.79,-1.07l-1.65,-2.72l-3.01,-1.75l0.59,-6.3l-5.92,3.3l-5.44,-0.68l-1.75,-4.18l0.59,-1.36l-7.38,3.5l-4.76,0.29l-8.54,5.24l-0.97,1.94l-5.24,-1.26l-3.3,1.46l-6.6,-5.73l-14.66,-4.47l-0.29,-1.74l-9.41,9.02l-5.34,1.36l-7.57,5.73l-0.3,0.19zm34.37,-22.03l-11.36,5.63l3.78,3.69l1.46,-3.69l3.88,-4.76l2.24,-0.87zm-12.72,-13.3l-7.77,5.34l-0.38,2.62l6.11,-4.46l2.04,-3.5z" data-id="MI" data-name="Michigan" fill="#f9f9f9" id="MI" stroke-width="0.97"/>
  <path d="m101.28,542.95l-0.48,0.2l0.39,0.09l0.09,-0.29zm3.59,0.59l0,0l0,0.09l0,-0.09zm-1.74,-1.65l0,0.29l0.19,-0.1l-0.19,-0.19zm-0.88,-0.49l0,-0.1l0,0l0,0.1zm1.85,0.97l0,-0.19l-0.1,0.09l0.1,0.1zm-0.2,-0.19l0,-0.1l-0.19,0l0.19,0.1zm-75.71,-63.77l-0.09,0.68l0.19,1.94l-0.1,-2.62zm-0.48,-2.62l0.1,0.87l0.09,-0.29l-0.19,-0.58zm76.19,65.22l0.1,-0.58l-0.39,0.19l0.29,0.39zm11.07,4.76l-0.1,-0.1l0.2,0.39l-0.1,-0.29zm-7.18,-3.4l-1.07,-0.97l0,2.33l1.07,-1.36zm2.42,2.14l-0.09,-0.68l-1.65,-0.1l1.74,0.78zm5.83,1.36l-0.1,0.19l0.19,0l-0.09,-0.19zm0.38,0.09l-0.19,0l0.39,0.1l-0.2,-0.1zm1.17,0.39l-0.1,0l-0.09,0l0.19,0zm-85.71,-65.81l0.39,0.1l0.29,-0.1l-0.68,0zm83.57,64.45l-0.77,-0.1l0.29,0.3l0.48,-0.2zm-88.81,-72.02l-1.36,-0.58l-0.09,0.29l1.45,0.29zm91.24,72.22l-0.19,-0.1l0,0.1l0.19,0zm5.92,1.16l-3.78,0.29l-0.88,0.39l4.66,-0.68zm-104.05,-88.62l-1.07,0l0.2,0.29l0.87,-0.29zm115.8,93.09l0,-0.39l-0.2,0l0.2,0.39zm5.04,0.09l0.2,-0.19l-0.2,-0.2l0,0.39zm3.79,1.07l0.19,-0.1l-0.09,0l-0.1,0.1zm-3.11,-1.75l-0.09,-0.39l-0.2,0l0.29,0.39zm6.51,1.46l-0.1,0.1l0.1,0l0,-0.1zm-127.45,-98.91l-1.45,0.2l1.84,1.65l-0.39,-1.85zm122.3,97.45l0.2,-0.58l-0.1,0l-0.1,0.58zm16.41,-1.45l0.09,-0.2l-0.19,-0.09l0.1,0.29zm-2.43,-0.88l-3.4,3.01l2.43,-0.19l2.81,-2.23l-1.84,-0.59zm6.11,1.07l-0.68,-0.19l0.49,0.39l0.19,-0.2zm1.36,0.1l-1.07,-0.29l-0.19,0.09l1.26,0.2zm-3.69,-1.36l-1.06,0l1.84,0.48l-0.78,-0.48zm4.47,0.97l-0.1,-0.19l-0.39,0.09l0.49,0.1zm-2.91,-1.16l-0.39,-0.2l0,1.07l0.39,-0.87zm12.42,2.42l-0.1,-0.1l-0.19,0l0.29,0.1zm0.2,-0.1l0,-0.09l-0.2,-0.1l0.2,0.19zm-1.65,-0.58l0.19,0.39l0,-0.1l-0.19,-0.29zm0.87,0l-0.87,-0.29l1.06,0.78l-0.19,-0.49zm1.26,-0.97l0,0l0,0.1l0,-0.1zm11.55,1.46l-0.19,-0.39l-0.1,0l0.29,0.39zm104.44,-6.51l-0.19,-0.19l0.09,0.19l0.1,0zm-117.64,3.01l0,-0.09l-0.1,0.09l0.1,0zm120.46,-4.75l0.29,0.39l0.19,0l-0.48,-0.39zm-106.09,7.28l-0.1,0.09l0,0.3l0.1,-0.39zm-12.04,-1.75l0.19,-0.78l-0.09,0l-0.1,0.78zm123.76,-7.76l-0.88,0.48l0.78,0.39l0.1,-0.87zm-122.01,7.27l-0.1,-0.19l0.1,0.19l0,0zm-7.28,-2.13l-2.43,0.48l-2.13,2.82l4.56,-3.3zm17.37,3.69l-0.58,0.48l0.58,-0.09l0,-0.39zm111.92,-9.32l-0.2,-0.39l-0.1,0.2l0.3,0.19zm-121.24,6.79l-0.68,-0.09l0.68,0.68l0,-0.59zm114.83,-5.53l-0.19,0.2l0.19,0.68l0,-0.88zm-113.27,5.44l-0.29,0.09l0.38,0.3l-0.09,-0.39zm7.18,2.04l-0.29,0l-0.2,-0.2l0.49,0.2zm-7.96,-2.04l-0.48,-0.29l0.19,0.29l0.29,0zm6.5,1.06l-0.87,0.3l-0.58,1.55l1.45,-1.85zm105.41,-6.79l0,0.68l0.39,-0.49l-0.39,-0.19zm-116.86,3.69l0.78,-0.2l-0.1,0l-0.68,0.2zm-0.97,-0.58l-0.19,-0.2l0,0.1l0.19,0.1zm117.83,-3.79l-0.19,-0.1l-0.1,0.3l0.29,-0.2zm-106.47,5.82l-0.2,-0.09l-0.19,0.29l0.39,-0.2zm105.5,-5.62l0.1,-0.49l-0.19,-0.1l0.09,0.59zm-0.77,-0.49l-0.29,0.39l0.48,0.1l-0.19,-0.49zm-100.66,4.76l-0.19,-0.2l-0.1,0l0.29,0.2zm100.37,-6.51l0.77,0.29l0.29,-0.38l-1.06,0.09zm1.16,-0.68l-0.29,0.2l0.48,0.29l-0.19,-0.49zm-2.23,0.59l-0.2,-0.39l-0.19,0.19l0.39,0.2zm9.7,-3.6l-1.26,3.6l1.26,-0.78l0,-2.82zm-115.02,7.48l-0.09,0l0,0l0.09,0zm106.48,-6.12l-0.87,0.88l0.19,0.97l0.68,-1.85zm-90.36,7.77l0,-0.39l-0.1,0.19l0.1,0.2zm89.3,-8.74l2.81,4.27l6.31,3.98l-1.46,-3.39l-6.01,-5.15l-1.65,0.29zm-93.19,7.19l-0.09,-0.3l-0.2,0.1l0.29,0.2zm96.49,-8.84l-0.39,1.46l0.68,-0.49l-0.29,-0.97zm2.03,0l-0.09,0.97l0.87,0.29l-0.78,-1.26zm-95.41,7.57l-0.48,-0.09l-0.49,0.19l0.97,-0.1zm10,0.78l-0.39,0.68l0.19,-0.58l0.2,-0.1zm1.45,0.1l-0.87,0.09l0.49,0.59l0.38,-0.68zm-58.82,-12.43l0.97,0.49l-0.19,-0.2l-0.78,-0.29zm38.54,9.61l0.09,-0.09l-0.09,0.09l0,0zm0.29,-0.09l0.1,0l0,-0.1l-0.1,0.1zm100.36,-7.48l0.49,1.85l0.97,-0.59l-1.46,-1.26zm-97.74,6.41l0.1,-0.1l0,0l-0.1,0.1zm93.57,-5.63l0.48,4.46l0.97,-0.97l-1.45,-3.49zm0.48,-1.46l2.24,3.11l-0.29,-2.04l-1.95,-1.07zm-6.89,0.78l-0.58,1.84l0.78,-1.26l-0.2,-0.58zm-77.65,4.75l-0.1,-0.09l0.1,0.09l0,0zm9.22,0.2l-0.19,-0.29l0.19,0.39l0,-0.1zm68.63,-6.41l3.88,6.41l-0.58,-4.37l-3.3,-2.04zm-63.19,3.4l-0.29,0.29l0.48,0.19l-0.19,-0.48zm-1.26,0.19l0.09,-0.29l-0.38,0l0.29,0.29zm-0.97,0l-2.53,1.65l-3.1,4.08l1.55,1.65l7.18,-5.34l-3.1,-2.04zm61.24,-6.31l-0.68,-0.38l0,0.58l0.68,-0.2zm-61.83,5.15l0.1,0.39l0.68,0.39l-0.78,-0.78zm63.68,-6.99l-1.94,0.97l1.84,0.58l0.1,-1.55zm-1.26,0l-0.2,-0.19l-0.1,0.19l0.3,0zm5.92,-1.55l-0.78,-0.29l-0.19,0.58l0.97,-0.29zm-4.18,0.68l-0.68,-0.1l0,0.19l0.68,-0.09zm2.14,-0.78l3.98,5.82l-1.07,-5.33l-2.91,-0.49zm-64.06,6.31l-2.33,1.75l1.06,1.16l3.11,-2.33l-1.84,-0.58zm-26.41,-3.69l-0.09,-0.1l0,0.1l0.09,0zm-1.06,-0.48l-0.1,-0.49l0,0.19l0.1,0.3zm29.8,1.26l-0.2,0.09l0,0.1l0.2,-0.19zm-0.98,-0.2l-0.09,0l-0.2,0.29l0.29,-0.29zm2.33,-0.77l-0.29,-0.2l0,0.1l0.29,0.1zm0.78,-0.1l-0.29,-0.19l0,0.09l0.29,0.1zm-1.26,-0.29l-0.39,0l0,0.1l0.39,-0.1zm19.31,-1.94l0.1,-0.29l-0.19,0.19l0.09,0.1zm5.93,-3.11l1.16,-1.45l-0.39,0.29l-0.77,1.16zm-11.85,-0.19l0.39,-0.29l0.1,-0.39l-0.49,0.68zm0,-1.07l-0.38,0.29l0.68,-0.19l-0.3,-0.1zm-15.91,0l-0.1,-0.39l-0.1,0l0.2,0.39zm15.53,-0.1l-0.39,0.39l-0.2,0.39l0.59,-0.78zm10.67,-1.16l0.1,0l0.1,0l-0.2,0zm0.49,0l-0.2,-0.1l0,0.1l0.2,0zm-1.17,-0.1l0.1,0.1l0,-0.1l-0.1,0zm-7.96,0.58l0.39,-0.39l-0.48,0.39l0.09,0zm5.92,-1.16l0,0l0,0l0,0zm-4.75,0.29l-2.33,3.78l3.01,-3.49l-0.68,-0.29zm-3.01,0.48l-0.29,-0.38l-0.1,0.19l0.39,0.19zm7.38,-0.87l-0.2,-0.1l0.1,0.1l0.1,0zm2.52,0.2l0,-0.68l-0.19,0.29l0.19,0.39zm-71.24,-7.48l-4.66,-0.19l3.2,3.39l1.46,-3.2zm66.29,6.89l0.19,0.68l0.49,-0.77l-0.68,0.09zm-3.88,-0.09l-0.29,2.13l0.48,-1.36l-0.19,-0.77zm-84.25,-16.12l0.09,-0.39l0,0l-0.09,0.39zm83.28,14.76l0.09,0.29l0.2,-0.1l-0.29,-0.19zm-0.49,0.39l-0.19,-0.59l-0.29,0.2l0.48,0.39zm4.56,-1.17l0,-0.39l-0.29,0.2l0.29,0.19zm-4.36,-0.58l0,0.97l0.29,-0.68l-0.29,-0.29zm-7.38,-1.17l0,-0.29l0,0l0,0.29zm-50.67,-12.03l0.2,-0.59l-0.1,0.1l-0.1,0.49zm0.29,-0.97l-0.09,-0.1l-0.1,0.1l0.19,0zm4.27,-2.33l0,-0.1l0,0l0,0.1zm0,-0.39l-0.09,-0.2l0,0l0.09,0.2zm1.75,-2.52l0,0l-0.1,0l0.1,0zm0.58,0.19l-0.38,-0.19l0,0.09l0.38,0.1zm-0.58,-0.39l0,-0.19l-0.19,0.19l0.19,0zm-15.53,-4.56l-0.19,-0.49l-0.1,-0.29l0.29,0.78zm1.46,-1.75l0.09,0l0.1,0.1l-0.19,-0.1zm-2.62,-0.48l-0.78,-0.97l0.58,0.77l0.2,0.2zm-1.56,-1.56l-0.19,0l0.29,0.1l-0.1,-0.1zm0.2,-1.06l0,0l0,0l0,0zm-0.2,-0.1l0,0l0.2,0.1l-0.2,-0.1zm25.72,7.67l-1.06,0.09l0.58,0.3l0.48,-0.39zm-26.78,-9.42l-0.78,2.91l2.43,0.39l3.2,3.3l1.94,-0.87l-6.79,-5.73zm16.98,1.17l0,-0.2l0,0.1l0,0.1zm-4.85,-10.29l-0.2,-0.1l0.1,0.1l0.1,0zm2.81,0.97l0.29,-0.1l-0.09,0l-0.2,0.1zm1.94,-0.58l0.3,0l0.87,-0.39l-1.17,0.39zm3.5,-1.07l0.19,-0.2l-0.29,0.2l0.1,0zm0.48,-0.1l0.59,-0.29l-0.49,0.1l-0.1,0.19zm1.46,-0.58l-0.49,0.1l0,0.09l0.49,-0.19zm0.58,-0.1l0,0l0,0l0,0zm61.73,-17.47l-0.38,-0.29l-0.68,-0.29l1.06,0.58zm-50.86,-2.13l0.88,-1.17l-0.49,0.39l-0.39,0.78zm1.17,-1.36l0.39,-0.59l-0.2,0.2l-0.19,0.39zm0.58,-0.78l0.68,-0.58l-0.39,0.19l-0.29,0.39zm30.58,0.19l0.48,0.49l0.29,0l-0.77,-0.49zm-15.63,-6.4l-3.98,3.3l-2.43,-0.68l-5.63,3.2l-1.07,-0.68l-6.4,7.18l-6.5,1.46l0.58,3.49l2.91,3.98l5.44,5.25l-0.88,2.03l4.08,1.75l-2.14,0.39l-2.62,-2.04l1.36,3.01l-1.75,1.07l-5.53,-5.05l-4.37,0.78l-7.47,2.81l3.4,3.79l-0.49,2.33l2.23,2.71l7.38,2.92l5.34,-2.72l0.87,2.04l-1.45,6.11l-4.47,0l-5.24,2.33l-0.29,-1.65l-2.72,1.07l-1.26,2.81l-4.47,3.4l0,4.95l1.75,0.78l-1.36,4.17l5.83,5.05l3.69,-1.55l-0.78,6.21l1.07,1.36l4.46,0.97l1.65,1.84l3.88,0.29l1.85,1.94l3.98,-1.16l-1.85,2.52l-1.45,5.15l-11.84,7.67l-1.56,1.55l-2.23,-0.88l-3.59,0.88l-5.15,3.4l8.06,-2.33l1.17,1.74l10.38,-3.39l0.29,1.35l4.08,-4.07l8.54,-5.92l0.68,0.39l7.47,-5.93l-1.94,-2.32l2.53,-4.18l6.6,-7.86l5.04,-0.97l1.56,1.07l-6.12,1.74l-1.65,6.51l0.2,3.49l2.13,-0.19l10.29,-6.21l0.78,-2.33l-0.88,-3.6l3.11,0.78l2.23,-1.46l6.41,3.89l-0.49,1.07l14.56,1.84l3.4,-1.07l0.97,1.46l12.62,6.02l2.13,-1.27l0.2,-7.28l1.65,3.3l8.15,5.92l0.68,2.43l7.09,3.98l1.84,5.15l1.75,-3.98l3.59,6.98l2.43,-3.98l-1.95,-4.95l-7.47,-0.77l-11.45,-10.97l-6.22,-4.56l-4.75,4.66l-2.82,0l-6.5,-4.27l-6.41,-0.3l-9.12,-57.55l-1.55,-2.72l-3.69,-2.23l-5.53,1.06l-4.27,-0.87l-5.44,-2.13l-5.73,0.38l-1.45,-2.71l-4.56,-0.68l-0.78,-1.65l-2.04,2.33l-0.58,-4.37z" data-id="AK" data-name="Alaska" fill="#f9f9f9" id="AK" stroke-width="0.97"/>
 </g>
</svg>